<mxfile modified="2022-06-15T07:00:15.683Z" host="app.diagrams.net" agent="5.0 (Macintosh; Intel Mac OS X 10_15_7) AppleWebKit/537.36 (KHTML, like Gecko) Chrome/102.0.0.0 Safari/537.36" etag="_kuVndv4_KMwq304sV62" version="20.0.1" type="github">
  <diagram id="Ht1M8jgEwFfnCIfOTk4-" name="Page-1">
    <mxGraphModel dx="1234" dy="825" grid="0" gridSize="10" guides="1" tooltips="1" connect="1" arrows="1" fold="1" page="1" pageScale="1" pageWidth="1654" pageHeight="2336" background="none" math="0" shadow="0">
      <root>
        <mxCell id="0" />
        <mxCell id="1" parent="0" />
        <mxCell id="dnq7VN7bOO2wTZYb34gf-131" value="" style="rounded=0;whiteSpace=wrap;html=1;fontSize=10;fontColor=#333333;strokeColor=none;fillColor=#f5f5f5;" vertex="1" parent="1">
          <mxGeometry x="1277" y="172.38" width="158" height="122" as="geometry" />
        </mxCell>
        <mxCell id="dnq7VN7bOO2wTZYb34gf-34" value="" style="rounded=0;whiteSpace=wrap;html=1;fontSize=10;fontColor=#333333;strokeColor=none;fillColor=#f5f5f5;" vertex="1" parent="1">
          <mxGeometry x="731.5" y="168" width="158" height="122" as="geometry" />
        </mxCell>
        <mxCell id="dnq7VN7bOO2wTZYb34gf-1" value="&lt;font style=&quot;font-size: 25px;&quot;&gt;组织&lt;/font&gt;" style="text;html=1;align=center;verticalAlign=middle;resizable=0;points=[];autosize=1;strokeColor=none;fillColor=none;" vertex="1" parent="1">
          <mxGeometry x="217" y="117" width="60" height="23" as="geometry" />
        </mxCell>
        <mxCell id="dnq7VN7bOO2wTZYb34gf-2" value="" style="shape=image;verticalLabelPosition=bottom;labelBackgroundColor=#ffffff;verticalAlign=top;aspect=fixed;imageAspect=0;image=data:image/svg+xml,PHN2ZyB4bWxuczpjYz0iaHR0cDovL2NyZWF0aXZlY29tbW9ucy5vcmcvbnMjIiB4bWxuczpkYz0iaHR0cDovL3B1cmwub3JnL2RjL2VsZW1lbnRzLzEuMS8iIHhtbG5zOmlua3NjYXBlPSJodHRwOi8vd3d3Lmlua3NjYXBlLm9yZy9uYW1lc3BhY2VzL2lua3NjYXBlIiB4bWxuczpyZGY9Imh0dHA6Ly93d3cudzMub3JnLzE5OTkvMDIvMjItcmRmLXN5bnRheC1ucyMiIHhtbG5zOnNvZGlwb2RpPSJodHRwOi8vc29kaXBvZGkuc291cmNlZm9yZ2UubmV0L0RURC9zb2RpcG9kaS0wLmR0ZCIgeG1sbnM6c3ZnPSJodHRwOi8vd3d3LnczLm9yZy8yMDAwL3N2ZyIgeG1sbnM9Imh0dHA6Ly93d3cudzMub3JnLzIwMDAvc3ZnIiB4bWxuczp4bGluaz0iaHR0cDovL3d3dy53My5vcmcvMTk5OS94bGluayIgdmVyc2lvbj0iMS4xIiBpZD0ic3ZnMTUxMDczIiBpbmtzY2FwZTp2ZXJzaW9uPSIwLjkyLjMgKDI0MDU1NDYsIDIwMTgtMDMtMTEpIiBzb2RpcG9kaTpkb2NuYW1lPSJkZXZlbG9wZXJfMi5zdmciIHg9IjBweCIgeT0iMHB4IiB2aWV3Qm94PSIwIDAgMzEuMDIgNTUuOTEiIHN0eWxlPSJlbmFibGUtYmFja2dyb3VuZDpuZXcgMCAwIDMxLjAyIDU1LjkxOyIgeG1sOnNwYWNlPSJwcmVzZXJ2ZSI+JiN4YTs8c29kaXBvZGk6bmFtZWR2aWV3IGJvcmRlcmNvbG9yPSIjNjY2NjY2IiBib3JkZXJvcGFjaXR5PSIxIiBmaXQtbWFyZ2luLWJvdHRvbT0iMCIgZml0LW1hcmdpbi1sZWZ0PSIwIiBmaXQtbWFyZ2luLXJpZ2h0PSIwIiBmaXQtbWFyZ2luLXRvcD0iMCIgZ3JpZHRvbGVyYW5jZT0iMTAiIGd1aWRldG9sZXJhbmNlPSIxMCIgaWQ9Im5hbWVkdmlldzE1MTA3NSIgaW5rc2NhcGU6Y3VycmVudC1sYXllcj0ic3ZnMTUxMDczIiBpbmtzY2FwZTpjeD0iMjAuNjgwMTYiIGlua3NjYXBlOmN5PSIzNy4yNzI5NDkiIGlua3NjYXBlOnBhZ2VvcGFjaXR5PSIwIiBpbmtzY2FwZTpwYWdlc2hhZG93PSIyIiBpbmtzY2FwZTp3aW5kb3ctaGVpZ2h0PSIxMDE3IiBpbmtzY2FwZTp3aW5kb3ctbWF4aW1pemVkPSIxIiBpbmtzY2FwZTp3aW5kb3ctd2lkdGg9IjE5MjAiIGlua3NjYXBlOndpbmRvdy14PSItOCIgaW5rc2NhcGU6d2luZG93LXk9Ii04IiBpbmtzY2FwZTp6b29tPSI5LjU0MTM4IiBvYmplY3R0b2xlcmFuY2U9IjEwIiBwYWdlY29sb3I9IiNmZmZmZmYiIHNob3dncmlkPSJmYWxzZSI+JiN4YTsJPC9zb2RpcG9kaTpuYW1lZHZpZXc+JiN4YTs8ZyBpZD0iZzE1MTA3MSIgdHJhbnNmb3JtPSJ0cmFuc2xhdGUoLTYuMTIzMDA5MiwtNi4xMTc2NTMyKSI+JiN4YTsJPHRpdGxlIGlkPSJ0aXRsZTE1MDg1MiI+UGFnZS0xPC90aXRsZT4mI3hhOwk8ZyBpZD0iZ3JvdXA0MjItMSIgdHJhbnNmb3JtPSJ0cmFuc2xhdGUoNi4wNjc0NywtNi4xMikiPiYjeGE7CQk8dGl0bGUgaWQ9InRpdGxlMTUwODU0Ij5EZXZlbG9wZXIgIzI8L3RpdGxlPiYjeGE7CQk8ZyBpZD0ic2hhcGU0MjMtMiIgdHJhbnNmb3JtPSJ0cmFuc2xhdGUoMTIuNzgxNCwtMi4yOTQxKSI+JiN4YTsJCQk8dGl0bGUgaWQ9InRpdGxlMTUwODU2Ij5TaGVldC40MjM8L3RpdGxlPiYjeGE7CQkJPHBhdGggaWQ9InBhdGgxNTA4NTgiIGlua3NjYXBlOmNvbm5lY3Rvci1jdXJ2YXR1cmU9IjAiIHN0eWxlPSJmaWxsOiMzODM4Mzg7IiBkPSJNMi4xLDY1LjMzbC0wLjItMS43TDAsNDQuNDJoMTIuNDVsLTEuOSwxOS4yMSAgICAgbC0wLjE5LDEuN2wtMC4yLDEuNzFsMS4xMSwxLjExSDYuNzV2LTIuODJ2LTEuN3YtMTUuOGMwLTAuMzMtMC4yNi0wLjU5LTAuNTktMC41OXMtMC41OSwwLjI2LTAuNTksMC41OXYxNS44djEuN3YyLjgySDEuMDUgICAgIGwxLjExLTEuMTFMMi4xLDY1LjMzeiIvPiYjeGE7CQk8L2c+JiN4YTsJCTxnIGlkPSJzaGFwZTQyNC00IiB0cmFuc2Zvcm09InRyYW5zbGF0ZSgxOS41OTgyLC0wLjUyNDM2NikiPiYjeGE7CQkJPHRpdGxlIGlkPSJ0aXRsZTE1MDg2MSI+U2hlZXQuNDI0PC90aXRsZT4mI3hhOwkJCTxwYXRoIGlkPSJwYXRoMTUwODYzIiBpbmtzY2FwZTpjb25uZWN0b3ItY3VydmF0dXJlPSIwIiBzdHlsZT0iZmlsbDojMUYxRjFGOyIgZD0iTTUuNTcsNjcuNTZjMC0wLjY1LTAuNTItMS4xMS0xLjExLTEuMTEgICAgIGwtMS4xMi0xLjEybDAuNTktNS42M0gwdjguNDVoNS42NHYtMC41OUw1LjU3LDY3LjU2eiIvPiYjeGE7CQk8L2c+JiN4YTsJCTxnIGlkPSJzaGFwZTQyNS02IiB0cmFuc2Zvcm09InRyYW5zbGF0ZSgxOS41MzI2KSI+JiN4YTsJCQk8dGl0bGUgaWQ9InRpdGxlMTUwODY2Ij5TaGVldC40MjU8L3RpdGxlPiYjeGE7CQkJPHBhdGggaWQ9InBhdGgxNTA4NjgiIGlua3NjYXBlOmNvbm5lY3Rvci1jdXJ2YXR1cmU9IjAiIHN0eWxlPSJmaWxsOiMzODM4Mzg7IiBkPSJNNS42NCw2Ny41NnYwLjU5SDIuMjlMMS43LDY3LjU2djAuNTlIMHYtMC41OSAgICAgSDUuNjR6Ii8+JiN4YTsJCTwvZz4mI3hhOwkJPGcgaWQ9InNoYXBlNDI2LTgiIHRyYW5zZm9ybT0idHJhbnNsYXRlKDEyLjcxNTksLTAuNTI0MzY2KSI+JiN4YTsJCQk8dGl0bGUgaWQ9InRpdGxlMTUwODcxIj5TaGVldC40MjY8L3RpdGxlPiYjeGE7CQkJPHBhdGggaWQ9InBhdGgxNTA4NzMiIGlua3NjYXBlOmNvbm5lY3Rvci1jdXJ2YXR1cmU9IjAiIHN0eWxlPSJmaWxsOiMxRjFGMUY7IiBkPSJNMC4wNyw2Ny41NmMwLTAuNjUsMC41Mi0xLjExLDEuMTEtMS4xMSAgICAgbDEuMTEtMS4xMkwxLjcsNTkuN2gzLjk0djguNDVIMHYtMC41OUwwLjA3LDY3LjU2eiIvPiYjeGE7CQk8L2c+JiN4YTsJCTxnIGlkPSJzaGFwZTQyNy0xMCIgdHJhbnNmb3JtPSJ0cmFuc2xhdGUoMTIuNzgxNCkiPiYjeGE7CQkJPHRpdGxlIGlkPSJ0aXRsZTE1MDg3NiI+U2hlZXQuNDI3PC90aXRsZT4mI3hhOwkJCTxwYXRoIGlkPSJwYXRoMTUwODc4IiBpbmtzY2FwZTpjb25uZWN0b3ItY3VydmF0dXJlPSIwIiBzdHlsZT0iZmlsbDojMzgzODM4OyIgZD0iTTAsNjcuNTZ2MC41OWgzLjQxbDAuNTItMC41OXYwLjU5aDEuNzF2LTAuNTkgICAgIEgweiIvPiYjeGE7CQk8L2c+JiN4YTsJCTxnIGlkPSJzaGFwZTQyOC0xMiIgdHJhbnNmb3JtPSJ0cmFuc2xhdGUoMTMuMzA1OCwtNDMuNTIyNCkiPiYjeGE7CQkJPHRpdGxlIGlkPSJ0aXRsZTE1MDg4MSI+U2hlZXQuNDI4PC90aXRsZT4mI3hhOwkJCTxwYXRoIGlkPSJwYXRoMTUwODgzIiBpbmtzY2FwZTpjb25uZWN0b3ItY3VydmF0dXJlPSIwIiBzdHlsZT0iZmlsbDojMzgzODM4OyIgZD0iTTAsNjEuNGMwLTMuMTUsMi41Ni01LjY0LDUuNjQtNS42NCAgICAgczUuNjMsMi41Niw1LjYzLDUuNjR2Ni43NUgwVjYxLjR6Ii8+JiN4YTsJCTwvZz4mI3hhOwkJPGcgaWQ9InNoYXBlNDI5LTE0IiB0cmFuc2Zvcm09InRyYW5zbGF0ZSgxMy44OTU3LC00NC41NzExKSI+JiN4YTsJCQk8dGl0bGUgaWQ9InRpdGxlMTUwODg2Ij5TaGVldC40Mjk8L3RpdGxlPiYjeGE7CQkJPHBhdGggaWQ9InBhdGgxNTA4ODgiIGlua3NjYXBlOmNvbm5lY3Rvci1jdXJ2YXR1cmU9IjAiIHN0eWxlPSJmaWxsOiNCQjkxNjc7IiBkPSJNMCw2My4wNGMyLjgyLDAsNS4xMS0yLjMsNS4xMS01LjExICAgICBjMCwyLjgxLDIuMyw1LjExLDUuMTIsNS4xMWMwLDIuODItMi4zLDUuMTEtNS4xMiw1LjExUzAsNjUuODYsMCw2My4wNHoiLz4mI3hhOwkJPC9nPiYjeGE7CQk8ZyBpZD0ic2hhcGU0MzAtMTYiIHRyYW5zZm9ybT0idHJhbnNsYXRlKDguNjUyMDMsLTMxLjA2ODcpIj4mI3hhOwkJCTx0aXRsZSBpZD0idGl0bGUxNTA4OTEiPlNoZWV0LjQzMDwvdGl0bGU+JiN4YTsJCQk8cGF0aCBpZD0icGF0aDE1MDg5MyIgaW5rc2NhcGU6Y29ubmVjdG9yLWN1cnZhdHVyZT0iMCIgc3R5bGU9ImZpbGw6I0E4QThBODsiIGQ9Ik0xLjg0LDY4LjE1Yy0wLjE0LDAtMC4yNywwLTAuNC0wLjA3ICAgICBDMC41Miw2Ny44OSwwLDY2Ljk3LDAuMiw2Ni4wNWwyLjIzLTkuMDRjMC4xOS0wLjkyLDEuMTEtMS40NCwyLjAzLTEuMjVjMC45MSwwLjIsMS40NCwxLjEyLDEuMjQsMi4wM2wtMi4yMyw5LjA1ICAgICBDMy4zNCw2Ny42MywyLjYyLDY4LjE1LDEuODQsNjguMTV6Ii8+JiN4YTsJCTwvZz4mI3hhOwkJPGcgaWQ9InNoYXBlNDMxLTE4IiB0cmFuc2Zvcm09InRyYW5zbGF0ZSgyNC42MjEzLC0yOS4yNzM1KSI+JiN4YTsJCQk8dGl0bGUgaWQ9InRpdGxlMTUwODk2Ij5TaGVldC40MzE8L3RpdGxlPiYjeGE7CQkJPHBhdGggaWQ9InBhdGgxNTA4OTgiIGlua3NjYXBlOmNvbm5lY3Rvci1jdXJ2YXR1cmU9IjAiIHN0eWxlPSJmaWxsOiNBOEE4QTg7IiBkPSJNMS45Nyw2OC4xNWMtMC4yNywwLTAuNTMtMC4wNy0wLjc5LTAuMiAgICAgQzAuMzMsNjcuNTYsMCw2Ni41MSwwLjM5LDY1LjY2bDIuODItNS42NGMwLjQtMC44NSwxLjQ0LTEuMTgsMi4zLTAuNzhjMC44NSwwLjM5LDEuMTgsMS40NCwwLjc4LDIuMjlsLTIuODIsNS42NCAgICAgQzMuMTUsNjcuODIsMi41Niw2OC4xNSwxLjk3LDY4LjE1eiIvPiYjeGE7CQk8L2c+JiN4YTsJCTxnIGlkPSJzaGFwZTQzMi0yMCIgdHJhbnNmb3JtPSJ0cmFuc2xhdGUoMjIuOTY1OCwtMzUuNTQ1MSkiPiYjeGE7CQkJPHRpdGxlIGlkPSJ0aXRsZTE1MDkwMSI+U2hlZXQuNDMyPC90aXRsZT4mI3hhOwkJCTxwYXRoIGlkPSJwYXRoMTUwOTAzIiBpbmtzY2FwZTpjb25uZWN0b3ItY3VydmF0dXJlPSIwIiBzdHlsZT0iZmlsbDojQThBOEE4OyIgZD0iTTYuMzYsNjguMTVjLTAuNDYsMC0wLjg1LTAuMi0xLjE4LTAuNTIgICAgIEwwLjY2LDYzLjFDMCw2Mi40NSwwLDYxLjQsMC42Niw2MC42OGMwLjY1LTAuNjYsMS43LTAuNjYsMi40MiwwTDcuNiw2NS4yYzAuNjYsMC42NiwwLjY2LDEuNzEsMCwyLjQzICAgICBDNy4yOCw2OC4wMiw2LjgyLDY4LjE1LDYuMzYsNjguMTV6Ii8+JiN4YTsJCTwvZz4mI3hhOwkJPGcgaWQ9InNoYXBlNDMzLTIyIiB0cmFuc2Zvcm09InRyYW5zbGF0ZSgyMC42NDY5LC00OC41Njk0KSI+JiN4YTsJCQk8dGl0bGUgaWQ9InRpdGxlMTUwOTA2Ij5TaGVldC40MzM8L3RpdGxlPiYjeGE7CQkJPHBhdGggaWQ9InBhdGgxNTA5MDgiIGlua3NjYXBlOmNvbm5lY3Rvci1jdXJ2YXR1cmU9IjAiIHN0eWxlPSJmaWxsOiMxRjFGMUY7IiBkPSJNMCw2Ny4wNGMwLTAuMzMsMC4yNi0wLjU5LDAuNTktMC41OSAgICAgczAuNTksMC4yNiwwLjU5LDAuNTl2MC41MmMwLDAuMzMtMC4yNiwwLjU5LTAuNTksMC41OUMwLjI2LDY4LjE1LDAsNjcuODksMCw2Ny41NlY2Ny4wNHoiLz4mI3hhOwkJPC9nPiYjeGE7CQk8ZyBpZD0ic2hhcGU0MzQtMjQiIHRyYW5zZm9ybT0idHJhbnNsYXRlKDE2LjE4OTgsLTQ4LjU2OTQpIj4mI3hhOwkJCTx0aXRsZSBpZD0idGl0bGUxNTA5MTEiPlNoZWV0LjQzNDwvdGl0bGU+JiN4YTsJCQk8cGF0aCBpZD0icGF0aDE1MDkxMyIgaW5rc2NhcGU6Y29ubmVjdG9yLWN1cnZhdHVyZT0iMCIgc3R5bGU9ImZpbGw6IzFGMUYxRjsiIGQ9Ik0wLDY3LjA0YzAtMC4zMywwLjI2LTAuNTksMC41OS0wLjU5ICAgICBzMC41OSwwLjI2LDAuNTksMC41OXYwLjUyYzAsMC4zMy0wLjI2LDAuNTktMC41OSwwLjU5QzAuMjYsNjguMTUsMCw2Ny44OSwwLDY3LjU2VjY3LjA0eiIvPiYjeGE7CQk8L2c+JiN4YTsJCTxnIGlkPSJzaGFwZTQzNS0yNiIgdHJhbnNmb3JtPSJ0cmFuc2xhdGUoMTguMzUyOCwtNDcuOTc5NSkiPiYjeGE7CQkJPHRpdGxlIGlkPSJ0aXRsZTE1MDkxNiI+U2hlZXQuNDM1PC90aXRsZT4mI3hhOwkJCTxwYXRoIGlkPSJwYXRoMTUwOTE4IiBpbmtzY2FwZTpjb25uZWN0b3ItY3VydmF0dXJlPSIwIiBzdHlsZT0iZmlsbDojOTk3NzU4OyIgZD0iTTEuMTgsNjcuNTZjMCwwLjMzLTAuMjYsMC41OS0wLjU5LDAuNTkgICAgIEMwLjI2LDY4LjE1LDAsNjcuODksMCw2Ny41NkgxLjE4eiIvPiYjeGE7CQkJPHBhdGggaWQ9InBhdGgxNTA5MjAiIGlua3NjYXBlOmNvbm5lY3Rvci1jdXJ2YXR1cmU9IjAiIHN0eWxlPSJmaWxsOm5vbmU7IiBkPSJNMS4xOCw2Ny41NmMwLDAuMzMtMC4yNiwwLjU5LTAuNTksMC41OSAgICAgQzAuMjYsNjguMTUsMCw2Ny44OSwwLDY3LjU2Ii8+JiN4YTsJCTwvZz4mI3hhOwkJPGcgaWQ9InNoYXBlNDM2LTI5IiB0cmFuc2Zvcm09InRyYW5zbGF0ZSgxOC4xNTYyLC00Ni4wMTMxKSI+JiN4YTsJCQk8dGl0bGUgaWQ9InRpdGxlMTUwOTIzIj5TaGVldC40MzY8L3RpdGxlPiYjeGE7CQkJPHBhdGggaWQ9InBhdGgxNTA5MjUiIGlua3NjYXBlOmNvbm5lY3Rvci1jdXJ2YXR1cmU9IjAiIHN0eWxlPSJmaWxsOiNGRkZGRkY7IiBkPSJNMS43LDY3LjNjMCwwLjQ2LTAuMzksMC44NS0wLjg1LDAuODUgICAgIFMwLDY3Ljc2LDAsNjcuM0gxLjd6Ii8+JiN4YTsJCQk8cGF0aCBpZD0icGF0aDE1MDkyNyIgaW5rc2NhcGU6Y29ubmVjdG9yLWN1cnZhdHVyZT0iMCIgc3R5bGU9ImZpbGw6bm9uZTsiIGQ9Ik0xLjcsNjcuM2MwLDAuNDYtMC4zOSwwLjg1LTAuODUsMC44NSAgICAgUzAsNjcuNzYsMCw2Ny4zIi8+JiN4YTsJCTwvZz4mI3hhOwkJPGcgaWQ9InNoYXBlNDM3LTMyIiB0cmFuc2Zvcm09InRyYW5zbGF0ZSgxNS41OTk5LC00MC4zNzYyKSI+JiN4YTsJCQk8dGl0bGUgaWQ9InRpdGxlMTUwOTMwIj5TaGVldC40Mzc8L3RpdGxlPiYjeGE7CQkJPHBhdGggaWQ9InBhdGgxNTA5MzIiIGlua3NjYXBlOmNvbm5lY3Rvci1jdXJ2YXR1cmU9IjAiIHN0eWxlPSJmaWxsOiMwMEIyOTQ7IiBkPSJNNi4yMyw2NS4wN2MwLDEuNy0xLjM4LDMuMDgtMy4wOCwzLjA4ICAgICBDMS40NCw2OC4xNSwwLDY2Ljc3LDAsNjUuMDdINi4yM3oiLz4mI3hhOwkJCTxwYXRoIGlkPSJwYXRoMTUwOTM0IiBpbmtzY2FwZTpjb25uZWN0b3ItY3VydmF0dXJlPSIwIiBzdHlsZT0iZmlsbDpub25lOyIgZD0iTTYuMjMsNjUuMDdjMCwxLjctMS4zOCwzLjA4LTMuMDgsMy4wOCAgICAgQzEuNDQsNjguMTUsMCw2Ni43NywwLDY1LjA3Ii8+JiN4YTsJCTwvZz4mI3hhOwkJPGcgaWQ9InNoYXBlNDM4LTM1IiB0cmFuc2Zvcm09InRyYW5zbGF0ZSgxNi4xMjQyLC00MC45MDA1KSI+JiN4YTsJCQk8dGl0bGUgaWQ9InRpdGxlMTUwOTM3Ij5TaGVldC40Mzg8L3RpdGxlPiYjeGE7CQkJPHBhdGggaWQ9InBhdGgxNTA5MzkiIGlua3NjYXBlOmNvbm5lY3Rvci1jdXJ2YXR1cmU9IjAiIHN0eWxlPSJmaWxsOiNCQjkxNjc7IiBkPSJNNS4xMSw2NS41OWMwLDEuMzgtMS4xMSwyLjU2LTIuNTUsMi41NiAgICAgQzEuMTEsNjguMTUsMCw2Ny4wNCwwLDY1LjU5SDUuMTF6Ii8+JiN4YTsJCQk8cGF0aCBpZD0icGF0aDE1MDk0MSIgaW5rc2NhcGU6Y29ubmVjdG9yLWN1cnZhdHVyZT0iMCIgc3R5bGU9ImZpbGw6bm9uZTsiIGQ9Ik01LjExLDY1LjU5YzAsMS4zOC0xLjExLDIuNTYtMi41NSwyLjU2ICAgICBDMS4xMSw2OC4xNSwwLDY3LjA0LDAsNjUuNTkiLz4mI3hhOwkJPC9nPiYjeGE7CQk8ZyBpZD0ic2hhcGU0MzktMzgiIHRyYW5zZm9ybT0idHJhbnNsYXRlKDE4Ljk0MjcsLTIyLjYxMzMpIj4mI3hhOwkJCTx0aXRsZSBpZD0idGl0bGUxNTA5NDQiPlNoZWV0LjQzOTwvdGl0bGU+JiN4YTsJCQk8cGF0aCBpZD0icGF0aDE1MDk0NiIgaW5rc2NhcGU6Y29ubmVjdG9yLWN1cnZhdHVyZT0iMCIgc3R5bGU9ImZpbGw6I0YyRjJGMjsiIGQ9Ik0wLjA3LDY1LjkyYzAsMS4yNSwwLjk4LDIuMjMsMi4yMiwyLjIzaDMuOTQgICAgIHYtMy40MUgwdjEuMThIMC4wN3oiLz4mI3hhOwkJPC9nPiYjeGE7CQk8ZyBpZD0ic2hhcGU0NDAtNDAiIHRyYW5zZm9ybT0icm90YXRlKDE4MCwxMi41OTI5NSw0Ni4zOTIzKSI+JiN4YTsJCQk8dGl0bGUgaWQ9InRpdGxlMTUwOTQ5Ij5TaGVldC40NDA8L3RpdGxlPiYjeGE7CQkJPHJlY3QgaWQ9InJlY3QxNTA5NTEiIHg9IjAiIHk9IjUxLjc2IiBzdHlsZT0iZmlsbDojQThBOEE4OyIgd2lkdGg9IjEyLjQ1IiBoZWlnaHQ9IjE2LjM5Ii8+JiN4YTsJCTwvZz4mI3hhOwkJPGcgaWQ9InNoYXBlNDQxLTQyIiB0cmFuc2Zvcm09InRyYW5zbGF0ZSgxNi43MTQyLC00MS4yMjgzKSI+JiN4YTsJCQk8dGl0bGUgaWQ9InRpdGxlMTUwOTU0Ij5TaGVldC40NDE8L3RpdGxlPiYjeGE7CQkJPHBhdGggaWQ9InBhdGgxNTA5NTYiIGlua3NjYXBlOmNvbm5lY3Rvci1jdXJ2YXR1cmU9IjAiIHN0eWxlPSJmaWxsOiM4M0JFRUM7IiBkPSJNMi4yOSw2OC4xNWwyLjIzLTIuMjNIMEwyLjI5LDY4LjE1eiIvPiYjeGE7CQkJPHBhdGggaWQ9InBhdGgxNTA5NTgiIGlua3NjYXBlOmNvbm5lY3Rvci1jdXJ2YXR1cmU9IjAiIHN0eWxlPSJmaWxsOm5vbmU7IiBkPSJNMi4yOSw2OC4xNWwyLjIzLTIuMjNIMCIvPiYjeGE7CQk8L2c+JiN4YTsJCTxnIGlkPSJzaGFwZTQ0Mi00NSIgdHJhbnNmb3JtPSJ0cmFuc2xhdGUoMTIuODQ3LC0yMi42MTMzKSI+JiN4YTsJCQk8dGl0bGUgaWQ9InRpdGxlMTUwOTYxIj5TaGVldC40NDI8L3RpdGxlPiYjeGE7CQkJPHBhdGggaWQ9InBhdGgxNTA5NjMiIGlua3NjYXBlOmNvbm5lY3Rvci1jdXJ2YXR1cmU9IjAiIHN0eWxlPSJmaWxsOiNGMkYyRjI7IiBkPSJNNi4xNiw2NS45MmMwLDEuMjUtMC45OCwyLjIzLTIuMjMsMi4yM0gwICAgICB2LTMuNDFoNi4yM3YxLjE4SDYuMTZ6Ii8+JiN4YTsJCTwvZz4mI3hhOwkJPGcgaWQ9InNoYXBlNDQzLTQ3IiB0cmFuc2Zvcm09InRyYW5zbGF0ZSgxNy44Mjg0LC00Mi4zNDI1KSI+JiN4YTsJCQk8dGl0bGUgaWQ9InRpdGxlMTUwOTY2Ij5TaGVldC40NDM8L3RpdGxlPiYjeGE7CQkJPHBhdGggaWQ9InBhdGgxNTA5NjgiIGlua3NjYXBlOmNvbm5lY3Rvci1jdXJ2YXR1cmU9IjAiIHN0eWxlPSJmaWxsOiNFNUU1RTU7IiBkPSJNMi4yOSw2Ny4wNGwtMS4xMSwxLjExTDAsNjcuMDRIMi4yOXoiLz4mI3hhOwkJPC9nPiYjeGE7CQk8ZyBpZD0ic2hhcGU0NDQtNDkiIHRyYW5zZm9ybT0icm90YXRlKDE4MCwxMi41OTI5NSw1NC42MDgpIj4mI3hhOwkJCTx0aXRsZSBpZD0idGl0bGUxNTA5NzEiPlNoZWV0LjQ0NDwvdGl0bGU+JiN4YTsJCQk8cmVjdCBpZD0icmVjdDE1MDk3MyIgeD0iMCIgeT0iNjYuNDUiIHN0eWxlPSJmaWxsOiM4M0JFRUM7IiB3aWR0aD0iMTIuNDUiIGhlaWdodD0iMS43Ii8+JiN4YTsJCTwvZz4mI3hhOwkJPGcgaWQ9InNoYXBlNDQ1LTUxIiB0cmFuc2Zvcm09InJvdGF0ZSgtMjYuNTY1MSwtNzkuOTY4OTI0LDUuNTY2MjkxNikiPiYjeGE7CQkJPHRpdGxlIGlkPSJ0aXRsZTE1MDk3NiI+U2hlZXQuNDQ1PC90aXRsZT4mI3hhOwkJCSYjeGE7CQkJCTxyZWN0IGlkPSJyZWN0MTUwOTc4IiB4PSIwIiB5PSI2Ni45MSIgdHJhbnNmb3JtPSJtYXRyaXgoLTEgMi45NDA5NjBlLTA2IC0yLjk0MDk2MGUtMDYgLTEgMi41NTY0IDEzNS4wNTU4KSIgc3R5bGU9ImZpbGw6I0YyRjJGMjsiIHdpZHRoPSIyLjU2IiBoZWlnaHQ9IjEuMjUiLz4mI3hhOwkJPC9nPiYjeGE7CQk8ZyBpZD0ic2hhcGU0NDYtNTMiIHRyYW5zZm9ybT0icm90YXRlKC02My40MzQ5LC0yNS4wMzM1OTksMzIuMDk0NTA1KSI+JiN4YTsJCQk8dGl0bGUgaWQ9InRpdGxlMTUwOTgxIj5TaGVldC40NDY8L3RpdGxlPiYjeGE7CQkJJiN4YTsJCQkJPHJlY3QgaWQ9InJlY3QxNTA5ODMiIHg9IjAiIHk9IjY1LjU5IiB0cmFuc2Zvcm09Im1hdHJpeCgtMSAyLjEwMjc0N2UtMDYgLTIuMTAyNzQ3ZS0wNiAtMSAxLjI0NTMgMTMzLjc0NDkpIiBzdHlsZT0iZmlsbDojRjJGMkYyOyIgd2lkdGg9IjEuMjUiIGhlaWdodD0iMi41NiIvPiYjeGE7CQk8L2c+JiN4YTsJCTxnIGlkPSJzaGFwZTQ0Ny01NSIgdHJhbnNmb3JtPSJ0cmFuc2xhdGUoMjEuODY4NCwtMjcuMDQ1KSI+JiN4YTsJCQk8dGl0bGUgaWQ9InRpdGxlMTUwOTg2Ij5TaGVldC40NDc8L3RpdGxlPiYjeGE7CQkJPHBhdGggaWQ9InBhdGgxNTA5ODgiIGlua3NjYXBlOmNvbm5lY3Rvci1jdXJ2YXR1cmU9IjAiIHN0eWxlPSJmaWxsOiNCQjkxNjc7IiBkPSJNMS45LDY4LjE1Yy0wLjU5LDAtMS4yNC0wLjMzLTEuNTEtMC45MiAgICAgQzAsNjYuMzgsMC4zMyw2NS40LDEuMTgsNjQuOTRsMi4yMy0xLjEyYzAuODUtMC4zOSwxLjgzLTAuMDYsMi4yOSwwLjc5YzAuNCwwLjg1LDAuMDcsMS44NC0wLjc4LDIuM2wtMi4yMywxLjExICAgICBDMi40Myw2OC4xNSwyLjE2LDY4LjE1LDEuOSw2OC4xNXoiLz4mI3hhOwkJPC9nPiYjeGE7CQk8ZyBpZD0ic2hhcGU0NDgtNTciIHRyYW5zZm9ybT0idHJhbnNsYXRlKDMuNzM2MTEsLTMxLjA2ODcpIj4mI3hhOwkJCTx0aXRsZSBpZD0idGl0bGUxNTA5OTEiPlNoZWV0LjQ0ODwvdGl0bGU+JiN4YTsJCQk8cGF0aCBpZD0icGF0aDE1MDk5MyIgaW5rc2NhcGU6Y29ubmVjdG9yLWN1cnZhdHVyZT0iMCIgc3R5bGU9ImZpbGw6I0E4QThBODsiIGQ9Ik02Ljc1LDY4LjE1SDEuN2MtMC45MSwwLTEuNy0wLjc5LTEuNy0xLjcgICAgIGMwLTAuOTIsMC43OS0xLjcxLDEuNy0xLjcxaDUuMTJjMC45MSwwLDEuNywwLjc5LDEuNywxLjcxQzguNTIsNjcuMzYsNy43Myw2OC4xNSw2Ljc1LDY4LjE1eiIvPiYjeGE7CQk8L2c+JiN4YTsJCTxnIGlkPSJzaGFwZTQ0OS01OSIgdHJhbnNmb3JtPSJ0cmFuc2xhdGUoMi4zNTk2NSwtMzAuODA2NSkiPiYjeGE7CQkJPHRpdGxlIGlkPSJ0aXRsZTE1MDk5NiI+U2hlZXQuNDQ5PC90aXRsZT4mI3hhOwkJCTxwYXRoIGlkPSJwYXRoMTUwOTk4IiBpbmtzY2FwZTpjb25uZWN0b3ItY3VydmF0dXJlPSIwIiBzdHlsZT0iZmlsbDojRjJGMkYyOyIgZD0iTTMuMDgsNjguMTVIMS45N0MwLjg1LDY4LjE1LDAsNjcuMjMsMCw2Ni4xOCAgICAgYzAtMS4xMSwwLjkyLTEuOTYsMS45Ny0xLjk2aDEuMTFjMS4xMSwwLDEuOTcsMC45MiwxLjk3LDEuOTZDNS4wNSw2Ny4zLDQuMTksNjguMTUsMy4wOCw2OC4xNXoiLz4mI3hhOwkJPC9nPiYjeGE7CQk8ZyBpZD0iZ3JvdXA0NTAtNjEiIHRyYW5zZm9ybT0idHJhbnNsYXRlKDAsLTMzLjI5NzIpIj4mI3hhOwkJCTx0aXRsZSBpZD0idGl0bGUxNTEwMDEiPlNoZWV0LjQ1MDwvdGl0bGU+JiN4YTsJCQk8ZyBpZD0ic2hhcGU0NTEtNjIiIHRyYW5zZm9ybT0idHJhbnNsYXRlKDkuMTc2NCkiPiYjeGE7CQkJCTx0aXRsZSBpZD0idGl0bGUxNTEwMDMiPlNoZWV0LjQ1MTwvdGl0bGU+JiN4YTsJCQkJPHBhdGggaWQ9InBhdGgxNTEwMDUiIGlua3NjYXBlOmNvbm5lY3Rvci1jdXJ2YXR1cmU9IjAiIHN0eWxlPSJmaWxsOiMxRjFGMUY7IiBkPSJNMy4zNCw2OC4xNWMwLjMzLDAsMC41OS0wLjI2LDAuNTktMC41OXYtMC41OSAgICAgIEgwdjEuMTFoMy4zNFY2OC4xNXoiLz4mI3hhOwkJCTwvZz4mI3hhOwkJCTxnIGlkPSJzaGFwZTQ1Mi02NCIgdHJhbnNmb3JtPSJ0cmFuc2xhdGUoMC4zMjc3MjkpIj4mI3hhOwkJCQk8dGl0bGUgaWQ9InRpdGxlMTUxMDA4Ij5TaGVldC40NTI8L3RpdGxlPiYjeGE7CQkJCTxwYXRoIGlkPSJwYXRoMTUxMDEwIiBpbmtzY2FwZTpjb25uZWN0b3ItY3VydmF0dXJlPSIwIiBzdHlsZT0iZmlsbDojMUYxRjFGOyIgZD0iTTAsNjEuNzNsMS41Nyw2LjIyYzAsMC4xMywwLjEzLDAuMiwwLjI3LDAuMiAgICAgIGg4LjE5YzAuMiwwLDAuMzMtMC4yLDAuMjYtMC4zM0w4LjcyLDYxLjZjMC0wLjE0LTAuMTMtMC4yLTAuMjYtMC4ySDAuMzNDMC4xMyw2MS4zMywwLDYxLjUzLDAsNjEuNzN6Ii8+JiN4YTsJCQk8L2c+JiN4YTsJCQk8ZyBpZD0ic2hhcGU0NTMtNjYiPiYjeGE7CQkJCTx0aXRsZSBpZD0idGl0bGUxNTEwMTMiPlNoZWV0LjQ1MzwvdGl0bGU+JiN4YTsJCQkJPHBhdGggaWQ9InBhdGgxNTEwMTUiIGlua3NjYXBlOmNvbm5lY3Rvci1jdXJ2YXR1cmU9IjAiIHN0eWxlPSJmaWxsOiMzODM4Mzg7IiBkPSJNMC4wNyw2MS43M2wxLjU3LDYuMjIgICAgICBjMCwwLjEzLDAuMTMsMC4yLDAuMjYsMC4yaDguMTljMC4yLDAsMC4zMy0wLjIsMC4yNy0wLjMzTDguNzgsNjEuNmMwLTAuMTQtMC4xMy0wLjItMC4yNi0wLjJIMC4zMyAgICAgIEMwLjIsNjEuMzMsMCw2MS41MywwLjA3LDYxLjczeiIvPiYjeGE7CQkJPC9nPiYjeGE7CQk8L2c+JiN4YTsJCTxnIGlkPSJzaGFwZTQ1NC02OCIgdHJhbnNmb3JtPSJ0cmFuc2xhdGUoMS44MzUyOCwtMzEuMDY4NykiPiYjeGE7CQkJPHRpdGxlIGlkPSJ0aXRsZTE1MTAxOSI+U2hlZXQuNDU0PC90aXRsZT4mI3hhOwkJCTxwYXRoIGlkPSJwYXRoMTUxMDIxIiBpbmtzY2FwZTpjb25uZWN0b3ItY3VydmF0dXJlPSIwIiBzdHlsZT0iZmlsbDojQkI5MTY3OyIgZD0iTTIuNDksNjguMTVjLTAuNTksMC0xLjI0LTAuMzMtMS41MS0wLjkyICAgICBsLTAuNTktMS4xMWMtMC4zOS0wLjg1LTAuMDYtMS45LDAuNzItMi4zYzAuODYtMC4zOSwxLjg0LTAuMDYsMi4zLDAuNzlMNCw2NS43M2MwLjM5LDAuODUsMC4wNiwxLjgzLTAuNzksMi4yOSAgICAgQzIuOTUsNjguMDgsMi43NSw2OC4xNSwyLjQ5LDY4LjE1eiIvPiYjeGE7CQk8L2c+JiN4YTsJCTxnIGlkPSJzaGFwZTQ1NS03MCIgdHJhbnNmb3JtPSJ0cmFuc2xhdGUoMTUuMDEsLTQ3LjcxNzMpIj4mI3hhOwkJCTx0aXRsZSBpZD0idGl0bGUxNTEwMjQiPlNoZWV0LjQ1NTwvdGl0bGU+JiN4YTsJCQk8cGF0aCBpZD0icGF0aDE1MTAyNiIgaW5rc2NhcGU6Y29ubmVjdG9yLWN1cnZhdHVyZT0iMCIgc3R5bGU9ImZpbGw6I0NBNTAxMDsiIGQ9Ik0wLjQ2LDY1LjkydjEuNTFjMCwwLjI2LDAuMiwwLjM5LDAuMzksMC4zOSAgICAgaDEuNDRjMC40LDAsMC43My0wLjMyLDAuNzMtMC43MnYtMS44M0gxLjdjMC4xNC0wLjA3LDAuMjctMC4yLDAuNC0wLjI3aDEuMTh2MC43OWMwLjE5LTAuMTMsMC40Ni0wLjI2LDAuNzItMC4yNiAgICAgczAuNTIsMC4wNiwwLjcyLDAuMjZWNjVoMS4xMWMwLjEzLDAuMTQsMC4yNywwLjIsMC40LDAuMjdINC45MnYxLjgzYzAsMC40LDAuMzIsMC43MiwwLjcyLDAuNzJoMS40NGMwLjI2LDAsMC4zOS0wLjE5LDAuMzktMC4zOSAgICAgdi0xLjUxYzAuMDcsMCwwLjIsMC4wNywwLjI2LDAuMDd2MS40NGMwLDAuMzktMC4zMiwwLjcyLTAuNzIsMC43Mkg1LjU3Yy0wLjUyLDAtMC45OC0wLjQ2LTAuOTgtMC45OHYtMC45MiAgICAgYy0wLjItMC4yLTAuNDYtMC4zMy0wLjcyLTAuMzNzLTAuNTMsMC4xMy0wLjcyLDAuMzN2MC45MmMwLDAuNTItMC40NiwwLjk4LTAuOTksMC45OEgwLjcyQzAuMzMsNjguMTUsMCw2Ny44MiwwLDY3LjQzdi0xLjQ0ICAgICBDMC4yNiw2NS45OSwwLjMzLDY1Ljk5LDAuNDYsNjUuOTJ6Ii8+JiN4YTsJCTwvZz4mI3hhOwkJPGcgaWQ9Imdyb3VwNDU2LTcyIiB0cmFuc2Zvcm09InRyYW5zbGF0ZSgxNS40Njg4LC0zMi41MTA3KSI+JiN4YTsJCQk8dGl0bGUgaWQ9InRpdGxlMTUxMDI5Ij5TaGVldC40NTY8L3RpdGxlPiYjeGE7CQkJPGcgaWQ9InNoYXBlNDU3LTczIiB0cmFuc2Zvcm09InRyYW5zbGF0ZSg0LjI2MDQ3LC0zLjIxMTc0KSI+JiN4YTsJCQkJPHRpdGxlIGlkPSJ0aXRsZTE1MTAzMSI+U2hlZXQuNDU3PC90aXRsZT4mI3hhOwkJCQk8cGF0aCBpZD0icGF0aDE1MTAzMyIgaW5rc2NhcGU6Y29ubmVjdG9yLWN1cnZhdHVyZT0iMCIgc3R5bGU9ImZpbGw6I0YyRjJGMjsiIGQ9Ik0wLjEzLDY4LjE1QzAuMDcsNjguMTUsMC4wNyw2OC4xNSwwLjEzLDY4LjE1ICAgICAgQzAsNjguMTUsMCw2OC4wMiwwLDY3Ljk1bDIuNTYtNy42YzAtMC4wNiwwLjEzLTAuMTMsMC4xOS0wLjA2YzAuMDcsMCwwLjEzLDAuMTMsMC4wNywwLjE5bC0yLjU2LDcuNiAgICAgIEMwLjIsNjguMTUsMC4xMyw2OC4xNSwwLjEzLDY4LjE1eiIvPiYjeGE7CQkJPC9nPiYjeGE7CQkJPGcgaWQ9InNoYXBlNDU4LTc1IiB0cmFuc2Zvcm09InRyYW5zbGF0ZSgwLC0zLjIxMTc0KSI+JiN4YTsJCQkJPHRpdGxlIGlkPSJ0aXRsZTE1MTAzNiI+U2hlZXQuNDU4PC90aXRsZT4mI3hhOwkJCQk8cGF0aCBpZD0icGF0aDE1MTAzOCIgaW5rc2NhcGU6Y29ubmVjdG9yLWN1cnZhdHVyZT0iMCIgc3R5bGU9ImZpbGw6I0YyRjJGMjsiIGQ9Ik0yLjY5LDY4LjE1Yy0wLjA3LDAtMC4xMy0wLjA3LTAuMTMtMC4wNyAgICAgIEwwLDYwLjQ4YzAtMC4wNiwwLTAuMTMsMC4wNy0wLjE5YzAuMDYsMCwwLjEzLDAsMC4xOSwwLjA2bDIuNTYsNy42QzIuODIsNjguMDIsMi44Miw2OC4xNSwyLjY5LDY4LjE1TDIuNjksNjguMTV6Ii8+JiN4YTsJCQk8L2c+JiN4YTsJCQk8ZyBpZD0ic2hhcGU0NTktNzciIHRyYW5zZm9ybT0idHJhbnNsYXRlKDIuNDI1MTkpIj4mI3hhOwkJCQk8dGl0bGUgaWQ9InRpdGxlMTUxMDQxIj5TaGVldC40NTk8L3RpdGxlPiYjeGE7CQkJCTxwYXRoIGlkPSJwYXRoMTUxMDQzIiBpbmtzY2FwZTpjb25uZWN0b3ItY3VydmF0dXJlPSIwIiBzdHlsZT0iZmlsbDojRTVFNUU1OyIgZD0iTTIuMjMsNjcuODljMCwwLjEzLTAuMTMsMC4yNi0wLjI2LDAuMjZIMC4yNiAgICAgIEMwLjEzLDY4LjE1LDAsNjguMDIsMCw2Ny44OXYtMy40MWMwLTAuMTMsMC4xMy0wLjI2LDAuMjYtMC4yNmgxLjcxYzAuMTMsMCwwLjI2LDAuMTMsMC4yNiwwLjI2VjY3Ljg5eiIvPiYjeGE7CQkJPC9nPiYjeGE7CQkJPGcgaWQ9Imdyb3VwNDYwLTc5IiB0cmFuc2Zvcm09InRyYW5zbGF0ZSgyLjYzODE1LC0xLjExODQ3KSI+JiN4YTsJCQkJPHRpdGxlIGlkPSJ0aXRsZTE1MTA0NiI+U2hlZXQuNDYwPC90aXRsZT4mI3hhOwkJCQk8ZyBpZD0ic2hhcGU0NjEtODAiIHRyYW5zZm9ybT0icm90YXRlKDE4MCwwLjg1MjA2LDY3LjI5ODUpIj4mI3hhOwkJCQkJPHRpdGxlIGlkPSJ0aXRsZTE1MTA0OCI+U2hlZXQuNDYxPC90aXRsZT4mI3hhOwkJCQkJPHJlY3QgaWQ9InJlY3QxNTEwNTAiIHg9IjAiIHk9IjY3LjM2IiBzdHlsZT0iZmlsbDojRTgxMjI0OyIgd2lkdGg9IjAuNzkiIGhlaWdodD0iMC43OSIvPiYjeGE7CQkJCTwvZz4mI3hhOwkJCQk8ZyBpZD0ic2hhcGU0NjItODIiIHRyYW5zZm9ybT0icm90YXRlKDE4MCwwLjM5MzI3NDUsNjcuMjk4NSkiPiYjeGE7CQkJCQk8dGl0bGUgaWQ9InRpdGxlMTUxMDUzIj5TaGVldC40NjI8L3RpdGxlPiYjeGE7CQkJCQk8cmVjdCBpZD0icmVjdDE1MTA1NSIgeD0iMCIgeT0iNjcuMzYiIHN0eWxlPSJmaWxsOiMxM0ExMEU7IiB3aWR0aD0iMC43OSIgaGVpZ2h0PSIwLjc5Ii8+JiN4YTsJCQkJPC9nPiYjeGE7CQkJCTxnIGlkPSJzaGFwZTQ2My04NCIgdHJhbnNmb3JtPSJyb3RhdGUoMTgwLDAuODUyMDYsNjcuNzU3KSI+JiN4YTsJCQkJCTx0aXRsZSBpZD0idGl0bGUxNTEwNTgiPlNoZWV0LjQ2MzwvdGl0bGU+JiN4YTsJCQkJCTxyZWN0IGlkPSJyZWN0MTUxMDYwIiB4PSIwIiB5PSI2Ny4zNiIgc3R5bGU9ImZpbGw6IzNBOTZERDsiIHdpZHRoPSIwLjc5IiBoZWlnaHQ9IjAuNzkiLz4mI3hhOwkJCQk8L2c+JiN4YTsJCQkJPGcgaWQ9InNoYXBlNDY0LTg2IiB0cmFuc2Zvcm09InJvdGF0ZSgxODAsMC4zOTMyNzQ1LDY3Ljc1NykiPiYjeGE7CQkJCQk8dGl0bGUgaWQ9InRpdGxlMTUxMDYzIj5TaGVldC40NjQ8L3RpdGxlPiYjeGE7CQkJCQk8cmVjdCBpZD0icmVjdDE1MTA2NSIgeD0iMCIgeT0iNjcuMzYiIHN0eWxlPSJmaWxsOiNGRkI5MDA7IiB3aWR0aD0iMC43OSIgaGVpZ2h0PSIwLjc5Ii8+JiN4YTsJCQkJPC9nPiYjeGE7CQkJPC9nPiYjeGE7CQk8L2c+JiN4YTsJPC9nPiYjeGE7PC9nPiYjeGE7PC9zdmc+;fontSize=25;" vertex="1" parent="1">
          <mxGeometry x="395" y="69" width="31" height="56" as="geometry" />
        </mxCell>
        <mxCell id="dnq7VN7bOO2wTZYb34gf-3" value="&lt;font style=&quot;font-size: 10px;&quot;&gt;需求负责人&lt;/font&gt;" style="text;html=1;align=center;verticalAlign=middle;resizable=0;points=[];autosize=1;strokeColor=none;fillColor=none;fontSize=25;" vertex="1" parent="1">
          <mxGeometry x="375.5" y="115" width="70" height="39" as="geometry" />
        </mxCell>
        <mxCell id="dnq7VN7bOO2wTZYb34gf-4" value="" style="shape=image;verticalLabelPosition=bottom;labelBackgroundColor=#ffffff;verticalAlign=top;aspect=fixed;imageAspect=0;image=data:image/svg+xml,PHN2ZyB4bWxuczpjYz0iaHR0cDovL2NyZWF0aXZlY29tbW9ucy5vcmcvbnMjIiB4bWxuczpkYz0iaHR0cDovL3B1cmwub3JnL2RjL2VsZW1lbnRzLzEuMS8iIHhtbG5zOmlua3NjYXBlPSJodHRwOi8vd3d3Lmlua3NjYXBlLm9yZy9uYW1lc3BhY2VzL2lua3NjYXBlIiB4bWxuczpyZGY9Imh0dHA6Ly93d3cudzMub3JnLzE5OTkvMDIvMjItcmRmLXN5bnRheC1ucyMiIHhtbG5zOnNvZGlwb2RpPSJodHRwOi8vc29kaXBvZGkuc291cmNlZm9yZ2UubmV0L0RURC9zb2RpcG9kaS0wLmR0ZCIgeG1sbnM6c3ZnPSJodHRwOi8vd3d3LnczLm9yZy8yMDAwL3N2ZyIgeG1sbnM9Imh0dHA6Ly93d3cudzMub3JnLzIwMDAvc3ZnIiB4bWxuczp4bGluaz0iaHR0cDovL3d3dy53My5vcmcvMTk5OS94bGluayIgdmVyc2lvbj0iMS4xIiBpZD0ic3ZnMTUwMTk3IiBpbmtzY2FwZTp2ZXJzaW9uPSIwLjkyLjMgKDI0MDU1NDYsIDIwMTgtMDMtMTEpIiBzb2RpcG9kaTpkb2NuYW1lPSJkZXZlbG9wZXJfMS5zdmciIHg9IjBweCIgeT0iMHB4IiB2aWV3Qm94PSIwIDAgMTM0LjQgODkuNzkiIHN0eWxlPSJlbmFibGUtYmFja2dyb3VuZDpuZXcgMCAwIDEzNC40IDg5Ljc5OyIgeG1sOnNwYWNlPSJwcmVzZXJ2ZSI+JiN4YTs8c29kaXBvZGk6bmFtZWR2aWV3IGJvcmRlcmNvbG9yPSIjNjY2NjY2IiBib3JkZXJvcGFjaXR5PSIxIiBmaXQtbWFyZ2luLWJvdHRvbT0iMCIgZml0LW1hcmdpbi1sZWZ0PSIwIiBmaXQtbWFyZ2luLXJpZ2h0PSIwIiBmaXQtbWFyZ2luLXRvcD0iMCIgZ3JpZHRvbGVyYW5jZT0iMTAiIGd1aWRldG9sZXJhbmNlPSIxMCIgaWQ9Im5hbWVkdmlldzE1MDE5OSIgaW5rc2NhcGU6Y3VycmVudC1sYXllcj0ic3ZnMTUwMTk3IiBpbmtzY2FwZTpjeD0iODkuNTk4MzE2IiBpbmtzY2FwZTpjeT0iNTkuMzI5NTMzIiBpbmtzY2FwZTpwYWdlb3BhY2l0eT0iMCIgaW5rc2NhcGU6cGFnZXNoYWRvdz0iMiIgaW5rc2NhcGU6d2luZG93LWhlaWdodD0iMTAxNyIgaW5rc2NhcGU6d2luZG93LW1heGltaXplZD0iMSIgaW5rc2NhcGU6d2luZG93LXdpZHRoPSIxOTIwIiBpbmtzY2FwZTp3aW5kb3cteD0iLTgiIGlua3NjYXBlOndpbmRvdy15PSItOCIgaW5rc2NhcGU6em9vbT0iNy4wODk5NTA1IiBvYmplY3R0b2xlcmFuY2U9IjEwIiBwYWdlY29sb3I9IiNmZmZmZmYiIHNob3dncmlkPSJmYWxzZSI+JiN4YTsJPC9zb2RpcG9kaTpuYW1lZHZpZXc+JiN4YTs8ZyBpZD0iZzE1MDE5NSIgdHJhbnNmb3JtPSJ0cmFuc2xhdGUoLTEuMzYxNDY5MiwtMC41NjgzKSI+JiN4YTsJPHRpdGxlIGlkPSJ0aXRsZTE1MDAyMCI+UGFnZS0xPC90aXRsZT4mI3hhOwk8ZyBpZD0iZ3JvdXAzODctMSIgdHJhbnNmb3JtPSJ0cmFuc2xhdGUoMS4yNTg1NiwtMS4zNikiPiYjeGE7CQk8dGl0bGUgaWQ9InRpdGxlMTUwMDIyIj5EZXZlbG9wZXIgIzE8L3RpdGxlPiYjeGE7CQk8ZyBpZD0ic2hhcGUzODgtMiIgdHJhbnNmb3JtPSJtYXRyaXgoMSwwLDAsLTEsNjEuOTc3NywxMzEuNjkyKSI+JiN4YTsJCQk8dGl0bGUgaWQ9InRpdGxlMTUwMDI0Ij5wYXRoMjA2LTA8L3RpdGxlPiYjeGE7CQkJPHBhdGggaWQ9InBhdGgxNTAwMjYiIGlua3NjYXBlOmNvbm5lY3Rvci1jdXJ2YXR1cmU9IjAiIHN0eWxlPSJmaWxsOiMwMDcxQkM7IiBkPSJNNTIuMiw1MS4zOWMwLTIuNi0zLjIyLTQuNy03LjE5LTQuN0g3LjE5ICAgICBjLTMuOTcsMC03LjE5LDIuMS03LjE5LDQuN3YzNS42MmMwLDIuNiwzLjIyLDQuNyw3LjE5LDQuN2gzNy44MmMzLjk3LDAsNy4xOS0yLjEsNy4xOS00LjdMNTIuMiw1MS4zOXoiLz4mI3hhOwkJPC9nPiYjeGE7CQk8ZyBpZD0ic2hhcGUzODktNCIgdHJhbnNmb3JtPSJ0cmFuc2xhdGUoODMuMjY2MywtMzguMTQxMykiPiYjeGE7CQkJPHRpdGxlIGlkPSJ0aXRsZTE1MDAyOSI+cGF0aDIxMC00PC90aXRsZT4mI3hhOwkJCTxwYXRoIGlkPSJwYXRoMTUwMDMxIiBpbmtzY2FwZTpjb25uZWN0b3ItY3VydmF0dXJlPSIwIiBzdHlsZT0iZmlsbDojRTVFNUU1OyIgZD0iTTkuNjIsOTEuNzFIMHYtNS45Nmg5LjYyVjkxLjcxeiIvPiYjeGE7CQk8L2c+JiN4YTsJCTxnIGlkPSJzaGFwZTM5MC02IiB0cmFuc2Zvcm09Im1hdHJpeCgxLDAsMCwtMSw4Ny44Njg0LDE0MS42KSI+JiN4YTsJCQk8dGl0bGUgaWQ9InRpdGxlMTUwMDM0Ij5wYXRoMjE0LTk8L3RpdGxlPiYjeGE7CQkJPHBhdGggaWQ9InBhdGgxNTAwMzYiIGlua3NjYXBlOmNvbm5lY3Rvci1jdXJ2YXR1cmU9IjAiIHN0eWxlPSJmaWxsOm5vbmU7IiBkPSJNMCw5MS43MXYtMi42OFY5MS43MXoiLz4mI3hhOwkJCSYjeGE7CQkJCTxwYXRoIGlkPSJwYXRoMTUwMDM4IiBpbmtzY2FwZTpjb25uZWN0b3ItY3VydmF0dXJlPSIwIiBzdHlsZT0iZmlsbDpub25lO3N0cm9rZTojQjJCMkIyO3N0cm9rZS13aWR0aDoyLjA2MDY7c3Ryb2tlLW1pdGVybGltaXQ6MzsiIGQ9IiAgICAgTTAsOTEuNzF2LTIuNjgiLz4mI3hhOwkJPC9nPiYjeGE7CQk8ZyBpZD0ic2hhcGUzOTEtOSIgdHJhbnNmb3JtPSJtYXRyaXgoMSwwLDAsLTEsNDkuMTA0NywxMzcuMzIxKSI+JiN4YTsJCQk8dGl0bGUgaWQ9InRpdGxlMTUwMDQxIj5wYXRoMjE4LTI8L3RpdGxlPiYjeGE7CQkJPHBhdGggaWQ9InBhdGgxNTAwNDMiIGlua3NjYXBlOmNvbm5lY3Rvci1jdXJ2YXR1cmU9IjAiIHN0eWxlPSJmaWxsOiMzOUI1NEE7IiBkPSJNNzMuNCw2MS4wNGMtNC4xMiw4LjI1LTEyLjksMjYuNDgtMTQuNTcsMjcuODggICAgIGMtMS42NiwxLjQtMTAuNDQsMi43OS0xNS40NiwyLjc5YzAsMCwwLjk0LTYuMTgtNC42MS02LjE4Yy01LjU0LDAtNC42LDYuMTgtNC42LDYuMThjLTUuMDIsMC0xMy44LTEuMzktMTUuNDYtMi43OSAgICAgYy0xLjY3LTEuNC0xMC40NS0xOS42My0xNC41OC0yNy44OEMwLDUyLjc5LDUuMjYsNTIuMTksNS4yNiw1Mi4xOWgxNC40M3Y2LjkyYy0yLjEzLDAuNzMtNi43MiwxLjYtNi43MiwxLjYgICAgIGMxLjQsMy4zOSw5LjUyLDE4Ljg5LDkuNTIsMTguODlsMC44Ni0yNi42OGgxNS40MWgxNS40MWwwLjg3LDI2LjY4YzAsMCw4LjEyLTE1LjUsOS41MS0xOC44OWMwLDAtNC41OS0wLjg3LTYuNzItMS42di02LjkyICAgICBoMTQuNDRDNzIuMjcsNTIuMTksNzcuNTMsNTIuNzksNzMuNCw2MS4wNHoiLz4mI3hhOwkJPC9nPiYjeGE7CQk8ZyBpZD0ic2hhcGUzOTItMTEiIHRyYW5zZm9ybT0ibWF0cml4KDEsMCwwLC0xLDgzLjI2NjMsMTI4LjA5MykiPiYjeGE7CQkJPHRpdGxlIGlkPSJ0aXRsZTE1MDA0NiI+cGF0aDIyMi03PC90aXRsZT4mI3hhOwkJCTxwYXRoIGlkPSJwYXRoMTUwMDQ4IiBpbmtzY2FwZTpjb25uZWN0b3ItY3VydmF0dXJlPSIwIiBzdHlsZT0iZmlsbDojRkZEQUEyOyIgZD0iTTkuMiw4MC41NmMwLDAtMC42NS0yLjM1LTQuNi0yLjM1ICAgICBTMCw4MC41NiwwLDgwLjU2djExLjE1aDkuMlY4MC41NnoiLz4mI3hhOwkJPC9nPiYjeGE7CQk8ZyBpZD0ic2hhcGUzOTMtMTMiIHRyYW5zZm9ybT0ibWF0cml4KDEsMCwwLC0xLDc1LjExOTgsMTA1LjIwOCkiPiYjeGE7CQkJPHRpdGxlIGlkPSJ0aXRsZTE1MDA1MSI+cGF0aDIyNi05PC90aXRsZT4mI3hhOwkJCTxwYXRoIGlkPSJwYXRoMTUwMDUzIiBpbmtzY2FwZTpjb25uZWN0b3ItY3VydmF0dXJlPSIwIiBzdHlsZT0iZmlsbDojRkZEQUEyOyIgZD0iTTEyLjc1LDg4LjI4Yy04LjgxLDMuNDMtMTIuNzUsMC0xMi43NSwwICAgICBzMC42OC0xMi4xMSwxLTE0LjU2YzAuNzUtNS44Miw4LjMxLTkuNjksMTEuNzUtOS42OXMxMSwzLjg3LDExLjc1LDkuNjljMC4zMSwyLjQ1LDEsMTQuNTYsMSwxNC41NlMyMS41Niw5MS43MSwxMi43NSw4OC4yOHoiLz4mI3hhOwkJPC9nPiYjeGE7CQk8ZyBpZD0ic2hhcGUzOTQtMTUiIHRyYW5zZm9ybT0ibWF0cml4KDEsMCwwLC0xLDcwLjc0NTEsMTEzLjE5MSkiPiYjeGE7CQkJPHRpdGxlIGlkPSJ0aXRsZTE1MDA1NiI+cGF0aDIzMC01PC90aXRsZT4mI3hhOwkJCTxwYXRoIGlkPSJwYXRoMTUwMDU4IiBpbmtzY2FwZTpjb25uZWN0b3ItY3VydmF0dXJlPSIwIiBzdHlsZT0iZmlsbDojRjdEMTk3OyIgZD0iTTQuNzgsODkuNWMwLDAtMi4yNCwyLjIxLTMuMDMsMC44OSAgICAgQzAsODcuNDUsMy4wNiw4Ni4zNSwzLjI3LDgzLjU3YzAuMTQtMS45OCwxLjQ4LTEuOTcsMi4wMS0wLjk4QzUuODEsODMuNTcsNS41OSw4OC44Myw0Ljc4LDg5LjV6Ii8+JiN4YTsJCTwvZz4mI3hhOwkJPGcgaWQ9InNoYXBlMzk1LTE3IiB0cmFuc2Zvcm09Im1hdHJpeCgxLDAsMCwtMSw5OS4xNzk1LDExMy4xOTEpIj4mI3hhOwkJCTx0aXRsZSBpZD0idGl0bGUxNTAwNjEiPnBhdGgyMzQtMDwvdGl0bGU+JiN4YTsJCQk8cGF0aCBpZD0icGF0aDE1MDA2MyIgaW5rc2NhcGU6Y29ubmVjdG9yLWN1cnZhdHVyZT0iMCIgc3R5bGU9ImZpbGw6I0Y3RDE5NzsiIGQ9Ik0xLjAzLDg5LjVjMCwwLDIuMjQsMi4yMSwzLjAzLDAuODkgICAgIGMxLjc1LTIuOTQtMS4zMS00LjA0LTEuNTEtNi44MmMtMC4xNS0xLjk4LTEuNDktMS45Ny0yLjAyLTAuOThDMCw4My41NywwLjIyLDg4LjgzLDEuMDMsODkuNXoiLz4mI3hhOwkJPC9nPiYjeGE7CQk8ZyBpZD0ic2hhcGUzOTYtMTkiIHRyYW5zZm9ybT0ibWF0cml4KDEsMCwwLC0xLDc0Ljg3NzcsMTE5LjE4OCkiPiYjeGE7CQkJPHRpdGxlIGlkPSJ0aXRsZTE1MDA2NiI+cGF0aDIzOC04PC90aXRsZT4mI3hhOwkJCTxwYXRoIGlkPSJwYXRoMTUwMDY4IiBpbmtzY2FwZTpjb25uZWN0b3ItY3VydmF0dXJlPSIwIiBkPSJNMTIuOTksODIuMzhjLTIuNjQsMC00LDAuNzQtNCwxLjg0czEuNjEsMC40NSw0LDAuNDVzNCwwLjY1LDQtMC40NSAgICAgUzE1LjYzLDgyLjM4LDEyLjk5LDgyLjM4eiBNMjUuMjcsOTEuNzFoLTAuNDljMCwwLDAuNjMtNS4xNC0xMS43OS01LjE0UzEuMjEsOTEuNzEsMS4yMSw5MS43MWgtMC41YzAsMC0wLjcxLTUuODEsMS42NC05LjEzICAgICBjMy4yNS00LjU3LDEwLjY0LTQuNTcsMTAuNjQtNC41N3M3LjM5LDAsMTAuNjQsNC41N0MyNS45OCw4NS45LDI1LjI3LDkxLjcxLDI1LjI3LDkxLjcxeiIvPiYjeGE7CQk8L2c+JiN4YTsJCTxnIGlkPSJzaGFwZTM5Ny0yMSIgdHJhbnNmb3JtPSJtYXRyaXgoMSwwLDAsLTEsNjcuMzUxMSw5My42MzgzKSI+JiN4YTsJCQk8dGl0bGUgaWQ9InRpdGxlMTUwMDcxIj5wYXRoMjQyLTE8L3RpdGxlPiYjeGE7CQkJPHBhdGggaWQ9InBhdGgxNTAwNzMiIGlua3NjYXBlOmNvbm5lY3Rvci1jdXJ2YXR1cmU9IjAiIGQ9Ik0zMi44LDY2LjE3YzAsMC0wLjUyLDMuNjcsMS4yNSw0LjdjMCwwLDMuMTMsMTAuNDIsMC40MywxMy4xNiAgICAgYy0yLjY5LDIuNzQtNi41NCw0LjQ5LTkuNzgsNC44NHMtNi44NCwxLTguNTMsMi44NGMwLDAsMC44NS0yLjM0LDEuOTktMi40OWMwLDAtNy41My0xLjM1LTEyLjM3LDAuM2MwLDAsMS4zNS0zLjY0LDQuMzktNC4yOSAgICAgYzAsMC02LjM5LTEuNS0xMC4xOC0wLjI1YzAsMCwzLjAxLTYuMTYsNy43Ny04LjI3YzAsMCwzLjYxLDEuNjMsNS4zNSwwLjkzYzAsMCwwLjM1LTEtMS4xOS0xLjY0YzAsMCw0LjI0LDAuMTUsNi4wOCwxLjA0ICAgICBjMCwwLDAuMTUtMC42OSwwLjA1LTEuMzRjMCwwLDQuODQsMS4wNyw3LjM0LDIuMzVjMCwwLDIuMDktMS41NiwxLjQtMi4yYzAsMCw1LjA0LTAuMiw2LjEsMC42OSAgICAgQzMyLjksNzYuNTQsMzIuMzIsNjcuNTEsMzIuOCw2Ni4xN3oiLz4mI3hhOwkJPC9nPiYjeGE7CQk8ZyBpZD0ic2hhcGUzOTgtMjMiIHRyYW5zZm9ybT0ibWF0cml4KDEsMCwwLC0xLDcyLjM5MDksMTA2LjQxMykiPiYjeGE7CQkJPHRpdGxlIGlkPSJ0aXRsZTE1MDA3NiI+cGF0aDI0NjwvdGl0bGU+JiN4YTsJCQk8cGF0aCBpZD0icGF0aDE1MDA3OCIgaW5rc2NhcGU6Y29ubmVjdG9yLWN1cnZhdHVyZT0iMCIgZD0iTTMuMTksNzguOTRjMCwwLDAuMTksNC4xMS0yLjAzLDUuMDVjMCwwLTEuMTYsNi4zMy0wLjU2LDcuNzIgICAgIGwyLjQ5LTIuMDdjMCwwLDAuNjktOC45NSwwLjM1LTEwLjdMMy4xOSw3OC45NHoiLz4mI3hhOwkJPC9nPiYjeGE7CQk8ZyBpZD0ic2hhcGUzOTktMjUiIHRyYW5zZm9ybT0ibWF0cml4KDEsMCwwLC0xLDgxLjU0MjEsMTM3LjMyMSkiPiYjeGE7CQkJPHRpdGxlIGlkPSJ0aXRsZTE1MDA4MSI+cGF0aDI1MDwvdGl0bGU+JiN4YTsJCQk8cGF0aCBpZD0icGF0aDE1MDA4MyIgaW5rc2NhcGU6Y29ubmVjdG9yLWN1cnZhdHVyZT0iMCIgc3R5bGU9ImZpbGw6I0YxRjFGMTsiIGQ9Ik02LjMzLDg3LjQzYzAsMC0zLjg1LTAuMDEtNS4wNS0yLjY4ICAgICBjMCwwLTEuMjgsNC44OSwwLjQ0LDYuOTZDMS43Miw5MS43MSwyLjE5LDg3Ljc3LDYuMzMsODcuNDN6Ii8+JiN4YTsJCTwvZz4mI3hhOwkJPGcgaWQ9InNoYXBlNDAwLTI3IiB0cmFuc2Zvcm09Im1hdHJpeCgxLDAsMCwtMSw4Ny44Njg0LDEzNy4zMjEpIj4mI3hhOwkJCTx0aXRsZSBpZD0idGl0bGUxNTAwODYiPnBhdGgyNTQ8L3RpdGxlPiYjeGE7CQkJPHBhdGggaWQ9InBhdGgxNTAwODgiIGlua3NjYXBlOmNvbm5lY3Rvci1jdXJ2YXR1cmU9IjAiIHN0eWxlPSJmaWxsOiNGMUYxRjE7IiBkPSJNMCw4Ny40M2MwLDAsMy44NS0wLjAxLDUuMDUtMi42OCAgICAgYzAsMCwxLjI4LDQuODktMC40NSw2Ljk2QzQuNiw5MS43MSw0LjEzLDg3Ljc3LDAsODcuNDN6Ii8+JiN4YTsJCTwvZz4mI3hhOwkJPGcgaWQ9InNoYXBlNDAxLTI5IiB0cmFuc2Zvcm09Im1hdHJpeCgxLDAsMCwtMSw2Ni4wMDM5LDE1NC43OTEpIj4mI3hhOwkJCTx0aXRsZSBpZD0idGl0bGUxNTAwOTEiPnBhdGgyOTg8L3RpdGxlPiYjeGE7CQkJPHBhdGggaWQ9InBhdGgxNTAwOTMiIGlua3NjYXBlOmNvbm5lY3Rvci1jdXJ2YXR1cmU9IjAiIHN0eWxlPSJmaWxsOiNDQkNCQ0I7IiBkPSJNNDMuMzMsOTAuOTJjLTAuNCwwLjY2LTEuNzMsMC43OS0xLjczLDAuNzkgICAgIEgyMS44NkgyLjEzYzAsMC0xLjMzLTAuMTMtMS43My0wLjc5QzAsOTAuMjUsMC44LDY5LjA5LDAuOCw2OS4wOWgyMS4wNmgyMS4wN0M0Mi45Myw2OS4wOSw0My43Myw5MC4yNSw0My4zMyw5MC45MnoiLz4mI3hhOwkJPC9nPiYjeGE7CQk8ZyBpZD0ic2hhcGU0MDItMzEiIHRyYW5zZm9ybT0ibWF0cml4KDEsMCwwLC0xLDY2LjAwMzksMTU1LjE4MikiPiYjeGE7CQkJPHRpdGxlIGlkPSJ0aXRsZTE1MDA5NiI+cGF0aDMwMjwvdGl0bGU+JiN4YTsJCQk8cGF0aCBpZD0icGF0aDE1MDA5OCIgaW5rc2NhcGU6Y29ubmVjdG9yLWN1cnZhdHVyZT0iMCIgc3R5bGU9ImZpbGw6I0U1RTVFNTsiIGQ9Ik00My4zMyw5MC45MmMtMC40LDAuNjYtMS43MywwLjc5LTEuNzMsMC43OSAgICAgSDIxLjg2SDIuMTNjMCwwLTEuMzMtMC4xMy0xLjczLTAuNzlDMCw5MC4yNSwwLjgsNjkuMDksMC44LDY5LjA5aDIxLjA2aDIxLjA3QzQyLjkzLDY5LjA5LDQzLjczLDkwLjI1LDQzLjMzLDkwLjkyeiIvPiYjeGE7CQk8L2c+JiN4YTsJCTxnIGlkPSJncm91cDQwMy0zMyIgdHJhbnNmb3JtPSJ0cmFuc2xhdGUoODMuODE5MSwtMTIuODg5KSI+JiN4YTsJCQk8dGl0bGUgaWQ9InRpdGxlMTUwMTAxIj5NaWNyb3NvZnQ8L3RpdGxlPiYjeGE7CQkJPGcgaWQ9InNoYXBlNDA0LTM0IiB0cmFuc2Zvcm09InRyYW5zbGF0ZSgwLC00LjI2NTMpIj4mI3hhOwkJCQk8dGl0bGUgaWQ9InRpdGxlMTUwMTAzIj5IVFRQIEFQSSBBcHA8L3RpdGxlPiYjeGE7CQkJCTxwYXRoIGlkPSJwYXRoMTUwMTA1IiBpbmtzY2FwZTpjb25uZWN0b3ItY3VydmF0dXJlPSIwIiBzdHlsZT0iZmlsbDojRjI1MDIyOyIgZD0iTTAsODcuODl2My44MmgzLjg0di0zLjgySDB6Ii8+JiN4YTsJCQk8L2c+JiN4YTsJCQk8ZyBpZD0ic2hhcGU0MDUtMzYiIHRyYW5zZm9ybT0idHJhbnNsYXRlKDQuMjYyOCwtNC4yNjUzKSI+JiN4YTsJCQkJPHRpdGxlIGlkPSJ0aXRsZTE1MDEwOCI+SFRUUCBBUEkgQXBwLjE0NjE8L3RpdGxlPiYjeGE7CQkJCTxwYXRoIGlkPSJwYXRoMTUwMTEwIiBpbmtzY2FwZTpjb25uZWN0b3ItY3VydmF0dXJlPSIwIiBzdHlsZT0iZmlsbDojN0ZCQTAwOyIgZD0iTTAsODcuODl2My44MmgzLjg0di0zLjgySDB6Ii8+JiN4YTsJCQk8L2c+JiN4YTsJCQk8ZyBpZD0ic2hhcGU0MDYtMzgiIHRyYW5zZm9ybT0idHJhbnNsYXRlKDQuMjYyOCkiPiYjeGE7CQkJCTx0aXRsZSBpZD0idGl0bGUxNTAxMTMiPkhUVFAgQVBJIEFwcC4xNDYyPC90aXRsZT4mI3hhOwkJCQk8cGF0aCBpZD0icGF0aDE1MDExNSIgaW5rc2NhcGU6Y29ubmVjdG9yLWN1cnZhdHVyZT0iMCIgc3R5bGU9ImZpbGw6I0ZGQjkwMDsiIGQ9Ik0wLDg3Ljg5djMuODJoMy44NHYtMy44MkgweiIvPiYjeGE7CQkJPC9nPiYjeGE7CQkJPGcgaWQ9InNoYXBlNDA3LTQwIj4mI3hhOwkJCQk8dGl0bGUgaWQ9InRpdGxlMTUwMTE4Ij5IVFRQIEFQSSBBcHAuMTQ2MzwvdGl0bGU+JiN4YTsJCQkJPHBhdGggaWQ9InBhdGgxNTAxMjAiIGlua3NjYXBlOmNvbm5lY3Rvci1jdXJ2YXR1cmU9IjAiIHN0eWxlPSJmaWxsOiMwMEE0RUY7IiBkPSJNMCw4Ny44OXYzLjgyaDMuODR2LTMuODJIMHoiLz4mI3hhOwkJCTwvZz4mI3hhOwkJPC9nPiYjeGE7CQk8ZyBpZD0ic2hhcGU0MDgtNDIiIHRyYW5zZm9ybT0idHJhbnNsYXRlKDc1LjExOTgsLTUxLjU2NzIpIj4mI3hhOwkJCTx0aXRsZSBpZD0idGl0bGUxNTAxMjQiPnBhdGg3OTU8L3RpdGxlPiYjeGE7CQkJPHBhdGggaWQ9InBhdGgxNTAxMjYiIGlua3NjYXBlOmNvbm5lY3Rvci1jdXJ2YXR1cmU9IjAiIGQ9Ik0xMy43Niw5MC40OWgtMi4wM2wwLjUxLDAuOTRsMC41LDAuMjd2MC4wMWgwLjAxbDAsMFY5MS43bDAuNS0wLjI3ICAgICBMMTMuNzYsOTAuNDl6IE0yNS41LDczLjY1bC0xLjc5LDAuMjNsLTAuMi0wLjA3bC0yLjQ0LTAuNDhoLTQuMDNsLTMuNzIsMC42aC0xLjE4bC0zLjcyLTAuNkg0LjRsLTIuNDMsMC40OGwtMC4xOSwwLjA3TDAsNzMuNjUgICAgIHYwLjcybDAuOTYsMC4xM2wwLjczLDMuMzhsMC42MywwLjYzbDEuOTIsMC40N2gzLjI1bDIuODQtMC42NGwxLjQ3LTIuMzVsMC41OS0wLjY3aDAuNjdsMC41OSwwLjY3bDEuNDcsMi4zNWwyLjg0LDAuNjRoMy4yNSAgICAgbDEuOTItMC40N2wwLjYzLTAuNjNsMC43My0zLjM4bDAuOTYtMC4xM0wyNS41LDczLjY1eiBNMTAuNzgsNzUuNDdsLTAuOCwyLjI2bC0yLjY3LDAuNThINC4xOGwtMS40Mi0wLjM3bC0wLjUyLTAuNDVsLTAuMzktMi41ICAgICBsMC40My0wLjUybDIuMDktMC40aDMuOTlsMi40NCwwLjM3TDEwLjc4LDc1LjQ3eiBNMjMuMjUsNzcuNDlsLTAuNTIsMC40NWwtMS40MiwwLjM2aC0zLjE0bC0yLjY2LTAuNTdsLTAuODEtMi4yNXYtMS4wNSAgICAgbDIuNDQtMC4zN2gzLjk4bDIuMDksMC40bDAuNDMsMC41MkwyMy4yNSw3Ny40OXoiLz4mI3hhOwkJPC9nPiYjeGE7CQk8ZyBpZD0ic2hhcGU0MDktNDQiIHRyYW5zZm9ybT0idHJhbnNsYXRlKDAuMDY3NjI4NywtNy4wMjU3MSkiPiYjeGE7CQkJPHRpdGxlIGlkPSJ0aXRsZTE1MDEyOSI+U2hlZXQuNDA5PC90aXRsZT4mI3hhOwkJCTxwYXRoIGlkPSJwYXRoMTUwMTMxIiBpbmtzY2FwZTpjb25uZWN0b3ItY3VydmF0dXJlPSIwIiBzdHlsZT0iZmlsbDojMDA5MjQ1OyIgZD0iTTI4LjY3LDkxLjcxYy0wLjI3LDAtMC41NC0wLjEzLTAuNzQtMC4zMyAgICAgTDAuNDEsNjMuODVjLTAuNDEtMC40LTAuNDEtMS4wOCwwLTEuNDljMC40LTAuNCwxLjA4LTAuNCwxLjQ4LDBsMjcuNTMsMjcuNTNjMC40LDAuNCwwLjQsMS4wOCwwLDEuNDkgICAgIEMyOS4xNSw5MS41MSwyOC44OCw5MS43MSwyOC42Nyw5MS43MXoiLz4mI3hhOwkJPC9nPiYjeGE7CQk8ZyBpZD0ic2hhcGU0MTAtNDYiIHRyYW5zZm9ybT0idHJhbnNsYXRlKDMuOTIyNDYsLTExLjAxNTgpIj4mI3hhOwkJCTx0aXRsZSBpZD0idGl0bGUxNTAxMzQiPlNoZWV0LjQxMDwvdGl0bGU+JiN4YTsJCQk8cGF0aCBpZD0icGF0aDE1MDEzNiIgaW5rc2NhcGU6Y29ubmVjdG9yLWN1cnZhdHVyZT0iMCIgc3R5bGU9ImZpbGw6IzAwOTI0NTsiIGQ9Ik0yOC43NCw5MS43MWMtMC4yNywwLTAuNTQtMC4xMy0wLjc0LTAuMzMgICAgIEwwLjQxLDYzLjkyQzAsNjMuNTEsMCw2Mi44NCwwLjQxLDYyLjQzYzAuNC0wLjQsMS4wOC0wLjQsMS40OCwwbDI3LjYsMjcuNTNjMC40LDAuNCwwLjQsMS4wOCwwLDEuNDggICAgIEMyOS4yOCw5MS42NSwyOS4wMSw5MS43MSwyOC43NCw5MS43MXoiLz4mI3hhOwkJPC9nPiYjeGE7CQk8ZyBpZD0ic2hhcGU0MTEtNDgiIHRyYW5zZm9ybT0idHJhbnNsYXRlKDAsLTM0LjY4NTgpIj4mI3hhOwkJCTx0aXRsZSBpZD0idGl0bGUxNTAxMzkiPlNoZWV0LjQxMTwvdGl0bGU+JiN4YTsJCQk8cGF0aCBpZD0icGF0aDE1MDE0MSIgaW5rc2NhcGU6Y29ubmVjdG9yLWN1cnZhdHVyZT0iMCIgc3R5bGU9ImZpbGw6IzAwOTI0NTsiIGQ9Ik0xLjE1LDkxLjcxYy0wLjI3LDAtMC41NC0wLjEzLTAuNzQtMC4zMyAgICAgQzAsOTAuOTcsMCw5MC4yOSwwLjQxLDg5Ljg5TDI4LDYyLjQzYzAuNC0wLjQsMS4wOC0wLjQsMS40OSwwYzAuNCwwLjQxLDAuNCwxLjA4LDAsMS40OUwxLjk2LDkxLjQ0ICAgICBDMS42OSw5MS43MSwxLjQyLDkxLjcxLDEuMTUsOTEuNzF6Ii8+JiN4YTsJCTwvZz4mI3hhOwkJPGcgaWQ9InNoYXBlNDEyLTUwIiB0cmFuc2Zvcm09InRyYW5zbGF0ZSgzLjkyMjQ2LC0zMC42MjgxKSI+JiN4YTsJCQk8dGl0bGUgaWQ9InRpdGxlMTUwMTQ0Ij5TaGVldC40MTI8L3RpdGxlPiYjeGE7CQkJPHBhdGggaWQ9InBhdGgxNTAxNDYiIGlua3NjYXBlOmNvbm5lY3Rvci1jdXJ2YXR1cmU9IjAiIHN0eWxlPSJmaWxsOiMwMDkyNDU7IiBkPSJNMS4xNSw5MS43MWMtMC4yNywwLTAuNTQtMC4xMy0wLjc0LTAuMzMgICAgIEMwLDkwLjk3LDAsOTAuMjksMC40MSw4OS44OWwyNy41Mi0yNy41M2MwLjQxLTAuNCwxLjA4LTAuNCwxLjQ5LDBjMC40LDAuNDEsMC40LDEuMDksMCwxLjQ5TDEuODksOTEuMzggICAgIEMxLjY5LDkxLjUxLDEuNDIsOTEuNzEsMS4xNSw5MS43MXoiLz4mI3hhOwkJPC9nPiYjeGE7CQk8ZyBpZD0ic2hhcGU0MTMtNTIiIHRyYW5zZm9ybT0idHJhbnNsYXRlKDI3LjcyNzgsLTYyLjE0MzEpIj4mI3hhOwkJCTx0aXRsZSBpZD0idGl0bGUxNTAxNDkiPlNoZWV0LjQxMzwvdGl0bGU+JiN4YTsJCQk8cGF0aCBpZD0icGF0aDE1MDE1MSIgaW5rc2NhcGU6Y29ubmVjdG9yLWN1cnZhdHVyZT0iMCIgc3R5bGU9ImZpbGw6IzAwOTI0NTsiIGQ9Ik00Ljk0LDkxLjcxSDEuMDFDMC40MSw5MS43MSwwLDkxLjI0LDAsOTAuNyAgICAgYzAtMC42MSwwLjQ3LTEuMDEsMS4wMS0xLjAxaDMuOTNjMC42MSwwLDEuMDEsMC40NywxLjAxLDEuMDFDNS45NSw5MS4xNyw1LjQ4LDkxLjcxLDQuOTQsOTEuNzF6Ii8+JiN4YTsJCTwvZz4mI3hhOwkJPGcgaWQ9InNoYXBlNDE0LTU0IiB0cmFuc2Zvcm09InRyYW5zbGF0ZSgzMS42NTAyLC01OC4yODgyKSI+JiN4YTsJCQk8dGl0bGUgaWQ9InRpdGxlMTUwMTU0Ij5TaGVldC40MTQ8L3RpdGxlPiYjeGE7CQkJPHBhdGggaWQ9InBhdGgxNTAxNTYiIGlua3NjYXBlOmNvbm5lY3Rvci1jdXJ2YXR1cmU9IjAiIHN0eWxlPSJmaWxsOiMwMDkyNDU7IiBkPSJNMS4wMSw5MS43MUMwLjQxLDkxLjcxLDAsOTEuMjQsMCw5MC43di0zLjkyICAgICBjMC0wLjYxLDAuNDctMS4wMiwxLjAxLTEuMDJjMC42MSwwLDEuMDIsMC40OCwxLjAyLDEuMDJ2My45MkMyLjAzLDkxLjI0LDEuNTYsOTEuNzEsMS4wMSw5MS43MXoiLz4mI3hhOwkJPC9nPiYjeGE7CQk8ZyBpZD0ic2hhcGU0MTUtNTYiIHRyYW5zZm9ybT0idHJhbnNsYXRlKDMxLjUxNSwtNjIuMTQzMSkiPiYjeGE7CQkJPHRpdGxlIGlkPSJ0aXRsZTE1MDE1OSI+U2hlZXQuNDE1PC90aXRsZT4mI3hhOwkJCTxwYXRoIGlkPSJwYXRoMTUwMTYxIiBpbmtzY2FwZTpjb25uZWN0b3ItY3VydmF0dXJlPSIwIiBzdHlsZT0iZmlsbDojMDA5MjQ1OyIgZD0iTTEuMTUsOTEuNzFjLTAuMjcsMC0wLjU0LTAuMTMtMC43NC0wLjMzICAgICBDMCw5MC45NywwLDkwLjI5LDAuNDEsODkuODlMNi4yOSw4NGMwLjQxLTAuNCwxLjA4LTAuNCwxLjQ5LDBjMC40LDAuNDEsMC40LDEuMDksMCwxLjQ5bC01Ljg5LDUuODkgICAgIEMxLjY5LDkxLjUxLDEuNDIsOTEuNzEsMS4xNSw5MS43MXoiLz4mI3hhOwkJPC9nPiYjeGE7CQk8ZyBpZD0ic2hhcGU0MTYtNTgiIHRyYW5zZm9ybT0icm90YXRlKC00NSwtMzguNDU3ODUsMS4zNjk0NjMpIj4mI3hhOwkJCTx0aXRsZSBpZD0idGl0bGUxNTAxNjQiPlNoZWV0LjQxNjwvdGl0bGU+JiN4YTsJCQk8Y2lyY2xlIGlkPSJlbGxpcHNlMTUwMTY2IiBzdHlsZT0iZmlsbDojQzlEQTJBOyIgY3g9IjUuNjgiIGN5PSI4Ni4wMyIgcj0iNS42OCIvPiYjeGE7CQk8L2c+JiN4YTsJCTxnIGlkPSJzaGFwZTQxNy02MCIgdHJhbnNmb3JtPSJyb3RhdGUoLTQ0Ljk5NTksLTQwLjIwNDM3MywxNC4yOTA0NDMpIj4mI3hhOwkJCTx0aXRsZSBpZD0idGl0bGUxNTAxNjkiPlNoZWV0LjQxNzwvdGl0bGU+JiN4YTsJCQkmI3hhOwkJCQk8cmVjdCBpZD0icmVjdDE1MDE3MSIgeD0iMCIgeT0iOTAuNSIgdHJhbnNmb3JtPSJtYXRyaXgoLTEgMi4zODc2NDVlLTA2IC0yLjM4NzY0NWUtMDYgLTEgMjguNjA5NSAxODIuMjEyNCkiIHN0eWxlPSJmaWxsOiMwMDkyNDU7IiB3aWR0aD0iMjguNjEiIGhlaWdodD0iMS4yMiIvPiYjeGE7CQk8L2c+JiN4YTsJCTxnIGlkPSJzaGFwZTQxOC02MiIgdHJhbnNmb3JtPSJ0cmFuc2xhdGUoMjkuNzU2NiwtNjIuNDgxMikiPiYjeGE7CQkJPHRpdGxlIGlkPSJ0aXRsZTE1MDE3NCI+U2hlZXQuNDE4PC90aXRsZT4mI3hhOwkJCTxwYXRoIGlkPSJwYXRoMTUwMTc2IiBpbmtzY2FwZTpjb25uZWN0b3ItY3VydmF0dXJlPSIwIiBzdHlsZT0iZmlsbDojMjJCNTczOyIgZD0iTTAsNzcuMzFsNy43MS03LjcxbDE0LjM0LDEyLjExbC05Ljk0LDEwICAgICBMMCw3Ny4zMXoiLz4mI3hhOwkJPC9nPiYjeGE7CQk8ZyBpZD0ic2hhcGU0MTktNjQiIHRyYW5zZm9ybT0idHJhbnNsYXRlKDM3LjYwMTUsLTUxLjk5ODgpIj4mI3hhOwkJCTx0aXRsZSBpZD0idGl0bGUxNTAxNzkiPlNoZWV0LjQxOTwvdGl0bGU+JiN4YTsJCQk8cGF0aCBpZD0icGF0aDE1MDE4MSIgaW5rc2NhcGU6Y29ubmVjdG9yLWN1cnZhdHVyZT0iMCIgc3R5bGU9ImZpbGw6IzIyQjU3MzsiIGQ9Ik0yNC42OCw3MS41Nkw0LjQ2LDkxLjcxTDAsNzQuOTRsNy44NC03LjkxICAgICBMMjQuNjgsNzEuNTZ6Ii8+JiN4YTsJCTwvZz4mI3hhOwkJPGcgaWQ9InNoYXBlNDIwLTY2IiB0cmFuc2Zvcm09InRyYW5zbGF0ZSgxNC44NzgzLC02LjY4NzU3KSI+JiN4YTsJCQk8dGl0bGUgaWQ9InRpdGxlMTUwMTg0Ij5TaGVldC40MjA8L3RpdGxlPiYjeGE7CQkJPHBhdGggaWQ9InBhdGgxNTAxODYiIGlua3NjYXBlOmNvbm5lY3Rvci1jdXJ2YXR1cmU9IjAiIHN0eWxlPSJmaWxsOiMyMkI1NzM7IiBkPSJNMjIuMjUsODYuMTdINS41NUMyLjUsODYuMTcsMCw4OC42NywwLDkxLjcxICAgICBoMjcuODZDMjcuODYsODguNzQsMjUuMzYsODYuMTcsMjIuMjUsODYuMTd6Ii8+JiN4YTsJCTwvZz4mI3hhOwkJPGcgaWQ9InNoYXBlNDIxLTY4IiB0cmFuc2Zvcm09InRyYW5zbGF0ZSgxMy44NjUyKSI+JiN4YTsJCQk8dGl0bGUgaWQ9InRpdGxlMTUwMTg5Ij5TaGVldC40MjE8L3RpdGxlPiYjeGE7CQkJPHJlY3QgaWQ9InJlY3QxNTAxOTEiIHg9IjAiIHk9Ijg0LjIxIiBzdHlsZT0iZmlsbDojMDBBRUVGOyIgd2lkdGg9IjEyMC42NCIgaGVpZ2h0PSI3LjUxIi8+JiN4YTsJCTwvZz4mI3hhOwk8L2c+JiN4YTs8L2c+JiN4YTs8L3N2Zz4=;fontSize=15;" vertex="1" parent="1">
          <mxGeometry x="455" y="77.5" width="58.07" height="39" as="geometry" />
        </mxCell>
        <mxCell id="dnq7VN7bOO2wTZYb34gf-5" value="开发负责人" style="text;html=1;align=center;verticalAlign=middle;resizable=0;points=[];autosize=1;strokeColor=none;fillColor=none;fontSize=10;" vertex="1" parent="1">
          <mxGeometry x="455" y="133" width="70" height="16" as="geometry" />
        </mxCell>
        <mxCell id="dnq7VN7bOO2wTZYb34gf-6" value="" style="whiteSpace=wrap;html=1;aspect=fixed;fontSize=10;fillColor=#f5f5f5;strokeColor=none;fontColor=#333333;" vertex="1" parent="1">
          <mxGeometry x="370" y="167" width="155" height="155" as="geometry" />
        </mxCell>
        <mxCell id="dnq7VN7bOO2wTZYb34gf-7" value="原始需求" style="rounded=1;whiteSpace=wrap;html=1;fontSize=10;fillColor=#1ba1e2;strokeColor=none;fontColor=#ffffff;" vertex="1" parent="1">
          <mxGeometry x="392.5" y="180" width="36" height="75" as="geometry" />
        </mxCell>
        <mxCell id="dnq7VN7bOO2wTZYb34gf-8" value="项目管理" style="rounded=1;whiteSpace=wrap;html=1;fontSize=10;fillColor=#1ba1e2;strokeColor=none;fontColor=#ffffff;" vertex="1" parent="1">
          <mxGeometry x="461" y="180" width="36" height="75" as="geometry" />
        </mxCell>
        <mxCell id="dnq7VN7bOO2wTZYb34gf-9" value="需求分析" style="rounded=1;whiteSpace=wrap;html=1;fontSize=10;fillColor=#1ba1e2;fontColor=#ffffff;strokeColor=none;" vertex="1" parent="1">
          <mxGeometry x="392.5" y="276.5" width="110" height="37" as="geometry" />
        </mxCell>
        <mxCell id="dnq7VN7bOO2wTZYb34gf-10" value="" style="whiteSpace=wrap;html=1;aspect=fixed;fontSize=10;fillColor=#f5f5f5;strokeColor=none;fontColor=#333333;" vertex="1" parent="1">
          <mxGeometry x="550" y="167" width="155" height="155" as="geometry" />
        </mxCell>
        <mxCell id="dnq7VN7bOO2wTZYb34gf-11" value="产品需求池" style="rounded=1;whiteSpace=wrap;html=1;fontSize=10;fillColor=#1ba1e2;strokeColor=none;fontColor=#ffffff;" vertex="1" parent="1">
          <mxGeometry x="559" y="180" width="30" height="137" as="geometry" />
        </mxCell>
        <mxCell id="dnq7VN7bOO2wTZYb34gf-12" value="&lt;i&gt;敏捷迭代&lt;/i&gt;" style="text;html=1;align=center;verticalAlign=middle;resizable=0;points=[];autosize=1;strokeColor=none;fillColor=none;fontSize=10;" vertex="1" parent="1">
          <mxGeometry x="615" y="168" width="58" height="16" as="geometry" />
        </mxCell>
        <mxCell id="dnq7VN7bOO2wTZYb34gf-13" value="迭代/史诗管理" style="rounded=1;whiteSpace=wrap;html=1;fontSize=10;fillColor=#1ba1e2;fontColor=#ffffff;strokeColor=none;" vertex="1" parent="1">
          <mxGeometry x="604" y="184" width="85" height="28.25" as="geometry" />
        </mxCell>
        <mxCell id="dnq7VN7bOO2wTZYb34gf-14" value="需求/任务管理" style="rounded=1;whiteSpace=wrap;html=1;fontSize=10;fillColor=#1ba1e2;fontColor=#ffffff;strokeColor=none;" vertex="1" parent="1">
          <mxGeometry x="604" y="221" width="85" height="28.25" as="geometry" />
        </mxCell>
        <mxCell id="dnq7VN7bOO2wTZYb34gf-15" value="缺陷管理" style="rounded=1;whiteSpace=wrap;html=1;fontSize=10;fillColor=#1ba1e2;fontColor=#ffffff;strokeColor=none;" vertex="1" parent="1">
          <mxGeometry x="604" y="257.38" width="85" height="28.25" as="geometry" />
        </mxCell>
        <mxCell id="dnq7VN7bOO2wTZYb34gf-16" value="&lt;i&gt;传统迭代&lt;/i&gt;" style="text;html=1;align=center;verticalAlign=middle;resizable=0;points=[];autosize=1;strokeColor=none;fillColor=none;fontSize=10;" vertex="1" parent="1">
          <mxGeometry x="613" y="287" width="58" height="16" as="geometry" />
        </mxCell>
        <mxCell id="dnq7VN7bOO2wTZYb34gf-17" value="&lt;font style=&quot;font-size: 10px;&quot;&gt;瀑布管理&lt;/font&gt;" style="rounded=1;whiteSpace=wrap;html=1;fontSize=10;fillColor=#1ba1e2;fontColor=#ffffff;strokeColor=none;" vertex="1" parent="1">
          <mxGeometry x="617" y="303" width="56" height="16" as="geometry" />
        </mxCell>
        <mxCell id="dnq7VN7bOO2wTZYb34gf-21" value="" style="html=1;shadow=0;dashed=0;align=center;verticalAlign=middle;shape=mxgraph.arrows2.arrow;dy=0.56;dx=18;notch=0;fontSize=10;fontColor=#ffffff;fillColor=#1ba1e2;strokeColor=none;" vertex="1" parent="1">
          <mxGeometry x="432" y="189.13" width="29" height="18" as="geometry" />
        </mxCell>
        <mxCell id="dnq7VN7bOO2wTZYb34gf-22" value="" style="html=1;shadow=0;dashed=0;align=center;verticalAlign=middle;shape=mxgraph.arrows2.arrow;dy=0.56;dx=18;notch=0;fontSize=10;fontColor=#ffffff;fillColor=#1ba1e2;strokeColor=none;" vertex="1" parent="1">
          <mxGeometry x="432" y="221" width="29" height="18" as="geometry" />
        </mxCell>
        <mxCell id="dnq7VN7bOO2wTZYb34gf-23" value="" style="html=1;shadow=0;dashed=0;align=center;verticalAlign=middle;shape=mxgraph.arrows2.arrow;dy=0.58;dx=16;direction=south;notch=0;fontSize=10;fontColor=#ffffff;fillColor=#1ba1e2;strokeColor=none;" vertex="1" parent="1">
          <mxGeometry x="402" y="255" width="19" height="20" as="geometry" />
        </mxCell>
        <mxCell id="dnq7VN7bOO2wTZYb34gf-26" value="" style="html=1;shadow=0;dashed=0;align=center;verticalAlign=middle;shape=mxgraph.arrows2.arrow;dy=0.58;dx=16;direction=south;notch=0;fontSize=10;fontColor=#ffffff;fillColor=#1ba1e2;strokeColor=none;" vertex="1" parent="1">
          <mxGeometry x="469.5" y="253" width="19" height="24.38" as="geometry" />
        </mxCell>
        <mxCell id="dnq7VN7bOO2wTZYb34gf-27" value="" style="html=1;shadow=0;dashed=0;align=center;verticalAlign=middle;shape=mxgraph.arrows2.arrow;dy=0;dx=11;notch=10;fontSize=10;fontColor=#ffffff;fillColor=#1ba1e2;strokeColor=none;" vertex="1" parent="1">
          <mxGeometry x="525" y="238" width="23" height="17" as="geometry" />
        </mxCell>
        <mxCell id="dnq7VN7bOO2wTZYb34gf-28" value="" style="shape=image;verticalLabelPosition=bottom;labelBackgroundColor=#ffffff;verticalAlign=top;aspect=fixed;imageAspect=0;image=data:image/svg+xml,PHN2ZyB4bWxuczpjYz0iaHR0cDovL2NyZWF0aXZlY29tbW9ucy5vcmcvbnMjIiB4bWxuczpkYz0iaHR0cDovL3B1cmwub3JnL2RjL2VsZW1lbnRzLzEuMS8iIHhtbG5zOmlua3NjYXBlPSJodHRwOi8vd3d3Lmlua3NjYXBlLm9yZy9uYW1lc3BhY2VzL2lua3NjYXBlIiB4bWxuczpyZGY9Imh0dHA6Ly93d3cudzMub3JnLzE5OTkvMDIvMjItcmRmLXN5bnRheC1ucyMiIHhtbG5zOnNvZGlwb2RpPSJodHRwOi8vc29kaXBvZGkuc291cmNlZm9yZ2UubmV0L0RURC9zb2RpcG9kaS0wLmR0ZCIgeG1sbnM6c3ZnPSJodHRwOi8vd3d3LnczLm9yZy8yMDAwL3N2ZyIgeG1sbnM9Imh0dHA6Ly93d3cudzMub3JnLzIwMDAvc3ZnIiB4bWxuczp4bGluaz0iaHR0cDovL3d3dy53My5vcmcvMTk5OS94bGluayIgdmVyc2lvbj0iMS4xIiBpZD0ic3ZnMTUxMDczIiBpbmtzY2FwZTp2ZXJzaW9uPSIwLjkyLjMgKDI0MDU1NDYsIDIwMTgtMDMtMTEpIiBzb2RpcG9kaTpkb2NuYW1lPSJkZXZlbG9wZXJfMi5zdmciIHg9IjBweCIgeT0iMHB4IiB2aWV3Qm94PSIwIDAgMzEuMDIgNTUuOTEiIHN0eWxlPSJlbmFibGUtYmFja2dyb3VuZDpuZXcgMCAwIDMxLjAyIDU1LjkxOyIgeG1sOnNwYWNlPSJwcmVzZXJ2ZSI+JiN4YTs8c29kaXBvZGk6bmFtZWR2aWV3IGJvcmRlcmNvbG9yPSIjNjY2NjY2IiBib3JkZXJvcGFjaXR5PSIxIiBmaXQtbWFyZ2luLWJvdHRvbT0iMCIgZml0LW1hcmdpbi1sZWZ0PSIwIiBmaXQtbWFyZ2luLXJpZ2h0PSIwIiBmaXQtbWFyZ2luLXRvcD0iMCIgZ3JpZHRvbGVyYW5jZT0iMTAiIGd1aWRldG9sZXJhbmNlPSIxMCIgaWQ9Im5hbWVkdmlldzE1MTA3NSIgaW5rc2NhcGU6Y3VycmVudC1sYXllcj0ic3ZnMTUxMDczIiBpbmtzY2FwZTpjeD0iMjAuNjgwMTYiIGlua3NjYXBlOmN5PSIzNy4yNzI5NDkiIGlua3NjYXBlOnBhZ2VvcGFjaXR5PSIwIiBpbmtzY2FwZTpwYWdlc2hhZG93PSIyIiBpbmtzY2FwZTp3aW5kb3ctaGVpZ2h0PSIxMDE3IiBpbmtzY2FwZTp3aW5kb3ctbWF4aW1pemVkPSIxIiBpbmtzY2FwZTp3aW5kb3ctd2lkdGg9IjE5MjAiIGlua3NjYXBlOndpbmRvdy14PSItOCIgaW5rc2NhcGU6d2luZG93LXk9Ii04IiBpbmtzY2FwZTp6b29tPSI5LjU0MTM4IiBvYmplY3R0b2xlcmFuY2U9IjEwIiBwYWdlY29sb3I9IiNmZmZmZmYiIHNob3dncmlkPSJmYWxzZSI+JiN4YTsJPC9zb2RpcG9kaTpuYW1lZHZpZXc+JiN4YTs8ZyBpZD0iZzE1MTA3MSIgdHJhbnNmb3JtPSJ0cmFuc2xhdGUoLTYuMTIzMDA5MiwtNi4xMTc2NTMyKSI+JiN4YTsJPHRpdGxlIGlkPSJ0aXRsZTE1MDg1MiI+UGFnZS0xPC90aXRsZT4mI3hhOwk8ZyBpZD0iZ3JvdXA0MjItMSIgdHJhbnNmb3JtPSJ0cmFuc2xhdGUoNi4wNjc0NywtNi4xMikiPiYjeGE7CQk8dGl0bGUgaWQ9InRpdGxlMTUwODU0Ij5EZXZlbG9wZXIgIzI8L3RpdGxlPiYjeGE7CQk8ZyBpZD0ic2hhcGU0MjMtMiIgdHJhbnNmb3JtPSJ0cmFuc2xhdGUoMTIuNzgxNCwtMi4yOTQxKSI+JiN4YTsJCQk8dGl0bGUgaWQ9InRpdGxlMTUwODU2Ij5TaGVldC40MjM8L3RpdGxlPiYjeGE7CQkJPHBhdGggaWQ9InBhdGgxNTA4NTgiIGlua3NjYXBlOmNvbm5lY3Rvci1jdXJ2YXR1cmU9IjAiIHN0eWxlPSJmaWxsOiMzODM4Mzg7IiBkPSJNMi4xLDY1LjMzbC0wLjItMS43TDAsNDQuNDJoMTIuNDVsLTEuOSwxOS4yMSAgICAgbC0wLjE5LDEuN2wtMC4yLDEuNzFsMS4xMSwxLjExSDYuNzV2LTIuODJ2LTEuN3YtMTUuOGMwLTAuMzMtMC4yNi0wLjU5LTAuNTktMC41OXMtMC41OSwwLjI2LTAuNTksMC41OXYxNS44djEuN3YyLjgySDEuMDUgICAgIGwxLjExLTEuMTFMMi4xLDY1LjMzeiIvPiYjeGE7CQk8L2c+JiN4YTsJCTxnIGlkPSJzaGFwZTQyNC00IiB0cmFuc2Zvcm09InRyYW5zbGF0ZSgxOS41OTgyLC0wLjUyNDM2NikiPiYjeGE7CQkJPHRpdGxlIGlkPSJ0aXRsZTE1MDg2MSI+U2hlZXQuNDI0PC90aXRsZT4mI3hhOwkJCTxwYXRoIGlkPSJwYXRoMTUwODYzIiBpbmtzY2FwZTpjb25uZWN0b3ItY3VydmF0dXJlPSIwIiBzdHlsZT0iZmlsbDojMUYxRjFGOyIgZD0iTTUuNTcsNjcuNTZjMC0wLjY1LTAuNTItMS4xMS0xLjExLTEuMTEgICAgIGwtMS4xMi0xLjEybDAuNTktNS42M0gwdjguNDVoNS42NHYtMC41OUw1LjU3LDY3LjU2eiIvPiYjeGE7CQk8L2c+JiN4YTsJCTxnIGlkPSJzaGFwZTQyNS02IiB0cmFuc2Zvcm09InRyYW5zbGF0ZSgxOS41MzI2KSI+JiN4YTsJCQk8dGl0bGUgaWQ9InRpdGxlMTUwODY2Ij5TaGVldC40MjU8L3RpdGxlPiYjeGE7CQkJPHBhdGggaWQ9InBhdGgxNTA4NjgiIGlua3NjYXBlOmNvbm5lY3Rvci1jdXJ2YXR1cmU9IjAiIHN0eWxlPSJmaWxsOiMzODM4Mzg7IiBkPSJNNS42NCw2Ny41NnYwLjU5SDIuMjlMMS43LDY3LjU2djAuNTlIMHYtMC41OSAgICAgSDUuNjR6Ii8+JiN4YTsJCTwvZz4mI3hhOwkJPGcgaWQ9InNoYXBlNDI2LTgiIHRyYW5zZm9ybT0idHJhbnNsYXRlKDEyLjcxNTksLTAuNTI0MzY2KSI+JiN4YTsJCQk8dGl0bGUgaWQ9InRpdGxlMTUwODcxIj5TaGVldC40MjY8L3RpdGxlPiYjeGE7CQkJPHBhdGggaWQ9InBhdGgxNTA4NzMiIGlua3NjYXBlOmNvbm5lY3Rvci1jdXJ2YXR1cmU9IjAiIHN0eWxlPSJmaWxsOiMxRjFGMUY7IiBkPSJNMC4wNyw2Ny41NmMwLTAuNjUsMC41Mi0xLjExLDEuMTEtMS4xMSAgICAgbDEuMTEtMS4xMkwxLjcsNTkuN2gzLjk0djguNDVIMHYtMC41OUwwLjA3LDY3LjU2eiIvPiYjeGE7CQk8L2c+JiN4YTsJCTxnIGlkPSJzaGFwZTQyNy0xMCIgdHJhbnNmb3JtPSJ0cmFuc2xhdGUoMTIuNzgxNCkiPiYjeGE7CQkJPHRpdGxlIGlkPSJ0aXRsZTE1MDg3NiI+U2hlZXQuNDI3PC90aXRsZT4mI3hhOwkJCTxwYXRoIGlkPSJwYXRoMTUwODc4IiBpbmtzY2FwZTpjb25uZWN0b3ItY3VydmF0dXJlPSIwIiBzdHlsZT0iZmlsbDojMzgzODM4OyIgZD0iTTAsNjcuNTZ2MC41OWgzLjQxbDAuNTItMC41OXYwLjU5aDEuNzF2LTAuNTkgICAgIEgweiIvPiYjeGE7CQk8L2c+JiN4YTsJCTxnIGlkPSJzaGFwZTQyOC0xMiIgdHJhbnNmb3JtPSJ0cmFuc2xhdGUoMTMuMzA1OCwtNDMuNTIyNCkiPiYjeGE7CQkJPHRpdGxlIGlkPSJ0aXRsZTE1MDg4MSI+U2hlZXQuNDI4PC90aXRsZT4mI3hhOwkJCTxwYXRoIGlkPSJwYXRoMTUwODgzIiBpbmtzY2FwZTpjb25uZWN0b3ItY3VydmF0dXJlPSIwIiBzdHlsZT0iZmlsbDojMzgzODM4OyIgZD0iTTAsNjEuNGMwLTMuMTUsMi41Ni01LjY0LDUuNjQtNS42NCAgICAgczUuNjMsMi41Niw1LjYzLDUuNjR2Ni43NUgwVjYxLjR6Ii8+JiN4YTsJCTwvZz4mI3hhOwkJPGcgaWQ9InNoYXBlNDI5LTE0IiB0cmFuc2Zvcm09InRyYW5zbGF0ZSgxMy44OTU3LC00NC41NzExKSI+JiN4YTsJCQk8dGl0bGUgaWQ9InRpdGxlMTUwODg2Ij5TaGVldC40Mjk8L3RpdGxlPiYjeGE7CQkJPHBhdGggaWQ9InBhdGgxNTA4ODgiIGlua3NjYXBlOmNvbm5lY3Rvci1jdXJ2YXR1cmU9IjAiIHN0eWxlPSJmaWxsOiNCQjkxNjc7IiBkPSJNMCw2My4wNGMyLjgyLDAsNS4xMS0yLjMsNS4xMS01LjExICAgICBjMCwyLjgxLDIuMyw1LjExLDUuMTIsNS4xMWMwLDIuODItMi4zLDUuMTEtNS4xMiw1LjExUzAsNjUuODYsMCw2My4wNHoiLz4mI3hhOwkJPC9nPiYjeGE7CQk8ZyBpZD0ic2hhcGU0MzAtMTYiIHRyYW5zZm9ybT0idHJhbnNsYXRlKDguNjUyMDMsLTMxLjA2ODcpIj4mI3hhOwkJCTx0aXRsZSBpZD0idGl0bGUxNTA4OTEiPlNoZWV0LjQzMDwvdGl0bGU+JiN4YTsJCQk8cGF0aCBpZD0icGF0aDE1MDg5MyIgaW5rc2NhcGU6Y29ubmVjdG9yLWN1cnZhdHVyZT0iMCIgc3R5bGU9ImZpbGw6I0E4QThBODsiIGQ9Ik0xLjg0LDY4LjE1Yy0wLjE0LDAtMC4yNywwLTAuNC0wLjA3ICAgICBDMC41Miw2Ny44OSwwLDY2Ljk3LDAuMiw2Ni4wNWwyLjIzLTkuMDRjMC4xOS0wLjkyLDEuMTEtMS40NCwyLjAzLTEuMjVjMC45MSwwLjIsMS40NCwxLjEyLDEuMjQsMi4wM2wtMi4yMyw5LjA1ICAgICBDMy4zNCw2Ny42MywyLjYyLDY4LjE1LDEuODQsNjguMTV6Ii8+JiN4YTsJCTwvZz4mI3hhOwkJPGcgaWQ9InNoYXBlNDMxLTE4IiB0cmFuc2Zvcm09InRyYW5zbGF0ZSgyNC42MjEzLC0yOS4yNzM1KSI+JiN4YTsJCQk8dGl0bGUgaWQ9InRpdGxlMTUwODk2Ij5TaGVldC40MzE8L3RpdGxlPiYjeGE7CQkJPHBhdGggaWQ9InBhdGgxNTA4OTgiIGlua3NjYXBlOmNvbm5lY3Rvci1jdXJ2YXR1cmU9IjAiIHN0eWxlPSJmaWxsOiNBOEE4QTg7IiBkPSJNMS45Nyw2OC4xNWMtMC4yNywwLTAuNTMtMC4wNy0wLjc5LTAuMiAgICAgQzAuMzMsNjcuNTYsMCw2Ni41MSwwLjM5LDY1LjY2bDIuODItNS42NGMwLjQtMC44NSwxLjQ0LTEuMTgsMi4zLTAuNzhjMC44NSwwLjM5LDEuMTgsMS40NCwwLjc4LDIuMjlsLTIuODIsNS42NCAgICAgQzMuMTUsNjcuODIsMi41Niw2OC4xNSwxLjk3LDY4LjE1eiIvPiYjeGE7CQk8L2c+JiN4YTsJCTxnIGlkPSJzaGFwZTQzMi0yMCIgdHJhbnNmb3JtPSJ0cmFuc2xhdGUoMjIuOTY1OCwtMzUuNTQ1MSkiPiYjeGE7CQkJPHRpdGxlIGlkPSJ0aXRsZTE1MDkwMSI+U2hlZXQuNDMyPC90aXRsZT4mI3hhOwkJCTxwYXRoIGlkPSJwYXRoMTUwOTAzIiBpbmtzY2FwZTpjb25uZWN0b3ItY3VydmF0dXJlPSIwIiBzdHlsZT0iZmlsbDojQThBOEE4OyIgZD0iTTYuMzYsNjguMTVjLTAuNDYsMC0wLjg1LTAuMi0xLjE4LTAuNTIgICAgIEwwLjY2LDYzLjFDMCw2Mi40NSwwLDYxLjQsMC42Niw2MC42OGMwLjY1LTAuNjYsMS43LTAuNjYsMi40MiwwTDcuNiw2NS4yYzAuNjYsMC42NiwwLjY2LDEuNzEsMCwyLjQzICAgICBDNy4yOCw2OC4wMiw2LjgyLDY4LjE1LDYuMzYsNjguMTV6Ii8+JiN4YTsJCTwvZz4mI3hhOwkJPGcgaWQ9InNoYXBlNDMzLTIyIiB0cmFuc2Zvcm09InRyYW5zbGF0ZSgyMC42NDY5LC00OC41Njk0KSI+JiN4YTsJCQk8dGl0bGUgaWQ9InRpdGxlMTUwOTA2Ij5TaGVldC40MzM8L3RpdGxlPiYjeGE7CQkJPHBhdGggaWQ9InBhdGgxNTA5MDgiIGlua3NjYXBlOmNvbm5lY3Rvci1jdXJ2YXR1cmU9IjAiIHN0eWxlPSJmaWxsOiMxRjFGMUY7IiBkPSJNMCw2Ny4wNGMwLTAuMzMsMC4yNi0wLjU5LDAuNTktMC41OSAgICAgczAuNTksMC4yNiwwLjU5LDAuNTl2MC41MmMwLDAuMzMtMC4yNiwwLjU5LTAuNTksMC41OUMwLjI2LDY4LjE1LDAsNjcuODksMCw2Ny41NlY2Ny4wNHoiLz4mI3hhOwkJPC9nPiYjeGE7CQk8ZyBpZD0ic2hhcGU0MzQtMjQiIHRyYW5zZm9ybT0idHJhbnNsYXRlKDE2LjE4OTgsLTQ4LjU2OTQpIj4mI3hhOwkJCTx0aXRsZSBpZD0idGl0bGUxNTA5MTEiPlNoZWV0LjQzNDwvdGl0bGU+JiN4YTsJCQk8cGF0aCBpZD0icGF0aDE1MDkxMyIgaW5rc2NhcGU6Y29ubmVjdG9yLWN1cnZhdHVyZT0iMCIgc3R5bGU9ImZpbGw6IzFGMUYxRjsiIGQ9Ik0wLDY3LjA0YzAtMC4zMywwLjI2LTAuNTksMC41OS0wLjU5ICAgICBzMC41OSwwLjI2LDAuNTksMC41OXYwLjUyYzAsMC4zMy0wLjI2LDAuNTktMC41OSwwLjU5QzAuMjYsNjguMTUsMCw2Ny44OSwwLDY3LjU2VjY3LjA0eiIvPiYjeGE7CQk8L2c+JiN4YTsJCTxnIGlkPSJzaGFwZTQzNS0yNiIgdHJhbnNmb3JtPSJ0cmFuc2xhdGUoMTguMzUyOCwtNDcuOTc5NSkiPiYjeGE7CQkJPHRpdGxlIGlkPSJ0aXRsZTE1MDkxNiI+U2hlZXQuNDM1PC90aXRsZT4mI3hhOwkJCTxwYXRoIGlkPSJwYXRoMTUwOTE4IiBpbmtzY2FwZTpjb25uZWN0b3ItY3VydmF0dXJlPSIwIiBzdHlsZT0iZmlsbDojOTk3NzU4OyIgZD0iTTEuMTgsNjcuNTZjMCwwLjMzLTAuMjYsMC41OS0wLjU5LDAuNTkgICAgIEMwLjI2LDY4LjE1LDAsNjcuODksMCw2Ny41NkgxLjE4eiIvPiYjeGE7CQkJPHBhdGggaWQ9InBhdGgxNTA5MjAiIGlua3NjYXBlOmNvbm5lY3Rvci1jdXJ2YXR1cmU9IjAiIHN0eWxlPSJmaWxsOm5vbmU7IiBkPSJNMS4xOCw2Ny41NmMwLDAuMzMtMC4yNiwwLjU5LTAuNTksMC41OSAgICAgQzAuMjYsNjguMTUsMCw2Ny44OSwwLDY3LjU2Ii8+JiN4YTsJCTwvZz4mI3hhOwkJPGcgaWQ9InNoYXBlNDM2LTI5IiB0cmFuc2Zvcm09InRyYW5zbGF0ZSgxOC4xNTYyLC00Ni4wMTMxKSI+JiN4YTsJCQk8dGl0bGUgaWQ9InRpdGxlMTUwOTIzIj5TaGVldC40MzY8L3RpdGxlPiYjeGE7CQkJPHBhdGggaWQ9InBhdGgxNTA5MjUiIGlua3NjYXBlOmNvbm5lY3Rvci1jdXJ2YXR1cmU9IjAiIHN0eWxlPSJmaWxsOiNGRkZGRkY7IiBkPSJNMS43LDY3LjNjMCwwLjQ2LTAuMzksMC44NS0wLjg1LDAuODUgICAgIFMwLDY3Ljc2LDAsNjcuM0gxLjd6Ii8+JiN4YTsJCQk8cGF0aCBpZD0icGF0aDE1MDkyNyIgaW5rc2NhcGU6Y29ubmVjdG9yLWN1cnZhdHVyZT0iMCIgc3R5bGU9ImZpbGw6bm9uZTsiIGQ9Ik0xLjcsNjcuM2MwLDAuNDYtMC4zOSwwLjg1LTAuODUsMC44NSAgICAgUzAsNjcuNzYsMCw2Ny4zIi8+JiN4YTsJCTwvZz4mI3hhOwkJPGcgaWQ9InNoYXBlNDM3LTMyIiB0cmFuc2Zvcm09InRyYW5zbGF0ZSgxNS41OTk5LC00MC4zNzYyKSI+JiN4YTsJCQk8dGl0bGUgaWQ9InRpdGxlMTUwOTMwIj5TaGVldC40Mzc8L3RpdGxlPiYjeGE7CQkJPHBhdGggaWQ9InBhdGgxNTA5MzIiIGlua3NjYXBlOmNvbm5lY3Rvci1jdXJ2YXR1cmU9IjAiIHN0eWxlPSJmaWxsOiMwMEIyOTQ7IiBkPSJNNi4yMyw2NS4wN2MwLDEuNy0xLjM4LDMuMDgtMy4wOCwzLjA4ICAgICBDMS40NCw2OC4xNSwwLDY2Ljc3LDAsNjUuMDdINi4yM3oiLz4mI3hhOwkJCTxwYXRoIGlkPSJwYXRoMTUwOTM0IiBpbmtzY2FwZTpjb25uZWN0b3ItY3VydmF0dXJlPSIwIiBzdHlsZT0iZmlsbDpub25lOyIgZD0iTTYuMjMsNjUuMDdjMCwxLjctMS4zOCwzLjA4LTMuMDgsMy4wOCAgICAgQzEuNDQsNjguMTUsMCw2Ni43NywwLDY1LjA3Ii8+JiN4YTsJCTwvZz4mI3hhOwkJPGcgaWQ9InNoYXBlNDM4LTM1IiB0cmFuc2Zvcm09InRyYW5zbGF0ZSgxNi4xMjQyLC00MC45MDA1KSI+JiN4YTsJCQk8dGl0bGUgaWQ9InRpdGxlMTUwOTM3Ij5TaGVldC40Mzg8L3RpdGxlPiYjeGE7CQkJPHBhdGggaWQ9InBhdGgxNTA5MzkiIGlua3NjYXBlOmNvbm5lY3Rvci1jdXJ2YXR1cmU9IjAiIHN0eWxlPSJmaWxsOiNCQjkxNjc7IiBkPSJNNS4xMSw2NS41OWMwLDEuMzgtMS4xMSwyLjU2LTIuNTUsMi41NiAgICAgQzEuMTEsNjguMTUsMCw2Ny4wNCwwLDY1LjU5SDUuMTF6Ii8+JiN4YTsJCQk8cGF0aCBpZD0icGF0aDE1MDk0MSIgaW5rc2NhcGU6Y29ubmVjdG9yLWN1cnZhdHVyZT0iMCIgc3R5bGU9ImZpbGw6bm9uZTsiIGQ9Ik01LjExLDY1LjU5YzAsMS4zOC0xLjExLDIuNTYtMi41NSwyLjU2ICAgICBDMS4xMSw2OC4xNSwwLDY3LjA0LDAsNjUuNTkiLz4mI3hhOwkJPC9nPiYjeGE7CQk8ZyBpZD0ic2hhcGU0MzktMzgiIHRyYW5zZm9ybT0idHJhbnNsYXRlKDE4Ljk0MjcsLTIyLjYxMzMpIj4mI3hhOwkJCTx0aXRsZSBpZD0idGl0bGUxNTA5NDQiPlNoZWV0LjQzOTwvdGl0bGU+JiN4YTsJCQk8cGF0aCBpZD0icGF0aDE1MDk0NiIgaW5rc2NhcGU6Y29ubmVjdG9yLWN1cnZhdHVyZT0iMCIgc3R5bGU9ImZpbGw6I0YyRjJGMjsiIGQ9Ik0wLjA3LDY1LjkyYzAsMS4yNSwwLjk4LDIuMjMsMi4yMiwyLjIzaDMuOTQgICAgIHYtMy40MUgwdjEuMThIMC4wN3oiLz4mI3hhOwkJPC9nPiYjeGE7CQk8ZyBpZD0ic2hhcGU0NDAtNDAiIHRyYW5zZm9ybT0icm90YXRlKDE4MCwxMi41OTI5NSw0Ni4zOTIzKSI+JiN4YTsJCQk8dGl0bGUgaWQ9InRpdGxlMTUwOTQ5Ij5TaGVldC40NDA8L3RpdGxlPiYjeGE7CQkJPHJlY3QgaWQ9InJlY3QxNTA5NTEiIHg9IjAiIHk9IjUxLjc2IiBzdHlsZT0iZmlsbDojQThBOEE4OyIgd2lkdGg9IjEyLjQ1IiBoZWlnaHQ9IjE2LjM5Ii8+JiN4YTsJCTwvZz4mI3hhOwkJPGcgaWQ9InNoYXBlNDQxLTQyIiB0cmFuc2Zvcm09InRyYW5zbGF0ZSgxNi43MTQyLC00MS4yMjgzKSI+JiN4YTsJCQk8dGl0bGUgaWQ9InRpdGxlMTUwOTU0Ij5TaGVldC40NDE8L3RpdGxlPiYjeGE7CQkJPHBhdGggaWQ9InBhdGgxNTA5NTYiIGlua3NjYXBlOmNvbm5lY3Rvci1jdXJ2YXR1cmU9IjAiIHN0eWxlPSJmaWxsOiM4M0JFRUM7IiBkPSJNMi4yOSw2OC4xNWwyLjIzLTIuMjNIMEwyLjI5LDY4LjE1eiIvPiYjeGE7CQkJPHBhdGggaWQ9InBhdGgxNTA5NTgiIGlua3NjYXBlOmNvbm5lY3Rvci1jdXJ2YXR1cmU9IjAiIHN0eWxlPSJmaWxsOm5vbmU7IiBkPSJNMi4yOSw2OC4xNWwyLjIzLTIuMjNIMCIvPiYjeGE7CQk8L2c+JiN4YTsJCTxnIGlkPSJzaGFwZTQ0Mi00NSIgdHJhbnNmb3JtPSJ0cmFuc2xhdGUoMTIuODQ3LC0yMi42MTMzKSI+JiN4YTsJCQk8dGl0bGUgaWQ9InRpdGxlMTUwOTYxIj5TaGVldC40NDI8L3RpdGxlPiYjeGE7CQkJPHBhdGggaWQ9InBhdGgxNTA5NjMiIGlua3NjYXBlOmNvbm5lY3Rvci1jdXJ2YXR1cmU9IjAiIHN0eWxlPSJmaWxsOiNGMkYyRjI7IiBkPSJNNi4xNiw2NS45MmMwLDEuMjUtMC45OCwyLjIzLTIuMjMsMi4yM0gwICAgICB2LTMuNDFoNi4yM3YxLjE4SDYuMTZ6Ii8+JiN4YTsJCTwvZz4mI3hhOwkJPGcgaWQ9InNoYXBlNDQzLTQ3IiB0cmFuc2Zvcm09InRyYW5zbGF0ZSgxNy44Mjg0LC00Mi4zNDI1KSI+JiN4YTsJCQk8dGl0bGUgaWQ9InRpdGxlMTUwOTY2Ij5TaGVldC40NDM8L3RpdGxlPiYjeGE7CQkJPHBhdGggaWQ9InBhdGgxNTA5NjgiIGlua3NjYXBlOmNvbm5lY3Rvci1jdXJ2YXR1cmU9IjAiIHN0eWxlPSJmaWxsOiNFNUU1RTU7IiBkPSJNMi4yOSw2Ny4wNGwtMS4xMSwxLjExTDAsNjcuMDRIMi4yOXoiLz4mI3hhOwkJPC9nPiYjeGE7CQk8ZyBpZD0ic2hhcGU0NDQtNDkiIHRyYW5zZm9ybT0icm90YXRlKDE4MCwxMi41OTI5NSw1NC42MDgpIj4mI3hhOwkJCTx0aXRsZSBpZD0idGl0bGUxNTA5NzEiPlNoZWV0LjQ0NDwvdGl0bGU+JiN4YTsJCQk8cmVjdCBpZD0icmVjdDE1MDk3MyIgeD0iMCIgeT0iNjYuNDUiIHN0eWxlPSJmaWxsOiM4M0JFRUM7IiB3aWR0aD0iMTIuNDUiIGhlaWdodD0iMS43Ii8+JiN4YTsJCTwvZz4mI3hhOwkJPGcgaWQ9InNoYXBlNDQ1LTUxIiB0cmFuc2Zvcm09InJvdGF0ZSgtMjYuNTY1MSwtNzkuOTY4OTI0LDUuNTY2MjkxNikiPiYjeGE7CQkJPHRpdGxlIGlkPSJ0aXRsZTE1MDk3NiI+U2hlZXQuNDQ1PC90aXRsZT4mI3hhOwkJCSYjeGE7CQkJCTxyZWN0IGlkPSJyZWN0MTUwOTc4IiB4PSIwIiB5PSI2Ni45MSIgdHJhbnNmb3JtPSJtYXRyaXgoLTEgMi45NDA5NjBlLTA2IC0yLjk0MDk2MGUtMDYgLTEgMi41NTY0IDEzNS4wNTU4KSIgc3R5bGU9ImZpbGw6I0YyRjJGMjsiIHdpZHRoPSIyLjU2IiBoZWlnaHQ9IjEuMjUiLz4mI3hhOwkJPC9nPiYjeGE7CQk8ZyBpZD0ic2hhcGU0NDYtNTMiIHRyYW5zZm9ybT0icm90YXRlKC02My40MzQ5LC0yNS4wMzM1OTksMzIuMDk0NTA1KSI+JiN4YTsJCQk8dGl0bGUgaWQ9InRpdGxlMTUwOTgxIj5TaGVldC40NDY8L3RpdGxlPiYjeGE7CQkJJiN4YTsJCQkJPHJlY3QgaWQ9InJlY3QxNTA5ODMiIHg9IjAiIHk9IjY1LjU5IiB0cmFuc2Zvcm09Im1hdHJpeCgtMSAyLjEwMjc0N2UtMDYgLTIuMTAyNzQ3ZS0wNiAtMSAxLjI0NTMgMTMzLjc0NDkpIiBzdHlsZT0iZmlsbDojRjJGMkYyOyIgd2lkdGg9IjEuMjUiIGhlaWdodD0iMi41NiIvPiYjeGE7CQk8L2c+JiN4YTsJCTxnIGlkPSJzaGFwZTQ0Ny01NSIgdHJhbnNmb3JtPSJ0cmFuc2xhdGUoMjEuODY4NCwtMjcuMDQ1KSI+JiN4YTsJCQk8dGl0bGUgaWQ9InRpdGxlMTUwOTg2Ij5TaGVldC40NDc8L3RpdGxlPiYjeGE7CQkJPHBhdGggaWQ9InBhdGgxNTA5ODgiIGlua3NjYXBlOmNvbm5lY3Rvci1jdXJ2YXR1cmU9IjAiIHN0eWxlPSJmaWxsOiNCQjkxNjc7IiBkPSJNMS45LDY4LjE1Yy0wLjU5LDAtMS4yNC0wLjMzLTEuNTEtMC45MiAgICAgQzAsNjYuMzgsMC4zMyw2NS40LDEuMTgsNjQuOTRsMi4yMy0xLjEyYzAuODUtMC4zOSwxLjgzLTAuMDYsMi4yOSwwLjc5YzAuNCwwLjg1LDAuMDcsMS44NC0wLjc4LDIuM2wtMi4yMywxLjExICAgICBDMi40Myw2OC4xNSwyLjE2LDY4LjE1LDEuOSw2OC4xNXoiLz4mI3hhOwkJPC9nPiYjeGE7CQk8ZyBpZD0ic2hhcGU0NDgtNTciIHRyYW5zZm9ybT0idHJhbnNsYXRlKDMuNzM2MTEsLTMxLjA2ODcpIj4mI3hhOwkJCTx0aXRsZSBpZD0idGl0bGUxNTA5OTEiPlNoZWV0LjQ0ODwvdGl0bGU+JiN4YTsJCQk8cGF0aCBpZD0icGF0aDE1MDk5MyIgaW5rc2NhcGU6Y29ubmVjdG9yLWN1cnZhdHVyZT0iMCIgc3R5bGU9ImZpbGw6I0E4QThBODsiIGQ9Ik02Ljc1LDY4LjE1SDEuN2MtMC45MSwwLTEuNy0wLjc5LTEuNy0xLjcgICAgIGMwLTAuOTIsMC43OS0xLjcxLDEuNy0xLjcxaDUuMTJjMC45MSwwLDEuNywwLjc5LDEuNywxLjcxQzguNTIsNjcuMzYsNy43Myw2OC4xNSw2Ljc1LDY4LjE1eiIvPiYjeGE7CQk8L2c+JiN4YTsJCTxnIGlkPSJzaGFwZTQ0OS01OSIgdHJhbnNmb3JtPSJ0cmFuc2xhdGUoMi4zNTk2NSwtMzAuODA2NSkiPiYjeGE7CQkJPHRpdGxlIGlkPSJ0aXRsZTE1MDk5NiI+U2hlZXQuNDQ5PC90aXRsZT4mI3hhOwkJCTxwYXRoIGlkPSJwYXRoMTUwOTk4IiBpbmtzY2FwZTpjb25uZWN0b3ItY3VydmF0dXJlPSIwIiBzdHlsZT0iZmlsbDojRjJGMkYyOyIgZD0iTTMuMDgsNjguMTVIMS45N0MwLjg1LDY4LjE1LDAsNjcuMjMsMCw2Ni4xOCAgICAgYzAtMS4xMSwwLjkyLTEuOTYsMS45Ny0xLjk2aDEuMTFjMS4xMSwwLDEuOTcsMC45MiwxLjk3LDEuOTZDNS4wNSw2Ny4zLDQuMTksNjguMTUsMy4wOCw2OC4xNXoiLz4mI3hhOwkJPC9nPiYjeGE7CQk8ZyBpZD0iZ3JvdXA0NTAtNjEiIHRyYW5zZm9ybT0idHJhbnNsYXRlKDAsLTMzLjI5NzIpIj4mI3hhOwkJCTx0aXRsZSBpZD0idGl0bGUxNTEwMDEiPlNoZWV0LjQ1MDwvdGl0bGU+JiN4YTsJCQk8ZyBpZD0ic2hhcGU0NTEtNjIiIHRyYW5zZm9ybT0idHJhbnNsYXRlKDkuMTc2NCkiPiYjeGE7CQkJCTx0aXRsZSBpZD0idGl0bGUxNTEwMDMiPlNoZWV0LjQ1MTwvdGl0bGU+JiN4YTsJCQkJPHBhdGggaWQ9InBhdGgxNTEwMDUiIGlua3NjYXBlOmNvbm5lY3Rvci1jdXJ2YXR1cmU9IjAiIHN0eWxlPSJmaWxsOiMxRjFGMUY7IiBkPSJNMy4zNCw2OC4xNWMwLjMzLDAsMC41OS0wLjI2LDAuNTktMC41OXYtMC41OSAgICAgIEgwdjEuMTFoMy4zNFY2OC4xNXoiLz4mI3hhOwkJCTwvZz4mI3hhOwkJCTxnIGlkPSJzaGFwZTQ1Mi02NCIgdHJhbnNmb3JtPSJ0cmFuc2xhdGUoMC4zMjc3MjkpIj4mI3hhOwkJCQk8dGl0bGUgaWQ9InRpdGxlMTUxMDA4Ij5TaGVldC40NTI8L3RpdGxlPiYjeGE7CQkJCTxwYXRoIGlkPSJwYXRoMTUxMDEwIiBpbmtzY2FwZTpjb25uZWN0b3ItY3VydmF0dXJlPSIwIiBzdHlsZT0iZmlsbDojMUYxRjFGOyIgZD0iTTAsNjEuNzNsMS41Nyw2LjIyYzAsMC4xMywwLjEzLDAuMiwwLjI3LDAuMiAgICAgIGg4LjE5YzAuMiwwLDAuMzMtMC4yLDAuMjYtMC4zM0w4LjcyLDYxLjZjMC0wLjE0LTAuMTMtMC4yLTAuMjYtMC4ySDAuMzNDMC4xMyw2MS4zMywwLDYxLjUzLDAsNjEuNzN6Ii8+JiN4YTsJCQk8L2c+JiN4YTsJCQk8ZyBpZD0ic2hhcGU0NTMtNjYiPiYjeGE7CQkJCTx0aXRsZSBpZD0idGl0bGUxNTEwMTMiPlNoZWV0LjQ1MzwvdGl0bGU+JiN4YTsJCQkJPHBhdGggaWQ9InBhdGgxNTEwMTUiIGlua3NjYXBlOmNvbm5lY3Rvci1jdXJ2YXR1cmU9IjAiIHN0eWxlPSJmaWxsOiMzODM4Mzg7IiBkPSJNMC4wNyw2MS43M2wxLjU3LDYuMjIgICAgICBjMCwwLjEzLDAuMTMsMC4yLDAuMjYsMC4yaDguMTljMC4yLDAsMC4zMy0wLjIsMC4yNy0wLjMzTDguNzgsNjEuNmMwLTAuMTQtMC4xMy0wLjItMC4yNi0wLjJIMC4zMyAgICAgIEMwLjIsNjEuMzMsMCw2MS41MywwLjA3LDYxLjczeiIvPiYjeGE7CQkJPC9nPiYjeGE7CQk8L2c+JiN4YTsJCTxnIGlkPSJzaGFwZTQ1NC02OCIgdHJhbnNmb3JtPSJ0cmFuc2xhdGUoMS44MzUyOCwtMzEuMDY4NykiPiYjeGE7CQkJPHRpdGxlIGlkPSJ0aXRsZTE1MTAxOSI+U2hlZXQuNDU0PC90aXRsZT4mI3hhOwkJCTxwYXRoIGlkPSJwYXRoMTUxMDIxIiBpbmtzY2FwZTpjb25uZWN0b3ItY3VydmF0dXJlPSIwIiBzdHlsZT0iZmlsbDojQkI5MTY3OyIgZD0iTTIuNDksNjguMTVjLTAuNTksMC0xLjI0LTAuMzMtMS41MS0wLjkyICAgICBsLTAuNTktMS4xMWMtMC4zOS0wLjg1LTAuMDYtMS45LDAuNzItMi4zYzAuODYtMC4zOSwxLjg0LTAuMDYsMi4zLDAuNzlMNCw2NS43M2MwLjM5LDAuODUsMC4wNiwxLjgzLTAuNzksMi4yOSAgICAgQzIuOTUsNjguMDgsMi43NSw2OC4xNSwyLjQ5LDY4LjE1eiIvPiYjeGE7CQk8L2c+JiN4YTsJCTxnIGlkPSJzaGFwZTQ1NS03MCIgdHJhbnNmb3JtPSJ0cmFuc2xhdGUoMTUuMDEsLTQ3LjcxNzMpIj4mI3hhOwkJCTx0aXRsZSBpZD0idGl0bGUxNTEwMjQiPlNoZWV0LjQ1NTwvdGl0bGU+JiN4YTsJCQk8cGF0aCBpZD0icGF0aDE1MTAyNiIgaW5rc2NhcGU6Y29ubmVjdG9yLWN1cnZhdHVyZT0iMCIgc3R5bGU9ImZpbGw6I0NBNTAxMDsiIGQ9Ik0wLjQ2LDY1LjkydjEuNTFjMCwwLjI2LDAuMiwwLjM5LDAuMzksMC4zOSAgICAgaDEuNDRjMC40LDAsMC43My0wLjMyLDAuNzMtMC43MnYtMS44M0gxLjdjMC4xNC0wLjA3LDAuMjctMC4yLDAuNC0wLjI3aDEuMTh2MC43OWMwLjE5LTAuMTMsMC40Ni0wLjI2LDAuNzItMC4yNiAgICAgczAuNTIsMC4wNiwwLjcyLDAuMjZWNjVoMS4xMWMwLjEzLDAuMTQsMC4yNywwLjIsMC40LDAuMjdINC45MnYxLjgzYzAsMC40LDAuMzIsMC43MiwwLjcyLDAuNzJoMS40NGMwLjI2LDAsMC4zOS0wLjE5LDAuMzktMC4zOSAgICAgdi0xLjUxYzAuMDcsMCwwLjIsMC4wNywwLjI2LDAuMDd2MS40NGMwLDAuMzktMC4zMiwwLjcyLTAuNzIsMC43Mkg1LjU3Yy0wLjUyLDAtMC45OC0wLjQ2LTAuOTgtMC45OHYtMC45MiAgICAgYy0wLjItMC4yLTAuNDYtMC4zMy0wLjcyLTAuMzNzLTAuNTMsMC4xMy0wLjcyLDAuMzN2MC45MmMwLDAuNTItMC40NiwwLjk4LTAuOTksMC45OEgwLjcyQzAuMzMsNjguMTUsMCw2Ny44MiwwLDY3LjQzdi0xLjQ0ICAgICBDMC4yNiw2NS45OSwwLjMzLDY1Ljk5LDAuNDYsNjUuOTJ6Ii8+JiN4YTsJCTwvZz4mI3hhOwkJPGcgaWQ9Imdyb3VwNDU2LTcyIiB0cmFuc2Zvcm09InRyYW5zbGF0ZSgxNS40Njg4LC0zMi41MTA3KSI+JiN4YTsJCQk8dGl0bGUgaWQ9InRpdGxlMTUxMDI5Ij5TaGVldC40NTY8L3RpdGxlPiYjeGE7CQkJPGcgaWQ9InNoYXBlNDU3LTczIiB0cmFuc2Zvcm09InRyYW5zbGF0ZSg0LjI2MDQ3LC0zLjIxMTc0KSI+JiN4YTsJCQkJPHRpdGxlIGlkPSJ0aXRsZTE1MTAzMSI+U2hlZXQuNDU3PC90aXRsZT4mI3hhOwkJCQk8cGF0aCBpZD0icGF0aDE1MTAzMyIgaW5rc2NhcGU6Y29ubmVjdG9yLWN1cnZhdHVyZT0iMCIgc3R5bGU9ImZpbGw6I0YyRjJGMjsiIGQ9Ik0wLjEzLDY4LjE1QzAuMDcsNjguMTUsMC4wNyw2OC4xNSwwLjEzLDY4LjE1ICAgICAgQzAsNjguMTUsMCw2OC4wMiwwLDY3Ljk1bDIuNTYtNy42YzAtMC4wNiwwLjEzLTAuMTMsMC4xOS0wLjA2YzAuMDcsMCwwLjEzLDAuMTMsMC4wNywwLjE5bC0yLjU2LDcuNiAgICAgIEMwLjIsNjguMTUsMC4xMyw2OC4xNSwwLjEzLDY4LjE1eiIvPiYjeGE7CQkJPC9nPiYjeGE7CQkJPGcgaWQ9InNoYXBlNDU4LTc1IiB0cmFuc2Zvcm09InRyYW5zbGF0ZSgwLC0zLjIxMTc0KSI+JiN4YTsJCQkJPHRpdGxlIGlkPSJ0aXRsZTE1MTAzNiI+U2hlZXQuNDU4PC90aXRsZT4mI3hhOwkJCQk8cGF0aCBpZD0icGF0aDE1MTAzOCIgaW5rc2NhcGU6Y29ubmVjdG9yLWN1cnZhdHVyZT0iMCIgc3R5bGU9ImZpbGw6I0YyRjJGMjsiIGQ9Ik0yLjY5LDY4LjE1Yy0wLjA3LDAtMC4xMy0wLjA3LTAuMTMtMC4wNyAgICAgIEwwLDYwLjQ4YzAtMC4wNiwwLTAuMTMsMC4wNy0wLjE5YzAuMDYsMCwwLjEzLDAsMC4xOSwwLjA2bDIuNTYsNy42QzIuODIsNjguMDIsMi44Miw2OC4xNSwyLjY5LDY4LjE1TDIuNjksNjguMTV6Ii8+JiN4YTsJCQk8L2c+JiN4YTsJCQk8ZyBpZD0ic2hhcGU0NTktNzciIHRyYW5zZm9ybT0idHJhbnNsYXRlKDIuNDI1MTkpIj4mI3hhOwkJCQk8dGl0bGUgaWQ9InRpdGxlMTUxMDQxIj5TaGVldC40NTk8L3RpdGxlPiYjeGE7CQkJCTxwYXRoIGlkPSJwYXRoMTUxMDQzIiBpbmtzY2FwZTpjb25uZWN0b3ItY3VydmF0dXJlPSIwIiBzdHlsZT0iZmlsbDojRTVFNUU1OyIgZD0iTTIuMjMsNjcuODljMCwwLjEzLTAuMTMsMC4yNi0wLjI2LDAuMjZIMC4yNiAgICAgIEMwLjEzLDY4LjE1LDAsNjguMDIsMCw2Ny44OXYtMy40MWMwLTAuMTMsMC4xMy0wLjI2LDAuMjYtMC4yNmgxLjcxYzAuMTMsMCwwLjI2LDAuMTMsMC4yNiwwLjI2VjY3Ljg5eiIvPiYjeGE7CQkJPC9nPiYjeGE7CQkJPGcgaWQ9Imdyb3VwNDYwLTc5IiB0cmFuc2Zvcm09InRyYW5zbGF0ZSgyLjYzODE1LC0xLjExODQ3KSI+JiN4YTsJCQkJPHRpdGxlIGlkPSJ0aXRsZTE1MTA0NiI+U2hlZXQuNDYwPC90aXRsZT4mI3hhOwkJCQk8ZyBpZD0ic2hhcGU0NjEtODAiIHRyYW5zZm9ybT0icm90YXRlKDE4MCwwLjg1MjA2LDY3LjI5ODUpIj4mI3hhOwkJCQkJPHRpdGxlIGlkPSJ0aXRsZTE1MTA0OCI+U2hlZXQuNDYxPC90aXRsZT4mI3hhOwkJCQkJPHJlY3QgaWQ9InJlY3QxNTEwNTAiIHg9IjAiIHk9IjY3LjM2IiBzdHlsZT0iZmlsbDojRTgxMjI0OyIgd2lkdGg9IjAuNzkiIGhlaWdodD0iMC43OSIvPiYjeGE7CQkJCTwvZz4mI3hhOwkJCQk8ZyBpZD0ic2hhcGU0NjItODIiIHRyYW5zZm9ybT0icm90YXRlKDE4MCwwLjM5MzI3NDUsNjcuMjk4NSkiPiYjeGE7CQkJCQk8dGl0bGUgaWQ9InRpdGxlMTUxMDUzIj5TaGVldC40NjI8L3RpdGxlPiYjeGE7CQkJCQk8cmVjdCBpZD0icmVjdDE1MTA1NSIgeD0iMCIgeT0iNjcuMzYiIHN0eWxlPSJmaWxsOiMxM0ExMEU7IiB3aWR0aD0iMC43OSIgaGVpZ2h0PSIwLjc5Ii8+JiN4YTsJCQkJPC9nPiYjeGE7CQkJCTxnIGlkPSJzaGFwZTQ2My04NCIgdHJhbnNmb3JtPSJyb3RhdGUoMTgwLDAuODUyMDYsNjcuNzU3KSI+JiN4YTsJCQkJCTx0aXRsZSBpZD0idGl0bGUxNTEwNTgiPlNoZWV0LjQ2MzwvdGl0bGU+JiN4YTsJCQkJCTxyZWN0IGlkPSJyZWN0MTUxMDYwIiB4PSIwIiB5PSI2Ny4zNiIgc3R5bGU9ImZpbGw6IzNBOTZERDsiIHdpZHRoPSIwLjc5IiBoZWlnaHQ9IjAuNzkiLz4mI3hhOwkJCQk8L2c+JiN4YTsJCQkJPGcgaWQ9InNoYXBlNDY0LTg2IiB0cmFuc2Zvcm09InJvdGF0ZSgxODAsMC4zOTMyNzQ1LDY3Ljc1NykiPiYjeGE7CQkJCQk8dGl0bGUgaWQ9InRpdGxlMTUxMDYzIj5TaGVldC40NjQ8L3RpdGxlPiYjeGE7CQkJCQk8cmVjdCBpZD0icmVjdDE1MTA2NSIgeD0iMCIgeT0iNjcuMzYiIHN0eWxlPSJmaWxsOiNGRkI5MDA7IiB3aWR0aD0iMC43OSIgaGVpZ2h0PSIwLjc5Ii8+JiN4YTsJCQkJPC9nPiYjeGE7CQkJPC9nPiYjeGE7CQk8L2c+JiN4YTsJPC9nPiYjeGE7PC9nPiYjeGE7PC9zdmc+;fontSize=25;" vertex="1" parent="1">
          <mxGeometry x="606" y="69" width="31" height="56" as="geometry" />
        </mxCell>
        <mxCell id="dnq7VN7bOO2wTZYb34gf-29" value="产品" style="text;html=1;align=center;verticalAlign=middle;resizable=0;points=[];autosize=1;strokeColor=none;fillColor=none;fontSize=10;" vertex="1" parent="1">
          <mxGeometry x="606" y="133" width="34" height="16" as="geometry" />
        </mxCell>
        <mxCell id="dnq7VN7bOO2wTZYb34gf-76" style="edgeStyle=orthogonalEdgeStyle;curved=1;rounded=0;orthogonalLoop=1;jettySize=auto;html=1;exitX=0;exitY=0.5;exitDx=0;exitDy=0;entryX=0;entryY=0.5;entryDx=0;entryDy=0;fontFamily=Helvetica;fontSize=10;fontColor=none;endArrow=block;endFill=0;" edge="1" parent="1" source="dnq7VN7bOO2wTZYb34gf-31" target="dnq7VN7bOO2wTZYb34gf-33">
          <mxGeometry relative="1" as="geometry" />
        </mxCell>
        <mxCell id="dnq7VN7bOO2wTZYb34gf-31" value="任务派发" style="rounded=1;whiteSpace=wrap;html=1;fontSize=10;fillColor=#1ba1e2;fontColor=#ffffff;strokeColor=none;" vertex="1" parent="1">
          <mxGeometry x="768" y="177" width="85" height="28.25" as="geometry" />
        </mxCell>
        <mxCell id="dnq7VN7bOO2wTZYb34gf-32" value="代码提交" style="rounded=1;whiteSpace=wrap;html=1;fontSize=10;fillColor=#1ba1e2;fontColor=#ffffff;strokeColor=none;" vertex="1" parent="1">
          <mxGeometry x="768" y="215.75" width="85" height="28.25" as="geometry" />
        </mxCell>
        <mxCell id="dnq7VN7bOO2wTZYb34gf-75" style="edgeStyle=orthogonalEdgeStyle;curved=1;rounded=0;orthogonalLoop=1;jettySize=auto;html=1;exitX=1;exitY=0.5;exitDx=0;exitDy=0;entryX=1;entryY=0.5;entryDx=0;entryDy=0;fontFamily=Helvetica;fontSize=10;fontColor=none;endArrow=block;endFill=0;" edge="1" parent="1" source="dnq7VN7bOO2wTZYb34gf-33" target="dnq7VN7bOO2wTZYb34gf-31">
          <mxGeometry relative="1" as="geometry" />
        </mxCell>
        <mxCell id="dnq7VN7bOO2wTZYb34gf-33" value="持续集成" style="rounded=1;whiteSpace=wrap;html=1;fontSize=10;fillColor=#1ba1e2;fontColor=#ffffff;strokeColor=none;" vertex="1" parent="1">
          <mxGeometry x="770" y="255" width="85" height="28.25" as="geometry" />
        </mxCell>
        <mxCell id="dnq7VN7bOO2wTZYb34gf-35" value="开发环境" style="rounded=1;whiteSpace=wrap;html=1;fontSize=10;fillColor=#1ba1e2;fontColor=#ffffff;strokeColor=none;" vertex="1" parent="1">
          <mxGeometry x="731.5" y="293.75" width="159.5" height="28.25" as="geometry" />
        </mxCell>
        <mxCell id="dnq7VN7bOO2wTZYb34gf-36" value="" style="rounded=0;whiteSpace=wrap;html=1;fontSize=10;fontColor=#333333;strokeColor=none;fillColor=#f5f5f5;" vertex="1" parent="1">
          <mxGeometry x="916" y="169.5" width="158" height="122" as="geometry" />
        </mxCell>
        <mxCell id="dnq7VN7bOO2wTZYb34gf-73" style="edgeStyle=orthogonalEdgeStyle;curved=1;rounded=0;orthogonalLoop=1;jettySize=auto;html=1;exitX=0;exitY=0.5;exitDx=0;exitDy=0;entryX=0;entryY=0.5;entryDx=0;entryDy=0;fontFamily=Helvetica;fontSize=10;fontColor=none;endArrow=block;endFill=0;" edge="1" parent="1" source="dnq7VN7bOO2wTZYb34gf-37" target="dnq7VN7bOO2wTZYb34gf-39">
          <mxGeometry relative="1" as="geometry" />
        </mxCell>
        <mxCell id="dnq7VN7bOO2wTZYb34gf-37" value="持续迭代" style="rounded=1;whiteSpace=wrap;html=1;fontSize=10;fillColor=#1ba1e2;fontColor=#ffffff;strokeColor=none;" vertex="1" parent="1">
          <mxGeometry x="952.5" y="178.5" width="85" height="28.25" as="geometry" />
        </mxCell>
        <mxCell id="dnq7VN7bOO2wTZYb34gf-38" value="代码提交/review" style="rounded=1;whiteSpace=wrap;html=1;fontSize=10;fillColor=#1ba1e2;fontColor=#ffffff;strokeColor=none;" vertex="1" parent="1">
          <mxGeometry x="952.5" y="217.25" width="90.5" height="28.25" as="geometry" />
        </mxCell>
        <mxCell id="dnq7VN7bOO2wTZYb34gf-74" style="edgeStyle=orthogonalEdgeStyle;curved=1;rounded=0;orthogonalLoop=1;jettySize=auto;html=1;exitX=1;exitY=0.5;exitDx=0;exitDy=0;entryX=1;entryY=0.5;entryDx=0;entryDy=0;fontFamily=Helvetica;fontSize=10;fontColor=none;endArrow=block;endFill=0;" edge="1" parent="1" source="dnq7VN7bOO2wTZYb34gf-39" target="dnq7VN7bOO2wTZYb34gf-37">
          <mxGeometry relative="1" as="geometry" />
        </mxCell>
        <mxCell id="dnq7VN7bOO2wTZYb34gf-39" value="持续集成" style="rounded=1;whiteSpace=wrap;html=1;fontSize=10;fillColor=#1ba1e2;fontColor=#ffffff;strokeColor=none;" vertex="1" parent="1">
          <mxGeometry x="954.5" y="256.5" width="85" height="28.25" as="geometry" />
        </mxCell>
        <mxCell id="dnq7VN7bOO2wTZYb34gf-40" value="dev&amp;amp;test 环境" style="rounded=1;whiteSpace=wrap;html=1;fontSize=10;fillColor=#1ba1e2;fontColor=#ffffff;strokeColor=none;" vertex="1" parent="1">
          <mxGeometry x="916" y="295.25" width="159.5" height="28.25" as="geometry" />
        </mxCell>
        <mxCell id="dnq7VN7bOO2wTZYb34gf-41" value="" style="rounded=0;whiteSpace=wrap;html=1;fontSize=10;fontColor=#333333;strokeColor=none;fillColor=#f5f5f5;" vertex="1" parent="1">
          <mxGeometry x="1096" y="171.5" width="158" height="122" as="geometry" />
        </mxCell>
        <mxCell id="dnq7VN7bOO2wTZYb34gf-77" style="edgeStyle=orthogonalEdgeStyle;curved=1;rounded=0;orthogonalLoop=1;jettySize=auto;html=1;exitX=0;exitY=0.5;exitDx=0;exitDy=0;entryX=0;entryY=0.5;entryDx=0;entryDy=0;fontFamily=Helvetica;fontSize=10;fontColor=none;endArrow=block;endFill=0;" edge="1" parent="1" source="dnq7VN7bOO2wTZYb34gf-42" target="dnq7VN7bOO2wTZYb34gf-44">
          <mxGeometry relative="1" as="geometry" />
        </mxCell>
        <mxCell id="dnq7VN7bOO2wTZYb34gf-42" value="集成测试" style="rounded=1;whiteSpace=wrap;html=1;fontSize=10;fillColor=#1ba1e2;fontColor=#ffffff;strokeColor=none;" vertex="1" parent="1">
          <mxGeometry x="1132.5" y="180.5" width="85" height="28.25" as="geometry" />
        </mxCell>
        <mxCell id="dnq7VN7bOO2wTZYb34gf-43" value="自动化测试" style="rounded=1;whiteSpace=wrap;html=1;fontSize=10;fillColor=#1ba1e2;fontColor=#ffffff;strokeColor=none;" vertex="1" parent="1">
          <mxGeometry x="1132.5" y="219.25" width="90.5" height="28.25" as="geometry" />
        </mxCell>
        <mxCell id="dnq7VN7bOO2wTZYb34gf-78" style="edgeStyle=orthogonalEdgeStyle;curved=1;rounded=0;orthogonalLoop=1;jettySize=auto;html=1;exitX=1;exitY=0.5;exitDx=0;exitDy=0;entryX=1;entryY=0.5;entryDx=0;entryDy=0;fontFamily=Helvetica;fontSize=10;fontColor=none;endArrow=block;endFill=0;" edge="1" parent="1" source="dnq7VN7bOO2wTZYb34gf-44" target="dnq7VN7bOO2wTZYb34gf-42">
          <mxGeometry relative="1" as="geometry" />
        </mxCell>
        <mxCell id="dnq7VN7bOO2wTZYb34gf-44" value="制品进阶" style="rounded=1;whiteSpace=wrap;html=1;fontSize=10;fillColor=#1ba1e2;fontColor=#ffffff;strokeColor=none;" vertex="1" parent="1">
          <mxGeometry x="1134.5" y="258.5" width="85" height="28.25" as="geometry" />
        </mxCell>
        <mxCell id="dnq7VN7bOO2wTZYb34gf-45" value="SIT环境" style="rounded=1;whiteSpace=wrap;html=1;fontSize=10;fillColor=#1ba1e2;fontColor=#ffffff;strokeColor=none;" vertex="1" parent="1">
          <mxGeometry x="1096" y="297.25" width="159.5" height="28.25" as="geometry" />
        </mxCell>
        <mxCell id="dnq7VN7bOO2wTZYb34gf-79" style="edgeStyle=orthogonalEdgeStyle;curved=1;rounded=0;orthogonalLoop=1;jettySize=auto;html=1;exitX=0;exitY=0.5;exitDx=0;exitDy=0;entryX=0;entryY=0.5;entryDx=0;entryDy=0;fontFamily=Helvetica;fontSize=10;fontColor=none;endArrow=block;endFill=0;" edge="1" parent="1" source="dnq7VN7bOO2wTZYb34gf-47" target="dnq7VN7bOO2wTZYb34gf-49">
          <mxGeometry relative="1" as="geometry" />
        </mxCell>
        <mxCell id="dnq7VN7bOO2wTZYb34gf-47" value="持续交付" style="rounded=1;whiteSpace=wrap;html=1;fontSize=10;fillColor=#1ba1e2;fontColor=#ffffff;strokeColor=none;" vertex="1" parent="1">
          <mxGeometry x="1313.5" y="184" width="85" height="28.25" as="geometry" />
        </mxCell>
        <mxCell id="dnq7VN7bOO2wTZYb34gf-80" style="edgeStyle=orthogonalEdgeStyle;curved=1;rounded=0;orthogonalLoop=1;jettySize=auto;html=1;exitX=1;exitY=0.5;exitDx=0;exitDy=0;entryX=1;entryY=0.5;entryDx=0;entryDy=0;fontFamily=Helvetica;fontSize=10;fontColor=none;endArrow=block;endFill=0;" edge="1" parent="1" source="dnq7VN7bOO2wTZYb34gf-49" target="dnq7VN7bOO2wTZYb34gf-47">
          <mxGeometry relative="1" as="geometry" />
        </mxCell>
        <mxCell id="dnq7VN7bOO2wTZYb34gf-49" value="持续反馈" style="rounded=1;whiteSpace=wrap;html=1;fontSize=10;fillColor=#1ba1e2;fontColor=#ffffff;strokeColor=none;" vertex="1" parent="1">
          <mxGeometry x="1315.5" y="262" width="85" height="28.25" as="geometry" />
        </mxCell>
        <mxCell id="dnq7VN7bOO2wTZYb34gf-50" value="UAT环境" style="rounded=1;whiteSpace=wrap;html=1;fontSize=10;fillColor=#1ba1e2;fontColor=#ffffff;strokeColor=none;" vertex="1" parent="1">
          <mxGeometry x="1277" y="296.88" width="75" height="28.25" as="geometry" />
        </mxCell>
        <mxCell id="dnq7VN7bOO2wTZYb34gf-56" value="" style="html=1;shadow=0;dashed=0;align=center;verticalAlign=middle;shape=mxgraph.arrows2.arrow;dy=0;dx=11;notch=10;fontSize=10;fontColor=#ffffff;fillColor=#1ba1e2;strokeColor=none;" vertex="1" parent="1">
          <mxGeometry x="705" y="238" width="23" height="17" as="geometry" />
        </mxCell>
        <mxCell id="dnq7VN7bOO2wTZYb34gf-58" value="" style="html=1;shadow=0;dashed=0;align=center;verticalAlign=middle;shape=mxgraph.arrows2.arrow;dy=0;dx=11;notch=10;fontSize=10;fontColor=#ffffff;fillColor=#1ba1e2;strokeColor=none;" vertex="1" parent="1">
          <mxGeometry x="889.5" y="239" width="23" height="17" as="geometry" />
        </mxCell>
        <mxCell id="dnq7VN7bOO2wTZYb34gf-61" value="" style="html=1;shadow=0;dashed=0;align=center;verticalAlign=middle;shape=mxgraph.arrows2.arrow;dy=0;dx=11;notch=10;fontSize=10;fontColor=#ffffff;fillColor=#1ba1e2;strokeColor=none;" vertex="1" parent="1">
          <mxGeometry x="1071" y="239" width="23" height="17" as="geometry" />
        </mxCell>
        <mxCell id="dnq7VN7bOO2wTZYb34gf-62" value="" style="html=1;shadow=0;dashed=0;align=center;verticalAlign=middle;shape=mxgraph.arrows2.arrow;dy=0;dx=11;notch=10;fontSize=10;fontColor=#ffffff;fillColor=#1ba1e2;strokeColor=none;" vertex="1" parent="1">
          <mxGeometry x="1254" y="239" width="23" height="17" as="geometry" />
        </mxCell>
        <mxCell id="dnq7VN7bOO2wTZYb34gf-81" value="" style="html=1;shadow=0;dashed=0;align=center;verticalAlign=middle;shape=mxgraph.arrows2.arrow;dy=0.53;dx=38;notch=15;fontFamily=Helvetica;fontSize=10;fillColor=#dae8fc;strokeColor=none;" vertex="1" parent="1">
          <mxGeometry x="286" y="113" width="69" height="31" as="geometry" />
        </mxCell>
        <mxCell id="dnq7VN7bOO2wTZYb34gf-82" value="&lt;div style=&quot;&quot;&gt;质&lt;/div&gt;&lt;div style=&quot;&quot;&gt;量&lt;/div&gt;&lt;div style=&quot;&quot;&gt;合&lt;/div&gt;&lt;div style=&quot;&quot;&gt;规&lt;/div&gt;" style="text;html=1;align=left;verticalAlign=middle;resizable=0;points=[];autosize=1;strokeColor=none;fillColor=none;fontSize=10;fontFamily=Helvetica;fontColor=none;" vertex="1" parent="1">
          <mxGeometry x="737" y="204" width="22" height="52" as="geometry" />
        </mxCell>
        <mxCell id="dnq7VN7bOO2wTZYb34gf-83" value="&lt;div style=&quot;&quot;&gt;质&lt;/div&gt;&lt;div style=&quot;&quot;&gt;量&lt;/div&gt;&lt;div style=&quot;&quot;&gt;不&lt;/div&gt;&lt;div style=&quot;&quot;&gt;合&lt;/div&gt;&lt;div style=&quot;&quot;&gt;规&lt;/div&gt;" style="text;html=1;align=left;verticalAlign=middle;resizable=0;points=[];autosize=1;strokeColor=none;fillColor=none;fontSize=10;fontFamily=Helvetica;fontColor=none;" vertex="1" parent="1">
          <mxGeometry x="871" y="198" width="22" height="64" as="geometry" />
        </mxCell>
        <mxCell id="dnq7VN7bOO2wTZYb34gf-84" value="&lt;div style=&quot;&quot;&gt;质&lt;/div&gt;&lt;div style=&quot;&quot;&gt;量&lt;/div&gt;&lt;div style=&quot;&quot;&gt;合&lt;/div&gt;&lt;div style=&quot;&quot;&gt;规&lt;/div&gt;" style="text;html=1;align=left;verticalAlign=middle;resizable=0;points=[];autosize=1;strokeColor=none;fillColor=none;fontSize=10;fontFamily=Helvetica;fontColor=none;" vertex="1" parent="1">
          <mxGeometry x="919" y="206.5" width="22" height="52" as="geometry" />
        </mxCell>
        <mxCell id="dnq7VN7bOO2wTZYb34gf-85" value="&lt;div style=&quot;&quot;&gt;质&lt;/div&gt;&lt;div style=&quot;&quot;&gt;量&lt;/div&gt;&lt;div style=&quot;&quot;&gt;不&lt;/div&gt;&lt;div style=&quot;&quot;&gt;合&lt;/div&gt;&lt;div style=&quot;&quot;&gt;规&lt;/div&gt;" style="text;html=1;align=left;verticalAlign=middle;resizable=0;points=[];autosize=1;strokeColor=none;fillColor=none;fontSize=10;fontFamily=Helvetica;fontColor=none;" vertex="1" parent="1">
          <mxGeometry x="1057" y="203.12" width="22" height="64" as="geometry" />
        </mxCell>
        <mxCell id="dnq7VN7bOO2wTZYb34gf-86" value="&lt;div style=&quot;&quot;&gt;质&lt;/div&gt;&lt;div style=&quot;&quot;&gt;量&lt;/div&gt;&lt;div style=&quot;&quot;&gt;合&lt;/div&gt;&lt;div style=&quot;&quot;&gt;规&lt;/div&gt;" style="text;html=1;align=left;verticalAlign=middle;resizable=0;points=[];autosize=1;strokeColor=none;fillColor=none;fontSize=10;fontFamily=Helvetica;fontColor=default;" vertex="1" parent="1">
          <mxGeometry x="1099" y="206.5" width="22" height="52" as="geometry" />
        </mxCell>
        <mxCell id="dnq7VN7bOO2wTZYb34gf-87" value="&lt;div style=&quot;&quot;&gt;质&lt;/div&gt;&lt;div style=&quot;&quot;&gt;量&lt;/div&gt;&lt;div style=&quot;&quot;&gt;不&lt;/div&gt;&lt;div style=&quot;&quot;&gt;合&lt;/div&gt;&lt;div style=&quot;&quot;&gt;规&lt;/div&gt;" style="text;html=1;align=left;verticalAlign=middle;resizable=0;points=[];autosize=1;strokeColor=none;fillColor=none;fontSize=10;fontFamily=Helvetica;fontColor=none;" vertex="1" parent="1">
          <mxGeometry x="1237" y="200.5" width="22" height="64" as="geometry" />
        </mxCell>
        <mxCell id="dnq7VN7bOO2wTZYb34gf-94" value="" style="shape=image;verticalLabelPosition=bottom;labelBackgroundColor=#ffffff;verticalAlign=top;aspect=fixed;imageAspect=0;image=data:image/svg+xml,PHN2ZyB4bWxuczpjYz0iaHR0cDovL2NyZWF0aXZlY29tbW9ucy5vcmcvbnMjIiB4bWxuczpkYz0iaHR0cDovL3B1cmwub3JnL2RjL2VsZW1lbnRzLzEuMS8iIHhtbG5zOmlua3NjYXBlPSJodHRwOi8vd3d3Lmlua3NjYXBlLm9yZy9uYW1lc3BhY2VzL2lua3NjYXBlIiB4bWxuczpyZGY9Imh0dHA6Ly93d3cudzMub3JnLzE5OTkvMDIvMjItcmRmLXN5bnRheC1ucyMiIHhtbG5zOnNvZGlwb2RpPSJodHRwOi8vc29kaXBvZGkuc291cmNlZm9yZ2UubmV0L0RURC9zb2RpcG9kaS0wLmR0ZCIgeG1sbnM6c3ZnPSJodHRwOi8vd3d3LnczLm9yZy8yMDAwL3N2ZyIgeG1sbnM9Imh0dHA6Ly93d3cudzMub3JnLzIwMDAvc3ZnIiB4bWxuczp4bGluaz0iaHR0cDovL3d3dy53My5vcmcvMTk5OS94bGluayIgdmVyc2lvbj0iMS4xIiBpZD0ic3ZnMTQ5NTIwIiBpbmtzY2FwZTp2ZXJzaW9uPSIwLjkyLjMgKDI0MDU1NDYsIDIwMTgtMDMtMTEpIiBzb2RpcG9kaTpkb2NuYW1lPSJkZXZlbG9wZXIuc3ZnIiB4PSIwcHgiIHk9IjBweCIgdmlld0JveD0iMCAwIDExOS4yNCA5Ny40NCIgc3R5bGU9ImVuYWJsZS1iYWNrZ3JvdW5kOm5ldyAwIDAgMTE5LjI0IDk3LjQ0OyIgeG1sOnNwYWNlPSJwcmVzZXJ2ZSI+JiN4YTs8c29kaXBvZGk6bmFtZWR2aWV3IGJvcmRlcmNvbG9yPSIjNjY2NjY2IiBib3JkZXJvcGFjaXR5PSIxIiBmaXQtbWFyZ2luLWJvdHRvbT0iMCIgZml0LW1hcmdpbi1sZWZ0PSIwIiBmaXQtbWFyZ2luLXJpZ2h0PSIwIiBmaXQtbWFyZ2luLXRvcD0iMCIgZ3JpZHRvbGVyYW5jZT0iMTAiIGd1aWRldG9sZXJhbmNlPSIxMCIgaWQ9Im5hbWVkdmlldzE0OTUyMiIgaW5rc2NhcGU6Y3VycmVudC1sYXllcj0ic3ZnMTQ5NTIwIiBpbmtzY2FwZTpjeD0iNzkuNDkwMjQ1IiBpbmtzY2FwZTpjeT0iNjQuOTYxNzI4IiBpbmtzY2FwZTpwYWdlb3BhY2l0eT0iMCIgaW5rc2NhcGU6cGFnZXNoYWRvdz0iMiIgaW5rc2NhcGU6d2luZG93LWhlaWdodD0iMTAxNyIgaW5rc2NhcGU6d2luZG93LW1heGltaXplZD0iMSIgaW5rc2NhcGU6d2luZG93LXdpZHRoPSIxOTIwIiBpbmtzY2FwZTp3aW5kb3cteD0iLTgiIGlua3NjYXBlOndpbmRvdy15PSItOCIgaW5rc2NhcGU6em9vbT0iNi41NzIzODgyIiBvYmplY3R0b2xlcmFuY2U9IjEwIiBwYWdlY29sb3I9IiNmZmZmZmYiIHNob3dncmlkPSJmYWxzZSI+JiN4YTsJPC9zb2RpcG9kaTpuYW1lZHZpZXc+JiN4YTs8ZyBpZD0iZzE0OTUxOCIgdHJhbnNmb3JtPSJ0cmFuc2xhdGUoLTAuNzUsLTAuNzQ4MzMzNzUpIj4mI3hhOwk8dGl0bGUgaWQ9InRpdGxlMTQ5MzkyIj5QYWdlLTE8L3RpdGxlPiYjeGE7CTxnIGlkPSJncm91cDM2MS0xIiB0cmFuc2Zvcm09InRyYW5zbGF0ZSgwLjc1LC0wLjc1KSI+JiN4YTsJCTx0aXRsZSBpZD0idGl0bGUxNDkzOTQiPkRldmVsb3BlcjwvdGl0bGU+JiN4YTsJCTxnIGlkPSJzaGFwZTM2Mi0yIiB0cmFuc2Zvcm09InRyYW5zbGF0ZSgxMC43NzY4LC0zNS44NTcyKSI+JiN4YTsJCQk8dGl0bGUgaWQ9InRpdGxlMTQ5Mzk2Ij5wYXRoNzczLjE5MjE8L3RpdGxlPiYjeGE7CQkJPHBhdGggaWQ9InBhdGgxNDkzOTgiIGlua3NjYXBlOmNvbm5lY3Rvci1jdXJ2YXR1cmU9IjAiIHN0eWxlPSJmaWxsOiNFQ0QxOEY7IiBkPSJNMCw0Mi4wMmg2NC42OXY1Ni45MkgwVjQyLjAyeiIvPiYjeGE7CQk8L2c+JiN4YTsJCTxnIGlkPSJzaGFwZTM2My00Ij4mI3hhOwkJCTx0aXRsZSBpZD0idGl0bGUxNDk0MDEiPnBhdGg3NzM8L3RpdGxlPiYjeGE7CQkJPHBhdGggaWQ9InBhdGgxNDk0MDMiIGlua3NjYXBlOmNvbm5lY3Rvci1jdXJ2YXR1cmU9IjAiIHN0eWxlPSJmaWxsOiNDMzk3NEY7IiBkPSJNMCw4My42N2gxMTkuMjR2MTUuMjdIMFY4My42N3oiLz4mI3hhOwkJPC9nPiYjeGE7CQk8ZyBpZD0ic2hhcGUzNjQtNiIgdHJhbnNmb3JtPSJ0cmFuc2xhdGUoNDYuMjExMywtMjQuMTY1NCkiPiYjeGE7CQkJPHRpdGxlIGlkPSJ0aXRsZTE0OTQwNiI+cGF0aDc3NTwvdGl0bGU+JiN4YTsJCQk8cGF0aCBpZD0icGF0aDE0OTQwOCIgaW5rc2NhcGU6Y29ubmVjdG9yLWN1cnZhdHVyZT0iMCIgc3R5bGU9ImZpbGw6I0ZGRkZGRjsiIGQ9Ik0yMi4xMSw3My4yNmwtMy4yLTcuMjNsLTAuMzgtMC4wN0wxLjIxLDY4Ljc3ICAgICBMMCw3Mi42M2wwLjI5LDQuNzRsMTEuNDYsMjEuNTdsOC4yNi0xMy4yMkwyMi4xMSw3My4yNnoiLz4mI3hhOwkJPC9nPiYjeGE7CQk8ZyBpZD0ic2hhcGUzNjUtOCIgdHJhbnNmb3JtPSJ0cmFuc2xhdGUoNDcuNzk3MSwtMzkuNDY1MSkiPiYjeGE7CQkJPHRpdGxlIGlkPSJ0aXRsZTE0OTQxMSI+cGF0aDc3NzwvdGl0bGU+JiN4YTsJCQk8cGF0aCBpZD0icGF0aDE0OTQxMyIgaW5rc2NhcGU6Y29ubmVjdG9yLWN1cnZhdHVyZT0iMCIgc3R5bGU9ImZpbGw6I0VDRDE4RjsiIGQ9Ik0yLjE4LDc4LjVMMCw4NC43NGwxLjEyLDYuMDNMNC4yNSw5NSAgICAgbDQuODMsMy45NGwwLjE1LTE1LjAybC0xLjY5LTAuMTlMMi4xOCw3OC41eiIvPiYjeGE7CQk8L2c+JiN4YTsJCTxnIGlkPSJzaGFwZTM2Ni0xMCIgdHJhbnNmb3JtPSJ0cmFuc2xhdGUoNDkuNzE1MywtMzkuMjU4NykiPiYjeGE7CQkJPHRpdGxlIGlkPSJ0aXRsZTE0OTQxNiI+cGF0aDc3OTwvdGl0bGU+JiN4YTsJCQk8cGF0aCBpZD0icGF0aDE0OTQxOCIgaW5rc2NhcGU6Y29ubmVjdG9yLWN1cnZhdHVyZT0iMCIgc3R5bGU9ImZpbGw6I0YxRERBRTsiIGQ9Ik0xNC45NSw3Ny41NWwtNi4wMyw1LjM4bC0xLjY5LDAuMTlsLTEuNy0wLjE5ICAgICBsLTUuMjYtNC42NGwwLjE1LDcuNkwwLDkxLjU4bDIuMzMsMy4yMmw0Ljk2LDQuMTRoMC4wNGw0Ljk2LTQuMTRsMi4zMy0zLjIybDAuNTEtNS45MUwxNC45NSw3Ny41NXoiLz4mI3hhOwkJPC9nPiYjeGE7CQk8ZyBpZD0ic2hhcGUzNjctMTIiIHRyYW5zZm9ybT0idHJhbnNsYXRlKDE4LjI0OTksLTExLjc5MDcpIj4mI3hhOwkJCTx0aXRsZSBpZD0idGl0bGUxNDk0MjEiPnBhdGg3ODE8L3RpdGxlPiYjeGE7CQkJPHBhdGggaWQ9InBhdGgxNDk0MjMiIGlua3NjYXBlOmNvbm5lY3Rvci1jdXJ2YXR1cmU9IjAiIHN0eWxlPSJmaWxsOiMwMzgyQkU7IiBkPSJNNC40MSw2OC4xM2w2LjY3LTUuNzlsOC4yMy0yLjE2bDMuMjEtMS44NCAgICAgbDMuMzYtMC4zOGwzLjQyLTUuMTNsMi40My0yLjAxbC0yLjE4LDYuMjVsLTAuMDksMy42MWwwLjU2LDMuOThsMi4xMywzLjE2bDUuNjcsNC43NGwxLjg5LDEyLjQxbC0wLjU1LDEzLjk3TDEuNDIsOTUuMzNMMCw5Mi43OSAgICAgbDAuNjktOC4wNWwyLjM5LTQuNzJMNC40MSw2OC4xM3oiLz4mI3hhOwkJPC9nPiYjeGE7CQk8ZyBpZD0ic2hhcGUzNjgtMTQiIHRyYW5zZm9ybT0idHJhbnNsYXRlKDQyLjI2OTMsLTM1Ljk4MTMpIj4mI3hhOwkJCTx0aXRsZSBpZD0idGl0bGUxNDk0MjYiPnBhdGg3ODM8L3RpdGxlPiYjeGE7CQkJPHBhdGggaWQ9InBhdGgxNDk0MjgiIGlua3NjYXBlOmNvbm5lY3Rvci1jdXJ2YXR1cmU9IjAiIHN0eWxlPSJmaWxsOiMwMDcxQTY7IiBkPSJNMCw4Ny41NWwxLjktNS40bDMuMzgtNS4xM2wyLjQzLTIuMDEgICAgIGwtMi4xMyw2LjI1bC0wLjA5LDMuNjFsMC41NiwzLjk4bDIuMTMsMy4xNmw1LjYyLDQuNzRsLTEyLDIuMTlMMCw4Ny41NXoiLz4mI3hhOwkJPC9nPiYjeGE7CQk8ZyBpZD0ic2hhcGUzNjktMTYiIHRyYW5zZm9ybT0idHJhbnNsYXRlKDU3LjQxMywtMTEuNzkwNykiPiYjeGE7CQkJPHRpdGxlIGlkPSJ0aXRsZTE0OTQzMSI+cGF0aDc4NTwvdGl0bGU+JiN4YTsJCQk8cGF0aCBpZD0icGF0aDE0OTQzMyIgaW5rc2NhcGU6Y29ubmVjdG9yLWN1cnZhdHVyZT0iMCIgc3R5bGU9ImZpbGw6IzAzODJCRTsiIGQ9Ik0zMi4zLDY1Ljg0bC00LjgxLTIuODJMMjMsNjEuOWwtNC4yLTIuMSAgICAgbC01LjM5LTEuMzFsLTEuOTUtMC42NGwtMy43NS00LjE5bDEuMTQsMy40MWwwLjA4LDMuNjFsLTAuNTUsMy45OEw3LjcyLDY4LjVsLTUuNDgsNS4ybC0xLjcsMTEuMzVMMCw5OC45NGwzNS40OC0zLjU3bDEuMDMtMi4wNCAgICAgbC0xLjI2LTcuMWwtMC4xNi0xMS40NEwzMi4zLDY1Ljg0eiIvPiYjeGE7CQk8L2c+JiN4YTsJCTxnIGlkPSJzaGFwZTM3MC0xOCIgdHJhbnNmb3JtPSJ0cmFuc2xhdGUoNTkuNjg4NSwtMzcuMDI4NCkiPiYjeGE7CQkJPHRpdGxlIGlkPSJ0aXRsZTE0OTQzNiI+cGF0aDc4NzwvdGl0bGU+JiN4YTsJCQk8cGF0aCBpZD0icGF0aDE0OTQzOCIgaW5rc2NhcGU6Y29ubmVjdG9yLWN1cnZhdHVyZT0iMCIgc3R5bGU9ImZpbGw6IzAwNzFBNjsiIGQ9Ik0xMi42Miw4OC44MmwwLjQyLTIuN2wtMy44Ni0zLjAzbC0zLjc0LTQuMiAgICAgbDEuMDgsMy40MWwwLjA5LDMuNjFMNi4wNSw4OS45bC0wLjY5LDMuOUwwLDk4Ljk0bDE0LjItMC44NkwxMi42Miw4OC44MnoiLz4mI3hhOwkJPC9nPiYjeGE7CQk8ZyBpZD0ic2hhcGUzNzEtMjAiIHRyYW5zZm9ybT0idHJhbnNsYXRlKDE5LjY2OTYsLTExLjA4NTkpIj4mI3hhOwkJCTx0aXRsZSBpZD0idGl0bGUxNDk0NDEiPnBhdGg3ODk8L3RpdGxlPiYjeGE7CQkJPHBhdGggaWQ9InBhdGgxNDk0NDMiIGlua3NjYXBlOmNvbm5lY3Rvci1jdXJ2YXR1cmU9IjAiIHN0eWxlPSJmaWxsOiNGMUREQUU7IiBkPSJNNSw4Mi40M2wtNC4wNiwzLjVMMCw5Mi43MmwzLjQyLDIuOCAgICAgbDE5Ljg5LDMuNDJsMi44My02LjMxTDUsODIuNDN6IE02OC4yNiw4Mi40M2w0LjA3LDMuNWwwLjk0LDYuNzlsLTMuNDMsMi44bC0xOS44OSwzLjQybC0yLjgzLTYuMzFMNjguMjYsODIuNDN6Ii8+JiN4YTsJCTwvZz4mI3hhOwkJPGcgaWQ9InNoYXBlMzcyLTIyIiB0cmFuc2Zvcm09InRyYW5zbGF0ZSg0Mi44MDgsLTUzLjk3NDQpIj4mI3hhOwkJCTx0aXRsZSBpZD0idGl0bGUxNDk0NDYiPnBhdGg3OTE8L3RpdGxlPiYjeGE7CQkJPHBhdGggaWQ9InBhdGgxNDk0NDgiIGlua3NjYXBlOmNvbm5lY3Rvci1jdXJ2YXR1cmU9IjAiIHN0eWxlPSJmaWxsOiNGN0VCRDA7IiBkPSJNMjcuNzUsNzYuMTVsLTEuMjcsMC41MmwtMC4yOS0xMi44OSAgICAgbC0xMS45Ny0wLjE3aC0wLjAxTDIuMjUsNjMuNzhsLTAuMywxMi44OWwtMS4yNy0wLjUyTDAsNzYuMjVsMC4wNiw1Ljg5bDEuNTcsMy4zbDEuOTUsMS4wMWwxLjM4LDQuODZsMy4wMiwzLjY2bDQuNTUsMy43OCAgICAgbDEuNjgsMC4xOWgwLjAxbDEuNjktMC4xOWw0LjU0LTMuNzhsMy4wMy0zLjY2bDEuMzgtNC44NmwxLjk1LTEuMDFsMS41Ny0zLjNsMC4wNS01Ljg5TDI3Ljc1LDc2LjE1eiIvPiYjeGE7CQk8L2c+JiN4YTsJCTxnIGlkPSJzaGFwZTM3My0yNCIgdHJhbnNmb3JtPSJ0cmFuc2xhdGUoNDUuOTI5NCwtNTMuOTY5NCkiPiYjeGE7CQkJPHRpdGxlIGlkPSJ0aXRsZTE0OTQ1MSI+cGF0aDc5MzwvdGl0bGU+JiN4YTsJCQk8cGF0aCBpZD0icGF0aDE0OTQ1MyIgaW5rc2NhcGU6Y29ubmVjdG9yLWN1cnZhdHVyZT0iMCIgc3R5bGU9ImZpbGw6IzRGNEQ0QjsiIGQ9Ik0yMS42Niw4NC4xOWwtMC41LDEuNjdsLTEuODMsMy4yM2wtMi42LDEuNzEgICAgIGwtMS4wNS0xLjc3TDExLjEsODguMmwtNC42MSwwLjgzTDUuNDUsOTAuOGwtMi42MS0xLjcxbC0xLjgzLTMuMjNMMC41LDg0LjE5TDAsODQuMDdsMC40NiwyLjM4bDEuMzcsNC44NmwzLjAyLDMuNjZMOC44LDk4LjcgICAgIGwyLjI4LDAuMjRsMi4yOS0wLjI0bDMuOTQtMy43M2wzLjAyLTMuNjZsMS40MS00Ljg2bDAuNDQtMi4zOEwyMS42Niw4NC4xOXogTTEzLjYxLDk0Ljc2bC0xLjM5LDAuMTRsLTEtMC43SDEwLjlsLTEuMDEsMC43ICAgICBsLTEuMzgtMC4xNGwtMi4zMi0yLjA1bDAuODMtMi44MWw0LjAzLTAuMDhsNC4wMiwwLjA4bDAuODYsMi44M0wxMy42MSw5NC43NnoiLz4mI3hhOwkJPC9nPiYjeGE7CQk8ZyBpZD0ic2hhcGUzNzQtMjYiIHRyYW5zZm9ybT0idHJhbnNsYXRlKDQ0Ljc0MTIsLTU5LjUyMjQpIj4mI3hhOwkJCTx0aXRsZSBpZD0idGl0bGUxNDk0NTYiPnBhdGg3OTU8L3RpdGxlPiYjeGE7CQkJPHBhdGggaWQ9InBhdGgxNDk0NTgiIGlua3NjYXBlOmNvbm5lY3Rvci1jdXJ2YXR1cmU9IjAiIHN0eWxlPSJmaWxsOiM0RjRENEI7IiBkPSJNMTMuMjcsOTcuNzVIMTEuM2wwLjUsMC45MWwwLjQ4LDAuMjd2MC4wMSAgICAgdi0wLjAxbDAuMDEsMC4wMXYtMC4wMWwwLjQ4LTAuMjdMMTMuMjcsOTcuNzV6IE0yNC41Nyw4MS41M2wtMS43MiwwLjIybC0wLjE5LTAuMDdsLTIuMzUtMC40NmgtMy44OWwtMy41OSwwLjU4SDExLjdsLTMuNTktMC41OCAgICAgSDQuMjRMMS45LDgxLjY4bC0wLjE4LDAuMDZMMCw4MS41M3YwLjY5bDAuOTMsMC4xMmwwLjcsMy4yNmwwLjYxLDAuNjFsMS44NSwwLjQ2aDMuMTNsMi43NC0wLjYzbDEuNDEtMi4yNmwwLjU3LTAuNjRoMC42NSAgICAgbDAuNTcsMC42NGwxLjQxLDIuMjZsMi43NCwwLjYzaDMuMTNsMS44NS0wLjQ2bDAuNjEtMC42MWwwLjctMy4yNmwwLjkzLTAuMTJMMjQuNTcsODEuNTN6IE0xMC4zOSw4My4yOGwtMC43NywyLjE4bC0yLjU3LDAuNTUgICAgIEg0LjAzbC0xLjM3LTAuMzRsLTAuNTEtMC40NGwtMC4zNi0yLjQxbDAuNDEtMC41MWwyLjAxLTAuMzhoMy44NWwyLjM1LDAuMzZMMTAuMzksODMuMjh6IE0yMi40MSw4NS4yMmwtMC41MSwwLjQ0bC0xLjM2LDAuMzUgICAgIGgtMy4wM2wtMi41Ni0wLjU2bC0wLjc4LTIuMTZ2LTEuMDFsMi4zNS0wLjM1aDMuODRsMi4wMSwwLjM4bDAuNDEsMC41TDIyLjQxLDg1LjIyeiIvPiYjeGE7CQk8L2c+JiN4YTsJCTxnIGlkPSJzaGFwZTM3NS0yOCIgdHJhbnNmb3JtPSJ0cmFuc2xhdGUoNDIuOTk0MywtNzYuMjQxOCkiPiYjeGE7CQkJPHRpdGxlIGlkPSJ0aXRsZTE0OTQ2MSI+cGF0aDc5NzwvdGl0bGU+JiN4YTsJCQk8cGF0aCBpZD0icGF0aDE0OTQ2MyIgaW5rc2NhcGU6Y29ubmVjdG9yLWN1cnZhdHVyZT0iMCIgc3R5bGU9ImZpbGw6IzRGNEQ0QjsiIGQ9Ik0yNy42NCw4NC4zbC0yLjEtMi4xNGwtMy4wNy0yLjAybC00LjQtMS44MSAgICAgbC00LjAzLTAuNTloLTAuMDFsLTQuMDQsMC41OWwtMy42NywyLjI1bC0zLjQsMy4zOWwtMC42NywwLjE3TDAsOTAuMzVsMC4xNiw2Ljc3bDAuMzQsMS4yOWwxLjI3LDAuNTNsMC40NC04LjdsMi44MS0zLjk1ICAgICBsNi40MSwwLjdsMi4yOCwyLjExaDAuNjRsMi4yOC0yLjExbDYuNDEtMC43bDIuODIsMy45NWwwLjQzLDguN2wxLjI3LTAuNTNsMC4zNS0xLjI5bDAuNTktNi44M0wyNy42NCw4NC4zeiIvPiYjeGE7CQk8L2c+JiN4YTsJCTxnIGlkPSJzaGFwZTM3Ni0zMCIgdHJhbnNmb3JtPSJ0cmFuc2xhdGUoNTQuNzE0NSwtNjUuNDM3OSkiPiYjeGE7CQkJPHRpdGxlIGlkPSJ0aXRsZTE0OTQ2NiI+cGF0aDc5OTwvdGl0bGU+JiN4YTsJCQk8cGF0aCBpZD0icGF0aDE0OTQ2OCIgaW5rc2NhcGU6Y29ubmVjdG9yLWN1cnZhdHVyZT0iMCIgc3R5bGU9ImZpbGw6I0VDRDE4RjsiIGQ9Ik0xLjYxLDk4LjVsLTEtMC4yMUwwLDk4LjYybDAuNSwwLjMyTDEuNjEsOTguNSAgICAgeiBNMy4wNiw5OC41bDAuOTktMC4yMWwwLjYxLDAuMzNsLTAuNTEsMC4zMkwzLjA2LDk4LjV6Ii8+JiN4YTsJCTwvZz4mI3hhOwkJPGcgaWQ9InNoYXBlMzc3LTMyIiB0cmFuc2Zvcm09InRyYW5zbGF0ZSg0MS4wNTEsLTY2LjA4NzMpIj4mI3hhOwkJCTx0aXRsZSBpZD0idGl0bGUxNDk0NzEiPnBhdGg4MDE8L3RpdGxlPiYjeGE7CQkJPHBhdGggaWQ9InBhdGgxNDk0NzMiIGlua3NjYXBlOmNvbm5lY3Rvci1jdXJ2YXR1cmU9IjAiIHN0eWxlPSJmaWxsOiMzRjU3NjU7IiBkPSJNMy43Myw4Ny44MmwwLjA5LDQuOTFsMS4wOCwzLjQ1bDAuNDQsMi4zOCAgICAgbC0xLjY1LDAuMzhIMi40NWwtMC4xNC0wLjY5SDAuOTRMMCw5My4yM2wwLjUtNC43MmwwLjksMC4yN2wwLjA0LTAuOTlMMy43Myw4Ny44MnogTTI4LjIyLDg3LjgybC0wLjA5LDQuOTFsLTEuMDgsMy40NSAgICAgbC0wLjQzLDIuMzhsMS42NCwwLjM4aDEuMjRsMC4xNC0wLjY5aDEuMzdsMC45NC01LjAybC0wLjUtNC43MmwtMC45LDAuMjdsLTAuMDUtMC45OUwyOC4yMiw4Ny44MnoiLz4mI3hhOwkJPC9nPiYjeGE7CQk8ZyBpZD0ic2hhcGUzNzgtMzQiIHRyYW5zZm9ybT0idHJhbnNsYXRlKDIxLjQxNjYsLTMuNTM0MTkpIj4mI3hhOwkJCTx0aXRsZSBpZD0idGl0bGUxNDk0NzYiPnBhdGg4MDM8L3RpdGxlPiYjeGE7CQkJPHBhdGggaWQ9InBhdGgxNDk0NzgiIGlua3NjYXBlOmNvbm5lY3Rvci1jdXJ2YXR1cmU9IjAiIHN0eWxlPSJmaWxsOiMzRjU3NjU7IiBkPSJNMjAuMzYsMTUuNDFsLTEuOTcsOC45N2wwLjI0LDUuMDN2MS40ICAgICBsMC4zOCwxLjNsMC44NC0wLjMybDAuMTctMS4xMWwtMC4yNC0xLjMxbDAuMDUtNC43MWwxLjc1LTguNDJsNS4yNy02LjI1bDguNzYtMS40NFY3LjE2bC05LjM2LDEuNDhMMjAuMzYsMTUuNDF6IE01MC44NiwxNS40MSAgICAgbC01Ljg5LTYuNzdsLTkuMzYtMS40OHYxLjM5bDguNzYsMS40NGw1LjI3LDYuMjVsMS43NSw4LjQybDAuMDYsNC43MWwtMC4yNSwxLjMxbDAuMTgsMS4xMWwwLjgzLDAuMzJsMC4zOC0xLjN2LTEuNGwwLjI1LTUuMDMgICAgIEw1MC44NiwxNS40MXogTTksOTguOTRsLTcuMzYtMS4zMUwwLDkzLjA1bDMuNTQtMy4yNGw2LjMxLTEuMmw4LjA1LTI0LjI3bDIuMDEtMTMuMDRsNC4wNi02LjIybC0xLjE1LTkuMzJsMS0wLjE2bDEuMjIsOS43ICAgICBsLTQuMTgsNi4zOGwtMiwxMi45NGwtOC4yNCwyNC44N2wtNi42MSwxLjI1bC0yLjg0LDIuNmwxLjIyLDMuNGw2LjgsMS4yMUw5LDk4Ljk0eiIvPiYjeGE7CQk8L2c+JiN4YTsJCTxnIGlkPSJzaGFwZTM3OS0zNiIgdHJhbnNmb3JtPSJ0cmFuc2xhdGUoMzAuMjY3MiwtMS45ODM1OCkiPiYjeGE7CQkJPHRpdGxlIGlkPSJ0aXRsZTE0OTQ4MSI+cGF0aDgwNTwvdGl0bGU+JiN4YTsJCQk8cGF0aCBpZD0icGF0aDE0OTQ4MyIgaW5rc2NhcGU6Y29ubmVjdG9yLWN1cnZhdHVyZT0iMCIgc3R5bGU9ImZpbGw6IzRGNEQ0QjsiIGQ9Ik01MC42Miw2NS4xNUgxLjMyTDAsNjYuMzl2MzIuNTVoNTEuOTRWNjYuNDYgICAgIEw1MC42Miw2NS4xNXoiLz4mI3hhOwkJPC9nPiYjeGE7CQk8ZyBpZD0iZ3JvdXAzODAtMzgiIHRyYW5zZm9ybT0idHJhbnNsYXRlKDUxLjYyMDgsLTE0LjI2NTMpIj4mI3hhOwkJCTx0aXRsZSBpZD0idGl0bGUxNDk0ODYiPk1pY3Jvc29mdDwvdGl0bGU+JiN4YTsJCQk8ZyBpZD0ic2hhcGUzODEtMzkiIHRyYW5zZm9ybT0idHJhbnNsYXRlKDAsLTQuODYyOTEpIj4mI3hhOwkJCQk8dGl0bGUgaWQ9InRpdGxlMTQ5NDg4Ij5IVFRQIEFQSSBBcHA8L3RpdGxlPiYjeGE7CQkJCTxwYXRoIGlkPSJwYXRoMTQ5NDkwIiBpbmtzY2FwZTpjb25uZWN0b3ItY3VydmF0dXJlPSIwIiBzdHlsZT0iZmlsbDojRjI1MDIyOyIgZD0iTTAsOTQuNTd2NC4zN2g0LjM3di00LjM3SDB6Ii8+JiN4YTsJCQk8L2c+JiN4YTsJCQk8ZyBpZD0ic2hhcGUzODItNDEiIHRyYW5zZm9ybT0idHJhbnNsYXRlKDQuODYwMDYsLTQuODYyOTEpIj4mI3hhOwkJCQk8dGl0bGUgaWQ9InRpdGxlMTQ5NDkzIj5IVFRQIEFQSSBBcHAuMTQ2MTwvdGl0bGU+JiN4YTsJCQkJPHBhdGggaWQ9InBhdGgxNDk0OTUiIGlua3NjYXBlOmNvbm5lY3Rvci1jdXJ2YXR1cmU9IjAiIHN0eWxlPSJmaWxsOiM3RkJBMDA7IiBkPSJNMCw5NC41N3Y0LjM3aDQuMzd2LTQuMzdIMHoiLz4mI3hhOwkJCTwvZz4mI3hhOwkJCTxnIGlkPSJzaGFwZTM4My00MyIgdHJhbnNmb3JtPSJ0cmFuc2xhdGUoNC44NjAwNikiPiYjeGE7CQkJCTx0aXRsZSBpZD0idGl0bGUxNDk0OTgiPkhUVFAgQVBJIEFwcC4xNDYyPC90aXRsZT4mI3hhOwkJCQk8cGF0aCBpZD0icGF0aDE0OTUwMCIgaW5rc2NhcGU6Y29ubmVjdG9yLWN1cnZhdHVyZT0iMCIgc3R5bGU9ImZpbGw6I0ZGQjkwMDsiIGQ9Ik0wLDk0LjU3djQuMzdoNC4zN3YtNC4zN0gweiIvPiYjeGE7CQkJPC9nPiYjeGE7CQkJPGcgaWQ9InNoYXBlMzg0LTQ1Ij4mI3hhOwkJCQk8dGl0bGUgaWQ9InRpdGxlMTQ5NTAzIj5IVFRQIEFQSSBBcHAuMTQ2MzwvdGl0bGU+JiN4YTsJCQkJPHBhdGggaWQ9InBhdGgxNDk1MDUiIGlua3NjYXBlOmNvbm5lY3Rvci1jdXJ2YXR1cmU9IjAiIHN0eWxlPSJmaWxsOiMwMEE0RUY7IiBkPSJNMCw5NC41N3Y0LjM3aDQuMzd2LTQuMzdIMHoiLz4mI3hhOwkJCTwvZz4mI3hhOwkJPC9nPiYjeGE7CQk8ZyBpZD0iZ3JvdXAzODUtNDciIHRyYW5zZm9ybT0idHJhbnNsYXRlKDE1LjM4MzUsLTcwLjc0NDUpIj4mI3hhOwkJCTx0aXRsZSBpZD0idGl0bGUxNDk1MDkiPlZpc3VhbCBTdHVkaW88L3RpdGxlPiYjeGE7CQkJPGcgaWQ9InNoYXBlMzg2LTQ4Ij4mI3hhOwkJCQk8dGl0bGUgaWQ9InRpdGxlMTQ5NTExIj5TaGVldC4zODY8L3RpdGxlPiYjeGE7CQkJCTxwYXRoIGlkPSJwYXRoMTQ5NTEzIiBpbmtzY2FwZTpjb25uZWN0b3ItY3VydmF0dXJlPSIwIiBzdHlsZT0iZmlsbDojNjgyMTdBOyIgZD0iTTEzLjA5LDkzLjQ3bC00LjI2LTMuMzlsNC4yNi0zLjM4VjkzLjQ3eiAgICAgICBNMS45MSw5Mi41N3YtNC44NmwyLjMyLDIuNDlMMS45MSw5Mi41N3ogTTEzLjE4LDgxLjUybC02Ljc2LDYuNDNsLTQuMjQtMi45OEwwLDg1Ljc1djguNzNsMS41MSwxLjExbDQuNy0zLjU0bDYuOTEsNi44OSAgICAgIGw0LjI5LTEuNzRWODMuMjZMMTMuMTgsODEuNTJ6Ii8+JiN4YTsJCQk8L2c+JiN4YTsJCTwvZz4mI3hhOwk8L2c+JiN4YTs8L2c+JiN4YTs8L3N2Zz4=;fontFamily=Helvetica;fontSize=10;fontColor=none;" vertex="1" parent="1">
          <mxGeometry x="1333.66" y="84.28999999999999" width="51.17" height="41.71" as="geometry" />
        </mxCell>
        <mxCell id="dnq7VN7bOO2wTZYb34gf-95" value="运维团队" style="text;html=1;align=center;verticalAlign=middle;resizable=0;points=[];autosize=1;strokeColor=none;fillColor=none;fontSize=10;" vertex="1" parent="1">
          <mxGeometry x="1329" y="133" width="58" height="16" as="geometry" />
        </mxCell>
        <mxCell id="dnq7VN7bOO2wTZYb34gf-99" value="" style="shape=image;verticalLabelPosition=bottom;labelBackgroundColor=#ffffff;verticalAlign=top;aspect=fixed;imageAspect=0;image=data:image/svg+xml,PHN2ZyB4bWxuczpjYz0iaHR0cDovL2NyZWF0aXZlY29tbW9ucy5vcmcvbnMjIiB4bWxuczpkYz0iaHR0cDovL3B1cmwub3JnL2RjL2VsZW1lbnRzLzEuMS8iIHhtbG5zOmlua3NjYXBlPSJodHRwOi8vd3d3Lmlua3NjYXBlLm9yZy9uYW1lc3BhY2VzL2lua3NjYXBlIiB4bWxuczpyZGY9Imh0dHA6Ly93d3cudzMub3JnLzE5OTkvMDIvMjItcmRmLXN5bnRheC1ucyMiIHhtbG5zOnNvZGlwb2RpPSJodHRwOi8vc29kaXBvZGkuc291cmNlZm9yZ2UubmV0L0RURC9zb2RpcG9kaS0wLmR0ZCIgeG1sbnM6c3ZnPSJodHRwOi8vd3d3LnczLm9yZy8yMDAwL3N2ZyIgeG1sbnM9Imh0dHA6Ly93d3cudzMub3JnLzIwMDAvc3ZnIiB4bWxuczp4bGluaz0iaHR0cDovL3d3dy53My5vcmcvMTk5OS94bGluayIgdmVyc2lvbj0iMS4xIiBpZD0ic3ZnMTQ5NTIwIiBpbmtzY2FwZTp2ZXJzaW9uPSIwLjkyLjMgKDI0MDU1NDYsIDIwMTgtMDMtMTEpIiBzb2RpcG9kaTpkb2NuYW1lPSJkZXZlbG9wZXIuc3ZnIiB4PSIwcHgiIHk9IjBweCIgdmlld0JveD0iMCAwIDExOS4yNCA5Ny40NCIgc3R5bGU9ImVuYWJsZS1iYWNrZ3JvdW5kOm5ldyAwIDAgMTE5LjI0IDk3LjQ0OyIgeG1sOnNwYWNlPSJwcmVzZXJ2ZSI+JiN4YTs8c29kaXBvZGk6bmFtZWR2aWV3IGJvcmRlcmNvbG9yPSIjNjY2NjY2IiBib3JkZXJvcGFjaXR5PSIxIiBmaXQtbWFyZ2luLWJvdHRvbT0iMCIgZml0LW1hcmdpbi1sZWZ0PSIwIiBmaXQtbWFyZ2luLXJpZ2h0PSIwIiBmaXQtbWFyZ2luLXRvcD0iMCIgZ3JpZHRvbGVyYW5jZT0iMTAiIGd1aWRldG9sZXJhbmNlPSIxMCIgaWQ9Im5hbWVkdmlldzE0OTUyMiIgaW5rc2NhcGU6Y3VycmVudC1sYXllcj0ic3ZnMTQ5NTIwIiBpbmtzY2FwZTpjeD0iNzkuNDkwMjQ1IiBpbmtzY2FwZTpjeT0iNjQuOTYxNzI4IiBpbmtzY2FwZTpwYWdlb3BhY2l0eT0iMCIgaW5rc2NhcGU6cGFnZXNoYWRvdz0iMiIgaW5rc2NhcGU6d2luZG93LWhlaWdodD0iMTAxNyIgaW5rc2NhcGU6d2luZG93LW1heGltaXplZD0iMSIgaW5rc2NhcGU6d2luZG93LXdpZHRoPSIxOTIwIiBpbmtzY2FwZTp3aW5kb3cteD0iLTgiIGlua3NjYXBlOndpbmRvdy15PSItOCIgaW5rc2NhcGU6em9vbT0iNi41NzIzODgyIiBvYmplY3R0b2xlcmFuY2U9IjEwIiBwYWdlY29sb3I9IiNmZmZmZmYiIHNob3dncmlkPSJmYWxzZSI+JiN4YTsJPC9zb2RpcG9kaTpuYW1lZHZpZXc+JiN4YTs8ZyBpZD0iZzE0OTUxOCIgdHJhbnNmb3JtPSJ0cmFuc2xhdGUoLTAuNzUsLTAuNzQ4MzMzNzUpIj4mI3hhOwk8dGl0bGUgaWQ9InRpdGxlMTQ5MzkyIj5QYWdlLTE8L3RpdGxlPiYjeGE7CTxnIGlkPSJncm91cDM2MS0xIiB0cmFuc2Zvcm09InRyYW5zbGF0ZSgwLjc1LC0wLjc1KSI+JiN4YTsJCTx0aXRsZSBpZD0idGl0bGUxNDkzOTQiPkRldmVsb3BlcjwvdGl0bGU+JiN4YTsJCTxnIGlkPSJzaGFwZTM2Mi0yIiB0cmFuc2Zvcm09InRyYW5zbGF0ZSgxMC43NzY4LC0zNS44NTcyKSI+JiN4YTsJCQk8dGl0bGUgaWQ9InRpdGxlMTQ5Mzk2Ij5wYXRoNzczLjE5MjE8L3RpdGxlPiYjeGE7CQkJPHBhdGggaWQ9InBhdGgxNDkzOTgiIGlua3NjYXBlOmNvbm5lY3Rvci1jdXJ2YXR1cmU9IjAiIHN0eWxlPSJmaWxsOiNFQ0QxOEY7IiBkPSJNMCw0Mi4wMmg2NC42OXY1Ni45MkgwVjQyLjAyeiIvPiYjeGE7CQk8L2c+JiN4YTsJCTxnIGlkPSJzaGFwZTM2My00Ij4mI3hhOwkJCTx0aXRsZSBpZD0idGl0bGUxNDk0MDEiPnBhdGg3NzM8L3RpdGxlPiYjeGE7CQkJPHBhdGggaWQ9InBhdGgxNDk0MDMiIGlua3NjYXBlOmNvbm5lY3Rvci1jdXJ2YXR1cmU9IjAiIHN0eWxlPSJmaWxsOiNDMzk3NEY7IiBkPSJNMCw4My42N2gxMTkuMjR2MTUuMjdIMFY4My42N3oiLz4mI3hhOwkJPC9nPiYjeGE7CQk8ZyBpZD0ic2hhcGUzNjQtNiIgdHJhbnNmb3JtPSJ0cmFuc2xhdGUoNDYuMjExMywtMjQuMTY1NCkiPiYjeGE7CQkJPHRpdGxlIGlkPSJ0aXRsZTE0OTQwNiI+cGF0aDc3NTwvdGl0bGU+JiN4YTsJCQk8cGF0aCBpZD0icGF0aDE0OTQwOCIgaW5rc2NhcGU6Y29ubmVjdG9yLWN1cnZhdHVyZT0iMCIgc3R5bGU9ImZpbGw6I0ZGRkZGRjsiIGQ9Ik0yMi4xMSw3My4yNmwtMy4yLTcuMjNsLTAuMzgtMC4wN0wxLjIxLDY4Ljc3ICAgICBMMCw3Mi42M2wwLjI5LDQuNzRsMTEuNDYsMjEuNTdsOC4yNi0xMy4yMkwyMi4xMSw3My4yNnoiLz4mI3hhOwkJPC9nPiYjeGE7CQk8ZyBpZD0ic2hhcGUzNjUtOCIgdHJhbnNmb3JtPSJ0cmFuc2xhdGUoNDcuNzk3MSwtMzkuNDY1MSkiPiYjeGE7CQkJPHRpdGxlIGlkPSJ0aXRsZTE0OTQxMSI+cGF0aDc3NzwvdGl0bGU+JiN4YTsJCQk8cGF0aCBpZD0icGF0aDE0OTQxMyIgaW5rc2NhcGU6Y29ubmVjdG9yLWN1cnZhdHVyZT0iMCIgc3R5bGU9ImZpbGw6I0VDRDE4RjsiIGQ9Ik0yLjE4LDc4LjVMMCw4NC43NGwxLjEyLDYuMDNMNC4yNSw5NSAgICAgbDQuODMsMy45NGwwLjE1LTE1LjAybC0xLjY5LTAuMTlMMi4xOCw3OC41eiIvPiYjeGE7CQk8L2c+JiN4YTsJCTxnIGlkPSJzaGFwZTM2Ni0xMCIgdHJhbnNmb3JtPSJ0cmFuc2xhdGUoNDkuNzE1MywtMzkuMjU4NykiPiYjeGE7CQkJPHRpdGxlIGlkPSJ0aXRsZTE0OTQxNiI+cGF0aDc3OTwvdGl0bGU+JiN4YTsJCQk8cGF0aCBpZD0icGF0aDE0OTQxOCIgaW5rc2NhcGU6Y29ubmVjdG9yLWN1cnZhdHVyZT0iMCIgc3R5bGU9ImZpbGw6I0YxRERBRTsiIGQ9Ik0xNC45NSw3Ny41NWwtNi4wMyw1LjM4bC0xLjY5LDAuMTlsLTEuNy0wLjE5ICAgICBsLTUuMjYtNC42NGwwLjE1LDcuNkwwLDkxLjU4bDIuMzMsMy4yMmw0Ljk2LDQuMTRoMC4wNGw0Ljk2LTQuMTRsMi4zMy0zLjIybDAuNTEtNS45MUwxNC45NSw3Ny41NXoiLz4mI3hhOwkJPC9nPiYjeGE7CQk8ZyBpZD0ic2hhcGUzNjctMTIiIHRyYW5zZm9ybT0idHJhbnNsYXRlKDE4LjI0OTksLTExLjc5MDcpIj4mI3hhOwkJCTx0aXRsZSBpZD0idGl0bGUxNDk0MjEiPnBhdGg3ODE8L3RpdGxlPiYjeGE7CQkJPHBhdGggaWQ9InBhdGgxNDk0MjMiIGlua3NjYXBlOmNvbm5lY3Rvci1jdXJ2YXR1cmU9IjAiIHN0eWxlPSJmaWxsOiMwMzgyQkU7IiBkPSJNNC40MSw2OC4xM2w2LjY3LTUuNzlsOC4yMy0yLjE2bDMuMjEtMS44NCAgICAgbDMuMzYtMC4zOGwzLjQyLTUuMTNsMi40My0yLjAxbC0yLjE4LDYuMjVsLTAuMDksMy42MWwwLjU2LDMuOThsMi4xMywzLjE2bDUuNjcsNC43NGwxLjg5LDEyLjQxbC0wLjU1LDEzLjk3TDEuNDIsOTUuMzNMMCw5Mi43OSAgICAgbDAuNjktOC4wNWwyLjM5LTQuNzJMNC40MSw2OC4xM3oiLz4mI3hhOwkJPC9nPiYjeGE7CQk8ZyBpZD0ic2hhcGUzNjgtMTQiIHRyYW5zZm9ybT0idHJhbnNsYXRlKDQyLjI2OTMsLTM1Ljk4MTMpIj4mI3hhOwkJCTx0aXRsZSBpZD0idGl0bGUxNDk0MjYiPnBhdGg3ODM8L3RpdGxlPiYjeGE7CQkJPHBhdGggaWQ9InBhdGgxNDk0MjgiIGlua3NjYXBlOmNvbm5lY3Rvci1jdXJ2YXR1cmU9IjAiIHN0eWxlPSJmaWxsOiMwMDcxQTY7IiBkPSJNMCw4Ny41NWwxLjktNS40bDMuMzgtNS4xM2wyLjQzLTIuMDEgICAgIGwtMi4xMyw2LjI1bC0wLjA5LDMuNjFsMC41NiwzLjk4bDIuMTMsMy4xNmw1LjYyLDQuNzRsLTEyLDIuMTlMMCw4Ny41NXoiLz4mI3hhOwkJPC9nPiYjeGE7CQk8ZyBpZD0ic2hhcGUzNjktMTYiIHRyYW5zZm9ybT0idHJhbnNsYXRlKDU3LjQxMywtMTEuNzkwNykiPiYjeGE7CQkJPHRpdGxlIGlkPSJ0aXRsZTE0OTQzMSI+cGF0aDc4NTwvdGl0bGU+JiN4YTsJCQk8cGF0aCBpZD0icGF0aDE0OTQzMyIgaW5rc2NhcGU6Y29ubmVjdG9yLWN1cnZhdHVyZT0iMCIgc3R5bGU9ImZpbGw6IzAzODJCRTsiIGQ9Ik0zMi4zLDY1Ljg0bC00LjgxLTIuODJMMjMsNjEuOWwtNC4yLTIuMSAgICAgbC01LjM5LTEuMzFsLTEuOTUtMC42NGwtMy43NS00LjE5bDEuMTQsMy40MWwwLjA4LDMuNjFsLTAuNTUsMy45OEw3LjcyLDY4LjVsLTUuNDgsNS4ybC0xLjcsMTEuMzVMMCw5OC45NGwzNS40OC0zLjU3bDEuMDMtMi4wNCAgICAgbC0xLjI2LTcuMWwtMC4xNi0xMS40NEwzMi4zLDY1Ljg0eiIvPiYjeGE7CQk8L2c+JiN4YTsJCTxnIGlkPSJzaGFwZTM3MC0xOCIgdHJhbnNmb3JtPSJ0cmFuc2xhdGUoNTkuNjg4NSwtMzcuMDI4NCkiPiYjeGE7CQkJPHRpdGxlIGlkPSJ0aXRsZTE0OTQzNiI+cGF0aDc4NzwvdGl0bGU+JiN4YTsJCQk8cGF0aCBpZD0icGF0aDE0OTQzOCIgaW5rc2NhcGU6Y29ubmVjdG9yLWN1cnZhdHVyZT0iMCIgc3R5bGU9ImZpbGw6IzAwNzFBNjsiIGQ9Ik0xMi42Miw4OC44MmwwLjQyLTIuN2wtMy44Ni0zLjAzbC0zLjc0LTQuMiAgICAgbDEuMDgsMy40MWwwLjA5LDMuNjFMNi4wNSw4OS45bC0wLjY5LDMuOUwwLDk4Ljk0bDE0LjItMC44NkwxMi42Miw4OC44MnoiLz4mI3hhOwkJPC9nPiYjeGE7CQk8ZyBpZD0ic2hhcGUzNzEtMjAiIHRyYW5zZm9ybT0idHJhbnNsYXRlKDE5LjY2OTYsLTExLjA4NTkpIj4mI3hhOwkJCTx0aXRsZSBpZD0idGl0bGUxNDk0NDEiPnBhdGg3ODk8L3RpdGxlPiYjeGE7CQkJPHBhdGggaWQ9InBhdGgxNDk0NDMiIGlua3NjYXBlOmNvbm5lY3Rvci1jdXJ2YXR1cmU9IjAiIHN0eWxlPSJmaWxsOiNGMUREQUU7IiBkPSJNNSw4Mi40M2wtNC4wNiwzLjVMMCw5Mi43MmwzLjQyLDIuOCAgICAgbDE5Ljg5LDMuNDJsMi44My02LjMxTDUsODIuNDN6IE02OC4yNiw4Mi40M2w0LjA3LDMuNWwwLjk0LDYuNzlsLTMuNDMsMi44bC0xOS44OSwzLjQybC0yLjgzLTYuMzFMNjguMjYsODIuNDN6Ii8+JiN4YTsJCTwvZz4mI3hhOwkJPGcgaWQ9InNoYXBlMzcyLTIyIiB0cmFuc2Zvcm09InRyYW5zbGF0ZSg0Mi44MDgsLTUzLjk3NDQpIj4mI3hhOwkJCTx0aXRsZSBpZD0idGl0bGUxNDk0NDYiPnBhdGg3OTE8L3RpdGxlPiYjeGE7CQkJPHBhdGggaWQ9InBhdGgxNDk0NDgiIGlua3NjYXBlOmNvbm5lY3Rvci1jdXJ2YXR1cmU9IjAiIHN0eWxlPSJmaWxsOiNGN0VCRDA7IiBkPSJNMjcuNzUsNzYuMTVsLTEuMjcsMC41MmwtMC4yOS0xMi44OSAgICAgbC0xMS45Ny0wLjE3aC0wLjAxTDIuMjUsNjMuNzhsLTAuMywxMi44OWwtMS4yNy0wLjUyTDAsNzYuMjVsMC4wNiw1Ljg5bDEuNTcsMy4zbDEuOTUsMS4wMWwxLjM4LDQuODZsMy4wMiwzLjY2bDQuNTUsMy43OCAgICAgbDEuNjgsMC4xOWgwLjAxbDEuNjktMC4xOWw0LjU0LTMuNzhsMy4wMy0zLjY2bDEuMzgtNC44NmwxLjk1LTEuMDFsMS41Ny0zLjNsMC4wNS01Ljg5TDI3Ljc1LDc2LjE1eiIvPiYjeGE7CQk8L2c+JiN4YTsJCTxnIGlkPSJzaGFwZTM3My0yNCIgdHJhbnNmb3JtPSJ0cmFuc2xhdGUoNDUuOTI5NCwtNTMuOTY5NCkiPiYjeGE7CQkJPHRpdGxlIGlkPSJ0aXRsZTE0OTQ1MSI+cGF0aDc5MzwvdGl0bGU+JiN4YTsJCQk8cGF0aCBpZD0icGF0aDE0OTQ1MyIgaW5rc2NhcGU6Y29ubmVjdG9yLWN1cnZhdHVyZT0iMCIgc3R5bGU9ImZpbGw6IzRGNEQ0QjsiIGQ9Ik0yMS42Niw4NC4xOWwtMC41LDEuNjdsLTEuODMsMy4yM2wtMi42LDEuNzEgICAgIGwtMS4wNS0xLjc3TDExLjEsODguMmwtNC42MSwwLjgzTDUuNDUsOTAuOGwtMi42MS0xLjcxbC0xLjgzLTMuMjNMMC41LDg0LjE5TDAsODQuMDdsMC40NiwyLjM4bDEuMzcsNC44NmwzLjAyLDMuNjZMOC44LDk4LjcgICAgIGwyLjI4LDAuMjRsMi4yOS0wLjI0bDMuOTQtMy43M2wzLjAyLTMuNjZsMS40MS00Ljg2bDAuNDQtMi4zOEwyMS42Niw4NC4xOXogTTEzLjYxLDk0Ljc2bC0xLjM5LDAuMTRsLTEtMC43SDEwLjlsLTEuMDEsMC43ICAgICBsLTEuMzgtMC4xNGwtMi4zMi0yLjA1bDAuODMtMi44MWw0LjAzLTAuMDhsNC4wMiwwLjA4bDAuODYsMi44M0wxMy42MSw5NC43NnoiLz4mI3hhOwkJPC9nPiYjeGE7CQk8ZyBpZD0ic2hhcGUzNzQtMjYiIHRyYW5zZm9ybT0idHJhbnNsYXRlKDQ0Ljc0MTIsLTU5LjUyMjQpIj4mI3hhOwkJCTx0aXRsZSBpZD0idGl0bGUxNDk0NTYiPnBhdGg3OTU8L3RpdGxlPiYjeGE7CQkJPHBhdGggaWQ9InBhdGgxNDk0NTgiIGlua3NjYXBlOmNvbm5lY3Rvci1jdXJ2YXR1cmU9IjAiIHN0eWxlPSJmaWxsOiM0RjRENEI7IiBkPSJNMTMuMjcsOTcuNzVIMTEuM2wwLjUsMC45MWwwLjQ4LDAuMjd2MC4wMSAgICAgdi0wLjAxbDAuMDEsMC4wMXYtMC4wMWwwLjQ4LTAuMjdMMTMuMjcsOTcuNzV6IE0yNC41Nyw4MS41M2wtMS43MiwwLjIybC0wLjE5LTAuMDdsLTIuMzUtMC40NmgtMy44OWwtMy41OSwwLjU4SDExLjdsLTMuNTktMC41OCAgICAgSDQuMjRMMS45LDgxLjY4bC0wLjE4LDAuMDZMMCw4MS41M3YwLjY5bDAuOTMsMC4xMmwwLjcsMy4yNmwwLjYxLDAuNjFsMS44NSwwLjQ2aDMuMTNsMi43NC0wLjYzbDEuNDEtMi4yNmwwLjU3LTAuNjRoMC42NSAgICAgbDAuNTcsMC42NGwxLjQxLDIuMjZsMi43NCwwLjYzaDMuMTNsMS44NS0wLjQ2bDAuNjEtMC42MWwwLjctMy4yNmwwLjkzLTAuMTJMMjQuNTcsODEuNTN6IE0xMC4zOSw4My4yOGwtMC43NywyLjE4bC0yLjU3LDAuNTUgICAgIEg0LjAzbC0xLjM3LTAuMzRsLTAuNTEtMC40NGwtMC4zNi0yLjQxbDAuNDEtMC41MWwyLjAxLTAuMzhoMy44NWwyLjM1LDAuMzZMMTAuMzksODMuMjh6IE0yMi40MSw4NS4yMmwtMC41MSwwLjQ0bC0xLjM2LDAuMzUgICAgIGgtMy4wM2wtMi41Ni0wLjU2bC0wLjc4LTIuMTZ2LTEuMDFsMi4zNS0wLjM1aDMuODRsMi4wMSwwLjM4bDAuNDEsMC41TDIyLjQxLDg1LjIyeiIvPiYjeGE7CQk8L2c+JiN4YTsJCTxnIGlkPSJzaGFwZTM3NS0yOCIgdHJhbnNmb3JtPSJ0cmFuc2xhdGUoNDIuOTk0MywtNzYuMjQxOCkiPiYjeGE7CQkJPHRpdGxlIGlkPSJ0aXRsZTE0OTQ2MSI+cGF0aDc5NzwvdGl0bGU+JiN4YTsJCQk8cGF0aCBpZD0icGF0aDE0OTQ2MyIgaW5rc2NhcGU6Y29ubmVjdG9yLWN1cnZhdHVyZT0iMCIgc3R5bGU9ImZpbGw6IzRGNEQ0QjsiIGQ9Ik0yNy42NCw4NC4zbC0yLjEtMi4xNGwtMy4wNy0yLjAybC00LjQtMS44MSAgICAgbC00LjAzLTAuNTloLTAuMDFsLTQuMDQsMC41OWwtMy42NywyLjI1bC0zLjQsMy4zOWwtMC42NywwLjE3TDAsOTAuMzVsMC4xNiw2Ljc3bDAuMzQsMS4yOWwxLjI3LDAuNTNsMC40NC04LjdsMi44MS0zLjk1ICAgICBsNi40MSwwLjdsMi4yOCwyLjExaDAuNjRsMi4yOC0yLjExbDYuNDEtMC43bDIuODIsMy45NWwwLjQzLDguN2wxLjI3LTAuNTNsMC4zNS0xLjI5bDAuNTktNi44M0wyNy42NCw4NC4zeiIvPiYjeGE7CQk8L2c+JiN4YTsJCTxnIGlkPSJzaGFwZTM3Ni0zMCIgdHJhbnNmb3JtPSJ0cmFuc2xhdGUoNTQuNzE0NSwtNjUuNDM3OSkiPiYjeGE7CQkJPHRpdGxlIGlkPSJ0aXRsZTE0OTQ2NiI+cGF0aDc5OTwvdGl0bGU+JiN4YTsJCQk8cGF0aCBpZD0icGF0aDE0OTQ2OCIgaW5rc2NhcGU6Y29ubmVjdG9yLWN1cnZhdHVyZT0iMCIgc3R5bGU9ImZpbGw6I0VDRDE4RjsiIGQ9Ik0xLjYxLDk4LjVsLTEtMC4yMUwwLDk4LjYybDAuNSwwLjMyTDEuNjEsOTguNSAgICAgeiBNMy4wNiw5OC41bDAuOTktMC4yMWwwLjYxLDAuMzNsLTAuNTEsMC4zMkwzLjA2LDk4LjV6Ii8+JiN4YTsJCTwvZz4mI3hhOwkJPGcgaWQ9InNoYXBlMzc3LTMyIiB0cmFuc2Zvcm09InRyYW5zbGF0ZSg0MS4wNTEsLTY2LjA4NzMpIj4mI3hhOwkJCTx0aXRsZSBpZD0idGl0bGUxNDk0NzEiPnBhdGg4MDE8L3RpdGxlPiYjeGE7CQkJPHBhdGggaWQ9InBhdGgxNDk0NzMiIGlua3NjYXBlOmNvbm5lY3Rvci1jdXJ2YXR1cmU9IjAiIHN0eWxlPSJmaWxsOiMzRjU3NjU7IiBkPSJNMy43Myw4Ny44MmwwLjA5LDQuOTFsMS4wOCwzLjQ1bDAuNDQsMi4zOCAgICAgbC0xLjY1LDAuMzhIMi40NWwtMC4xNC0wLjY5SDAuOTRMMCw5My4yM2wwLjUtNC43MmwwLjksMC4yN2wwLjA0LTAuOTlMMy43Myw4Ny44MnogTTI4LjIyLDg3LjgybC0wLjA5LDQuOTFsLTEuMDgsMy40NSAgICAgbC0wLjQzLDIuMzhsMS42NCwwLjM4aDEuMjRsMC4xNC0wLjY5aDEuMzdsMC45NC01LjAybC0wLjUtNC43MmwtMC45LDAuMjdsLTAuMDUtMC45OUwyOC4yMiw4Ny44MnoiLz4mI3hhOwkJPC9nPiYjeGE7CQk8ZyBpZD0ic2hhcGUzNzgtMzQiIHRyYW5zZm9ybT0idHJhbnNsYXRlKDIxLjQxNjYsLTMuNTM0MTkpIj4mI3hhOwkJCTx0aXRsZSBpZD0idGl0bGUxNDk0NzYiPnBhdGg4MDM8L3RpdGxlPiYjeGE7CQkJPHBhdGggaWQ9InBhdGgxNDk0NzgiIGlua3NjYXBlOmNvbm5lY3Rvci1jdXJ2YXR1cmU9IjAiIHN0eWxlPSJmaWxsOiMzRjU3NjU7IiBkPSJNMjAuMzYsMTUuNDFsLTEuOTcsOC45N2wwLjI0LDUuMDN2MS40ICAgICBsMC4zOCwxLjNsMC44NC0wLjMybDAuMTctMS4xMWwtMC4yNC0xLjMxbDAuMDUtNC43MWwxLjc1LTguNDJsNS4yNy02LjI1bDguNzYtMS40NFY3LjE2bC05LjM2LDEuNDhMMjAuMzYsMTUuNDF6IE01MC44NiwxNS40MSAgICAgbC01Ljg5LTYuNzdsLTkuMzYtMS40OHYxLjM5bDguNzYsMS40NGw1LjI3LDYuMjVsMS43NSw4LjQybDAuMDYsNC43MWwtMC4yNSwxLjMxbDAuMTgsMS4xMWwwLjgzLDAuMzJsMC4zOC0xLjN2LTEuNGwwLjI1LTUuMDMgICAgIEw1MC44NiwxNS40MXogTTksOTguOTRsLTcuMzYtMS4zMUwwLDkzLjA1bDMuNTQtMy4yNGw2LjMxLTEuMmw4LjA1LTI0LjI3bDIuMDEtMTMuMDRsNC4wNi02LjIybC0xLjE1LTkuMzJsMS0wLjE2bDEuMjIsOS43ICAgICBsLTQuMTgsNi4zOGwtMiwxMi45NGwtOC4yNCwyNC44N2wtNi42MSwxLjI1bC0yLjg0LDIuNmwxLjIyLDMuNGw2LjgsMS4yMUw5LDk4Ljk0eiIvPiYjeGE7CQk8L2c+JiN4YTsJCTxnIGlkPSJzaGFwZTM3OS0zNiIgdHJhbnNmb3JtPSJ0cmFuc2xhdGUoMzAuMjY3MiwtMS45ODM1OCkiPiYjeGE7CQkJPHRpdGxlIGlkPSJ0aXRsZTE0OTQ4MSI+cGF0aDgwNTwvdGl0bGU+JiN4YTsJCQk8cGF0aCBpZD0icGF0aDE0OTQ4MyIgaW5rc2NhcGU6Y29ubmVjdG9yLWN1cnZhdHVyZT0iMCIgc3R5bGU9ImZpbGw6IzRGNEQ0QjsiIGQ9Ik01MC42Miw2NS4xNUgxLjMyTDAsNjYuMzl2MzIuNTVoNTEuOTRWNjYuNDYgICAgIEw1MC42Miw2NS4xNXoiLz4mI3hhOwkJPC9nPiYjeGE7CQk8ZyBpZD0iZ3JvdXAzODAtMzgiIHRyYW5zZm9ybT0idHJhbnNsYXRlKDUxLjYyMDgsLTE0LjI2NTMpIj4mI3hhOwkJCTx0aXRsZSBpZD0idGl0bGUxNDk0ODYiPk1pY3Jvc29mdDwvdGl0bGU+JiN4YTsJCQk8ZyBpZD0ic2hhcGUzODEtMzkiIHRyYW5zZm9ybT0idHJhbnNsYXRlKDAsLTQuODYyOTEpIj4mI3hhOwkJCQk8dGl0bGUgaWQ9InRpdGxlMTQ5NDg4Ij5IVFRQIEFQSSBBcHA8L3RpdGxlPiYjeGE7CQkJCTxwYXRoIGlkPSJwYXRoMTQ5NDkwIiBpbmtzY2FwZTpjb25uZWN0b3ItY3VydmF0dXJlPSIwIiBzdHlsZT0iZmlsbDojRjI1MDIyOyIgZD0iTTAsOTQuNTd2NC4zN2g0LjM3di00LjM3SDB6Ii8+JiN4YTsJCQk8L2c+JiN4YTsJCQk8ZyBpZD0ic2hhcGUzODItNDEiIHRyYW5zZm9ybT0idHJhbnNsYXRlKDQuODYwMDYsLTQuODYyOTEpIj4mI3hhOwkJCQk8dGl0bGUgaWQ9InRpdGxlMTQ5NDkzIj5IVFRQIEFQSSBBcHAuMTQ2MTwvdGl0bGU+JiN4YTsJCQkJPHBhdGggaWQ9InBhdGgxNDk0OTUiIGlua3NjYXBlOmNvbm5lY3Rvci1jdXJ2YXR1cmU9IjAiIHN0eWxlPSJmaWxsOiM3RkJBMDA7IiBkPSJNMCw5NC41N3Y0LjM3aDQuMzd2LTQuMzdIMHoiLz4mI3hhOwkJCTwvZz4mI3hhOwkJCTxnIGlkPSJzaGFwZTM4My00MyIgdHJhbnNmb3JtPSJ0cmFuc2xhdGUoNC44NjAwNikiPiYjeGE7CQkJCTx0aXRsZSBpZD0idGl0bGUxNDk0OTgiPkhUVFAgQVBJIEFwcC4xNDYyPC90aXRsZT4mI3hhOwkJCQk8cGF0aCBpZD0icGF0aDE0OTUwMCIgaW5rc2NhcGU6Y29ubmVjdG9yLWN1cnZhdHVyZT0iMCIgc3R5bGU9ImZpbGw6I0ZGQjkwMDsiIGQ9Ik0wLDk0LjU3djQuMzdoNC4zN3YtNC4zN0gweiIvPiYjeGE7CQkJPC9nPiYjeGE7CQkJPGcgaWQ9InNoYXBlMzg0LTQ1Ij4mI3hhOwkJCQk8dGl0bGUgaWQ9InRpdGxlMTQ5NTAzIj5IVFRQIEFQSSBBcHAuMTQ2MzwvdGl0bGU+JiN4YTsJCQkJPHBhdGggaWQ9InBhdGgxNDk1MDUiIGlua3NjYXBlOmNvbm5lY3Rvci1jdXJ2YXR1cmU9IjAiIHN0eWxlPSJmaWxsOiMwMEE0RUY7IiBkPSJNMCw5NC41N3Y0LjM3aDQuMzd2LTQuMzdIMHoiLz4mI3hhOwkJCTwvZz4mI3hhOwkJPC9nPiYjeGE7CQk8ZyBpZD0iZ3JvdXAzODUtNDciIHRyYW5zZm9ybT0idHJhbnNsYXRlKDE1LjM4MzUsLTcwLjc0NDUpIj4mI3hhOwkJCTx0aXRsZSBpZD0idGl0bGUxNDk1MDkiPlZpc3VhbCBTdHVkaW88L3RpdGxlPiYjeGE7CQkJPGcgaWQ9InNoYXBlMzg2LTQ4Ij4mI3hhOwkJCQk8dGl0bGUgaWQ9InRpdGxlMTQ5NTExIj5TaGVldC4zODY8L3RpdGxlPiYjeGE7CQkJCTxwYXRoIGlkPSJwYXRoMTQ5NTEzIiBpbmtzY2FwZTpjb25uZWN0b3ItY3VydmF0dXJlPSIwIiBzdHlsZT0iZmlsbDojNjgyMTdBOyIgZD0iTTEzLjA5LDkzLjQ3bC00LjI2LTMuMzlsNC4yNi0zLjM4VjkzLjQ3eiAgICAgICBNMS45MSw5Mi41N3YtNC44NmwyLjMyLDIuNDlMMS45MSw5Mi41N3ogTTEzLjE4LDgxLjUybC02Ljc2LDYuNDNsLTQuMjQtMi45OEwwLDg1Ljc1djguNzNsMS41MSwxLjExbDQuNy0zLjU0bDYuOTEsNi44OSAgICAgIGw0LjI5LTEuNzRWODMuMjZMMTMuMTgsODEuNTJ6Ii8+JiN4YTsJCQk8L2c+JiN4YTsJCTwvZz4mI3hhOwk8L2c+JiN4YTs8L2c+JiN4YTs8L3N2Zz4=;fontFamily=Helvetica;fontSize=10;fontColor=none;" vertex="1" parent="1">
          <mxGeometry x="1196.66" y="86" width="51.17" height="41.71" as="geometry" />
        </mxCell>
        <mxCell id="dnq7VN7bOO2wTZYb34gf-100" value="运维团队" style="text;html=1;align=center;verticalAlign=middle;resizable=0;points=[];autosize=1;strokeColor=none;fillColor=none;fontSize=10;" vertex="1" parent="1">
          <mxGeometry x="1192" y="134.71" width="58" height="16" as="geometry" />
        </mxCell>
        <mxCell id="dnq7VN7bOO2wTZYb34gf-102" value="测试团队" style="text;html=1;align=center;verticalAlign=middle;resizable=0;points=[];autosize=1;strokeColor=none;fillColor=none;fontSize=10;" vertex="1" parent="1">
          <mxGeometry x="1119" y="134.71" width="58" height="16" as="geometry" />
        </mxCell>
        <mxCell id="dnq7VN7bOO2wTZYb34gf-103" value="" style="shape=image;verticalLabelPosition=bottom;labelBackgroundColor=#ffffff;verticalAlign=top;aspect=fixed;imageAspect=0;image=data:image/svg+xml,PHN2ZyB4bWxuczpjYz0iaHR0cDovL2NyZWF0aXZlY29tbW9ucy5vcmcvbnMjIiB4bWxuczpkYz0iaHR0cDovL3B1cmwub3JnL2RjL2VsZW1lbnRzLzEuMS8iIHhtbG5zOmlua3NjYXBlPSJodHRwOi8vd3d3Lmlua3NjYXBlLm9yZy9uYW1lc3BhY2VzL2lua3NjYXBlIiB4bWxuczpyZGY9Imh0dHA6Ly93d3cudzMub3JnLzE5OTkvMDIvMjItcmRmLXN5bnRheC1ucyMiIHhtbG5zOnNvZGlwb2RpPSJodHRwOi8vc29kaXBvZGkuc291cmNlZm9yZ2UubmV0L0RURC9zb2RpcG9kaS0wLmR0ZCIgeG1sbnM6c3ZnPSJodHRwOi8vd3d3LnczLm9yZy8yMDAwL3N2ZyIgeG1sbnM9Imh0dHA6Ly93d3cudzMub3JnLzIwMDAvc3ZnIiB4bWxuczp4bGluaz0iaHR0cDovL3d3dy53My5vcmcvMTk5OS94bGluayIgdmVyc2lvbj0iMS4xIiBpZD0ic3ZnMTUwMTk3IiBpbmtzY2FwZTp2ZXJzaW9uPSIwLjkyLjMgKDI0MDU1NDYsIDIwMTgtMDMtMTEpIiBzb2RpcG9kaTpkb2NuYW1lPSJkZXZlbG9wZXJfMS5zdmciIHg9IjBweCIgeT0iMHB4IiB2aWV3Qm94PSIwIDAgMTM0LjQgODkuNzkiIHN0eWxlPSJlbmFibGUtYmFja2dyb3VuZDpuZXcgMCAwIDEzNC40IDg5Ljc5OyIgeG1sOnNwYWNlPSJwcmVzZXJ2ZSI+JiN4YTs8c29kaXBvZGk6bmFtZWR2aWV3IGJvcmRlcmNvbG9yPSIjNjY2NjY2IiBib3JkZXJvcGFjaXR5PSIxIiBmaXQtbWFyZ2luLWJvdHRvbT0iMCIgZml0LW1hcmdpbi1sZWZ0PSIwIiBmaXQtbWFyZ2luLXJpZ2h0PSIwIiBmaXQtbWFyZ2luLXRvcD0iMCIgZ3JpZHRvbGVyYW5jZT0iMTAiIGd1aWRldG9sZXJhbmNlPSIxMCIgaWQ9Im5hbWVkdmlldzE1MDE5OSIgaW5rc2NhcGU6Y3VycmVudC1sYXllcj0ic3ZnMTUwMTk3IiBpbmtzY2FwZTpjeD0iODkuNTk4MzE2IiBpbmtzY2FwZTpjeT0iNTkuMzI5NTMzIiBpbmtzY2FwZTpwYWdlb3BhY2l0eT0iMCIgaW5rc2NhcGU6cGFnZXNoYWRvdz0iMiIgaW5rc2NhcGU6d2luZG93LWhlaWdodD0iMTAxNyIgaW5rc2NhcGU6d2luZG93LW1heGltaXplZD0iMSIgaW5rc2NhcGU6d2luZG93LXdpZHRoPSIxOTIwIiBpbmtzY2FwZTp3aW5kb3cteD0iLTgiIGlua3NjYXBlOndpbmRvdy15PSItOCIgaW5rc2NhcGU6em9vbT0iNy4wODk5NTA1IiBvYmplY3R0b2xlcmFuY2U9IjEwIiBwYWdlY29sb3I9IiNmZmZmZmYiIHNob3dncmlkPSJmYWxzZSI+JiN4YTsJPC9zb2RpcG9kaTpuYW1lZHZpZXc+JiN4YTs8ZyBpZD0iZzE1MDE5NSIgdHJhbnNmb3JtPSJ0cmFuc2xhdGUoLTEuMzYxNDY5MiwtMC41NjgzKSI+JiN4YTsJPHRpdGxlIGlkPSJ0aXRsZTE1MDAyMCI+UGFnZS0xPC90aXRsZT4mI3hhOwk8ZyBpZD0iZ3JvdXAzODctMSIgdHJhbnNmb3JtPSJ0cmFuc2xhdGUoMS4yNTg1NiwtMS4zNikiPiYjeGE7CQk8dGl0bGUgaWQ9InRpdGxlMTUwMDIyIj5EZXZlbG9wZXIgIzE8L3RpdGxlPiYjeGE7CQk8ZyBpZD0ic2hhcGUzODgtMiIgdHJhbnNmb3JtPSJtYXRyaXgoMSwwLDAsLTEsNjEuOTc3NywxMzEuNjkyKSI+JiN4YTsJCQk8dGl0bGUgaWQ9InRpdGxlMTUwMDI0Ij5wYXRoMjA2LTA8L3RpdGxlPiYjeGE7CQkJPHBhdGggaWQ9InBhdGgxNTAwMjYiIGlua3NjYXBlOmNvbm5lY3Rvci1jdXJ2YXR1cmU9IjAiIHN0eWxlPSJmaWxsOiMwMDcxQkM7IiBkPSJNNTIuMiw1MS4zOWMwLTIuNi0zLjIyLTQuNy03LjE5LTQuN0g3LjE5ICAgICBjLTMuOTcsMC03LjE5LDIuMS03LjE5LDQuN3YzNS42MmMwLDIuNiwzLjIyLDQuNyw3LjE5LDQuN2gzNy44MmMzLjk3LDAsNy4xOS0yLjEsNy4xOS00LjdMNTIuMiw1MS4zOXoiLz4mI3hhOwkJPC9nPiYjeGE7CQk8ZyBpZD0ic2hhcGUzODktNCIgdHJhbnNmb3JtPSJ0cmFuc2xhdGUoODMuMjY2MywtMzguMTQxMykiPiYjeGE7CQkJPHRpdGxlIGlkPSJ0aXRsZTE1MDAyOSI+cGF0aDIxMC00PC90aXRsZT4mI3hhOwkJCTxwYXRoIGlkPSJwYXRoMTUwMDMxIiBpbmtzY2FwZTpjb25uZWN0b3ItY3VydmF0dXJlPSIwIiBzdHlsZT0iZmlsbDojRTVFNUU1OyIgZD0iTTkuNjIsOTEuNzFIMHYtNS45Nmg5LjYyVjkxLjcxeiIvPiYjeGE7CQk8L2c+JiN4YTsJCTxnIGlkPSJzaGFwZTM5MC02IiB0cmFuc2Zvcm09Im1hdHJpeCgxLDAsMCwtMSw4Ny44Njg0LDE0MS42KSI+JiN4YTsJCQk8dGl0bGUgaWQ9InRpdGxlMTUwMDM0Ij5wYXRoMjE0LTk8L3RpdGxlPiYjeGE7CQkJPHBhdGggaWQ9InBhdGgxNTAwMzYiIGlua3NjYXBlOmNvbm5lY3Rvci1jdXJ2YXR1cmU9IjAiIHN0eWxlPSJmaWxsOm5vbmU7IiBkPSJNMCw5MS43MXYtMi42OFY5MS43MXoiLz4mI3hhOwkJCSYjeGE7CQkJCTxwYXRoIGlkPSJwYXRoMTUwMDM4IiBpbmtzY2FwZTpjb25uZWN0b3ItY3VydmF0dXJlPSIwIiBzdHlsZT0iZmlsbDpub25lO3N0cm9rZTojQjJCMkIyO3N0cm9rZS13aWR0aDoyLjA2MDY7c3Ryb2tlLW1pdGVybGltaXQ6MzsiIGQ9IiAgICAgTTAsOTEuNzF2LTIuNjgiLz4mI3hhOwkJPC9nPiYjeGE7CQk8ZyBpZD0ic2hhcGUzOTEtOSIgdHJhbnNmb3JtPSJtYXRyaXgoMSwwLDAsLTEsNDkuMTA0NywxMzcuMzIxKSI+JiN4YTsJCQk8dGl0bGUgaWQ9InRpdGxlMTUwMDQxIj5wYXRoMjE4LTI8L3RpdGxlPiYjeGE7CQkJPHBhdGggaWQ9InBhdGgxNTAwNDMiIGlua3NjYXBlOmNvbm5lY3Rvci1jdXJ2YXR1cmU9IjAiIHN0eWxlPSJmaWxsOiMzOUI1NEE7IiBkPSJNNzMuNCw2MS4wNGMtNC4xMiw4LjI1LTEyLjksMjYuNDgtMTQuNTcsMjcuODggICAgIGMtMS42NiwxLjQtMTAuNDQsMi43OS0xNS40NiwyLjc5YzAsMCwwLjk0LTYuMTgtNC42MS02LjE4Yy01LjU0LDAtNC42LDYuMTgtNC42LDYuMThjLTUuMDIsMC0xMy44LTEuMzktMTUuNDYtMi43OSAgICAgYy0xLjY3LTEuNC0xMC40NS0xOS42My0xNC41OC0yNy44OEMwLDUyLjc5LDUuMjYsNTIuMTksNS4yNiw1Mi4xOWgxNC40M3Y2LjkyYy0yLjEzLDAuNzMtNi43MiwxLjYtNi43MiwxLjYgICAgIGMxLjQsMy4zOSw5LjUyLDE4Ljg5LDkuNTIsMTguODlsMC44Ni0yNi42OGgxNS40MWgxNS40MWwwLjg3LDI2LjY4YzAsMCw4LjEyLTE1LjUsOS41MS0xOC44OWMwLDAtNC41OS0wLjg3LTYuNzItMS42di02LjkyICAgICBoMTQuNDRDNzIuMjcsNTIuMTksNzcuNTMsNTIuNzksNzMuNCw2MS4wNHoiLz4mI3hhOwkJPC9nPiYjeGE7CQk8ZyBpZD0ic2hhcGUzOTItMTEiIHRyYW5zZm9ybT0ibWF0cml4KDEsMCwwLC0xLDgzLjI2NjMsMTI4LjA5MykiPiYjeGE7CQkJPHRpdGxlIGlkPSJ0aXRsZTE1MDA0NiI+cGF0aDIyMi03PC90aXRsZT4mI3hhOwkJCTxwYXRoIGlkPSJwYXRoMTUwMDQ4IiBpbmtzY2FwZTpjb25uZWN0b3ItY3VydmF0dXJlPSIwIiBzdHlsZT0iZmlsbDojRkZEQUEyOyIgZD0iTTkuMiw4MC41NmMwLDAtMC42NS0yLjM1LTQuNi0yLjM1ICAgICBTMCw4MC41NiwwLDgwLjU2djExLjE1aDkuMlY4MC41NnoiLz4mI3hhOwkJPC9nPiYjeGE7CQk8ZyBpZD0ic2hhcGUzOTMtMTMiIHRyYW5zZm9ybT0ibWF0cml4KDEsMCwwLC0xLDc1LjExOTgsMTA1LjIwOCkiPiYjeGE7CQkJPHRpdGxlIGlkPSJ0aXRsZTE1MDA1MSI+cGF0aDIyNi05PC90aXRsZT4mI3hhOwkJCTxwYXRoIGlkPSJwYXRoMTUwMDUzIiBpbmtzY2FwZTpjb25uZWN0b3ItY3VydmF0dXJlPSIwIiBzdHlsZT0iZmlsbDojRkZEQUEyOyIgZD0iTTEyLjc1LDg4LjI4Yy04LjgxLDMuNDMtMTIuNzUsMC0xMi43NSwwICAgICBzMC42OC0xMi4xMSwxLTE0LjU2YzAuNzUtNS44Miw4LjMxLTkuNjksMTEuNzUtOS42OXMxMSwzLjg3LDExLjc1LDkuNjljMC4zMSwyLjQ1LDEsMTQuNTYsMSwxNC41NlMyMS41Niw5MS43MSwxMi43NSw4OC4yOHoiLz4mI3hhOwkJPC9nPiYjeGE7CQk8ZyBpZD0ic2hhcGUzOTQtMTUiIHRyYW5zZm9ybT0ibWF0cml4KDEsMCwwLC0xLDcwLjc0NTEsMTEzLjE5MSkiPiYjeGE7CQkJPHRpdGxlIGlkPSJ0aXRsZTE1MDA1NiI+cGF0aDIzMC01PC90aXRsZT4mI3hhOwkJCTxwYXRoIGlkPSJwYXRoMTUwMDU4IiBpbmtzY2FwZTpjb25uZWN0b3ItY3VydmF0dXJlPSIwIiBzdHlsZT0iZmlsbDojRjdEMTk3OyIgZD0iTTQuNzgsODkuNWMwLDAtMi4yNCwyLjIxLTMuMDMsMC44OSAgICAgQzAsODcuNDUsMy4wNiw4Ni4zNSwzLjI3LDgzLjU3YzAuMTQtMS45OCwxLjQ4LTEuOTcsMi4wMS0wLjk4QzUuODEsODMuNTcsNS41OSw4OC44Myw0Ljc4LDg5LjV6Ii8+JiN4YTsJCTwvZz4mI3hhOwkJPGcgaWQ9InNoYXBlMzk1LTE3IiB0cmFuc2Zvcm09Im1hdHJpeCgxLDAsMCwtMSw5OS4xNzk1LDExMy4xOTEpIj4mI3hhOwkJCTx0aXRsZSBpZD0idGl0bGUxNTAwNjEiPnBhdGgyMzQtMDwvdGl0bGU+JiN4YTsJCQk8cGF0aCBpZD0icGF0aDE1MDA2MyIgaW5rc2NhcGU6Y29ubmVjdG9yLWN1cnZhdHVyZT0iMCIgc3R5bGU9ImZpbGw6I0Y3RDE5NzsiIGQ9Ik0xLjAzLDg5LjVjMCwwLDIuMjQsMi4yMSwzLjAzLDAuODkgICAgIGMxLjc1LTIuOTQtMS4zMS00LjA0LTEuNTEtNi44MmMtMC4xNS0xLjk4LTEuNDktMS45Ny0yLjAyLTAuOThDMCw4My41NywwLjIyLDg4LjgzLDEuMDMsODkuNXoiLz4mI3hhOwkJPC9nPiYjeGE7CQk8ZyBpZD0ic2hhcGUzOTYtMTkiIHRyYW5zZm9ybT0ibWF0cml4KDEsMCwwLC0xLDc0Ljg3NzcsMTE5LjE4OCkiPiYjeGE7CQkJPHRpdGxlIGlkPSJ0aXRsZTE1MDA2NiI+cGF0aDIzOC04PC90aXRsZT4mI3hhOwkJCTxwYXRoIGlkPSJwYXRoMTUwMDY4IiBpbmtzY2FwZTpjb25uZWN0b3ItY3VydmF0dXJlPSIwIiBkPSJNMTIuOTksODIuMzhjLTIuNjQsMC00LDAuNzQtNCwxLjg0czEuNjEsMC40NSw0LDAuNDVzNCwwLjY1LDQtMC40NSAgICAgUzE1LjYzLDgyLjM4LDEyLjk5LDgyLjM4eiBNMjUuMjcsOTEuNzFoLTAuNDljMCwwLDAuNjMtNS4xNC0xMS43OS01LjE0UzEuMjEsOTEuNzEsMS4yMSw5MS43MWgtMC41YzAsMC0wLjcxLTUuODEsMS42NC05LjEzICAgICBjMy4yNS00LjU3LDEwLjY0LTQuNTcsMTAuNjQtNC41N3M3LjM5LDAsMTAuNjQsNC41N0MyNS45OCw4NS45LDI1LjI3LDkxLjcxLDI1LjI3LDkxLjcxeiIvPiYjeGE7CQk8L2c+JiN4YTsJCTxnIGlkPSJzaGFwZTM5Ny0yMSIgdHJhbnNmb3JtPSJtYXRyaXgoMSwwLDAsLTEsNjcuMzUxMSw5My42MzgzKSI+JiN4YTsJCQk8dGl0bGUgaWQ9InRpdGxlMTUwMDcxIj5wYXRoMjQyLTE8L3RpdGxlPiYjeGE7CQkJPHBhdGggaWQ9InBhdGgxNTAwNzMiIGlua3NjYXBlOmNvbm5lY3Rvci1jdXJ2YXR1cmU9IjAiIGQ9Ik0zMi44LDY2LjE3YzAsMC0wLjUyLDMuNjcsMS4yNSw0LjdjMCwwLDMuMTMsMTAuNDIsMC40MywxMy4xNiAgICAgYy0yLjY5LDIuNzQtNi41NCw0LjQ5LTkuNzgsNC44NHMtNi44NCwxLTguNTMsMi44NGMwLDAsMC44NS0yLjM0LDEuOTktMi40OWMwLDAtNy41My0xLjM1LTEyLjM3LDAuM2MwLDAsMS4zNS0zLjY0LDQuMzktNC4yOSAgICAgYzAsMC02LjM5LTEuNS0xMC4xOC0wLjI1YzAsMCwzLjAxLTYuMTYsNy43Ny04LjI3YzAsMCwzLjYxLDEuNjMsNS4zNSwwLjkzYzAsMCwwLjM1LTEtMS4xOS0xLjY0YzAsMCw0LjI0LDAuMTUsNi4wOCwxLjA0ICAgICBjMCwwLDAuMTUtMC42OSwwLjA1LTEuMzRjMCwwLDQuODQsMS4wNyw3LjM0LDIuMzVjMCwwLDIuMDktMS41NiwxLjQtMi4yYzAsMCw1LjA0LTAuMiw2LjEsMC42OSAgICAgQzMyLjksNzYuNTQsMzIuMzIsNjcuNTEsMzIuOCw2Ni4xN3oiLz4mI3hhOwkJPC9nPiYjeGE7CQk8ZyBpZD0ic2hhcGUzOTgtMjMiIHRyYW5zZm9ybT0ibWF0cml4KDEsMCwwLC0xLDcyLjM5MDksMTA2LjQxMykiPiYjeGE7CQkJPHRpdGxlIGlkPSJ0aXRsZTE1MDA3NiI+cGF0aDI0NjwvdGl0bGU+JiN4YTsJCQk8cGF0aCBpZD0icGF0aDE1MDA3OCIgaW5rc2NhcGU6Y29ubmVjdG9yLWN1cnZhdHVyZT0iMCIgZD0iTTMuMTksNzguOTRjMCwwLDAuMTksNC4xMS0yLjAzLDUuMDVjMCwwLTEuMTYsNi4zMy0wLjU2LDcuNzIgICAgIGwyLjQ5LTIuMDdjMCwwLDAuNjktOC45NSwwLjM1LTEwLjdMMy4xOSw3OC45NHoiLz4mI3hhOwkJPC9nPiYjeGE7CQk8ZyBpZD0ic2hhcGUzOTktMjUiIHRyYW5zZm9ybT0ibWF0cml4KDEsMCwwLC0xLDgxLjU0MjEsMTM3LjMyMSkiPiYjeGE7CQkJPHRpdGxlIGlkPSJ0aXRsZTE1MDA4MSI+cGF0aDI1MDwvdGl0bGU+JiN4YTsJCQk8cGF0aCBpZD0icGF0aDE1MDA4MyIgaW5rc2NhcGU6Y29ubmVjdG9yLWN1cnZhdHVyZT0iMCIgc3R5bGU9ImZpbGw6I0YxRjFGMTsiIGQ9Ik02LjMzLDg3LjQzYzAsMC0zLjg1LTAuMDEtNS4wNS0yLjY4ICAgICBjMCwwLTEuMjgsNC44OSwwLjQ0LDYuOTZDMS43Miw5MS43MSwyLjE5LDg3Ljc3LDYuMzMsODcuNDN6Ii8+JiN4YTsJCTwvZz4mI3hhOwkJPGcgaWQ9InNoYXBlNDAwLTI3IiB0cmFuc2Zvcm09Im1hdHJpeCgxLDAsMCwtMSw4Ny44Njg0LDEzNy4zMjEpIj4mI3hhOwkJCTx0aXRsZSBpZD0idGl0bGUxNTAwODYiPnBhdGgyNTQ8L3RpdGxlPiYjeGE7CQkJPHBhdGggaWQ9InBhdGgxNTAwODgiIGlua3NjYXBlOmNvbm5lY3Rvci1jdXJ2YXR1cmU9IjAiIHN0eWxlPSJmaWxsOiNGMUYxRjE7IiBkPSJNMCw4Ny40M2MwLDAsMy44NS0wLjAxLDUuMDUtMi42OCAgICAgYzAsMCwxLjI4LDQuODktMC40NSw2Ljk2QzQuNiw5MS43MSw0LjEzLDg3Ljc3LDAsODcuNDN6Ii8+JiN4YTsJCTwvZz4mI3hhOwkJPGcgaWQ9InNoYXBlNDAxLTI5IiB0cmFuc2Zvcm09Im1hdHJpeCgxLDAsMCwtMSw2Ni4wMDM5LDE1NC43OTEpIj4mI3hhOwkJCTx0aXRsZSBpZD0idGl0bGUxNTAwOTEiPnBhdGgyOTg8L3RpdGxlPiYjeGE7CQkJPHBhdGggaWQ9InBhdGgxNTAwOTMiIGlua3NjYXBlOmNvbm5lY3Rvci1jdXJ2YXR1cmU9IjAiIHN0eWxlPSJmaWxsOiNDQkNCQ0I7IiBkPSJNNDMuMzMsOTAuOTJjLTAuNCwwLjY2LTEuNzMsMC43OS0xLjczLDAuNzkgICAgIEgyMS44NkgyLjEzYzAsMC0xLjMzLTAuMTMtMS43My0wLjc5QzAsOTAuMjUsMC44LDY5LjA5LDAuOCw2OS4wOWgyMS4wNmgyMS4wN0M0Mi45Myw2OS4wOSw0My43Myw5MC4yNSw0My4zMyw5MC45MnoiLz4mI3hhOwkJPC9nPiYjeGE7CQk8ZyBpZD0ic2hhcGU0MDItMzEiIHRyYW5zZm9ybT0ibWF0cml4KDEsMCwwLC0xLDY2LjAwMzksMTU1LjE4MikiPiYjeGE7CQkJPHRpdGxlIGlkPSJ0aXRsZTE1MDA5NiI+cGF0aDMwMjwvdGl0bGU+JiN4YTsJCQk8cGF0aCBpZD0icGF0aDE1MDA5OCIgaW5rc2NhcGU6Y29ubmVjdG9yLWN1cnZhdHVyZT0iMCIgc3R5bGU9ImZpbGw6I0U1RTVFNTsiIGQ9Ik00My4zMyw5MC45MmMtMC40LDAuNjYtMS43MywwLjc5LTEuNzMsMC43OSAgICAgSDIxLjg2SDIuMTNjMCwwLTEuMzMtMC4xMy0xLjczLTAuNzlDMCw5MC4yNSwwLjgsNjkuMDksMC44LDY5LjA5aDIxLjA2aDIxLjA3QzQyLjkzLDY5LjA5LDQzLjczLDkwLjI1LDQzLjMzLDkwLjkyeiIvPiYjeGE7CQk8L2c+JiN4YTsJCTxnIGlkPSJncm91cDQwMy0zMyIgdHJhbnNmb3JtPSJ0cmFuc2xhdGUoODMuODE5MSwtMTIuODg5KSI+JiN4YTsJCQk8dGl0bGUgaWQ9InRpdGxlMTUwMTAxIj5NaWNyb3NvZnQ8L3RpdGxlPiYjeGE7CQkJPGcgaWQ9InNoYXBlNDA0LTM0IiB0cmFuc2Zvcm09InRyYW5zbGF0ZSgwLC00LjI2NTMpIj4mI3hhOwkJCQk8dGl0bGUgaWQ9InRpdGxlMTUwMTAzIj5IVFRQIEFQSSBBcHA8L3RpdGxlPiYjeGE7CQkJCTxwYXRoIGlkPSJwYXRoMTUwMTA1IiBpbmtzY2FwZTpjb25uZWN0b3ItY3VydmF0dXJlPSIwIiBzdHlsZT0iZmlsbDojRjI1MDIyOyIgZD0iTTAsODcuODl2My44MmgzLjg0di0zLjgySDB6Ii8+JiN4YTsJCQk8L2c+JiN4YTsJCQk8ZyBpZD0ic2hhcGU0MDUtMzYiIHRyYW5zZm9ybT0idHJhbnNsYXRlKDQuMjYyOCwtNC4yNjUzKSI+JiN4YTsJCQkJPHRpdGxlIGlkPSJ0aXRsZTE1MDEwOCI+SFRUUCBBUEkgQXBwLjE0NjE8L3RpdGxlPiYjeGE7CQkJCTxwYXRoIGlkPSJwYXRoMTUwMTEwIiBpbmtzY2FwZTpjb25uZWN0b3ItY3VydmF0dXJlPSIwIiBzdHlsZT0iZmlsbDojN0ZCQTAwOyIgZD0iTTAsODcuODl2My44MmgzLjg0di0zLjgySDB6Ii8+JiN4YTsJCQk8L2c+JiN4YTsJCQk8ZyBpZD0ic2hhcGU0MDYtMzgiIHRyYW5zZm9ybT0idHJhbnNsYXRlKDQuMjYyOCkiPiYjeGE7CQkJCTx0aXRsZSBpZD0idGl0bGUxNTAxMTMiPkhUVFAgQVBJIEFwcC4xNDYyPC90aXRsZT4mI3hhOwkJCQk8cGF0aCBpZD0icGF0aDE1MDExNSIgaW5rc2NhcGU6Y29ubmVjdG9yLWN1cnZhdHVyZT0iMCIgc3R5bGU9ImZpbGw6I0ZGQjkwMDsiIGQ9Ik0wLDg3Ljg5djMuODJoMy44NHYtMy44MkgweiIvPiYjeGE7CQkJPC9nPiYjeGE7CQkJPGcgaWQ9InNoYXBlNDA3LTQwIj4mI3hhOwkJCQk8dGl0bGUgaWQ9InRpdGxlMTUwMTE4Ij5IVFRQIEFQSSBBcHAuMTQ2MzwvdGl0bGU+JiN4YTsJCQkJPHBhdGggaWQ9InBhdGgxNTAxMjAiIGlua3NjYXBlOmNvbm5lY3Rvci1jdXJ2YXR1cmU9IjAiIHN0eWxlPSJmaWxsOiMwMEE0RUY7IiBkPSJNMCw4Ny44OXYzLjgyaDMuODR2LTMuODJIMHoiLz4mI3hhOwkJCTwvZz4mI3hhOwkJPC9nPiYjeGE7CQk8ZyBpZD0ic2hhcGU0MDgtNDIiIHRyYW5zZm9ybT0idHJhbnNsYXRlKDc1LjExOTgsLTUxLjU2NzIpIj4mI3hhOwkJCTx0aXRsZSBpZD0idGl0bGUxNTAxMjQiPnBhdGg3OTU8L3RpdGxlPiYjeGE7CQkJPHBhdGggaWQ9InBhdGgxNTAxMjYiIGlua3NjYXBlOmNvbm5lY3Rvci1jdXJ2YXR1cmU9IjAiIGQ9Ik0xMy43Niw5MC40OWgtMi4wM2wwLjUxLDAuOTRsMC41LDAuMjd2MC4wMWgwLjAxbDAsMFY5MS43bDAuNS0wLjI3ICAgICBMMTMuNzYsOTAuNDl6IE0yNS41LDczLjY1bC0xLjc5LDAuMjNsLTAuMi0wLjA3bC0yLjQ0LTAuNDhoLTQuMDNsLTMuNzIsMC42aC0xLjE4bC0zLjcyLTAuNkg0LjRsLTIuNDMsMC40OGwtMC4xOSwwLjA3TDAsNzMuNjUgICAgIHYwLjcybDAuOTYsMC4xM2wwLjczLDMuMzhsMC42MywwLjYzbDEuOTIsMC40N2gzLjI1bDIuODQtMC42NGwxLjQ3LTIuMzVsMC41OS0wLjY3aDAuNjdsMC41OSwwLjY3bDEuNDcsMi4zNWwyLjg0LDAuNjRoMy4yNSAgICAgbDEuOTItMC40N2wwLjYzLTAuNjNsMC43My0zLjM4bDAuOTYtMC4xM0wyNS41LDczLjY1eiBNMTAuNzgsNzUuNDdsLTAuOCwyLjI2bC0yLjY3LDAuNThINC4xOGwtMS40Mi0wLjM3bC0wLjUyLTAuNDVsLTAuMzktMi41ICAgICBsMC40My0wLjUybDIuMDktMC40aDMuOTlsMi40NCwwLjM3TDEwLjc4LDc1LjQ3eiBNMjMuMjUsNzcuNDlsLTAuNTIsMC40NWwtMS40MiwwLjM2aC0zLjE0bC0yLjY2LTAuNTdsLTAuODEtMi4yNXYtMS4wNSAgICAgbDIuNDQtMC4zN2gzLjk4bDIuMDksMC40bDAuNDMsMC41MkwyMy4yNSw3Ny40OXoiLz4mI3hhOwkJPC9nPiYjeGE7CQk8ZyBpZD0ic2hhcGU0MDktNDQiIHRyYW5zZm9ybT0idHJhbnNsYXRlKDAuMDY3NjI4NywtNy4wMjU3MSkiPiYjeGE7CQkJPHRpdGxlIGlkPSJ0aXRsZTE1MDEyOSI+U2hlZXQuNDA5PC90aXRsZT4mI3hhOwkJCTxwYXRoIGlkPSJwYXRoMTUwMTMxIiBpbmtzY2FwZTpjb25uZWN0b3ItY3VydmF0dXJlPSIwIiBzdHlsZT0iZmlsbDojMDA5MjQ1OyIgZD0iTTI4LjY3LDkxLjcxYy0wLjI3LDAtMC41NC0wLjEzLTAuNzQtMC4zMyAgICAgTDAuNDEsNjMuODVjLTAuNDEtMC40LTAuNDEtMS4wOCwwLTEuNDljMC40LTAuNCwxLjA4LTAuNCwxLjQ4LDBsMjcuNTMsMjcuNTNjMC40LDAuNCwwLjQsMS4wOCwwLDEuNDkgICAgIEMyOS4xNSw5MS41MSwyOC44OCw5MS43MSwyOC42Nyw5MS43MXoiLz4mI3hhOwkJPC9nPiYjeGE7CQk8ZyBpZD0ic2hhcGU0MTAtNDYiIHRyYW5zZm9ybT0idHJhbnNsYXRlKDMuOTIyNDYsLTExLjAxNTgpIj4mI3hhOwkJCTx0aXRsZSBpZD0idGl0bGUxNTAxMzQiPlNoZWV0LjQxMDwvdGl0bGU+JiN4YTsJCQk8cGF0aCBpZD0icGF0aDE1MDEzNiIgaW5rc2NhcGU6Y29ubmVjdG9yLWN1cnZhdHVyZT0iMCIgc3R5bGU9ImZpbGw6IzAwOTI0NTsiIGQ9Ik0yOC43NCw5MS43MWMtMC4yNywwLTAuNTQtMC4xMy0wLjc0LTAuMzMgICAgIEwwLjQxLDYzLjkyQzAsNjMuNTEsMCw2Mi44NCwwLjQxLDYyLjQzYzAuNC0wLjQsMS4wOC0wLjQsMS40OCwwbDI3LjYsMjcuNTNjMC40LDAuNCwwLjQsMS4wOCwwLDEuNDggICAgIEMyOS4yOCw5MS42NSwyOS4wMSw5MS43MSwyOC43NCw5MS43MXoiLz4mI3hhOwkJPC9nPiYjeGE7CQk8ZyBpZD0ic2hhcGU0MTEtNDgiIHRyYW5zZm9ybT0idHJhbnNsYXRlKDAsLTM0LjY4NTgpIj4mI3hhOwkJCTx0aXRsZSBpZD0idGl0bGUxNTAxMzkiPlNoZWV0LjQxMTwvdGl0bGU+JiN4YTsJCQk8cGF0aCBpZD0icGF0aDE1MDE0MSIgaW5rc2NhcGU6Y29ubmVjdG9yLWN1cnZhdHVyZT0iMCIgc3R5bGU9ImZpbGw6IzAwOTI0NTsiIGQ9Ik0xLjE1LDkxLjcxYy0wLjI3LDAtMC41NC0wLjEzLTAuNzQtMC4zMyAgICAgQzAsOTAuOTcsMCw5MC4yOSwwLjQxLDg5Ljg5TDI4LDYyLjQzYzAuNC0wLjQsMS4wOC0wLjQsMS40OSwwYzAuNCwwLjQxLDAuNCwxLjA4LDAsMS40OUwxLjk2LDkxLjQ0ICAgICBDMS42OSw5MS43MSwxLjQyLDkxLjcxLDEuMTUsOTEuNzF6Ii8+JiN4YTsJCTwvZz4mI3hhOwkJPGcgaWQ9InNoYXBlNDEyLTUwIiB0cmFuc2Zvcm09InRyYW5zbGF0ZSgzLjkyMjQ2LC0zMC42MjgxKSI+JiN4YTsJCQk8dGl0bGUgaWQ9InRpdGxlMTUwMTQ0Ij5TaGVldC40MTI8L3RpdGxlPiYjeGE7CQkJPHBhdGggaWQ9InBhdGgxNTAxNDYiIGlua3NjYXBlOmNvbm5lY3Rvci1jdXJ2YXR1cmU9IjAiIHN0eWxlPSJmaWxsOiMwMDkyNDU7IiBkPSJNMS4xNSw5MS43MWMtMC4yNywwLTAuNTQtMC4xMy0wLjc0LTAuMzMgICAgIEMwLDkwLjk3LDAsOTAuMjksMC40MSw4OS44OWwyNy41Mi0yNy41M2MwLjQxLTAuNCwxLjA4LTAuNCwxLjQ5LDBjMC40LDAuNDEsMC40LDEuMDksMCwxLjQ5TDEuODksOTEuMzggICAgIEMxLjY5LDkxLjUxLDEuNDIsOTEuNzEsMS4xNSw5MS43MXoiLz4mI3hhOwkJPC9nPiYjeGE7CQk8ZyBpZD0ic2hhcGU0MTMtNTIiIHRyYW5zZm9ybT0idHJhbnNsYXRlKDI3LjcyNzgsLTYyLjE0MzEpIj4mI3hhOwkJCTx0aXRsZSBpZD0idGl0bGUxNTAxNDkiPlNoZWV0LjQxMzwvdGl0bGU+JiN4YTsJCQk8cGF0aCBpZD0icGF0aDE1MDE1MSIgaW5rc2NhcGU6Y29ubmVjdG9yLWN1cnZhdHVyZT0iMCIgc3R5bGU9ImZpbGw6IzAwOTI0NTsiIGQ9Ik00Ljk0LDkxLjcxSDEuMDFDMC40MSw5MS43MSwwLDkxLjI0LDAsOTAuNyAgICAgYzAtMC42MSwwLjQ3LTEuMDEsMS4wMS0xLjAxaDMuOTNjMC42MSwwLDEuMDEsMC40NywxLjAxLDEuMDFDNS45NSw5MS4xNyw1LjQ4LDkxLjcxLDQuOTQsOTEuNzF6Ii8+JiN4YTsJCTwvZz4mI3hhOwkJPGcgaWQ9InNoYXBlNDE0LTU0IiB0cmFuc2Zvcm09InRyYW5zbGF0ZSgzMS42NTAyLC01OC4yODgyKSI+JiN4YTsJCQk8dGl0bGUgaWQ9InRpdGxlMTUwMTU0Ij5TaGVldC40MTQ8L3RpdGxlPiYjeGE7CQkJPHBhdGggaWQ9InBhdGgxNTAxNTYiIGlua3NjYXBlOmNvbm5lY3Rvci1jdXJ2YXR1cmU9IjAiIHN0eWxlPSJmaWxsOiMwMDkyNDU7IiBkPSJNMS4wMSw5MS43MUMwLjQxLDkxLjcxLDAsOTEuMjQsMCw5MC43di0zLjkyICAgICBjMC0wLjYxLDAuNDctMS4wMiwxLjAxLTEuMDJjMC42MSwwLDEuMDIsMC40OCwxLjAyLDEuMDJ2My45MkMyLjAzLDkxLjI0LDEuNTYsOTEuNzEsMS4wMSw5MS43MXoiLz4mI3hhOwkJPC9nPiYjeGE7CQk8ZyBpZD0ic2hhcGU0MTUtNTYiIHRyYW5zZm9ybT0idHJhbnNsYXRlKDMxLjUxNSwtNjIuMTQzMSkiPiYjeGE7CQkJPHRpdGxlIGlkPSJ0aXRsZTE1MDE1OSI+U2hlZXQuNDE1PC90aXRsZT4mI3hhOwkJCTxwYXRoIGlkPSJwYXRoMTUwMTYxIiBpbmtzY2FwZTpjb25uZWN0b3ItY3VydmF0dXJlPSIwIiBzdHlsZT0iZmlsbDojMDA5MjQ1OyIgZD0iTTEuMTUsOTEuNzFjLTAuMjcsMC0wLjU0LTAuMTMtMC43NC0wLjMzICAgICBDMCw5MC45NywwLDkwLjI5LDAuNDEsODkuODlMNi4yOSw4NGMwLjQxLTAuNCwxLjA4LTAuNCwxLjQ5LDBjMC40LDAuNDEsMC40LDEuMDksMCwxLjQ5bC01Ljg5LDUuODkgICAgIEMxLjY5LDkxLjUxLDEuNDIsOTEuNzEsMS4xNSw5MS43MXoiLz4mI3hhOwkJPC9nPiYjeGE7CQk8ZyBpZD0ic2hhcGU0MTYtNTgiIHRyYW5zZm9ybT0icm90YXRlKC00NSwtMzguNDU3ODUsMS4zNjk0NjMpIj4mI3hhOwkJCTx0aXRsZSBpZD0idGl0bGUxNTAxNjQiPlNoZWV0LjQxNjwvdGl0bGU+JiN4YTsJCQk8Y2lyY2xlIGlkPSJlbGxpcHNlMTUwMTY2IiBzdHlsZT0iZmlsbDojQzlEQTJBOyIgY3g9IjUuNjgiIGN5PSI4Ni4wMyIgcj0iNS42OCIvPiYjeGE7CQk8L2c+JiN4YTsJCTxnIGlkPSJzaGFwZTQxNy02MCIgdHJhbnNmb3JtPSJyb3RhdGUoLTQ0Ljk5NTksLTQwLjIwNDM3MywxNC4yOTA0NDMpIj4mI3hhOwkJCTx0aXRsZSBpZD0idGl0bGUxNTAxNjkiPlNoZWV0LjQxNzwvdGl0bGU+JiN4YTsJCQkmI3hhOwkJCQk8cmVjdCBpZD0icmVjdDE1MDE3MSIgeD0iMCIgeT0iOTAuNSIgdHJhbnNmb3JtPSJtYXRyaXgoLTEgMi4zODc2NDVlLTA2IC0yLjM4NzY0NWUtMDYgLTEgMjguNjA5NSAxODIuMjEyNCkiIHN0eWxlPSJmaWxsOiMwMDkyNDU7IiB3aWR0aD0iMjguNjEiIGhlaWdodD0iMS4yMiIvPiYjeGE7CQk8L2c+JiN4YTsJCTxnIGlkPSJzaGFwZTQxOC02MiIgdHJhbnNmb3JtPSJ0cmFuc2xhdGUoMjkuNzU2NiwtNjIuNDgxMikiPiYjeGE7CQkJPHRpdGxlIGlkPSJ0aXRsZTE1MDE3NCI+U2hlZXQuNDE4PC90aXRsZT4mI3hhOwkJCTxwYXRoIGlkPSJwYXRoMTUwMTc2IiBpbmtzY2FwZTpjb25uZWN0b3ItY3VydmF0dXJlPSIwIiBzdHlsZT0iZmlsbDojMjJCNTczOyIgZD0iTTAsNzcuMzFsNy43MS03LjcxbDE0LjM0LDEyLjExbC05Ljk0LDEwICAgICBMMCw3Ny4zMXoiLz4mI3hhOwkJPC9nPiYjeGE7CQk8ZyBpZD0ic2hhcGU0MTktNjQiIHRyYW5zZm9ybT0idHJhbnNsYXRlKDM3LjYwMTUsLTUxLjk5ODgpIj4mI3hhOwkJCTx0aXRsZSBpZD0idGl0bGUxNTAxNzkiPlNoZWV0LjQxOTwvdGl0bGU+JiN4YTsJCQk8cGF0aCBpZD0icGF0aDE1MDE4MSIgaW5rc2NhcGU6Y29ubmVjdG9yLWN1cnZhdHVyZT0iMCIgc3R5bGU9ImZpbGw6IzIyQjU3MzsiIGQ9Ik0yNC42OCw3MS41Nkw0LjQ2LDkxLjcxTDAsNzQuOTRsNy44NC03LjkxICAgICBMMjQuNjgsNzEuNTZ6Ii8+JiN4YTsJCTwvZz4mI3hhOwkJPGcgaWQ9InNoYXBlNDIwLTY2IiB0cmFuc2Zvcm09InRyYW5zbGF0ZSgxNC44NzgzLC02LjY4NzU3KSI+JiN4YTsJCQk8dGl0bGUgaWQ9InRpdGxlMTUwMTg0Ij5TaGVldC40MjA8L3RpdGxlPiYjeGE7CQkJPHBhdGggaWQ9InBhdGgxNTAxODYiIGlua3NjYXBlOmNvbm5lY3Rvci1jdXJ2YXR1cmU9IjAiIHN0eWxlPSJmaWxsOiMyMkI1NzM7IiBkPSJNMjIuMjUsODYuMTdINS41NUMyLjUsODYuMTcsMCw4OC42NywwLDkxLjcxICAgICBoMjcuODZDMjcuODYsODguNzQsMjUuMzYsODYuMTcsMjIuMjUsODYuMTd6Ii8+JiN4YTsJCTwvZz4mI3hhOwkJPGcgaWQ9InNoYXBlNDIxLTY4IiB0cmFuc2Zvcm09InRyYW5zbGF0ZSgxMy44NjUyKSI+JiN4YTsJCQk8dGl0bGUgaWQ9InRpdGxlMTUwMTg5Ij5TaGVldC40MjE8L3RpdGxlPiYjeGE7CQkJPHJlY3QgaWQ9InJlY3QxNTAxOTEiIHg9IjAiIHk9Ijg0LjIxIiBzdHlsZT0iZmlsbDojMDBBRUVGOyIgd2lkdGg9IjEyMC42NCIgaGVpZ2h0PSI3LjUxIi8+JiN4YTsJCTwvZz4mI3hhOwk8L2c+JiN4YTs8L2c+JiN4YTs8L3N2Zz4=;fontSize=15;imageBackground=#E6FFCC;" vertex="1" parent="1">
          <mxGeometry x="1118.9299999999998" y="88.71" width="58.07" height="39" as="geometry" />
        </mxCell>
        <mxCell id="dnq7VN7bOO2wTZYb34gf-104" value="" style="shape=image;verticalLabelPosition=bottom;labelBackgroundColor=#ffffff;verticalAlign=top;aspect=fixed;imageAspect=0;image=data:image/svg+xml,PHN2ZyB4bWxuczpjYz0iaHR0cDovL2NyZWF0aXZlY29tbW9ucy5vcmcvbnMjIiB4bWxuczpkYz0iaHR0cDovL3B1cmwub3JnL2RjL2VsZW1lbnRzLzEuMS8iIHhtbG5zOmlua3NjYXBlPSJodHRwOi8vd3d3Lmlua3NjYXBlLm9yZy9uYW1lc3BhY2VzL2lua3NjYXBlIiB4bWxuczpyZGY9Imh0dHA6Ly93d3cudzMub3JnLzE5OTkvMDIvMjItcmRmLXN5bnRheC1ucyMiIHhtbG5zOnNvZGlwb2RpPSJodHRwOi8vc29kaXBvZGkuc291cmNlZm9yZ2UubmV0L0RURC9zb2RpcG9kaS0wLmR0ZCIgeG1sbnM6c3ZnPSJodHRwOi8vd3d3LnczLm9yZy8yMDAwL3N2ZyIgeG1sbnM9Imh0dHA6Ly93d3cudzMub3JnLzIwMDAvc3ZnIiB4bWxuczp4bGluaz0iaHR0cDovL3d3dy53My5vcmcvMTk5OS94bGluayIgdmVyc2lvbj0iMS4xIiBpZD0ic3ZnMTUwMTk3IiBpbmtzY2FwZTp2ZXJzaW9uPSIwLjkyLjMgKDI0MDU1NDYsIDIwMTgtMDMtMTEpIiBzb2RpcG9kaTpkb2NuYW1lPSJkZXZlbG9wZXJfMS5zdmciIHg9IjBweCIgeT0iMHB4IiB2aWV3Qm94PSIwIDAgMTM0LjQgODkuNzkiIHN0eWxlPSJlbmFibGUtYmFja2dyb3VuZDpuZXcgMCAwIDEzNC40IDg5Ljc5OyIgeG1sOnNwYWNlPSJwcmVzZXJ2ZSI+JiN4YTs8c29kaXBvZGk6bmFtZWR2aWV3IGJvcmRlcmNvbG9yPSIjNjY2NjY2IiBib3JkZXJvcGFjaXR5PSIxIiBmaXQtbWFyZ2luLWJvdHRvbT0iMCIgZml0LW1hcmdpbi1sZWZ0PSIwIiBmaXQtbWFyZ2luLXJpZ2h0PSIwIiBmaXQtbWFyZ2luLXRvcD0iMCIgZ3JpZHRvbGVyYW5jZT0iMTAiIGd1aWRldG9sZXJhbmNlPSIxMCIgaWQ9Im5hbWVkdmlldzE1MDE5OSIgaW5rc2NhcGU6Y3VycmVudC1sYXllcj0ic3ZnMTUwMTk3IiBpbmtzY2FwZTpjeD0iODkuNTk4MzE2IiBpbmtzY2FwZTpjeT0iNTkuMzI5NTMzIiBpbmtzY2FwZTpwYWdlb3BhY2l0eT0iMCIgaW5rc2NhcGU6cGFnZXNoYWRvdz0iMiIgaW5rc2NhcGU6d2luZG93LWhlaWdodD0iMTAxNyIgaW5rc2NhcGU6d2luZG93LW1heGltaXplZD0iMSIgaW5rc2NhcGU6d2luZG93LXdpZHRoPSIxOTIwIiBpbmtzY2FwZTp3aW5kb3cteD0iLTgiIGlua3NjYXBlOndpbmRvdy15PSItOCIgaW5rc2NhcGU6em9vbT0iNy4wODk5NTA1IiBvYmplY3R0b2xlcmFuY2U9IjEwIiBwYWdlY29sb3I9IiNmZmZmZmYiIHNob3dncmlkPSJmYWxzZSI+JiN4YTsJPC9zb2RpcG9kaTpuYW1lZHZpZXc+JiN4YTs8ZyBpZD0iZzE1MDE5NSIgdHJhbnNmb3JtPSJ0cmFuc2xhdGUoLTEuMzYxNDY5MiwtMC41NjgzKSI+JiN4YTsJPHRpdGxlIGlkPSJ0aXRsZTE1MDAyMCI+UGFnZS0xPC90aXRsZT4mI3hhOwk8ZyBpZD0iZ3JvdXAzODctMSIgdHJhbnNmb3JtPSJ0cmFuc2xhdGUoMS4yNTg1NiwtMS4zNikiPiYjeGE7CQk8dGl0bGUgaWQ9InRpdGxlMTUwMDIyIj5EZXZlbG9wZXIgIzE8L3RpdGxlPiYjeGE7CQk8ZyBpZD0ic2hhcGUzODgtMiIgdHJhbnNmb3JtPSJtYXRyaXgoMSwwLDAsLTEsNjEuOTc3NywxMzEuNjkyKSI+JiN4YTsJCQk8dGl0bGUgaWQ9InRpdGxlMTUwMDI0Ij5wYXRoMjA2LTA8L3RpdGxlPiYjeGE7CQkJPHBhdGggaWQ9InBhdGgxNTAwMjYiIGlua3NjYXBlOmNvbm5lY3Rvci1jdXJ2YXR1cmU9IjAiIHN0eWxlPSJmaWxsOiMwMDcxQkM7IiBkPSJNNTIuMiw1MS4zOWMwLTIuNi0zLjIyLTQuNy03LjE5LTQuN0g3LjE5ICAgICBjLTMuOTcsMC03LjE5LDIuMS03LjE5LDQuN3YzNS42MmMwLDIuNiwzLjIyLDQuNyw3LjE5LDQuN2gzNy44MmMzLjk3LDAsNy4xOS0yLjEsNy4xOS00LjdMNTIuMiw1MS4zOXoiLz4mI3hhOwkJPC9nPiYjeGE7CQk8ZyBpZD0ic2hhcGUzODktNCIgdHJhbnNmb3JtPSJ0cmFuc2xhdGUoODMuMjY2MywtMzguMTQxMykiPiYjeGE7CQkJPHRpdGxlIGlkPSJ0aXRsZTE1MDAyOSI+cGF0aDIxMC00PC90aXRsZT4mI3hhOwkJCTxwYXRoIGlkPSJwYXRoMTUwMDMxIiBpbmtzY2FwZTpjb25uZWN0b3ItY3VydmF0dXJlPSIwIiBzdHlsZT0iZmlsbDojRTVFNUU1OyIgZD0iTTkuNjIsOTEuNzFIMHYtNS45Nmg5LjYyVjkxLjcxeiIvPiYjeGE7CQk8L2c+JiN4YTsJCTxnIGlkPSJzaGFwZTM5MC02IiB0cmFuc2Zvcm09Im1hdHJpeCgxLDAsMCwtMSw4Ny44Njg0LDE0MS42KSI+JiN4YTsJCQk8dGl0bGUgaWQ9InRpdGxlMTUwMDM0Ij5wYXRoMjE0LTk8L3RpdGxlPiYjeGE7CQkJPHBhdGggaWQ9InBhdGgxNTAwMzYiIGlua3NjYXBlOmNvbm5lY3Rvci1jdXJ2YXR1cmU9IjAiIHN0eWxlPSJmaWxsOm5vbmU7IiBkPSJNMCw5MS43MXYtMi42OFY5MS43MXoiLz4mI3hhOwkJCSYjeGE7CQkJCTxwYXRoIGlkPSJwYXRoMTUwMDM4IiBpbmtzY2FwZTpjb25uZWN0b3ItY3VydmF0dXJlPSIwIiBzdHlsZT0iZmlsbDpub25lO3N0cm9rZTojQjJCMkIyO3N0cm9rZS13aWR0aDoyLjA2MDY7c3Ryb2tlLW1pdGVybGltaXQ6MzsiIGQ9IiAgICAgTTAsOTEuNzF2LTIuNjgiLz4mI3hhOwkJPC9nPiYjeGE7CQk8ZyBpZD0ic2hhcGUzOTEtOSIgdHJhbnNmb3JtPSJtYXRyaXgoMSwwLDAsLTEsNDkuMTA0NywxMzcuMzIxKSI+JiN4YTsJCQk8dGl0bGUgaWQ9InRpdGxlMTUwMDQxIj5wYXRoMjE4LTI8L3RpdGxlPiYjeGE7CQkJPHBhdGggaWQ9InBhdGgxNTAwNDMiIGlua3NjYXBlOmNvbm5lY3Rvci1jdXJ2YXR1cmU9IjAiIHN0eWxlPSJmaWxsOiMzOUI1NEE7IiBkPSJNNzMuNCw2MS4wNGMtNC4xMiw4LjI1LTEyLjksMjYuNDgtMTQuNTcsMjcuODggICAgIGMtMS42NiwxLjQtMTAuNDQsMi43OS0xNS40NiwyLjc5YzAsMCwwLjk0LTYuMTgtNC42MS02LjE4Yy01LjU0LDAtNC42LDYuMTgtNC42LDYuMThjLTUuMDIsMC0xMy44LTEuMzktMTUuNDYtMi43OSAgICAgYy0xLjY3LTEuNC0xMC40NS0xOS42My0xNC41OC0yNy44OEMwLDUyLjc5LDUuMjYsNTIuMTksNS4yNiw1Mi4xOWgxNC40M3Y2LjkyYy0yLjEzLDAuNzMtNi43MiwxLjYtNi43MiwxLjYgICAgIGMxLjQsMy4zOSw5LjUyLDE4Ljg5LDkuNTIsMTguODlsMC44Ni0yNi42OGgxNS40MWgxNS40MWwwLjg3LDI2LjY4YzAsMCw4LjEyLTE1LjUsOS41MS0xOC44OWMwLDAtNC41OS0wLjg3LTYuNzItMS42di02LjkyICAgICBoMTQuNDRDNzIuMjcsNTIuMTksNzcuNTMsNTIuNzksNzMuNCw2MS4wNHoiLz4mI3hhOwkJPC9nPiYjeGE7CQk8ZyBpZD0ic2hhcGUzOTItMTEiIHRyYW5zZm9ybT0ibWF0cml4KDEsMCwwLC0xLDgzLjI2NjMsMTI4LjA5MykiPiYjeGE7CQkJPHRpdGxlIGlkPSJ0aXRsZTE1MDA0NiI+cGF0aDIyMi03PC90aXRsZT4mI3hhOwkJCTxwYXRoIGlkPSJwYXRoMTUwMDQ4IiBpbmtzY2FwZTpjb25uZWN0b3ItY3VydmF0dXJlPSIwIiBzdHlsZT0iZmlsbDojRkZEQUEyOyIgZD0iTTkuMiw4MC41NmMwLDAtMC42NS0yLjM1LTQuNi0yLjM1ICAgICBTMCw4MC41NiwwLDgwLjU2djExLjE1aDkuMlY4MC41NnoiLz4mI3hhOwkJPC9nPiYjeGE7CQk8ZyBpZD0ic2hhcGUzOTMtMTMiIHRyYW5zZm9ybT0ibWF0cml4KDEsMCwwLC0xLDc1LjExOTgsMTA1LjIwOCkiPiYjeGE7CQkJPHRpdGxlIGlkPSJ0aXRsZTE1MDA1MSI+cGF0aDIyNi05PC90aXRsZT4mI3hhOwkJCTxwYXRoIGlkPSJwYXRoMTUwMDUzIiBpbmtzY2FwZTpjb25uZWN0b3ItY3VydmF0dXJlPSIwIiBzdHlsZT0iZmlsbDojRkZEQUEyOyIgZD0iTTEyLjc1LDg4LjI4Yy04LjgxLDMuNDMtMTIuNzUsMC0xMi43NSwwICAgICBzMC42OC0xMi4xMSwxLTE0LjU2YzAuNzUtNS44Miw4LjMxLTkuNjksMTEuNzUtOS42OXMxMSwzLjg3LDExLjc1LDkuNjljMC4zMSwyLjQ1LDEsMTQuNTYsMSwxNC41NlMyMS41Niw5MS43MSwxMi43NSw4OC4yOHoiLz4mI3hhOwkJPC9nPiYjeGE7CQk8ZyBpZD0ic2hhcGUzOTQtMTUiIHRyYW5zZm9ybT0ibWF0cml4KDEsMCwwLC0xLDcwLjc0NTEsMTEzLjE5MSkiPiYjeGE7CQkJPHRpdGxlIGlkPSJ0aXRsZTE1MDA1NiI+cGF0aDIzMC01PC90aXRsZT4mI3hhOwkJCTxwYXRoIGlkPSJwYXRoMTUwMDU4IiBpbmtzY2FwZTpjb25uZWN0b3ItY3VydmF0dXJlPSIwIiBzdHlsZT0iZmlsbDojRjdEMTk3OyIgZD0iTTQuNzgsODkuNWMwLDAtMi4yNCwyLjIxLTMuMDMsMC44OSAgICAgQzAsODcuNDUsMy4wNiw4Ni4zNSwzLjI3LDgzLjU3YzAuMTQtMS45OCwxLjQ4LTEuOTcsMi4wMS0wLjk4QzUuODEsODMuNTcsNS41OSw4OC44Myw0Ljc4LDg5LjV6Ii8+JiN4YTsJCTwvZz4mI3hhOwkJPGcgaWQ9InNoYXBlMzk1LTE3IiB0cmFuc2Zvcm09Im1hdHJpeCgxLDAsMCwtMSw5OS4xNzk1LDExMy4xOTEpIj4mI3hhOwkJCTx0aXRsZSBpZD0idGl0bGUxNTAwNjEiPnBhdGgyMzQtMDwvdGl0bGU+JiN4YTsJCQk8cGF0aCBpZD0icGF0aDE1MDA2MyIgaW5rc2NhcGU6Y29ubmVjdG9yLWN1cnZhdHVyZT0iMCIgc3R5bGU9ImZpbGw6I0Y3RDE5NzsiIGQ9Ik0xLjAzLDg5LjVjMCwwLDIuMjQsMi4yMSwzLjAzLDAuODkgICAgIGMxLjc1LTIuOTQtMS4zMS00LjA0LTEuNTEtNi44MmMtMC4xNS0xLjk4LTEuNDktMS45Ny0yLjAyLTAuOThDMCw4My41NywwLjIyLDg4LjgzLDEuMDMsODkuNXoiLz4mI3hhOwkJPC9nPiYjeGE7CQk8ZyBpZD0ic2hhcGUzOTYtMTkiIHRyYW5zZm9ybT0ibWF0cml4KDEsMCwwLC0xLDc0Ljg3NzcsMTE5LjE4OCkiPiYjeGE7CQkJPHRpdGxlIGlkPSJ0aXRsZTE1MDA2NiI+cGF0aDIzOC04PC90aXRsZT4mI3hhOwkJCTxwYXRoIGlkPSJwYXRoMTUwMDY4IiBpbmtzY2FwZTpjb25uZWN0b3ItY3VydmF0dXJlPSIwIiBkPSJNMTIuOTksODIuMzhjLTIuNjQsMC00LDAuNzQtNCwxLjg0czEuNjEsMC40NSw0LDAuNDVzNCwwLjY1LDQtMC40NSAgICAgUzE1LjYzLDgyLjM4LDEyLjk5LDgyLjM4eiBNMjUuMjcsOTEuNzFoLTAuNDljMCwwLDAuNjMtNS4xNC0xMS43OS01LjE0UzEuMjEsOTEuNzEsMS4yMSw5MS43MWgtMC41YzAsMC0wLjcxLTUuODEsMS42NC05LjEzICAgICBjMy4yNS00LjU3LDEwLjY0LTQuNTcsMTAuNjQtNC41N3M3LjM5LDAsMTAuNjQsNC41N0MyNS45OCw4NS45LDI1LjI3LDkxLjcxLDI1LjI3LDkxLjcxeiIvPiYjeGE7CQk8L2c+JiN4YTsJCTxnIGlkPSJzaGFwZTM5Ny0yMSIgdHJhbnNmb3JtPSJtYXRyaXgoMSwwLDAsLTEsNjcuMzUxMSw5My42MzgzKSI+JiN4YTsJCQk8dGl0bGUgaWQ9InRpdGxlMTUwMDcxIj5wYXRoMjQyLTE8L3RpdGxlPiYjeGE7CQkJPHBhdGggaWQ9InBhdGgxNTAwNzMiIGlua3NjYXBlOmNvbm5lY3Rvci1jdXJ2YXR1cmU9IjAiIGQ9Ik0zMi44LDY2LjE3YzAsMC0wLjUyLDMuNjcsMS4yNSw0LjdjMCwwLDMuMTMsMTAuNDIsMC40MywxMy4xNiAgICAgYy0yLjY5LDIuNzQtNi41NCw0LjQ5LTkuNzgsNC44NHMtNi44NCwxLTguNTMsMi44NGMwLDAsMC44NS0yLjM0LDEuOTktMi40OWMwLDAtNy41My0xLjM1LTEyLjM3LDAuM2MwLDAsMS4zNS0zLjY0LDQuMzktNC4yOSAgICAgYzAsMC02LjM5LTEuNS0xMC4xOC0wLjI1YzAsMCwzLjAxLTYuMTYsNy43Ny04LjI3YzAsMCwzLjYxLDEuNjMsNS4zNSwwLjkzYzAsMCwwLjM1LTEtMS4xOS0xLjY0YzAsMCw0LjI0LDAuMTUsNi4wOCwxLjA0ICAgICBjMCwwLDAuMTUtMC42OSwwLjA1LTEuMzRjMCwwLDQuODQsMS4wNyw3LjM0LDIuMzVjMCwwLDIuMDktMS41NiwxLjQtMi4yYzAsMCw1LjA0LTAuMiw2LjEsMC42OSAgICAgQzMyLjksNzYuNTQsMzIuMzIsNjcuNTEsMzIuOCw2Ni4xN3oiLz4mI3hhOwkJPC9nPiYjeGE7CQk8ZyBpZD0ic2hhcGUzOTgtMjMiIHRyYW5zZm9ybT0ibWF0cml4KDEsMCwwLC0xLDcyLjM5MDksMTA2LjQxMykiPiYjeGE7CQkJPHRpdGxlIGlkPSJ0aXRsZTE1MDA3NiI+cGF0aDI0NjwvdGl0bGU+JiN4YTsJCQk8cGF0aCBpZD0icGF0aDE1MDA3OCIgaW5rc2NhcGU6Y29ubmVjdG9yLWN1cnZhdHVyZT0iMCIgZD0iTTMuMTksNzguOTRjMCwwLDAuMTksNC4xMS0yLjAzLDUuMDVjMCwwLTEuMTYsNi4zMy0wLjU2LDcuNzIgICAgIGwyLjQ5LTIuMDdjMCwwLDAuNjktOC45NSwwLjM1LTEwLjdMMy4xOSw3OC45NHoiLz4mI3hhOwkJPC9nPiYjeGE7CQk8ZyBpZD0ic2hhcGUzOTktMjUiIHRyYW5zZm9ybT0ibWF0cml4KDEsMCwwLC0xLDgxLjU0MjEsMTM3LjMyMSkiPiYjeGE7CQkJPHRpdGxlIGlkPSJ0aXRsZTE1MDA4MSI+cGF0aDI1MDwvdGl0bGU+JiN4YTsJCQk8cGF0aCBpZD0icGF0aDE1MDA4MyIgaW5rc2NhcGU6Y29ubmVjdG9yLWN1cnZhdHVyZT0iMCIgc3R5bGU9ImZpbGw6I0YxRjFGMTsiIGQ9Ik02LjMzLDg3LjQzYzAsMC0zLjg1LTAuMDEtNS4wNS0yLjY4ICAgICBjMCwwLTEuMjgsNC44OSwwLjQ0LDYuOTZDMS43Miw5MS43MSwyLjE5LDg3Ljc3LDYuMzMsODcuNDN6Ii8+JiN4YTsJCTwvZz4mI3hhOwkJPGcgaWQ9InNoYXBlNDAwLTI3IiB0cmFuc2Zvcm09Im1hdHJpeCgxLDAsMCwtMSw4Ny44Njg0LDEzNy4zMjEpIj4mI3hhOwkJCTx0aXRsZSBpZD0idGl0bGUxNTAwODYiPnBhdGgyNTQ8L3RpdGxlPiYjeGE7CQkJPHBhdGggaWQ9InBhdGgxNTAwODgiIGlua3NjYXBlOmNvbm5lY3Rvci1jdXJ2YXR1cmU9IjAiIHN0eWxlPSJmaWxsOiNGMUYxRjE7IiBkPSJNMCw4Ny40M2MwLDAsMy44NS0wLjAxLDUuMDUtMi42OCAgICAgYzAsMCwxLjI4LDQuODktMC40NSw2Ljk2QzQuNiw5MS43MSw0LjEzLDg3Ljc3LDAsODcuNDN6Ii8+JiN4YTsJCTwvZz4mI3hhOwkJPGcgaWQ9InNoYXBlNDAxLTI5IiB0cmFuc2Zvcm09Im1hdHJpeCgxLDAsMCwtMSw2Ni4wMDM5LDE1NC43OTEpIj4mI3hhOwkJCTx0aXRsZSBpZD0idGl0bGUxNTAwOTEiPnBhdGgyOTg8L3RpdGxlPiYjeGE7CQkJPHBhdGggaWQ9InBhdGgxNTAwOTMiIGlua3NjYXBlOmNvbm5lY3Rvci1jdXJ2YXR1cmU9IjAiIHN0eWxlPSJmaWxsOiNDQkNCQ0I7IiBkPSJNNDMuMzMsOTAuOTJjLTAuNCwwLjY2LTEuNzMsMC43OS0xLjczLDAuNzkgICAgIEgyMS44NkgyLjEzYzAsMC0xLjMzLTAuMTMtMS43My0wLjc5QzAsOTAuMjUsMC44LDY5LjA5LDAuOCw2OS4wOWgyMS4wNmgyMS4wN0M0Mi45Myw2OS4wOSw0My43Myw5MC4yNSw0My4zMyw5MC45MnoiLz4mI3hhOwkJPC9nPiYjeGE7CQk8ZyBpZD0ic2hhcGU0MDItMzEiIHRyYW5zZm9ybT0ibWF0cml4KDEsMCwwLC0xLDY2LjAwMzksMTU1LjE4MikiPiYjeGE7CQkJPHRpdGxlIGlkPSJ0aXRsZTE1MDA5NiI+cGF0aDMwMjwvdGl0bGU+JiN4YTsJCQk8cGF0aCBpZD0icGF0aDE1MDA5OCIgaW5rc2NhcGU6Y29ubmVjdG9yLWN1cnZhdHVyZT0iMCIgc3R5bGU9ImZpbGw6I0U1RTVFNTsiIGQ9Ik00My4zMyw5MC45MmMtMC40LDAuNjYtMS43MywwLjc5LTEuNzMsMC43OSAgICAgSDIxLjg2SDIuMTNjMCwwLTEuMzMtMC4xMy0xLjczLTAuNzlDMCw5MC4yNSwwLjgsNjkuMDksMC44LDY5LjA5aDIxLjA2aDIxLjA3QzQyLjkzLDY5LjA5LDQzLjczLDkwLjI1LDQzLjMzLDkwLjkyeiIvPiYjeGE7CQk8L2c+JiN4YTsJCTxnIGlkPSJncm91cDQwMy0zMyIgdHJhbnNmb3JtPSJ0cmFuc2xhdGUoODMuODE5MSwtMTIuODg5KSI+JiN4YTsJCQk8dGl0bGUgaWQ9InRpdGxlMTUwMTAxIj5NaWNyb3NvZnQ8L3RpdGxlPiYjeGE7CQkJPGcgaWQ9InNoYXBlNDA0LTM0IiB0cmFuc2Zvcm09InRyYW5zbGF0ZSgwLC00LjI2NTMpIj4mI3hhOwkJCQk8dGl0bGUgaWQ9InRpdGxlMTUwMTAzIj5IVFRQIEFQSSBBcHA8L3RpdGxlPiYjeGE7CQkJCTxwYXRoIGlkPSJwYXRoMTUwMTA1IiBpbmtzY2FwZTpjb25uZWN0b3ItY3VydmF0dXJlPSIwIiBzdHlsZT0iZmlsbDojRjI1MDIyOyIgZD0iTTAsODcuODl2My44MmgzLjg0di0zLjgySDB6Ii8+JiN4YTsJCQk8L2c+JiN4YTsJCQk8ZyBpZD0ic2hhcGU0MDUtMzYiIHRyYW5zZm9ybT0idHJhbnNsYXRlKDQuMjYyOCwtNC4yNjUzKSI+JiN4YTsJCQkJPHRpdGxlIGlkPSJ0aXRsZTE1MDEwOCI+SFRUUCBBUEkgQXBwLjE0NjE8L3RpdGxlPiYjeGE7CQkJCTxwYXRoIGlkPSJwYXRoMTUwMTEwIiBpbmtzY2FwZTpjb25uZWN0b3ItY3VydmF0dXJlPSIwIiBzdHlsZT0iZmlsbDojN0ZCQTAwOyIgZD0iTTAsODcuODl2My44MmgzLjg0di0zLjgySDB6Ii8+JiN4YTsJCQk8L2c+JiN4YTsJCQk8ZyBpZD0ic2hhcGU0MDYtMzgiIHRyYW5zZm9ybT0idHJhbnNsYXRlKDQuMjYyOCkiPiYjeGE7CQkJCTx0aXRsZSBpZD0idGl0bGUxNTAxMTMiPkhUVFAgQVBJIEFwcC4xNDYyPC90aXRsZT4mI3hhOwkJCQk8cGF0aCBpZD0icGF0aDE1MDExNSIgaW5rc2NhcGU6Y29ubmVjdG9yLWN1cnZhdHVyZT0iMCIgc3R5bGU9ImZpbGw6I0ZGQjkwMDsiIGQ9Ik0wLDg3Ljg5djMuODJoMy44NHYtMy44MkgweiIvPiYjeGE7CQkJPC9nPiYjeGE7CQkJPGcgaWQ9InNoYXBlNDA3LTQwIj4mI3hhOwkJCQk8dGl0bGUgaWQ9InRpdGxlMTUwMTE4Ij5IVFRQIEFQSSBBcHAuMTQ2MzwvdGl0bGU+JiN4YTsJCQkJPHBhdGggaWQ9InBhdGgxNTAxMjAiIGlua3NjYXBlOmNvbm5lY3Rvci1jdXJ2YXR1cmU9IjAiIHN0eWxlPSJmaWxsOiMwMEE0RUY7IiBkPSJNMCw4Ny44OXYzLjgyaDMuODR2LTMuODJIMHoiLz4mI3hhOwkJCTwvZz4mI3hhOwkJPC9nPiYjeGE7CQk8ZyBpZD0ic2hhcGU0MDgtNDIiIHRyYW5zZm9ybT0idHJhbnNsYXRlKDc1LjExOTgsLTUxLjU2NzIpIj4mI3hhOwkJCTx0aXRsZSBpZD0idGl0bGUxNTAxMjQiPnBhdGg3OTU8L3RpdGxlPiYjeGE7CQkJPHBhdGggaWQ9InBhdGgxNTAxMjYiIGlua3NjYXBlOmNvbm5lY3Rvci1jdXJ2YXR1cmU9IjAiIGQ9Ik0xMy43Niw5MC40OWgtMi4wM2wwLjUxLDAuOTRsMC41LDAuMjd2MC4wMWgwLjAxbDAsMFY5MS43bDAuNS0wLjI3ICAgICBMMTMuNzYsOTAuNDl6IE0yNS41LDczLjY1bC0xLjc5LDAuMjNsLTAuMi0wLjA3bC0yLjQ0LTAuNDhoLTQuMDNsLTMuNzIsMC42aC0xLjE4bC0zLjcyLTAuNkg0LjRsLTIuNDMsMC40OGwtMC4xOSwwLjA3TDAsNzMuNjUgICAgIHYwLjcybDAuOTYsMC4xM2wwLjczLDMuMzhsMC42MywwLjYzbDEuOTIsMC40N2gzLjI1bDIuODQtMC42NGwxLjQ3LTIuMzVsMC41OS0wLjY3aDAuNjdsMC41OSwwLjY3bDEuNDcsMi4zNWwyLjg0LDAuNjRoMy4yNSAgICAgbDEuOTItMC40N2wwLjYzLTAuNjNsMC43My0zLjM4bDAuOTYtMC4xM0wyNS41LDczLjY1eiBNMTAuNzgsNzUuNDdsLTAuOCwyLjI2bC0yLjY3LDAuNThINC4xOGwtMS40Mi0wLjM3bC0wLjUyLTAuNDVsLTAuMzktMi41ICAgICBsMC40My0wLjUybDIuMDktMC40aDMuOTlsMi40NCwwLjM3TDEwLjc4LDc1LjQ3eiBNMjMuMjUsNzcuNDlsLTAuNTIsMC40NWwtMS40MiwwLjM2aC0zLjE0bC0yLjY2LTAuNTdsLTAuODEtMi4yNXYtMS4wNSAgICAgbDIuNDQtMC4zN2gzLjk4bDIuMDksMC40bDAuNDMsMC41MkwyMy4yNSw3Ny40OXoiLz4mI3hhOwkJPC9nPiYjeGE7CQk8ZyBpZD0ic2hhcGU0MDktNDQiIHRyYW5zZm9ybT0idHJhbnNsYXRlKDAuMDY3NjI4NywtNy4wMjU3MSkiPiYjeGE7CQkJPHRpdGxlIGlkPSJ0aXRsZTE1MDEyOSI+U2hlZXQuNDA5PC90aXRsZT4mI3hhOwkJCTxwYXRoIGlkPSJwYXRoMTUwMTMxIiBpbmtzY2FwZTpjb25uZWN0b3ItY3VydmF0dXJlPSIwIiBzdHlsZT0iZmlsbDojMDA5MjQ1OyIgZD0iTTI4LjY3LDkxLjcxYy0wLjI3LDAtMC41NC0wLjEzLTAuNzQtMC4zMyAgICAgTDAuNDEsNjMuODVjLTAuNDEtMC40LTAuNDEtMS4wOCwwLTEuNDljMC40LTAuNCwxLjA4LTAuNCwxLjQ4LDBsMjcuNTMsMjcuNTNjMC40LDAuNCwwLjQsMS4wOCwwLDEuNDkgICAgIEMyOS4xNSw5MS41MSwyOC44OCw5MS43MSwyOC42Nyw5MS43MXoiLz4mI3hhOwkJPC9nPiYjeGE7CQk8ZyBpZD0ic2hhcGU0MTAtNDYiIHRyYW5zZm9ybT0idHJhbnNsYXRlKDMuOTIyNDYsLTExLjAxNTgpIj4mI3hhOwkJCTx0aXRsZSBpZD0idGl0bGUxNTAxMzQiPlNoZWV0LjQxMDwvdGl0bGU+JiN4YTsJCQk8cGF0aCBpZD0icGF0aDE1MDEzNiIgaW5rc2NhcGU6Y29ubmVjdG9yLWN1cnZhdHVyZT0iMCIgc3R5bGU9ImZpbGw6IzAwOTI0NTsiIGQ9Ik0yOC43NCw5MS43MWMtMC4yNywwLTAuNTQtMC4xMy0wLjc0LTAuMzMgICAgIEwwLjQxLDYzLjkyQzAsNjMuNTEsMCw2Mi44NCwwLjQxLDYyLjQzYzAuNC0wLjQsMS4wOC0wLjQsMS40OCwwbDI3LjYsMjcuNTNjMC40LDAuNCwwLjQsMS4wOCwwLDEuNDggICAgIEMyOS4yOCw5MS42NSwyOS4wMSw5MS43MSwyOC43NCw5MS43MXoiLz4mI3hhOwkJPC9nPiYjeGE7CQk8ZyBpZD0ic2hhcGU0MTEtNDgiIHRyYW5zZm9ybT0idHJhbnNsYXRlKDAsLTM0LjY4NTgpIj4mI3hhOwkJCTx0aXRsZSBpZD0idGl0bGUxNTAxMzkiPlNoZWV0LjQxMTwvdGl0bGU+JiN4YTsJCQk8cGF0aCBpZD0icGF0aDE1MDE0MSIgaW5rc2NhcGU6Y29ubmVjdG9yLWN1cnZhdHVyZT0iMCIgc3R5bGU9ImZpbGw6IzAwOTI0NTsiIGQ9Ik0xLjE1LDkxLjcxYy0wLjI3LDAtMC41NC0wLjEzLTAuNzQtMC4zMyAgICAgQzAsOTAuOTcsMCw5MC4yOSwwLjQxLDg5Ljg5TDI4LDYyLjQzYzAuNC0wLjQsMS4wOC0wLjQsMS40OSwwYzAuNCwwLjQxLDAuNCwxLjA4LDAsMS40OUwxLjk2LDkxLjQ0ICAgICBDMS42OSw5MS43MSwxLjQyLDkxLjcxLDEuMTUsOTEuNzF6Ii8+JiN4YTsJCTwvZz4mI3hhOwkJPGcgaWQ9InNoYXBlNDEyLTUwIiB0cmFuc2Zvcm09InRyYW5zbGF0ZSgzLjkyMjQ2LC0zMC42MjgxKSI+JiN4YTsJCQk8dGl0bGUgaWQ9InRpdGxlMTUwMTQ0Ij5TaGVldC40MTI8L3RpdGxlPiYjeGE7CQkJPHBhdGggaWQ9InBhdGgxNTAxNDYiIGlua3NjYXBlOmNvbm5lY3Rvci1jdXJ2YXR1cmU9IjAiIHN0eWxlPSJmaWxsOiMwMDkyNDU7IiBkPSJNMS4xNSw5MS43MWMtMC4yNywwLTAuNTQtMC4xMy0wLjc0LTAuMzMgICAgIEMwLDkwLjk3LDAsOTAuMjksMC40MSw4OS44OWwyNy41Mi0yNy41M2MwLjQxLTAuNCwxLjA4LTAuNCwxLjQ5LDBjMC40LDAuNDEsMC40LDEuMDksMCwxLjQ5TDEuODksOTEuMzggICAgIEMxLjY5LDkxLjUxLDEuNDIsOTEuNzEsMS4xNSw5MS43MXoiLz4mI3hhOwkJPC9nPiYjeGE7CQk8ZyBpZD0ic2hhcGU0MTMtNTIiIHRyYW5zZm9ybT0idHJhbnNsYXRlKDI3LjcyNzgsLTYyLjE0MzEpIj4mI3hhOwkJCTx0aXRsZSBpZD0idGl0bGUxNTAxNDkiPlNoZWV0LjQxMzwvdGl0bGU+JiN4YTsJCQk8cGF0aCBpZD0icGF0aDE1MDE1MSIgaW5rc2NhcGU6Y29ubmVjdG9yLWN1cnZhdHVyZT0iMCIgc3R5bGU9ImZpbGw6IzAwOTI0NTsiIGQ9Ik00Ljk0LDkxLjcxSDEuMDFDMC40MSw5MS43MSwwLDkxLjI0LDAsOTAuNyAgICAgYzAtMC42MSwwLjQ3LTEuMDEsMS4wMS0xLjAxaDMuOTNjMC42MSwwLDEuMDEsMC40NywxLjAxLDEuMDFDNS45NSw5MS4xNyw1LjQ4LDkxLjcxLDQuOTQsOTEuNzF6Ii8+JiN4YTsJCTwvZz4mI3hhOwkJPGcgaWQ9InNoYXBlNDE0LTU0IiB0cmFuc2Zvcm09InRyYW5zbGF0ZSgzMS42NTAyLC01OC4yODgyKSI+JiN4YTsJCQk8dGl0bGUgaWQ9InRpdGxlMTUwMTU0Ij5TaGVldC40MTQ8L3RpdGxlPiYjeGE7CQkJPHBhdGggaWQ9InBhdGgxNTAxNTYiIGlua3NjYXBlOmNvbm5lY3Rvci1jdXJ2YXR1cmU9IjAiIHN0eWxlPSJmaWxsOiMwMDkyNDU7IiBkPSJNMS4wMSw5MS43MUMwLjQxLDkxLjcxLDAsOTEuMjQsMCw5MC43di0zLjkyICAgICBjMC0wLjYxLDAuNDctMS4wMiwxLjAxLTEuMDJjMC42MSwwLDEuMDIsMC40OCwxLjAyLDEuMDJ2My45MkMyLjAzLDkxLjI0LDEuNTYsOTEuNzEsMS4wMSw5MS43MXoiLz4mI3hhOwkJPC9nPiYjeGE7CQk8ZyBpZD0ic2hhcGU0MTUtNTYiIHRyYW5zZm9ybT0idHJhbnNsYXRlKDMxLjUxNSwtNjIuMTQzMSkiPiYjeGE7CQkJPHRpdGxlIGlkPSJ0aXRsZTE1MDE1OSI+U2hlZXQuNDE1PC90aXRsZT4mI3hhOwkJCTxwYXRoIGlkPSJwYXRoMTUwMTYxIiBpbmtzY2FwZTpjb25uZWN0b3ItY3VydmF0dXJlPSIwIiBzdHlsZT0iZmlsbDojMDA5MjQ1OyIgZD0iTTEuMTUsOTEuNzFjLTAuMjcsMC0wLjU0LTAuMTMtMC43NC0wLjMzICAgICBDMCw5MC45NywwLDkwLjI5LDAuNDEsODkuODlMNi4yOSw4NGMwLjQxLTAuNCwxLjA4LTAuNCwxLjQ5LDBjMC40LDAuNDEsMC40LDEuMDksMCwxLjQ5bC01Ljg5LDUuODkgICAgIEMxLjY5LDkxLjUxLDEuNDIsOTEuNzEsMS4xNSw5MS43MXoiLz4mI3hhOwkJPC9nPiYjeGE7CQk8ZyBpZD0ic2hhcGU0MTYtNTgiIHRyYW5zZm9ybT0icm90YXRlKC00NSwtMzguNDU3ODUsMS4zNjk0NjMpIj4mI3hhOwkJCTx0aXRsZSBpZD0idGl0bGUxNTAxNjQiPlNoZWV0LjQxNjwvdGl0bGU+JiN4YTsJCQk8Y2lyY2xlIGlkPSJlbGxpcHNlMTUwMTY2IiBzdHlsZT0iZmlsbDojQzlEQTJBOyIgY3g9IjUuNjgiIGN5PSI4Ni4wMyIgcj0iNS42OCIvPiYjeGE7CQk8L2c+JiN4YTsJCTxnIGlkPSJzaGFwZTQxNy02MCIgdHJhbnNmb3JtPSJyb3RhdGUoLTQ0Ljk5NTksLTQwLjIwNDM3MywxNC4yOTA0NDMpIj4mI3hhOwkJCTx0aXRsZSBpZD0idGl0bGUxNTAxNjkiPlNoZWV0LjQxNzwvdGl0bGU+JiN4YTsJCQkmI3hhOwkJCQk8cmVjdCBpZD0icmVjdDE1MDE3MSIgeD0iMCIgeT0iOTAuNSIgdHJhbnNmb3JtPSJtYXRyaXgoLTEgMi4zODc2NDVlLTA2IC0yLjM4NzY0NWUtMDYgLTEgMjguNjA5NSAxODIuMjEyNCkiIHN0eWxlPSJmaWxsOiMwMDkyNDU7IiB3aWR0aD0iMjguNjEiIGhlaWdodD0iMS4yMiIvPiYjeGE7CQk8L2c+JiN4YTsJCTxnIGlkPSJzaGFwZTQxOC02MiIgdHJhbnNmb3JtPSJ0cmFuc2xhdGUoMjkuNzU2NiwtNjIuNDgxMikiPiYjeGE7CQkJPHRpdGxlIGlkPSJ0aXRsZTE1MDE3NCI+U2hlZXQuNDE4PC90aXRsZT4mI3hhOwkJCTxwYXRoIGlkPSJwYXRoMTUwMTc2IiBpbmtzY2FwZTpjb25uZWN0b3ItY3VydmF0dXJlPSIwIiBzdHlsZT0iZmlsbDojMjJCNTczOyIgZD0iTTAsNzcuMzFsNy43MS03LjcxbDE0LjM0LDEyLjExbC05Ljk0LDEwICAgICBMMCw3Ny4zMXoiLz4mI3hhOwkJPC9nPiYjeGE7CQk8ZyBpZD0ic2hhcGU0MTktNjQiIHRyYW5zZm9ybT0idHJhbnNsYXRlKDM3LjYwMTUsLTUxLjk5ODgpIj4mI3hhOwkJCTx0aXRsZSBpZD0idGl0bGUxNTAxNzkiPlNoZWV0LjQxOTwvdGl0bGU+JiN4YTsJCQk8cGF0aCBpZD0icGF0aDE1MDE4MSIgaW5rc2NhcGU6Y29ubmVjdG9yLWN1cnZhdHVyZT0iMCIgc3R5bGU9ImZpbGw6IzIyQjU3MzsiIGQ9Ik0yNC42OCw3MS41Nkw0LjQ2LDkxLjcxTDAsNzQuOTRsNy44NC03LjkxICAgICBMMjQuNjgsNzEuNTZ6Ii8+JiN4YTsJCTwvZz4mI3hhOwkJPGcgaWQ9InNoYXBlNDIwLTY2IiB0cmFuc2Zvcm09InRyYW5zbGF0ZSgxNC44NzgzLC02LjY4NzU3KSI+JiN4YTsJCQk8dGl0bGUgaWQ9InRpdGxlMTUwMTg0Ij5TaGVldC40MjA8L3RpdGxlPiYjeGE7CQkJPHBhdGggaWQ9InBhdGgxNTAxODYiIGlua3NjYXBlOmNvbm5lY3Rvci1jdXJ2YXR1cmU9IjAiIHN0eWxlPSJmaWxsOiMyMkI1NzM7IiBkPSJNMjIuMjUsODYuMTdINS41NUMyLjUsODYuMTcsMCw4OC42NywwLDkxLjcxICAgICBoMjcuODZDMjcuODYsODguNzQsMjUuMzYsODYuMTcsMjIuMjUsODYuMTd6Ii8+JiN4YTsJCTwvZz4mI3hhOwkJPGcgaWQ9InNoYXBlNDIxLTY4IiB0cmFuc2Zvcm09InRyYW5zbGF0ZSgxMy44NjUyKSI+JiN4YTsJCQk8dGl0bGUgaWQ9InRpdGxlMTUwMTg5Ij5TaGVldC40MjE8L3RpdGxlPiYjeGE7CQkJPHJlY3QgaWQ9InJlY3QxNTAxOTEiIHg9IjAiIHk9Ijg0LjIxIiBzdHlsZT0iZmlsbDojMDBBRUVGOyIgd2lkdGg9IjEyMC42NCIgaGVpZ2h0PSI3LjUxIi8+JiN4YTsJCTwvZz4mI3hhOwk8L2c+JiN4YTs8L2c+JiN4YTs8L3N2Zz4=;fontSize=15;imageBackground=#FFB570;" vertex="1" parent="1">
          <mxGeometry x="966.93" y="86" width="58.07" height="39" as="geometry" />
        </mxCell>
        <mxCell id="dnq7VN7bOO2wTZYb34gf-105" value="开发团队" style="text;html=1;align=center;verticalAlign=middle;resizable=0;points=[];autosize=1;strokeColor=none;fillColor=none;fontSize=10;" vertex="1" parent="1">
          <mxGeometry x="968" y="134.71" width="58" height="16" as="geometry" />
        </mxCell>
        <mxCell id="dnq7VN7bOO2wTZYb34gf-106" value="" style="shape=image;verticalLabelPosition=bottom;labelBackgroundColor=#ffffff;verticalAlign=top;aspect=fixed;imageAspect=0;image=data:image/svg+xml,PHN2ZyB4bWxuczpjYz0iaHR0cDovL2NyZWF0aXZlY29tbW9ucy5vcmcvbnMjIiB4bWxuczpkYz0iaHR0cDovL3B1cmwub3JnL2RjL2VsZW1lbnRzLzEuMS8iIHhtbG5zOmlua3NjYXBlPSJodHRwOi8vd3d3Lmlua3NjYXBlLm9yZy9uYW1lc3BhY2VzL2lua3NjYXBlIiB4bWxuczpyZGY9Imh0dHA6Ly93d3cudzMub3JnLzE5OTkvMDIvMjItcmRmLXN5bnRheC1ucyMiIHhtbG5zOnNvZGlwb2RpPSJodHRwOi8vc29kaXBvZGkuc291cmNlZm9yZ2UubmV0L0RURC9zb2RpcG9kaS0wLmR0ZCIgeG1sbnM6c3ZnPSJodHRwOi8vd3d3LnczLm9yZy8yMDAwL3N2ZyIgeG1sbnM9Imh0dHA6Ly93d3cudzMub3JnLzIwMDAvc3ZnIiB4bWxuczp4bGluaz0iaHR0cDovL3d3dy53My5vcmcvMTk5OS94bGluayIgdmVyc2lvbj0iMS4xIiBpZD0ic3ZnMTUwMTk3IiBpbmtzY2FwZTp2ZXJzaW9uPSIwLjkyLjMgKDI0MDU1NDYsIDIwMTgtMDMtMTEpIiBzb2RpcG9kaTpkb2NuYW1lPSJkZXZlbG9wZXJfMS5zdmciIHg9IjBweCIgeT0iMHB4IiB2aWV3Qm94PSIwIDAgMTM0LjQgODkuNzkiIHN0eWxlPSJlbmFibGUtYmFja2dyb3VuZDpuZXcgMCAwIDEzNC40IDg5Ljc5OyIgeG1sOnNwYWNlPSJwcmVzZXJ2ZSI+JiN4YTs8c29kaXBvZGk6bmFtZWR2aWV3IGJvcmRlcmNvbG9yPSIjNjY2NjY2IiBib3JkZXJvcGFjaXR5PSIxIiBmaXQtbWFyZ2luLWJvdHRvbT0iMCIgZml0LW1hcmdpbi1sZWZ0PSIwIiBmaXQtbWFyZ2luLXJpZ2h0PSIwIiBmaXQtbWFyZ2luLXRvcD0iMCIgZ3JpZHRvbGVyYW5jZT0iMTAiIGd1aWRldG9sZXJhbmNlPSIxMCIgaWQ9Im5hbWVkdmlldzE1MDE5OSIgaW5rc2NhcGU6Y3VycmVudC1sYXllcj0ic3ZnMTUwMTk3IiBpbmtzY2FwZTpjeD0iODkuNTk4MzE2IiBpbmtzY2FwZTpjeT0iNTkuMzI5NTMzIiBpbmtzY2FwZTpwYWdlb3BhY2l0eT0iMCIgaW5rc2NhcGU6cGFnZXNoYWRvdz0iMiIgaW5rc2NhcGU6d2luZG93LWhlaWdodD0iMTAxNyIgaW5rc2NhcGU6d2luZG93LW1heGltaXplZD0iMSIgaW5rc2NhcGU6d2luZG93LXdpZHRoPSIxOTIwIiBpbmtzY2FwZTp3aW5kb3cteD0iLTgiIGlua3NjYXBlOndpbmRvdy15PSItOCIgaW5rc2NhcGU6em9vbT0iNy4wODk5NTA1IiBvYmplY3R0b2xlcmFuY2U9IjEwIiBwYWdlY29sb3I9IiNmZmZmZmYiIHNob3dncmlkPSJmYWxzZSI+JiN4YTsJPC9zb2RpcG9kaTpuYW1lZHZpZXc+JiN4YTs8ZyBpZD0iZzE1MDE5NSIgdHJhbnNmb3JtPSJ0cmFuc2xhdGUoLTEuMzYxNDY5MiwtMC41NjgzKSI+JiN4YTsJPHRpdGxlIGlkPSJ0aXRsZTE1MDAyMCI+UGFnZS0xPC90aXRsZT4mI3hhOwk8ZyBpZD0iZ3JvdXAzODctMSIgdHJhbnNmb3JtPSJ0cmFuc2xhdGUoMS4yNTg1NiwtMS4zNikiPiYjeGE7CQk8dGl0bGUgaWQ9InRpdGxlMTUwMDIyIj5EZXZlbG9wZXIgIzE8L3RpdGxlPiYjeGE7CQk8ZyBpZD0ic2hhcGUzODgtMiIgdHJhbnNmb3JtPSJtYXRyaXgoMSwwLDAsLTEsNjEuOTc3NywxMzEuNjkyKSI+JiN4YTsJCQk8dGl0bGUgaWQ9InRpdGxlMTUwMDI0Ij5wYXRoMjA2LTA8L3RpdGxlPiYjeGE7CQkJPHBhdGggaWQ9InBhdGgxNTAwMjYiIGlua3NjYXBlOmNvbm5lY3Rvci1jdXJ2YXR1cmU9IjAiIHN0eWxlPSJmaWxsOiMwMDcxQkM7IiBkPSJNNTIuMiw1MS4zOWMwLTIuNi0zLjIyLTQuNy03LjE5LTQuN0g3LjE5ICAgICBjLTMuOTcsMC03LjE5LDIuMS03LjE5LDQuN3YzNS42MmMwLDIuNiwzLjIyLDQuNyw3LjE5LDQuN2gzNy44MmMzLjk3LDAsNy4xOS0yLjEsNy4xOS00LjdMNTIuMiw1MS4zOXoiLz4mI3hhOwkJPC9nPiYjeGE7CQk8ZyBpZD0ic2hhcGUzODktNCIgdHJhbnNmb3JtPSJ0cmFuc2xhdGUoODMuMjY2MywtMzguMTQxMykiPiYjeGE7CQkJPHRpdGxlIGlkPSJ0aXRsZTE1MDAyOSI+cGF0aDIxMC00PC90aXRsZT4mI3hhOwkJCTxwYXRoIGlkPSJwYXRoMTUwMDMxIiBpbmtzY2FwZTpjb25uZWN0b3ItY3VydmF0dXJlPSIwIiBzdHlsZT0iZmlsbDojRTVFNUU1OyIgZD0iTTkuNjIsOTEuNzFIMHYtNS45Nmg5LjYyVjkxLjcxeiIvPiYjeGE7CQk8L2c+JiN4YTsJCTxnIGlkPSJzaGFwZTM5MC02IiB0cmFuc2Zvcm09Im1hdHJpeCgxLDAsMCwtMSw4Ny44Njg0LDE0MS42KSI+JiN4YTsJCQk8dGl0bGUgaWQ9InRpdGxlMTUwMDM0Ij5wYXRoMjE0LTk8L3RpdGxlPiYjeGE7CQkJPHBhdGggaWQ9InBhdGgxNTAwMzYiIGlua3NjYXBlOmNvbm5lY3Rvci1jdXJ2YXR1cmU9IjAiIHN0eWxlPSJmaWxsOm5vbmU7IiBkPSJNMCw5MS43MXYtMi42OFY5MS43MXoiLz4mI3hhOwkJCSYjeGE7CQkJCTxwYXRoIGlkPSJwYXRoMTUwMDM4IiBpbmtzY2FwZTpjb25uZWN0b3ItY3VydmF0dXJlPSIwIiBzdHlsZT0iZmlsbDpub25lO3N0cm9rZTojQjJCMkIyO3N0cm9rZS13aWR0aDoyLjA2MDY7c3Ryb2tlLW1pdGVybGltaXQ6MzsiIGQ9IiAgICAgTTAsOTEuNzF2LTIuNjgiLz4mI3hhOwkJPC9nPiYjeGE7CQk8ZyBpZD0ic2hhcGUzOTEtOSIgdHJhbnNmb3JtPSJtYXRyaXgoMSwwLDAsLTEsNDkuMTA0NywxMzcuMzIxKSI+JiN4YTsJCQk8dGl0bGUgaWQ9InRpdGxlMTUwMDQxIj5wYXRoMjE4LTI8L3RpdGxlPiYjeGE7CQkJPHBhdGggaWQ9InBhdGgxNTAwNDMiIGlua3NjYXBlOmNvbm5lY3Rvci1jdXJ2YXR1cmU9IjAiIHN0eWxlPSJmaWxsOiMzOUI1NEE7IiBkPSJNNzMuNCw2MS4wNGMtNC4xMiw4LjI1LTEyLjksMjYuNDgtMTQuNTcsMjcuODggICAgIGMtMS42NiwxLjQtMTAuNDQsMi43OS0xNS40NiwyLjc5YzAsMCwwLjk0LTYuMTgtNC42MS02LjE4Yy01LjU0LDAtNC42LDYuMTgtNC42LDYuMThjLTUuMDIsMC0xMy44LTEuMzktMTUuNDYtMi43OSAgICAgYy0xLjY3LTEuNC0xMC40NS0xOS42My0xNC41OC0yNy44OEMwLDUyLjc5LDUuMjYsNTIuMTksNS4yNiw1Mi4xOWgxNC40M3Y2LjkyYy0yLjEzLDAuNzMtNi43MiwxLjYtNi43MiwxLjYgICAgIGMxLjQsMy4zOSw5LjUyLDE4Ljg5LDkuNTIsMTguODlsMC44Ni0yNi42OGgxNS40MWgxNS40MWwwLjg3LDI2LjY4YzAsMCw4LjEyLTE1LjUsOS41MS0xOC44OWMwLDAtNC41OS0wLjg3LTYuNzItMS42di02LjkyICAgICBoMTQuNDRDNzIuMjcsNTIuMTksNzcuNTMsNTIuNzksNzMuNCw2MS4wNHoiLz4mI3hhOwkJPC9nPiYjeGE7CQk8ZyBpZD0ic2hhcGUzOTItMTEiIHRyYW5zZm9ybT0ibWF0cml4KDEsMCwwLC0xLDgzLjI2NjMsMTI4LjA5MykiPiYjeGE7CQkJPHRpdGxlIGlkPSJ0aXRsZTE1MDA0NiI+cGF0aDIyMi03PC90aXRsZT4mI3hhOwkJCTxwYXRoIGlkPSJwYXRoMTUwMDQ4IiBpbmtzY2FwZTpjb25uZWN0b3ItY3VydmF0dXJlPSIwIiBzdHlsZT0iZmlsbDojRkZEQUEyOyIgZD0iTTkuMiw4MC41NmMwLDAtMC42NS0yLjM1LTQuNi0yLjM1ICAgICBTMCw4MC41NiwwLDgwLjU2djExLjE1aDkuMlY4MC41NnoiLz4mI3hhOwkJPC9nPiYjeGE7CQk8ZyBpZD0ic2hhcGUzOTMtMTMiIHRyYW5zZm9ybT0ibWF0cml4KDEsMCwwLC0xLDc1LjExOTgsMTA1LjIwOCkiPiYjeGE7CQkJPHRpdGxlIGlkPSJ0aXRsZTE1MDA1MSI+cGF0aDIyNi05PC90aXRsZT4mI3hhOwkJCTxwYXRoIGlkPSJwYXRoMTUwMDUzIiBpbmtzY2FwZTpjb25uZWN0b3ItY3VydmF0dXJlPSIwIiBzdHlsZT0iZmlsbDojRkZEQUEyOyIgZD0iTTEyLjc1LDg4LjI4Yy04LjgxLDMuNDMtMTIuNzUsMC0xMi43NSwwICAgICBzMC42OC0xMi4xMSwxLTE0LjU2YzAuNzUtNS44Miw4LjMxLTkuNjksMTEuNzUtOS42OXMxMSwzLjg3LDExLjc1LDkuNjljMC4zMSwyLjQ1LDEsMTQuNTYsMSwxNC41NlMyMS41Niw5MS43MSwxMi43NSw4OC4yOHoiLz4mI3hhOwkJPC9nPiYjeGE7CQk8ZyBpZD0ic2hhcGUzOTQtMTUiIHRyYW5zZm9ybT0ibWF0cml4KDEsMCwwLC0xLDcwLjc0NTEsMTEzLjE5MSkiPiYjeGE7CQkJPHRpdGxlIGlkPSJ0aXRsZTE1MDA1NiI+cGF0aDIzMC01PC90aXRsZT4mI3hhOwkJCTxwYXRoIGlkPSJwYXRoMTUwMDU4IiBpbmtzY2FwZTpjb25uZWN0b3ItY3VydmF0dXJlPSIwIiBzdHlsZT0iZmlsbDojRjdEMTk3OyIgZD0iTTQuNzgsODkuNWMwLDAtMi4yNCwyLjIxLTMuMDMsMC44OSAgICAgQzAsODcuNDUsMy4wNiw4Ni4zNSwzLjI3LDgzLjU3YzAuMTQtMS45OCwxLjQ4LTEuOTcsMi4wMS0wLjk4QzUuODEsODMuNTcsNS41OSw4OC44Myw0Ljc4LDg5LjV6Ii8+JiN4YTsJCTwvZz4mI3hhOwkJPGcgaWQ9InNoYXBlMzk1LTE3IiB0cmFuc2Zvcm09Im1hdHJpeCgxLDAsMCwtMSw5OS4xNzk1LDExMy4xOTEpIj4mI3hhOwkJCTx0aXRsZSBpZD0idGl0bGUxNTAwNjEiPnBhdGgyMzQtMDwvdGl0bGU+JiN4YTsJCQk8cGF0aCBpZD0icGF0aDE1MDA2MyIgaW5rc2NhcGU6Y29ubmVjdG9yLWN1cnZhdHVyZT0iMCIgc3R5bGU9ImZpbGw6I0Y3RDE5NzsiIGQ9Ik0xLjAzLDg5LjVjMCwwLDIuMjQsMi4yMSwzLjAzLDAuODkgICAgIGMxLjc1LTIuOTQtMS4zMS00LjA0LTEuNTEtNi44MmMtMC4xNS0xLjk4LTEuNDktMS45Ny0yLjAyLTAuOThDMCw4My41NywwLjIyLDg4LjgzLDEuMDMsODkuNXoiLz4mI3hhOwkJPC9nPiYjeGE7CQk8ZyBpZD0ic2hhcGUzOTYtMTkiIHRyYW5zZm9ybT0ibWF0cml4KDEsMCwwLC0xLDc0Ljg3NzcsMTE5LjE4OCkiPiYjeGE7CQkJPHRpdGxlIGlkPSJ0aXRsZTE1MDA2NiI+cGF0aDIzOC04PC90aXRsZT4mI3hhOwkJCTxwYXRoIGlkPSJwYXRoMTUwMDY4IiBpbmtzY2FwZTpjb25uZWN0b3ItY3VydmF0dXJlPSIwIiBkPSJNMTIuOTksODIuMzhjLTIuNjQsMC00LDAuNzQtNCwxLjg0czEuNjEsMC40NSw0LDAuNDVzNCwwLjY1LDQtMC40NSAgICAgUzE1LjYzLDgyLjM4LDEyLjk5LDgyLjM4eiBNMjUuMjcsOTEuNzFoLTAuNDljMCwwLDAuNjMtNS4xNC0xMS43OS01LjE0UzEuMjEsOTEuNzEsMS4yMSw5MS43MWgtMC41YzAsMC0wLjcxLTUuODEsMS42NC05LjEzICAgICBjMy4yNS00LjU3LDEwLjY0LTQuNTcsMTAuNjQtNC41N3M3LjM5LDAsMTAuNjQsNC41N0MyNS45OCw4NS45LDI1LjI3LDkxLjcxLDI1LjI3LDkxLjcxeiIvPiYjeGE7CQk8L2c+JiN4YTsJCTxnIGlkPSJzaGFwZTM5Ny0yMSIgdHJhbnNmb3JtPSJtYXRyaXgoMSwwLDAsLTEsNjcuMzUxMSw5My42MzgzKSI+JiN4YTsJCQk8dGl0bGUgaWQ9InRpdGxlMTUwMDcxIj5wYXRoMjQyLTE8L3RpdGxlPiYjeGE7CQkJPHBhdGggaWQ9InBhdGgxNTAwNzMiIGlua3NjYXBlOmNvbm5lY3Rvci1jdXJ2YXR1cmU9IjAiIGQ9Ik0zMi44LDY2LjE3YzAsMC0wLjUyLDMuNjcsMS4yNSw0LjdjMCwwLDMuMTMsMTAuNDIsMC40MywxMy4xNiAgICAgYy0yLjY5LDIuNzQtNi41NCw0LjQ5LTkuNzgsNC44NHMtNi44NCwxLTguNTMsMi44NGMwLDAsMC44NS0yLjM0LDEuOTktMi40OWMwLDAtNy41My0xLjM1LTEyLjM3LDAuM2MwLDAsMS4zNS0zLjY0LDQuMzktNC4yOSAgICAgYzAsMC02LjM5LTEuNS0xMC4xOC0wLjI1YzAsMCwzLjAxLTYuMTYsNy43Ny04LjI3YzAsMCwzLjYxLDEuNjMsNS4zNSwwLjkzYzAsMCwwLjM1LTEtMS4xOS0xLjY0YzAsMCw0LjI0LDAuMTUsNi4wOCwxLjA0ICAgICBjMCwwLDAuMTUtMC42OSwwLjA1LTEuMzRjMCwwLDQuODQsMS4wNyw3LjM0LDIuMzVjMCwwLDIuMDktMS41NiwxLjQtMi4yYzAsMCw1LjA0LTAuMiw2LjEsMC42OSAgICAgQzMyLjksNzYuNTQsMzIuMzIsNjcuNTEsMzIuOCw2Ni4xN3oiLz4mI3hhOwkJPC9nPiYjeGE7CQk8ZyBpZD0ic2hhcGUzOTgtMjMiIHRyYW5zZm9ybT0ibWF0cml4KDEsMCwwLC0xLDcyLjM5MDksMTA2LjQxMykiPiYjeGE7CQkJPHRpdGxlIGlkPSJ0aXRsZTE1MDA3NiI+cGF0aDI0NjwvdGl0bGU+JiN4YTsJCQk8cGF0aCBpZD0icGF0aDE1MDA3OCIgaW5rc2NhcGU6Y29ubmVjdG9yLWN1cnZhdHVyZT0iMCIgZD0iTTMuMTksNzguOTRjMCwwLDAuMTksNC4xMS0yLjAzLDUuMDVjMCwwLTEuMTYsNi4zMy0wLjU2LDcuNzIgICAgIGwyLjQ5LTIuMDdjMCwwLDAuNjktOC45NSwwLjM1LTEwLjdMMy4xOSw3OC45NHoiLz4mI3hhOwkJPC9nPiYjeGE7CQk8ZyBpZD0ic2hhcGUzOTktMjUiIHRyYW5zZm9ybT0ibWF0cml4KDEsMCwwLC0xLDgxLjU0MjEsMTM3LjMyMSkiPiYjeGE7CQkJPHRpdGxlIGlkPSJ0aXRsZTE1MDA4MSI+cGF0aDI1MDwvdGl0bGU+JiN4YTsJCQk8cGF0aCBpZD0icGF0aDE1MDA4MyIgaW5rc2NhcGU6Y29ubmVjdG9yLWN1cnZhdHVyZT0iMCIgc3R5bGU9ImZpbGw6I0YxRjFGMTsiIGQ9Ik02LjMzLDg3LjQzYzAsMC0zLjg1LTAuMDEtNS4wNS0yLjY4ICAgICBjMCwwLTEuMjgsNC44OSwwLjQ0LDYuOTZDMS43Miw5MS43MSwyLjE5LDg3Ljc3LDYuMzMsODcuNDN6Ii8+JiN4YTsJCTwvZz4mI3hhOwkJPGcgaWQ9InNoYXBlNDAwLTI3IiB0cmFuc2Zvcm09Im1hdHJpeCgxLDAsMCwtMSw4Ny44Njg0LDEzNy4zMjEpIj4mI3hhOwkJCTx0aXRsZSBpZD0idGl0bGUxNTAwODYiPnBhdGgyNTQ8L3RpdGxlPiYjeGE7CQkJPHBhdGggaWQ9InBhdGgxNTAwODgiIGlua3NjYXBlOmNvbm5lY3Rvci1jdXJ2YXR1cmU9IjAiIHN0eWxlPSJmaWxsOiNGMUYxRjE7IiBkPSJNMCw4Ny40M2MwLDAsMy44NS0wLjAxLDUuMDUtMi42OCAgICAgYzAsMCwxLjI4LDQuODktMC40NSw2Ljk2QzQuNiw5MS43MSw0LjEzLDg3Ljc3LDAsODcuNDN6Ii8+JiN4YTsJCTwvZz4mI3hhOwkJPGcgaWQ9InNoYXBlNDAxLTI5IiB0cmFuc2Zvcm09Im1hdHJpeCgxLDAsMCwtMSw2Ni4wMDM5LDE1NC43OTEpIj4mI3hhOwkJCTx0aXRsZSBpZD0idGl0bGUxNTAwOTEiPnBhdGgyOTg8L3RpdGxlPiYjeGE7CQkJPHBhdGggaWQ9InBhdGgxNTAwOTMiIGlua3NjYXBlOmNvbm5lY3Rvci1jdXJ2YXR1cmU9IjAiIHN0eWxlPSJmaWxsOiNDQkNCQ0I7IiBkPSJNNDMuMzMsOTAuOTJjLTAuNCwwLjY2LTEuNzMsMC43OS0xLjczLDAuNzkgICAgIEgyMS44NkgyLjEzYzAsMC0xLjMzLTAuMTMtMS43My0wLjc5QzAsOTAuMjUsMC44LDY5LjA5LDAuOCw2OS4wOWgyMS4wNmgyMS4wN0M0Mi45Myw2OS4wOSw0My43Myw5MC4yNSw0My4zMyw5MC45MnoiLz4mI3hhOwkJPC9nPiYjeGE7CQk8ZyBpZD0ic2hhcGU0MDItMzEiIHRyYW5zZm9ybT0ibWF0cml4KDEsMCwwLC0xLDY2LjAwMzksMTU1LjE4MikiPiYjeGE7CQkJPHRpdGxlIGlkPSJ0aXRsZTE1MDA5NiI+cGF0aDMwMjwvdGl0bGU+JiN4YTsJCQk8cGF0aCBpZD0icGF0aDE1MDA5OCIgaW5rc2NhcGU6Y29ubmVjdG9yLWN1cnZhdHVyZT0iMCIgc3R5bGU9ImZpbGw6I0U1RTVFNTsiIGQ9Ik00My4zMyw5MC45MmMtMC40LDAuNjYtMS43MywwLjc5LTEuNzMsMC43OSAgICAgSDIxLjg2SDIuMTNjMCwwLTEuMzMtMC4xMy0xLjczLTAuNzlDMCw5MC4yNSwwLjgsNjkuMDksMC44LDY5LjA5aDIxLjA2aDIxLjA3QzQyLjkzLDY5LjA5LDQzLjczLDkwLjI1LDQzLjMzLDkwLjkyeiIvPiYjeGE7CQk8L2c+JiN4YTsJCTxnIGlkPSJncm91cDQwMy0zMyIgdHJhbnNmb3JtPSJ0cmFuc2xhdGUoODMuODE5MSwtMTIuODg5KSI+JiN4YTsJCQk8dGl0bGUgaWQ9InRpdGxlMTUwMTAxIj5NaWNyb3NvZnQ8L3RpdGxlPiYjeGE7CQkJPGcgaWQ9InNoYXBlNDA0LTM0IiB0cmFuc2Zvcm09InRyYW5zbGF0ZSgwLC00LjI2NTMpIj4mI3hhOwkJCQk8dGl0bGUgaWQ9InRpdGxlMTUwMTAzIj5IVFRQIEFQSSBBcHA8L3RpdGxlPiYjeGE7CQkJCTxwYXRoIGlkPSJwYXRoMTUwMTA1IiBpbmtzY2FwZTpjb25uZWN0b3ItY3VydmF0dXJlPSIwIiBzdHlsZT0iZmlsbDojRjI1MDIyOyIgZD0iTTAsODcuODl2My44MmgzLjg0di0zLjgySDB6Ii8+JiN4YTsJCQk8L2c+JiN4YTsJCQk8ZyBpZD0ic2hhcGU0MDUtMzYiIHRyYW5zZm9ybT0idHJhbnNsYXRlKDQuMjYyOCwtNC4yNjUzKSI+JiN4YTsJCQkJPHRpdGxlIGlkPSJ0aXRsZTE1MDEwOCI+SFRUUCBBUEkgQXBwLjE0NjE8L3RpdGxlPiYjeGE7CQkJCTxwYXRoIGlkPSJwYXRoMTUwMTEwIiBpbmtzY2FwZTpjb25uZWN0b3ItY3VydmF0dXJlPSIwIiBzdHlsZT0iZmlsbDojN0ZCQTAwOyIgZD0iTTAsODcuODl2My44MmgzLjg0di0zLjgySDB6Ii8+JiN4YTsJCQk8L2c+JiN4YTsJCQk8ZyBpZD0ic2hhcGU0MDYtMzgiIHRyYW5zZm9ybT0idHJhbnNsYXRlKDQuMjYyOCkiPiYjeGE7CQkJCTx0aXRsZSBpZD0idGl0bGUxNTAxMTMiPkhUVFAgQVBJIEFwcC4xNDYyPC90aXRsZT4mI3hhOwkJCQk8cGF0aCBpZD0icGF0aDE1MDExNSIgaW5rc2NhcGU6Y29ubmVjdG9yLWN1cnZhdHVyZT0iMCIgc3R5bGU9ImZpbGw6I0ZGQjkwMDsiIGQ9Ik0wLDg3Ljg5djMuODJoMy44NHYtMy44MkgweiIvPiYjeGE7CQkJPC9nPiYjeGE7CQkJPGcgaWQ9InNoYXBlNDA3LTQwIj4mI3hhOwkJCQk8dGl0bGUgaWQ9InRpdGxlMTUwMTE4Ij5IVFRQIEFQSSBBcHAuMTQ2MzwvdGl0bGU+JiN4YTsJCQkJPHBhdGggaWQ9InBhdGgxNTAxMjAiIGlua3NjYXBlOmNvbm5lY3Rvci1jdXJ2YXR1cmU9IjAiIHN0eWxlPSJmaWxsOiMwMEE0RUY7IiBkPSJNMCw4Ny44OXYzLjgyaDMuODR2LTMuODJIMHoiLz4mI3hhOwkJCTwvZz4mI3hhOwkJPC9nPiYjeGE7CQk8ZyBpZD0ic2hhcGU0MDgtNDIiIHRyYW5zZm9ybT0idHJhbnNsYXRlKDc1LjExOTgsLTUxLjU2NzIpIj4mI3hhOwkJCTx0aXRsZSBpZD0idGl0bGUxNTAxMjQiPnBhdGg3OTU8L3RpdGxlPiYjeGE7CQkJPHBhdGggaWQ9InBhdGgxNTAxMjYiIGlua3NjYXBlOmNvbm5lY3Rvci1jdXJ2YXR1cmU9IjAiIGQ9Ik0xMy43Niw5MC40OWgtMi4wM2wwLjUxLDAuOTRsMC41LDAuMjd2MC4wMWgwLjAxbDAsMFY5MS43bDAuNS0wLjI3ICAgICBMMTMuNzYsOTAuNDl6IE0yNS41LDczLjY1bC0xLjc5LDAuMjNsLTAuMi0wLjA3bC0yLjQ0LTAuNDhoLTQuMDNsLTMuNzIsMC42aC0xLjE4bC0zLjcyLTAuNkg0LjRsLTIuNDMsMC40OGwtMC4xOSwwLjA3TDAsNzMuNjUgICAgIHYwLjcybDAuOTYsMC4xM2wwLjczLDMuMzhsMC42MywwLjYzbDEuOTIsMC40N2gzLjI1bDIuODQtMC42NGwxLjQ3LTIuMzVsMC41OS0wLjY3aDAuNjdsMC41OSwwLjY3bDEuNDcsMi4zNWwyLjg0LDAuNjRoMy4yNSAgICAgbDEuOTItMC40N2wwLjYzLTAuNjNsMC43My0zLjM4bDAuOTYtMC4xM0wyNS41LDczLjY1eiBNMTAuNzgsNzUuNDdsLTAuOCwyLjI2bC0yLjY3LDAuNThINC4xOGwtMS40Mi0wLjM3bC0wLjUyLTAuNDVsLTAuMzktMi41ICAgICBsMC40My0wLjUybDIuMDktMC40aDMuOTlsMi40NCwwLjM3TDEwLjc4LDc1LjQ3eiBNMjMuMjUsNzcuNDlsLTAuNTIsMC40NWwtMS40MiwwLjM2aC0zLjE0bC0yLjY2LTAuNTdsLTAuODEtMi4yNXYtMS4wNSAgICAgbDIuNDQtMC4zN2gzLjk4bDIuMDksMC40bDAuNDMsMC41MkwyMy4yNSw3Ny40OXoiLz4mI3hhOwkJPC9nPiYjeGE7CQk8ZyBpZD0ic2hhcGU0MDktNDQiIHRyYW5zZm9ybT0idHJhbnNsYXRlKDAuMDY3NjI4NywtNy4wMjU3MSkiPiYjeGE7CQkJPHRpdGxlIGlkPSJ0aXRsZTE1MDEyOSI+U2hlZXQuNDA5PC90aXRsZT4mI3hhOwkJCTxwYXRoIGlkPSJwYXRoMTUwMTMxIiBpbmtzY2FwZTpjb25uZWN0b3ItY3VydmF0dXJlPSIwIiBzdHlsZT0iZmlsbDojMDA5MjQ1OyIgZD0iTTI4LjY3LDkxLjcxYy0wLjI3LDAtMC41NC0wLjEzLTAuNzQtMC4zMyAgICAgTDAuNDEsNjMuODVjLTAuNDEtMC40LTAuNDEtMS4wOCwwLTEuNDljMC40LTAuNCwxLjA4LTAuNCwxLjQ4LDBsMjcuNTMsMjcuNTNjMC40LDAuNCwwLjQsMS4wOCwwLDEuNDkgICAgIEMyOS4xNSw5MS41MSwyOC44OCw5MS43MSwyOC42Nyw5MS43MXoiLz4mI3hhOwkJPC9nPiYjeGE7CQk8ZyBpZD0ic2hhcGU0MTAtNDYiIHRyYW5zZm9ybT0idHJhbnNsYXRlKDMuOTIyNDYsLTExLjAxNTgpIj4mI3hhOwkJCTx0aXRsZSBpZD0idGl0bGUxNTAxMzQiPlNoZWV0LjQxMDwvdGl0bGU+JiN4YTsJCQk8cGF0aCBpZD0icGF0aDE1MDEzNiIgaW5rc2NhcGU6Y29ubmVjdG9yLWN1cnZhdHVyZT0iMCIgc3R5bGU9ImZpbGw6IzAwOTI0NTsiIGQ9Ik0yOC43NCw5MS43MWMtMC4yNywwLTAuNTQtMC4xMy0wLjc0LTAuMzMgICAgIEwwLjQxLDYzLjkyQzAsNjMuNTEsMCw2Mi44NCwwLjQxLDYyLjQzYzAuNC0wLjQsMS4wOC0wLjQsMS40OCwwbDI3LjYsMjcuNTNjMC40LDAuNCwwLjQsMS4wOCwwLDEuNDggICAgIEMyOS4yOCw5MS42NSwyOS4wMSw5MS43MSwyOC43NCw5MS43MXoiLz4mI3hhOwkJPC9nPiYjeGE7CQk8ZyBpZD0ic2hhcGU0MTEtNDgiIHRyYW5zZm9ybT0idHJhbnNsYXRlKDAsLTM0LjY4NTgpIj4mI3hhOwkJCTx0aXRsZSBpZD0idGl0bGUxNTAxMzkiPlNoZWV0LjQxMTwvdGl0bGU+JiN4YTsJCQk8cGF0aCBpZD0icGF0aDE1MDE0MSIgaW5rc2NhcGU6Y29ubmVjdG9yLWN1cnZhdHVyZT0iMCIgc3R5bGU9ImZpbGw6IzAwOTI0NTsiIGQ9Ik0xLjE1LDkxLjcxYy0wLjI3LDAtMC41NC0wLjEzLTAuNzQtMC4zMyAgICAgQzAsOTAuOTcsMCw5MC4yOSwwLjQxLDg5Ljg5TDI4LDYyLjQzYzAuNC0wLjQsMS4wOC0wLjQsMS40OSwwYzAuNCwwLjQxLDAuNCwxLjA4LDAsMS40OUwxLjk2LDkxLjQ0ICAgICBDMS42OSw5MS43MSwxLjQyLDkxLjcxLDEuMTUsOTEuNzF6Ii8+JiN4YTsJCTwvZz4mI3hhOwkJPGcgaWQ9InNoYXBlNDEyLTUwIiB0cmFuc2Zvcm09InRyYW5zbGF0ZSgzLjkyMjQ2LC0zMC42MjgxKSI+JiN4YTsJCQk8dGl0bGUgaWQ9InRpdGxlMTUwMTQ0Ij5TaGVldC40MTI8L3RpdGxlPiYjeGE7CQkJPHBhdGggaWQ9InBhdGgxNTAxNDYiIGlua3NjYXBlOmNvbm5lY3Rvci1jdXJ2YXR1cmU9IjAiIHN0eWxlPSJmaWxsOiMwMDkyNDU7IiBkPSJNMS4xNSw5MS43MWMtMC4yNywwLTAuNTQtMC4xMy0wLjc0LTAuMzMgICAgIEMwLDkwLjk3LDAsOTAuMjksMC40MSw4OS44OWwyNy41Mi0yNy41M2MwLjQxLTAuNCwxLjA4LTAuNCwxLjQ5LDBjMC40LDAuNDEsMC40LDEuMDksMCwxLjQ5TDEuODksOTEuMzggICAgIEMxLjY5LDkxLjUxLDEuNDIsOTEuNzEsMS4xNSw5MS43MXoiLz4mI3hhOwkJPC9nPiYjeGE7CQk8ZyBpZD0ic2hhcGU0MTMtNTIiIHRyYW5zZm9ybT0idHJhbnNsYXRlKDI3LjcyNzgsLTYyLjE0MzEpIj4mI3hhOwkJCTx0aXRsZSBpZD0idGl0bGUxNTAxNDkiPlNoZWV0LjQxMzwvdGl0bGU+JiN4YTsJCQk8cGF0aCBpZD0icGF0aDE1MDE1MSIgaW5rc2NhcGU6Y29ubmVjdG9yLWN1cnZhdHVyZT0iMCIgc3R5bGU9ImZpbGw6IzAwOTI0NTsiIGQ9Ik00Ljk0LDkxLjcxSDEuMDFDMC40MSw5MS43MSwwLDkxLjI0LDAsOTAuNyAgICAgYzAtMC42MSwwLjQ3LTEuMDEsMS4wMS0xLjAxaDMuOTNjMC42MSwwLDEuMDEsMC40NywxLjAxLDEuMDFDNS45NSw5MS4xNyw1LjQ4LDkxLjcxLDQuOTQsOTEuNzF6Ii8+JiN4YTsJCTwvZz4mI3hhOwkJPGcgaWQ9InNoYXBlNDE0LTU0IiB0cmFuc2Zvcm09InRyYW5zbGF0ZSgzMS42NTAyLC01OC4yODgyKSI+JiN4YTsJCQk8dGl0bGUgaWQ9InRpdGxlMTUwMTU0Ij5TaGVldC40MTQ8L3RpdGxlPiYjeGE7CQkJPHBhdGggaWQ9InBhdGgxNTAxNTYiIGlua3NjYXBlOmNvbm5lY3Rvci1jdXJ2YXR1cmU9IjAiIHN0eWxlPSJmaWxsOiMwMDkyNDU7IiBkPSJNMS4wMSw5MS43MUMwLjQxLDkxLjcxLDAsOTEuMjQsMCw5MC43di0zLjkyICAgICBjMC0wLjYxLDAuNDctMS4wMiwxLjAxLTEuMDJjMC42MSwwLDEuMDIsMC40OCwxLjAyLDEuMDJ2My45MkMyLjAzLDkxLjI0LDEuNTYsOTEuNzEsMS4wMSw5MS43MXoiLz4mI3hhOwkJPC9nPiYjeGE7CQk8ZyBpZD0ic2hhcGU0MTUtNTYiIHRyYW5zZm9ybT0idHJhbnNsYXRlKDMxLjUxNSwtNjIuMTQzMSkiPiYjeGE7CQkJPHRpdGxlIGlkPSJ0aXRsZTE1MDE1OSI+U2hlZXQuNDE1PC90aXRsZT4mI3hhOwkJCTxwYXRoIGlkPSJwYXRoMTUwMTYxIiBpbmtzY2FwZTpjb25uZWN0b3ItY3VydmF0dXJlPSIwIiBzdHlsZT0iZmlsbDojMDA5MjQ1OyIgZD0iTTEuMTUsOTEuNzFjLTAuMjcsMC0wLjU0LTAuMTMtMC43NC0wLjMzICAgICBDMCw5MC45NywwLDkwLjI5LDAuNDEsODkuODlMNi4yOSw4NGMwLjQxLTAuNCwxLjA4LTAuNCwxLjQ5LDBjMC40LDAuNDEsMC40LDEuMDksMCwxLjQ5bC01Ljg5LDUuODkgICAgIEMxLjY5LDkxLjUxLDEuNDIsOTEuNzEsMS4xNSw5MS43MXoiLz4mI3hhOwkJPC9nPiYjeGE7CQk8ZyBpZD0ic2hhcGU0MTYtNTgiIHRyYW5zZm9ybT0icm90YXRlKC00NSwtMzguNDU3ODUsMS4zNjk0NjMpIj4mI3hhOwkJCTx0aXRsZSBpZD0idGl0bGUxNTAxNjQiPlNoZWV0LjQxNjwvdGl0bGU+JiN4YTsJCQk8Y2lyY2xlIGlkPSJlbGxpcHNlMTUwMTY2IiBzdHlsZT0iZmlsbDojQzlEQTJBOyIgY3g9IjUuNjgiIGN5PSI4Ni4wMyIgcj0iNS42OCIvPiYjeGE7CQk8L2c+JiN4YTsJCTxnIGlkPSJzaGFwZTQxNy02MCIgdHJhbnNmb3JtPSJyb3RhdGUoLTQ0Ljk5NTksLTQwLjIwNDM3MywxNC4yOTA0NDMpIj4mI3hhOwkJCTx0aXRsZSBpZD0idGl0bGUxNTAxNjkiPlNoZWV0LjQxNzwvdGl0bGU+JiN4YTsJCQkmI3hhOwkJCQk8cmVjdCBpZD0icmVjdDE1MDE3MSIgeD0iMCIgeT0iOTAuNSIgdHJhbnNmb3JtPSJtYXRyaXgoLTEgMi4zODc2NDVlLTA2IC0yLjM4NzY0NWUtMDYgLTEgMjguNjA5NSAxODIuMjEyNCkiIHN0eWxlPSJmaWxsOiMwMDkyNDU7IiB3aWR0aD0iMjguNjEiIGhlaWdodD0iMS4yMiIvPiYjeGE7CQk8L2c+JiN4YTsJCTxnIGlkPSJzaGFwZTQxOC02MiIgdHJhbnNmb3JtPSJ0cmFuc2xhdGUoMjkuNzU2NiwtNjIuNDgxMikiPiYjeGE7CQkJPHRpdGxlIGlkPSJ0aXRsZTE1MDE3NCI+U2hlZXQuNDE4PC90aXRsZT4mI3hhOwkJCTxwYXRoIGlkPSJwYXRoMTUwMTc2IiBpbmtzY2FwZTpjb25uZWN0b3ItY3VydmF0dXJlPSIwIiBzdHlsZT0iZmlsbDojMjJCNTczOyIgZD0iTTAsNzcuMzFsNy43MS03LjcxbDE0LjM0LDEyLjExbC05Ljk0LDEwICAgICBMMCw3Ny4zMXoiLz4mI3hhOwkJPC9nPiYjeGE7CQk8ZyBpZD0ic2hhcGU0MTktNjQiIHRyYW5zZm9ybT0idHJhbnNsYXRlKDM3LjYwMTUsLTUxLjk5ODgpIj4mI3hhOwkJCTx0aXRsZSBpZD0idGl0bGUxNTAxNzkiPlNoZWV0LjQxOTwvdGl0bGU+JiN4YTsJCQk8cGF0aCBpZD0icGF0aDE1MDE4MSIgaW5rc2NhcGU6Y29ubmVjdG9yLWN1cnZhdHVyZT0iMCIgc3R5bGU9ImZpbGw6IzIyQjU3MzsiIGQ9Ik0yNC42OCw3MS41Nkw0LjQ2LDkxLjcxTDAsNzQuOTRsNy44NC03LjkxICAgICBMMjQuNjgsNzEuNTZ6Ii8+JiN4YTsJCTwvZz4mI3hhOwkJPGcgaWQ9InNoYXBlNDIwLTY2IiB0cmFuc2Zvcm09InRyYW5zbGF0ZSgxNC44NzgzLC02LjY4NzU3KSI+JiN4YTsJCQk8dGl0bGUgaWQ9InRpdGxlMTUwMTg0Ij5TaGVldC40MjA8L3RpdGxlPiYjeGE7CQkJPHBhdGggaWQ9InBhdGgxNTAxODYiIGlua3NjYXBlOmNvbm5lY3Rvci1jdXJ2YXR1cmU9IjAiIHN0eWxlPSJmaWxsOiMyMkI1NzM7IiBkPSJNMjIuMjUsODYuMTdINS41NUMyLjUsODYuMTcsMCw4OC42NywwLDkxLjcxICAgICBoMjcuODZDMjcuODYsODguNzQsMjUuMzYsODYuMTcsMjIuMjUsODYuMTd6Ii8+JiN4YTsJCTwvZz4mI3hhOwkJPGcgaWQ9InNoYXBlNDIxLTY4IiB0cmFuc2Zvcm09InRyYW5zbGF0ZSgxMy44NjUyKSI+JiN4YTsJCQk8dGl0bGUgaWQ9InRpdGxlMTUwMTg5Ij5TaGVldC40MjE8L3RpdGxlPiYjeGE7CQkJPHJlY3QgaWQ9InJlY3QxNTAxOTEiIHg9IjAiIHk9Ijg0LjIxIiBzdHlsZT0iZmlsbDojMDBBRUVGOyIgd2lkdGg9IjEyMC42NCIgaGVpZ2h0PSI3LjUxIi8+JiN4YTsJCTwvZz4mI3hhOwk8L2c+JiN4YTs8L2c+JiN4YTs8L3N2Zz4=;fontSize=15;imageBackground=#FFB570;" vertex="1" parent="1">
          <mxGeometry x="747.2" y="87.22000000000001" width="58.07" height="39" as="geometry" />
        </mxCell>
        <mxCell id="dnq7VN7bOO2wTZYb34gf-107" value="开发团队" style="text;html=1;align=center;verticalAlign=middle;resizable=0;points=[];autosize=1;strokeColor=none;fillColor=none;fontSize=10;" vertex="1" parent="1">
          <mxGeometry x="741.6700000000001" y="134.71" width="58" height="16" as="geometry" />
        </mxCell>
        <mxCell id="dnq7VN7bOO2wTZYb34gf-108" value="测试分析" style="text;html=1;align=center;verticalAlign=middle;resizable=0;points=[];autosize=1;strokeColor=none;fillColor=none;fontSize=10;" vertex="1" parent="1">
          <mxGeometry x="817.74" y="134.58" width="58" height="16" as="geometry" />
        </mxCell>
        <mxCell id="dnq7VN7bOO2wTZYb34gf-109" value="" style="shape=image;verticalLabelPosition=bottom;labelBackgroundColor=#ffffff;verticalAlign=top;aspect=fixed;imageAspect=0;image=data:image/svg+xml,PHN2ZyB4bWxuczpjYz0iaHR0cDovL2NyZWF0aXZlY29tbW9ucy5vcmcvbnMjIiB4bWxuczpkYz0iaHR0cDovL3B1cmwub3JnL2RjL2VsZW1lbnRzLzEuMS8iIHhtbG5zOmlua3NjYXBlPSJodHRwOi8vd3d3Lmlua3NjYXBlLm9yZy9uYW1lc3BhY2VzL2lua3NjYXBlIiB4bWxuczpyZGY9Imh0dHA6Ly93d3cudzMub3JnLzE5OTkvMDIvMjItcmRmLXN5bnRheC1ucyMiIHhtbG5zOnNvZGlwb2RpPSJodHRwOi8vc29kaXBvZGkuc291cmNlZm9yZ2UubmV0L0RURC9zb2RpcG9kaS0wLmR0ZCIgeG1sbnM6c3ZnPSJodHRwOi8vd3d3LnczLm9yZy8yMDAwL3N2ZyIgeG1sbnM9Imh0dHA6Ly93d3cudzMub3JnLzIwMDAvc3ZnIiB4bWxuczp4bGluaz0iaHR0cDovL3d3dy53My5vcmcvMTk5OS94bGluayIgdmVyc2lvbj0iMS4xIiBpZD0ic3ZnMTUwMTk3IiBpbmtzY2FwZTp2ZXJzaW9uPSIwLjkyLjMgKDI0MDU1NDYsIDIwMTgtMDMtMTEpIiBzb2RpcG9kaTpkb2NuYW1lPSJkZXZlbG9wZXJfMS5zdmciIHg9IjBweCIgeT0iMHB4IiB2aWV3Qm94PSIwIDAgMTM0LjQgODkuNzkiIHN0eWxlPSJlbmFibGUtYmFja2dyb3VuZDpuZXcgMCAwIDEzNC40IDg5Ljc5OyIgeG1sOnNwYWNlPSJwcmVzZXJ2ZSI+JiN4YTs8c29kaXBvZGk6bmFtZWR2aWV3IGJvcmRlcmNvbG9yPSIjNjY2NjY2IiBib3JkZXJvcGFjaXR5PSIxIiBmaXQtbWFyZ2luLWJvdHRvbT0iMCIgZml0LW1hcmdpbi1sZWZ0PSIwIiBmaXQtbWFyZ2luLXJpZ2h0PSIwIiBmaXQtbWFyZ2luLXRvcD0iMCIgZ3JpZHRvbGVyYW5jZT0iMTAiIGd1aWRldG9sZXJhbmNlPSIxMCIgaWQ9Im5hbWVkdmlldzE1MDE5OSIgaW5rc2NhcGU6Y3VycmVudC1sYXllcj0ic3ZnMTUwMTk3IiBpbmtzY2FwZTpjeD0iODkuNTk4MzE2IiBpbmtzY2FwZTpjeT0iNTkuMzI5NTMzIiBpbmtzY2FwZTpwYWdlb3BhY2l0eT0iMCIgaW5rc2NhcGU6cGFnZXNoYWRvdz0iMiIgaW5rc2NhcGU6d2luZG93LWhlaWdodD0iMTAxNyIgaW5rc2NhcGU6d2luZG93LW1heGltaXplZD0iMSIgaW5rc2NhcGU6d2luZG93LXdpZHRoPSIxOTIwIiBpbmtzY2FwZTp3aW5kb3cteD0iLTgiIGlua3NjYXBlOndpbmRvdy15PSItOCIgaW5rc2NhcGU6em9vbT0iNy4wODk5NTA1IiBvYmplY3R0b2xlcmFuY2U9IjEwIiBwYWdlY29sb3I9IiNmZmZmZmYiIHNob3dncmlkPSJmYWxzZSI+JiN4YTsJPC9zb2RpcG9kaTpuYW1lZHZpZXc+JiN4YTs8ZyBpZD0iZzE1MDE5NSIgdHJhbnNmb3JtPSJ0cmFuc2xhdGUoLTEuMzYxNDY5MiwtMC41NjgzKSI+JiN4YTsJPHRpdGxlIGlkPSJ0aXRsZTE1MDAyMCI+UGFnZS0xPC90aXRsZT4mI3hhOwk8ZyBpZD0iZ3JvdXAzODctMSIgdHJhbnNmb3JtPSJ0cmFuc2xhdGUoMS4yNTg1NiwtMS4zNikiPiYjeGE7CQk8dGl0bGUgaWQ9InRpdGxlMTUwMDIyIj5EZXZlbG9wZXIgIzE8L3RpdGxlPiYjeGE7CQk8ZyBpZD0ic2hhcGUzODgtMiIgdHJhbnNmb3JtPSJtYXRyaXgoMSwwLDAsLTEsNjEuOTc3NywxMzEuNjkyKSI+JiN4YTsJCQk8dGl0bGUgaWQ9InRpdGxlMTUwMDI0Ij5wYXRoMjA2LTA8L3RpdGxlPiYjeGE7CQkJPHBhdGggaWQ9InBhdGgxNTAwMjYiIGlua3NjYXBlOmNvbm5lY3Rvci1jdXJ2YXR1cmU9IjAiIHN0eWxlPSJmaWxsOiMwMDcxQkM7IiBkPSJNNTIuMiw1MS4zOWMwLTIuNi0zLjIyLTQuNy03LjE5LTQuN0g3LjE5ICAgICBjLTMuOTcsMC03LjE5LDIuMS03LjE5LDQuN3YzNS42MmMwLDIuNiwzLjIyLDQuNyw3LjE5LDQuN2gzNy44MmMzLjk3LDAsNy4xOS0yLjEsNy4xOS00LjdMNTIuMiw1MS4zOXoiLz4mI3hhOwkJPC9nPiYjeGE7CQk8ZyBpZD0ic2hhcGUzODktNCIgdHJhbnNmb3JtPSJ0cmFuc2xhdGUoODMuMjY2MywtMzguMTQxMykiPiYjeGE7CQkJPHRpdGxlIGlkPSJ0aXRsZTE1MDAyOSI+cGF0aDIxMC00PC90aXRsZT4mI3hhOwkJCTxwYXRoIGlkPSJwYXRoMTUwMDMxIiBpbmtzY2FwZTpjb25uZWN0b3ItY3VydmF0dXJlPSIwIiBzdHlsZT0iZmlsbDojRTVFNUU1OyIgZD0iTTkuNjIsOTEuNzFIMHYtNS45Nmg5LjYyVjkxLjcxeiIvPiYjeGE7CQk8L2c+JiN4YTsJCTxnIGlkPSJzaGFwZTM5MC02IiB0cmFuc2Zvcm09Im1hdHJpeCgxLDAsMCwtMSw4Ny44Njg0LDE0MS42KSI+JiN4YTsJCQk8dGl0bGUgaWQ9InRpdGxlMTUwMDM0Ij5wYXRoMjE0LTk8L3RpdGxlPiYjeGE7CQkJPHBhdGggaWQ9InBhdGgxNTAwMzYiIGlua3NjYXBlOmNvbm5lY3Rvci1jdXJ2YXR1cmU9IjAiIHN0eWxlPSJmaWxsOm5vbmU7IiBkPSJNMCw5MS43MXYtMi42OFY5MS43MXoiLz4mI3hhOwkJCSYjeGE7CQkJCTxwYXRoIGlkPSJwYXRoMTUwMDM4IiBpbmtzY2FwZTpjb25uZWN0b3ItY3VydmF0dXJlPSIwIiBzdHlsZT0iZmlsbDpub25lO3N0cm9rZTojQjJCMkIyO3N0cm9rZS13aWR0aDoyLjA2MDY7c3Ryb2tlLW1pdGVybGltaXQ6MzsiIGQ9IiAgICAgTTAsOTEuNzF2LTIuNjgiLz4mI3hhOwkJPC9nPiYjeGE7CQk8ZyBpZD0ic2hhcGUzOTEtOSIgdHJhbnNmb3JtPSJtYXRyaXgoMSwwLDAsLTEsNDkuMTA0NywxMzcuMzIxKSI+JiN4YTsJCQk8dGl0bGUgaWQ9InRpdGxlMTUwMDQxIj5wYXRoMjE4LTI8L3RpdGxlPiYjeGE7CQkJPHBhdGggaWQ9InBhdGgxNTAwNDMiIGlua3NjYXBlOmNvbm5lY3Rvci1jdXJ2YXR1cmU9IjAiIHN0eWxlPSJmaWxsOiMzOUI1NEE7IiBkPSJNNzMuNCw2MS4wNGMtNC4xMiw4LjI1LTEyLjksMjYuNDgtMTQuNTcsMjcuODggICAgIGMtMS42NiwxLjQtMTAuNDQsMi43OS0xNS40NiwyLjc5YzAsMCwwLjk0LTYuMTgtNC42MS02LjE4Yy01LjU0LDAtNC42LDYuMTgtNC42LDYuMThjLTUuMDIsMC0xMy44LTEuMzktMTUuNDYtMi43OSAgICAgYy0xLjY3LTEuNC0xMC40NS0xOS42My0xNC41OC0yNy44OEMwLDUyLjc5LDUuMjYsNTIuMTksNS4yNiw1Mi4xOWgxNC40M3Y2LjkyYy0yLjEzLDAuNzMtNi43MiwxLjYtNi43MiwxLjYgICAgIGMxLjQsMy4zOSw5LjUyLDE4Ljg5LDkuNTIsMTguODlsMC44Ni0yNi42OGgxNS40MWgxNS40MWwwLjg3LDI2LjY4YzAsMCw4LjEyLTE1LjUsOS41MS0xOC44OWMwLDAtNC41OS0wLjg3LTYuNzItMS42di02LjkyICAgICBoMTQuNDRDNzIuMjcsNTIuMTksNzcuNTMsNTIuNzksNzMuNCw2MS4wNHoiLz4mI3hhOwkJPC9nPiYjeGE7CQk8ZyBpZD0ic2hhcGUzOTItMTEiIHRyYW5zZm9ybT0ibWF0cml4KDEsMCwwLC0xLDgzLjI2NjMsMTI4LjA5MykiPiYjeGE7CQkJPHRpdGxlIGlkPSJ0aXRsZTE1MDA0NiI+cGF0aDIyMi03PC90aXRsZT4mI3hhOwkJCTxwYXRoIGlkPSJwYXRoMTUwMDQ4IiBpbmtzY2FwZTpjb25uZWN0b3ItY3VydmF0dXJlPSIwIiBzdHlsZT0iZmlsbDojRkZEQUEyOyIgZD0iTTkuMiw4MC41NmMwLDAtMC42NS0yLjM1LTQuNi0yLjM1ICAgICBTMCw4MC41NiwwLDgwLjU2djExLjE1aDkuMlY4MC41NnoiLz4mI3hhOwkJPC9nPiYjeGE7CQk8ZyBpZD0ic2hhcGUzOTMtMTMiIHRyYW5zZm9ybT0ibWF0cml4KDEsMCwwLC0xLDc1LjExOTgsMTA1LjIwOCkiPiYjeGE7CQkJPHRpdGxlIGlkPSJ0aXRsZTE1MDA1MSI+cGF0aDIyNi05PC90aXRsZT4mI3hhOwkJCTxwYXRoIGlkPSJwYXRoMTUwMDUzIiBpbmtzY2FwZTpjb25uZWN0b3ItY3VydmF0dXJlPSIwIiBzdHlsZT0iZmlsbDojRkZEQUEyOyIgZD0iTTEyLjc1LDg4LjI4Yy04LjgxLDMuNDMtMTIuNzUsMC0xMi43NSwwICAgICBzMC42OC0xMi4xMSwxLTE0LjU2YzAuNzUtNS44Miw4LjMxLTkuNjksMTEuNzUtOS42OXMxMSwzLjg3LDExLjc1LDkuNjljMC4zMSwyLjQ1LDEsMTQuNTYsMSwxNC41NlMyMS41Niw5MS43MSwxMi43NSw4OC4yOHoiLz4mI3hhOwkJPC9nPiYjeGE7CQk8ZyBpZD0ic2hhcGUzOTQtMTUiIHRyYW5zZm9ybT0ibWF0cml4KDEsMCwwLC0xLDcwLjc0NTEsMTEzLjE5MSkiPiYjeGE7CQkJPHRpdGxlIGlkPSJ0aXRsZTE1MDA1NiI+cGF0aDIzMC01PC90aXRsZT4mI3hhOwkJCTxwYXRoIGlkPSJwYXRoMTUwMDU4IiBpbmtzY2FwZTpjb25uZWN0b3ItY3VydmF0dXJlPSIwIiBzdHlsZT0iZmlsbDojRjdEMTk3OyIgZD0iTTQuNzgsODkuNWMwLDAtMi4yNCwyLjIxLTMuMDMsMC44OSAgICAgQzAsODcuNDUsMy4wNiw4Ni4zNSwzLjI3LDgzLjU3YzAuMTQtMS45OCwxLjQ4LTEuOTcsMi4wMS0wLjk4QzUuODEsODMuNTcsNS41OSw4OC44Myw0Ljc4LDg5LjV6Ii8+JiN4YTsJCTwvZz4mI3hhOwkJPGcgaWQ9InNoYXBlMzk1LTE3IiB0cmFuc2Zvcm09Im1hdHJpeCgxLDAsMCwtMSw5OS4xNzk1LDExMy4xOTEpIj4mI3hhOwkJCTx0aXRsZSBpZD0idGl0bGUxNTAwNjEiPnBhdGgyMzQtMDwvdGl0bGU+JiN4YTsJCQk8cGF0aCBpZD0icGF0aDE1MDA2MyIgaW5rc2NhcGU6Y29ubmVjdG9yLWN1cnZhdHVyZT0iMCIgc3R5bGU9ImZpbGw6I0Y3RDE5NzsiIGQ9Ik0xLjAzLDg5LjVjMCwwLDIuMjQsMi4yMSwzLjAzLDAuODkgICAgIGMxLjc1LTIuOTQtMS4zMS00LjA0LTEuNTEtNi44MmMtMC4xNS0xLjk4LTEuNDktMS45Ny0yLjAyLTAuOThDMCw4My41NywwLjIyLDg4LjgzLDEuMDMsODkuNXoiLz4mI3hhOwkJPC9nPiYjeGE7CQk8ZyBpZD0ic2hhcGUzOTYtMTkiIHRyYW5zZm9ybT0ibWF0cml4KDEsMCwwLC0xLDc0Ljg3NzcsMTE5LjE4OCkiPiYjeGE7CQkJPHRpdGxlIGlkPSJ0aXRsZTE1MDA2NiI+cGF0aDIzOC04PC90aXRsZT4mI3hhOwkJCTxwYXRoIGlkPSJwYXRoMTUwMDY4IiBpbmtzY2FwZTpjb25uZWN0b3ItY3VydmF0dXJlPSIwIiBkPSJNMTIuOTksODIuMzhjLTIuNjQsMC00LDAuNzQtNCwxLjg0czEuNjEsMC40NSw0LDAuNDVzNCwwLjY1LDQtMC40NSAgICAgUzE1LjYzLDgyLjM4LDEyLjk5LDgyLjM4eiBNMjUuMjcsOTEuNzFoLTAuNDljMCwwLDAuNjMtNS4xNC0xMS43OS01LjE0UzEuMjEsOTEuNzEsMS4yMSw5MS43MWgtMC41YzAsMC0wLjcxLTUuODEsMS42NC05LjEzICAgICBjMy4yNS00LjU3LDEwLjY0LTQuNTcsMTAuNjQtNC41N3M3LjM5LDAsMTAuNjQsNC41N0MyNS45OCw4NS45LDI1LjI3LDkxLjcxLDI1LjI3LDkxLjcxeiIvPiYjeGE7CQk8L2c+JiN4YTsJCTxnIGlkPSJzaGFwZTM5Ny0yMSIgdHJhbnNmb3JtPSJtYXRyaXgoMSwwLDAsLTEsNjcuMzUxMSw5My42MzgzKSI+JiN4YTsJCQk8dGl0bGUgaWQ9InRpdGxlMTUwMDcxIj5wYXRoMjQyLTE8L3RpdGxlPiYjeGE7CQkJPHBhdGggaWQ9InBhdGgxNTAwNzMiIGlua3NjYXBlOmNvbm5lY3Rvci1jdXJ2YXR1cmU9IjAiIGQ9Ik0zMi44LDY2LjE3YzAsMC0wLjUyLDMuNjcsMS4yNSw0LjdjMCwwLDMuMTMsMTAuNDIsMC40MywxMy4xNiAgICAgYy0yLjY5LDIuNzQtNi41NCw0LjQ5LTkuNzgsNC44NHMtNi44NCwxLTguNTMsMi44NGMwLDAsMC44NS0yLjM0LDEuOTktMi40OWMwLDAtNy41My0xLjM1LTEyLjM3LDAuM2MwLDAsMS4zNS0zLjY0LDQuMzktNC4yOSAgICAgYzAsMC02LjM5LTEuNS0xMC4xOC0wLjI1YzAsMCwzLjAxLTYuMTYsNy43Ny04LjI3YzAsMCwzLjYxLDEuNjMsNS4zNSwwLjkzYzAsMCwwLjM1LTEtMS4xOS0xLjY0YzAsMCw0LjI0LDAuMTUsNi4wOCwxLjA0ICAgICBjMCwwLDAuMTUtMC42OSwwLjA1LTEuMzRjMCwwLDQuODQsMS4wNyw3LjM0LDIuMzVjMCwwLDIuMDktMS41NiwxLjQtMi4yYzAsMCw1LjA0LTAuMiw2LjEsMC42OSAgICAgQzMyLjksNzYuNTQsMzIuMzIsNjcuNTEsMzIuOCw2Ni4xN3oiLz4mI3hhOwkJPC9nPiYjeGE7CQk8ZyBpZD0ic2hhcGUzOTgtMjMiIHRyYW5zZm9ybT0ibWF0cml4KDEsMCwwLC0xLDcyLjM5MDksMTA2LjQxMykiPiYjeGE7CQkJPHRpdGxlIGlkPSJ0aXRsZTE1MDA3NiI+cGF0aDI0NjwvdGl0bGU+JiN4YTsJCQk8cGF0aCBpZD0icGF0aDE1MDA3OCIgaW5rc2NhcGU6Y29ubmVjdG9yLWN1cnZhdHVyZT0iMCIgZD0iTTMuMTksNzguOTRjMCwwLDAuMTksNC4xMS0yLjAzLDUuMDVjMCwwLTEuMTYsNi4zMy0wLjU2LDcuNzIgICAgIGwyLjQ5LTIuMDdjMCwwLDAuNjktOC45NSwwLjM1LTEwLjdMMy4xOSw3OC45NHoiLz4mI3hhOwkJPC9nPiYjeGE7CQk8ZyBpZD0ic2hhcGUzOTktMjUiIHRyYW5zZm9ybT0ibWF0cml4KDEsMCwwLC0xLDgxLjU0MjEsMTM3LjMyMSkiPiYjeGE7CQkJPHRpdGxlIGlkPSJ0aXRsZTE1MDA4MSI+cGF0aDI1MDwvdGl0bGU+JiN4YTsJCQk8cGF0aCBpZD0icGF0aDE1MDA4MyIgaW5rc2NhcGU6Y29ubmVjdG9yLWN1cnZhdHVyZT0iMCIgc3R5bGU9ImZpbGw6I0YxRjFGMTsiIGQ9Ik02LjMzLDg3LjQzYzAsMC0zLjg1LTAuMDEtNS4wNS0yLjY4ICAgICBjMCwwLTEuMjgsNC44OSwwLjQ0LDYuOTZDMS43Miw5MS43MSwyLjE5LDg3Ljc3LDYuMzMsODcuNDN6Ii8+JiN4YTsJCTwvZz4mI3hhOwkJPGcgaWQ9InNoYXBlNDAwLTI3IiB0cmFuc2Zvcm09Im1hdHJpeCgxLDAsMCwtMSw4Ny44Njg0LDEzNy4zMjEpIj4mI3hhOwkJCTx0aXRsZSBpZD0idGl0bGUxNTAwODYiPnBhdGgyNTQ8L3RpdGxlPiYjeGE7CQkJPHBhdGggaWQ9InBhdGgxNTAwODgiIGlua3NjYXBlOmNvbm5lY3Rvci1jdXJ2YXR1cmU9IjAiIHN0eWxlPSJmaWxsOiNGMUYxRjE7IiBkPSJNMCw4Ny40M2MwLDAsMy44NS0wLjAxLDUuMDUtMi42OCAgICAgYzAsMCwxLjI4LDQuODktMC40NSw2Ljk2QzQuNiw5MS43MSw0LjEzLDg3Ljc3LDAsODcuNDN6Ii8+JiN4YTsJCTwvZz4mI3hhOwkJPGcgaWQ9InNoYXBlNDAxLTI5IiB0cmFuc2Zvcm09Im1hdHJpeCgxLDAsMCwtMSw2Ni4wMDM5LDE1NC43OTEpIj4mI3hhOwkJCTx0aXRsZSBpZD0idGl0bGUxNTAwOTEiPnBhdGgyOTg8L3RpdGxlPiYjeGE7CQkJPHBhdGggaWQ9InBhdGgxNTAwOTMiIGlua3NjYXBlOmNvbm5lY3Rvci1jdXJ2YXR1cmU9IjAiIHN0eWxlPSJmaWxsOiNDQkNCQ0I7IiBkPSJNNDMuMzMsOTAuOTJjLTAuNCwwLjY2LTEuNzMsMC43OS0xLjczLDAuNzkgICAgIEgyMS44NkgyLjEzYzAsMC0xLjMzLTAuMTMtMS43My0wLjc5QzAsOTAuMjUsMC44LDY5LjA5LDAuOCw2OS4wOWgyMS4wNmgyMS4wN0M0Mi45Myw2OS4wOSw0My43Myw5MC4yNSw0My4zMyw5MC45MnoiLz4mI3hhOwkJPC9nPiYjeGE7CQk8ZyBpZD0ic2hhcGU0MDItMzEiIHRyYW5zZm9ybT0ibWF0cml4KDEsMCwwLC0xLDY2LjAwMzksMTU1LjE4MikiPiYjeGE7CQkJPHRpdGxlIGlkPSJ0aXRsZTE1MDA5NiI+cGF0aDMwMjwvdGl0bGU+JiN4YTsJCQk8cGF0aCBpZD0icGF0aDE1MDA5OCIgaW5rc2NhcGU6Y29ubmVjdG9yLWN1cnZhdHVyZT0iMCIgc3R5bGU9ImZpbGw6I0U1RTVFNTsiIGQ9Ik00My4zMyw5MC45MmMtMC40LDAuNjYtMS43MywwLjc5LTEuNzMsMC43OSAgICAgSDIxLjg2SDIuMTNjMCwwLTEuMzMtMC4xMy0xLjczLTAuNzlDMCw5MC4yNSwwLjgsNjkuMDksMC44LDY5LjA5aDIxLjA2aDIxLjA3QzQyLjkzLDY5LjA5LDQzLjczLDkwLjI1LDQzLjMzLDkwLjkyeiIvPiYjeGE7CQk8L2c+JiN4YTsJCTxnIGlkPSJncm91cDQwMy0zMyIgdHJhbnNmb3JtPSJ0cmFuc2xhdGUoODMuODE5MSwtMTIuODg5KSI+JiN4YTsJCQk8dGl0bGUgaWQ9InRpdGxlMTUwMTAxIj5NaWNyb3NvZnQ8L3RpdGxlPiYjeGE7CQkJPGcgaWQ9InNoYXBlNDA0LTM0IiB0cmFuc2Zvcm09InRyYW5zbGF0ZSgwLC00LjI2NTMpIj4mI3hhOwkJCQk8dGl0bGUgaWQ9InRpdGxlMTUwMTAzIj5IVFRQIEFQSSBBcHA8L3RpdGxlPiYjeGE7CQkJCTxwYXRoIGlkPSJwYXRoMTUwMTA1IiBpbmtzY2FwZTpjb25uZWN0b3ItY3VydmF0dXJlPSIwIiBzdHlsZT0iZmlsbDojRjI1MDIyOyIgZD0iTTAsODcuODl2My44MmgzLjg0di0zLjgySDB6Ii8+JiN4YTsJCQk8L2c+JiN4YTsJCQk8ZyBpZD0ic2hhcGU0MDUtMzYiIHRyYW5zZm9ybT0idHJhbnNsYXRlKDQuMjYyOCwtNC4yNjUzKSI+JiN4YTsJCQkJPHRpdGxlIGlkPSJ0aXRsZTE1MDEwOCI+SFRUUCBBUEkgQXBwLjE0NjE8L3RpdGxlPiYjeGE7CQkJCTxwYXRoIGlkPSJwYXRoMTUwMTEwIiBpbmtzY2FwZTpjb25uZWN0b3ItY3VydmF0dXJlPSIwIiBzdHlsZT0iZmlsbDojN0ZCQTAwOyIgZD0iTTAsODcuODl2My44MmgzLjg0di0zLjgySDB6Ii8+JiN4YTsJCQk8L2c+JiN4YTsJCQk8ZyBpZD0ic2hhcGU0MDYtMzgiIHRyYW5zZm9ybT0idHJhbnNsYXRlKDQuMjYyOCkiPiYjeGE7CQkJCTx0aXRsZSBpZD0idGl0bGUxNTAxMTMiPkhUVFAgQVBJIEFwcC4xNDYyPC90aXRsZT4mI3hhOwkJCQk8cGF0aCBpZD0icGF0aDE1MDExNSIgaW5rc2NhcGU6Y29ubmVjdG9yLWN1cnZhdHVyZT0iMCIgc3R5bGU9ImZpbGw6I0ZGQjkwMDsiIGQ9Ik0wLDg3Ljg5djMuODJoMy44NHYtMy44MkgweiIvPiYjeGE7CQkJPC9nPiYjeGE7CQkJPGcgaWQ9InNoYXBlNDA3LTQwIj4mI3hhOwkJCQk8dGl0bGUgaWQ9InRpdGxlMTUwMTE4Ij5IVFRQIEFQSSBBcHAuMTQ2MzwvdGl0bGU+JiN4YTsJCQkJPHBhdGggaWQ9InBhdGgxNTAxMjAiIGlua3NjYXBlOmNvbm5lY3Rvci1jdXJ2YXR1cmU9IjAiIHN0eWxlPSJmaWxsOiMwMEE0RUY7IiBkPSJNMCw4Ny44OXYzLjgyaDMuODR2LTMuODJIMHoiLz4mI3hhOwkJCTwvZz4mI3hhOwkJPC9nPiYjeGE7CQk8ZyBpZD0ic2hhcGU0MDgtNDIiIHRyYW5zZm9ybT0idHJhbnNsYXRlKDc1LjExOTgsLTUxLjU2NzIpIj4mI3hhOwkJCTx0aXRsZSBpZD0idGl0bGUxNTAxMjQiPnBhdGg3OTU8L3RpdGxlPiYjeGE7CQkJPHBhdGggaWQ9InBhdGgxNTAxMjYiIGlua3NjYXBlOmNvbm5lY3Rvci1jdXJ2YXR1cmU9IjAiIGQ9Ik0xMy43Niw5MC40OWgtMi4wM2wwLjUxLDAuOTRsMC41LDAuMjd2MC4wMWgwLjAxbDAsMFY5MS43bDAuNS0wLjI3ICAgICBMMTMuNzYsOTAuNDl6IE0yNS41LDczLjY1bC0xLjc5LDAuMjNsLTAuMi0wLjA3bC0yLjQ0LTAuNDhoLTQuMDNsLTMuNzIsMC42aC0xLjE4bC0zLjcyLTAuNkg0LjRsLTIuNDMsMC40OGwtMC4xOSwwLjA3TDAsNzMuNjUgICAgIHYwLjcybDAuOTYsMC4xM2wwLjczLDMuMzhsMC42MywwLjYzbDEuOTIsMC40N2gzLjI1bDIuODQtMC42NGwxLjQ3LTIuMzVsMC41OS0wLjY3aDAuNjdsMC41OSwwLjY3bDEuNDcsMi4zNWwyLjg0LDAuNjRoMy4yNSAgICAgbDEuOTItMC40N2wwLjYzLTAuNjNsMC43My0zLjM4bDAuOTYtMC4xM0wyNS41LDczLjY1eiBNMTAuNzgsNzUuNDdsLTAuOCwyLjI2bC0yLjY3LDAuNThINC4xOGwtMS40Mi0wLjM3bC0wLjUyLTAuNDVsLTAuMzktMi41ICAgICBsMC40My0wLjUybDIuMDktMC40aDMuOTlsMi40NCwwLjM3TDEwLjc4LDc1LjQ3eiBNMjMuMjUsNzcuNDlsLTAuNTIsMC40NWwtMS40MiwwLjM2aC0zLjE0bC0yLjY2LTAuNTdsLTAuODEtMi4yNXYtMS4wNSAgICAgbDIuNDQtMC4zN2gzLjk4bDIuMDksMC40bDAuNDMsMC41MkwyMy4yNSw3Ny40OXoiLz4mI3hhOwkJPC9nPiYjeGE7CQk8ZyBpZD0ic2hhcGU0MDktNDQiIHRyYW5zZm9ybT0idHJhbnNsYXRlKDAuMDY3NjI4NywtNy4wMjU3MSkiPiYjeGE7CQkJPHRpdGxlIGlkPSJ0aXRsZTE1MDEyOSI+U2hlZXQuNDA5PC90aXRsZT4mI3hhOwkJCTxwYXRoIGlkPSJwYXRoMTUwMTMxIiBpbmtzY2FwZTpjb25uZWN0b3ItY3VydmF0dXJlPSIwIiBzdHlsZT0iZmlsbDojMDA5MjQ1OyIgZD0iTTI4LjY3LDkxLjcxYy0wLjI3LDAtMC41NC0wLjEzLTAuNzQtMC4zMyAgICAgTDAuNDEsNjMuODVjLTAuNDEtMC40LTAuNDEtMS4wOCwwLTEuNDljMC40LTAuNCwxLjA4LTAuNCwxLjQ4LDBsMjcuNTMsMjcuNTNjMC40LDAuNCwwLjQsMS4wOCwwLDEuNDkgICAgIEMyOS4xNSw5MS41MSwyOC44OCw5MS43MSwyOC42Nyw5MS43MXoiLz4mI3hhOwkJPC9nPiYjeGE7CQk8ZyBpZD0ic2hhcGU0MTAtNDYiIHRyYW5zZm9ybT0idHJhbnNsYXRlKDMuOTIyNDYsLTExLjAxNTgpIj4mI3hhOwkJCTx0aXRsZSBpZD0idGl0bGUxNTAxMzQiPlNoZWV0LjQxMDwvdGl0bGU+JiN4YTsJCQk8cGF0aCBpZD0icGF0aDE1MDEzNiIgaW5rc2NhcGU6Y29ubmVjdG9yLWN1cnZhdHVyZT0iMCIgc3R5bGU9ImZpbGw6IzAwOTI0NTsiIGQ9Ik0yOC43NCw5MS43MWMtMC4yNywwLTAuNTQtMC4xMy0wLjc0LTAuMzMgICAgIEwwLjQxLDYzLjkyQzAsNjMuNTEsMCw2Mi44NCwwLjQxLDYyLjQzYzAuNC0wLjQsMS4wOC0wLjQsMS40OCwwbDI3LjYsMjcuNTNjMC40LDAuNCwwLjQsMS4wOCwwLDEuNDggICAgIEMyOS4yOCw5MS42NSwyOS4wMSw5MS43MSwyOC43NCw5MS43MXoiLz4mI3hhOwkJPC9nPiYjeGE7CQk8ZyBpZD0ic2hhcGU0MTEtNDgiIHRyYW5zZm9ybT0idHJhbnNsYXRlKDAsLTM0LjY4NTgpIj4mI3hhOwkJCTx0aXRsZSBpZD0idGl0bGUxNTAxMzkiPlNoZWV0LjQxMTwvdGl0bGU+JiN4YTsJCQk8cGF0aCBpZD0icGF0aDE1MDE0MSIgaW5rc2NhcGU6Y29ubmVjdG9yLWN1cnZhdHVyZT0iMCIgc3R5bGU9ImZpbGw6IzAwOTI0NTsiIGQ9Ik0xLjE1LDkxLjcxYy0wLjI3LDAtMC41NC0wLjEzLTAuNzQtMC4zMyAgICAgQzAsOTAuOTcsMCw5MC4yOSwwLjQxLDg5Ljg5TDI4LDYyLjQzYzAuNC0wLjQsMS4wOC0wLjQsMS40OSwwYzAuNCwwLjQxLDAuNCwxLjA4LDAsMS40OUwxLjk2LDkxLjQ0ICAgICBDMS42OSw5MS43MSwxLjQyLDkxLjcxLDEuMTUsOTEuNzF6Ii8+JiN4YTsJCTwvZz4mI3hhOwkJPGcgaWQ9InNoYXBlNDEyLTUwIiB0cmFuc2Zvcm09InRyYW5zbGF0ZSgzLjkyMjQ2LC0zMC42MjgxKSI+JiN4YTsJCQk8dGl0bGUgaWQ9InRpdGxlMTUwMTQ0Ij5TaGVldC40MTI8L3RpdGxlPiYjeGE7CQkJPHBhdGggaWQ9InBhdGgxNTAxNDYiIGlua3NjYXBlOmNvbm5lY3Rvci1jdXJ2YXR1cmU9IjAiIHN0eWxlPSJmaWxsOiMwMDkyNDU7IiBkPSJNMS4xNSw5MS43MWMtMC4yNywwLTAuNTQtMC4xMy0wLjc0LTAuMzMgICAgIEMwLDkwLjk3LDAsOTAuMjksMC40MSw4OS44OWwyNy41Mi0yNy41M2MwLjQxLTAuNCwxLjA4LTAuNCwxLjQ5LDBjMC40LDAuNDEsMC40LDEuMDksMCwxLjQ5TDEuODksOTEuMzggICAgIEMxLjY5LDkxLjUxLDEuNDIsOTEuNzEsMS4xNSw5MS43MXoiLz4mI3hhOwkJPC9nPiYjeGE7CQk8ZyBpZD0ic2hhcGU0MTMtNTIiIHRyYW5zZm9ybT0idHJhbnNsYXRlKDI3LjcyNzgsLTYyLjE0MzEpIj4mI3hhOwkJCTx0aXRsZSBpZD0idGl0bGUxNTAxNDkiPlNoZWV0LjQxMzwvdGl0bGU+JiN4YTsJCQk8cGF0aCBpZD0icGF0aDE1MDE1MSIgaW5rc2NhcGU6Y29ubmVjdG9yLWN1cnZhdHVyZT0iMCIgc3R5bGU9ImZpbGw6IzAwOTI0NTsiIGQ9Ik00Ljk0LDkxLjcxSDEuMDFDMC40MSw5MS43MSwwLDkxLjI0LDAsOTAuNyAgICAgYzAtMC42MSwwLjQ3LTEuMDEsMS4wMS0xLjAxaDMuOTNjMC42MSwwLDEuMDEsMC40NywxLjAxLDEuMDFDNS45NSw5MS4xNyw1LjQ4LDkxLjcxLDQuOTQsOTEuNzF6Ii8+JiN4YTsJCTwvZz4mI3hhOwkJPGcgaWQ9InNoYXBlNDE0LTU0IiB0cmFuc2Zvcm09InRyYW5zbGF0ZSgzMS42NTAyLC01OC4yODgyKSI+JiN4YTsJCQk8dGl0bGUgaWQ9InRpdGxlMTUwMTU0Ij5TaGVldC40MTQ8L3RpdGxlPiYjeGE7CQkJPHBhdGggaWQ9InBhdGgxNTAxNTYiIGlua3NjYXBlOmNvbm5lY3Rvci1jdXJ2YXR1cmU9IjAiIHN0eWxlPSJmaWxsOiMwMDkyNDU7IiBkPSJNMS4wMSw5MS43MUMwLjQxLDkxLjcxLDAsOTEuMjQsMCw5MC43di0zLjkyICAgICBjMC0wLjYxLDAuNDctMS4wMiwxLjAxLTEuMDJjMC42MSwwLDEuMDIsMC40OCwxLjAyLDEuMDJ2My45MkMyLjAzLDkxLjI0LDEuNTYsOTEuNzEsMS4wMSw5MS43MXoiLz4mI3hhOwkJPC9nPiYjeGE7CQk8ZyBpZD0ic2hhcGU0MTUtNTYiIHRyYW5zZm9ybT0idHJhbnNsYXRlKDMxLjUxNSwtNjIuMTQzMSkiPiYjeGE7CQkJPHRpdGxlIGlkPSJ0aXRsZTE1MDE1OSI+U2hlZXQuNDE1PC90aXRsZT4mI3hhOwkJCTxwYXRoIGlkPSJwYXRoMTUwMTYxIiBpbmtzY2FwZTpjb25uZWN0b3ItY3VydmF0dXJlPSIwIiBzdHlsZT0iZmlsbDojMDA5MjQ1OyIgZD0iTTEuMTUsOTEuNzFjLTAuMjcsMC0wLjU0LTAuMTMtMC43NC0wLjMzICAgICBDMCw5MC45NywwLDkwLjI5LDAuNDEsODkuODlMNi4yOSw4NGMwLjQxLTAuNCwxLjA4LTAuNCwxLjQ5LDBjMC40LDAuNDEsMC40LDEuMDksMCwxLjQ5bC01Ljg5LDUuODkgICAgIEMxLjY5LDkxLjUxLDEuNDIsOTEuNzEsMS4xNSw5MS43MXoiLz4mI3hhOwkJPC9nPiYjeGE7CQk8ZyBpZD0ic2hhcGU0MTYtNTgiIHRyYW5zZm9ybT0icm90YXRlKC00NSwtMzguNDU3ODUsMS4zNjk0NjMpIj4mI3hhOwkJCTx0aXRsZSBpZD0idGl0bGUxNTAxNjQiPlNoZWV0LjQxNjwvdGl0bGU+JiN4YTsJCQk8Y2lyY2xlIGlkPSJlbGxpcHNlMTUwMTY2IiBzdHlsZT0iZmlsbDojQzlEQTJBOyIgY3g9IjUuNjgiIGN5PSI4Ni4wMyIgcj0iNS42OCIvPiYjeGE7CQk8L2c+JiN4YTsJCTxnIGlkPSJzaGFwZTQxNy02MCIgdHJhbnNmb3JtPSJyb3RhdGUoLTQ0Ljk5NTksLTQwLjIwNDM3MywxNC4yOTA0NDMpIj4mI3hhOwkJCTx0aXRsZSBpZD0idGl0bGUxNTAxNjkiPlNoZWV0LjQxNzwvdGl0bGU+JiN4YTsJCQkmI3hhOwkJCQk8cmVjdCBpZD0icmVjdDE1MDE3MSIgeD0iMCIgeT0iOTAuNSIgdHJhbnNmb3JtPSJtYXRyaXgoLTEgMi4zODc2NDVlLTA2IC0yLjM4NzY0NWUtMDYgLTEgMjguNjA5NSAxODIuMjEyNCkiIHN0eWxlPSJmaWxsOiMwMDkyNDU7IiB3aWR0aD0iMjguNjEiIGhlaWdodD0iMS4yMiIvPiYjeGE7CQk8L2c+JiN4YTsJCTxnIGlkPSJzaGFwZTQxOC02MiIgdHJhbnNmb3JtPSJ0cmFuc2xhdGUoMjkuNzU2NiwtNjIuNDgxMikiPiYjeGE7CQkJPHRpdGxlIGlkPSJ0aXRsZTE1MDE3NCI+U2hlZXQuNDE4PC90aXRsZT4mI3hhOwkJCTxwYXRoIGlkPSJwYXRoMTUwMTc2IiBpbmtzY2FwZTpjb25uZWN0b3ItY3VydmF0dXJlPSIwIiBzdHlsZT0iZmlsbDojMjJCNTczOyIgZD0iTTAsNzcuMzFsNy43MS03LjcxbDE0LjM0LDEyLjExbC05Ljk0LDEwICAgICBMMCw3Ny4zMXoiLz4mI3hhOwkJPC9nPiYjeGE7CQk8ZyBpZD0ic2hhcGU0MTktNjQiIHRyYW5zZm9ybT0idHJhbnNsYXRlKDM3LjYwMTUsLTUxLjk5ODgpIj4mI3hhOwkJCTx0aXRsZSBpZD0idGl0bGUxNTAxNzkiPlNoZWV0LjQxOTwvdGl0bGU+JiN4YTsJCQk8cGF0aCBpZD0icGF0aDE1MDE4MSIgaW5rc2NhcGU6Y29ubmVjdG9yLWN1cnZhdHVyZT0iMCIgc3R5bGU9ImZpbGw6IzIyQjU3MzsiIGQ9Ik0yNC42OCw3MS41Nkw0LjQ2LDkxLjcxTDAsNzQuOTRsNy44NC03LjkxICAgICBMMjQuNjgsNzEuNTZ6Ii8+JiN4YTsJCTwvZz4mI3hhOwkJPGcgaWQ9InNoYXBlNDIwLTY2IiB0cmFuc2Zvcm09InRyYW5zbGF0ZSgxNC44NzgzLC02LjY4NzU3KSI+JiN4YTsJCQk8dGl0bGUgaWQ9InRpdGxlMTUwMTg0Ij5TaGVldC40MjA8L3RpdGxlPiYjeGE7CQkJPHBhdGggaWQ9InBhdGgxNTAxODYiIGlua3NjYXBlOmNvbm5lY3Rvci1jdXJ2YXR1cmU9IjAiIHN0eWxlPSJmaWxsOiMyMkI1NzM7IiBkPSJNMjIuMjUsODYuMTdINS41NUMyLjUsODYuMTcsMCw4OC42NywwLDkxLjcxICAgICBoMjcuODZDMjcuODYsODguNzQsMjUuMzYsODYuMTcsMjIuMjUsODYuMTd6Ii8+JiN4YTsJCTwvZz4mI3hhOwkJPGcgaWQ9InNoYXBlNDIxLTY4IiB0cmFuc2Zvcm09InRyYW5zbGF0ZSgxMy44NjUyKSI+JiN4YTsJCQk8dGl0bGUgaWQ9InRpdGxlMTUwMTg5Ij5TaGVldC40MjE8L3RpdGxlPiYjeGE7CQkJPHJlY3QgaWQ9InJlY3QxNTAxOTEiIHg9IjAiIHk9Ijg0LjIxIiBzdHlsZT0iZmlsbDojMDBBRUVGOyIgd2lkdGg9IjEyMC42NCIgaGVpZ2h0PSI3LjUxIi8+JiN4YTsJCTwvZz4mI3hhOwk8L2c+JiN4YTs8L2c+JiN4YTs8L3N2Zz4=;fontSize=15;imageBackground=#E6FFCC;" vertex="1" parent="1">
          <mxGeometry x="821.2699999999999" y="84.51" width="58.07" height="39" as="geometry" />
        </mxCell>
        <mxCell id="dnq7VN7bOO2wTZYb34gf-112" value="&lt;font style=&quot;font-size: 25px;&quot;&gt;流程&lt;/font&gt;" style="text;html=1;align=center;verticalAlign=middle;resizable=0;points=[];autosize=1;strokeColor=none;fillColor=none;" vertex="1" parent="1">
          <mxGeometry x="217" y="233" width="60" height="23" as="geometry" />
        </mxCell>
        <mxCell id="dnq7VN7bOO2wTZYb34gf-113" value="" style="html=1;shadow=0;dashed=0;align=center;verticalAlign=middle;shape=mxgraph.arrows2.arrow;dy=0.53;dx=38;notch=15;fontFamily=Helvetica;fontSize=10;strokeColor=none;fillColor=#dae8fc;" vertex="1" parent="1">
          <mxGeometry x="286" y="229" width="69" height="31" as="geometry" />
        </mxCell>
        <mxCell id="dnq7VN7bOO2wTZYb34gf-115" value="&lt;font color=&quot;#000000&quot;&gt;过程数据采集&lt;/font&gt;" style="rounded=1;whiteSpace=wrap;html=1;fontFamily=Helvetica;fontSize=10;fillColor=#d5e8d4;strokeColor=none;" vertex="1" parent="1">
          <mxGeometry x="369" y="344" width="231" height="47" as="geometry" />
        </mxCell>
        <mxCell id="dnq7VN7bOO2wTZYb34gf-116" value="&lt;font color=&quot;#000000&quot;&gt;数据度量&lt;/font&gt;" style="rounded=1;whiteSpace=wrap;html=1;fontFamily=Helvetica;fontSize=10;fillColor=#d5e8d4;strokeColor=none;" vertex="1" parent="1">
          <mxGeometry x="628.74" y="344" width="247" height="47" as="geometry" />
        </mxCell>
        <mxCell id="dnq7VN7bOO2wTZYb34gf-117" value="&lt;font color=&quot;#000000&quot;&gt;数据分析&lt;/font&gt;" style="rounded=1;whiteSpace=wrap;html=1;fontFamily=Helvetica;fontSize=10;strokeColor=#82b366;fillColor=#d5e8d4;" vertex="1" parent="1">
          <mxGeometry x="910" y="344" width="230.25" height="47" as="geometry" />
        </mxCell>
        <mxCell id="dnq7VN7bOO2wTZYb34gf-118" value="&lt;font color=&quot;#000000&quot;&gt;过程改进&lt;/font&gt;" style="rounded=1;whiteSpace=wrap;html=1;fontFamily=Helvetica;fontSize=10;strokeColor=#82b366;fillColor=#d5e8d4;" vertex="1" parent="1">
          <mxGeometry x="1179" y="344" width="252" height="47" as="geometry" />
        </mxCell>
        <mxCell id="dnq7VN7bOO2wTZYb34gf-119" value="&lt;font style=&quot;font-size: 25px;&quot;&gt;能效&lt;/font&gt;" style="text;html=1;align=center;verticalAlign=middle;resizable=0;points=[];autosize=1;strokeColor=none;fillColor=none;" vertex="1" parent="1">
          <mxGeometry x="217" y="395" width="60" height="23" as="geometry" />
        </mxCell>
        <mxCell id="dnq7VN7bOO2wTZYb34gf-120" value="" style="html=1;shadow=0;dashed=0;align=center;verticalAlign=middle;shape=mxgraph.arrows2.arrow;dy=0.53;dx=38;notch=15;fontFamily=Helvetica;fontSize=10;strokeColor=none;fillColor=#dae8fc;" vertex="1" parent="1">
          <mxGeometry x="286" y="391" width="69" height="31" as="geometry" />
        </mxCell>
        <mxCell id="dnq7VN7bOO2wTZYb34gf-121" value="&lt;font color=&quot;#000000&quot;&gt;需求评审/流转规范&lt;/font&gt;" style="rounded=1;whiteSpace=wrap;html=1;fontFamily=Helvetica;fontSize=10;fillColor=#fff2cc;strokeColor=#d6b656;" vertex="1" parent="1">
          <mxGeometry x="370" y="411" width="157" height="47" as="geometry" />
        </mxCell>
        <mxCell id="dnq7VN7bOO2wTZYb34gf-122" value="&lt;font color=&quot;#000000&quot;&gt;分支管理规范&lt;/font&gt;" style="rounded=1;whiteSpace=wrap;html=1;fontFamily=Helvetica;fontSize=10;fillColor=#fff2cc;strokeColor=#d6b656;" vertex="1" parent="1">
          <mxGeometry x="550" y="411" width="157" height="47" as="geometry" />
        </mxCell>
        <mxCell id="dnq7VN7bOO2wTZYb34gf-123" value="&lt;font color=&quot;#000000&quot;&gt;版本管理规范&lt;/font&gt;" style="rounded=1;whiteSpace=wrap;html=1;fontFamily=Helvetica;fontSize=10;fillColor=#fff2cc;strokeColor=#d6b656;" vertex="1" parent="1">
          <mxGeometry x="731.5" y="413" width="157" height="47" as="geometry" />
        </mxCell>
        <mxCell id="dnq7VN7bOO2wTZYb34gf-124" value="&lt;font color=&quot;#000000&quot;&gt;开发/测试过程管理规范&lt;/font&gt;" style="rounded=1;whiteSpace=wrap;html=1;fontFamily=Helvetica;fontSize=10;fillColor=#fff2cc;strokeColor=#d6b656;" vertex="1" parent="1">
          <mxGeometry x="912.5" y="413" width="157" height="47" as="geometry" />
        </mxCell>
        <mxCell id="dnq7VN7bOO2wTZYb34gf-125" value="&lt;font color=&quot;#000000&quot;&gt;制品管理规范&lt;/font&gt;" style="rounded=1;whiteSpace=wrap;html=1;fontFamily=Helvetica;fontSize=10;fillColor=#fff2cc;strokeColor=#d6b656;" vertex="1" parent="1">
          <mxGeometry x="1094" y="413" width="157" height="47" as="geometry" />
        </mxCell>
        <mxCell id="dnq7VN7bOO2wTZYb34gf-126" value="&lt;font color=&quot;#000000&quot;&gt;交付与运维规范&lt;/font&gt;" style="rounded=1;whiteSpace=wrap;html=1;fontFamily=Helvetica;fontSize=10;fillColor=#fff2cc;strokeColor=#d6b656;" vertex="1" parent="1">
          <mxGeometry x="1274" y="411" width="157" height="47" as="geometry" />
        </mxCell>
        <mxCell id="dnq7VN7bOO2wTZYb34gf-127" value="" style="endArrow=none;dashed=1;html=1;rounded=0;fontFamily=Helvetica;fontSize=10;fontColor=#000000;curved=1;opacity=50;" edge="1" parent="1">
          <mxGeometry width="50" height="50" relative="1" as="geometry">
            <mxPoint x="219" y="339.5" as="sourcePoint" />
            <mxPoint x="1435" y="334" as="targetPoint" />
          </mxGeometry>
        </mxCell>
        <mxCell id="dnq7VN7bOO2wTZYb34gf-128" value="" style="endArrow=none;dashed=1;html=1;rounded=0;fontFamily=Helvetica;fontSize=10;fontColor=#000000;curved=1;opacity=50;" edge="1" parent="1">
          <mxGeometry width="50" height="50" relative="1" as="geometry">
            <mxPoint x="217" y="161.5" as="sourcePoint" />
            <mxPoint x="1433" y="156" as="targetPoint" />
          </mxGeometry>
        </mxCell>
        <mxCell id="dnq7VN7bOO2wTZYb34gf-132" value="生产环境" style="rounded=1;whiteSpace=wrap;html=1;fontSize=10;fillColor=#1ba1e2;fontColor=#ffffff;strokeColor=none;" vertex="1" parent="1">
          <mxGeometry x="1360" y="296.88" width="76" height="28.25" as="geometry" />
        </mxCell>
      </root>
    </mxGraphModel>
  </diagram>
</mxfile>
